<svg width="44" height="44" viewBox="0 0 44 44" fill="none" xmlns="http://www.w3.org/2000/svg">
<path d="M9.636 0H34.364C39.6859 0 44 4.31406 44 9.636V34.364C44 39.6859 39.6859 44 34.364 44H9.636C4.31406 44 0 39.6859 0 34.364V9.636C0 4.31406 4.31406 0 9.636 0Z" fill="url(#paint0_linear)"/>
<path d="M14.0972 31.9356L14.1013 31.9369L12.5969 34.5426C12.0477 35.4937 10.8316 35.8196 9.88041 35.2705C8.92942 34.7213 8.60337 33.5051 9.15252 32.554L10.2608 30.6345L10.3672 30.4502C10.5571 30.1773 11.0258 29.706 11.9634 29.7947C11.9634 29.7947 14.1697 30.0341 14.3294 31.1809C14.3294 31.1809 14.351 31.5581 14.0972 31.9356ZM35.4343 25.2806H30.7431C30.4236 25.2591 30.2842 25.145 30.2292 25.0786L30.2258 25.0726L25.2041 16.3747L25.1976 16.379L24.8964 15.9472C24.4028 15.1924 23.6191 17.1229 23.6191 17.1229C22.6832 19.274 23.7519 21.7197 24.1244 22.4589L31.0994 34.54C31.6484 35.491 32.8646 35.817 33.8159 35.2677C34.7669 34.7186 35.0929 33.5024 34.5436 32.5512L32.7996 29.5303C32.7657 29.4571 32.7069 29.2584 33.0646 29.2576H35.4343C36.5325 29.2576 37.4229 28.3673 37.4229 27.269C37.4229 26.1707 36.5325 25.2804 35.4343 25.2804V25.2806ZM26.3225 27.9838C26.3225 27.9838 26.5729 29.2576 25.604 29.2576H8.26203C7.16375 29.2576 6.27344 28.3673 6.27344 27.269C6.27344 26.1707 7.16375 25.2804 8.26203 25.2804H12.7205C13.4403 25.2388 13.6108 24.8232 13.6108 24.8232L13.6149 24.8253L19.4346 14.7451L19.4329 14.7448C19.5389 14.5501 19.4506 14.366 19.4353 14.3369L17.5132 11.0079C16.9641 10.0569 17.2899 8.84055 18.2411 8.29158C19.1922 7.74244 20.4084 8.06814 20.9576 9.0193L21.8489 10.5633L22.7387 9.02205C23.2879 8.07107 24.504 7.74502 25.4552 8.29433C26.4064 8.84347 26.7322 10.0595 26.1831 11.0106L18.0847 25.0374C18.0493 25.1228 18.0385 25.2568 18.3019 25.2804H23.1426L23.1437 25.3277C23.1437 25.3277 25.9414 25.3711 26.3225 27.9838Z" fill="white"/>
<defs>
<linearGradient id="paint0_linear" x1="22" y1="0" x2="22" y2="44" gradientUnits="userSpaceOnUse">
<stop stop-color="#17C9FB"/>
<stop offset="1" stop-color="#1A74E8"/>
</linearGradient>
</defs>
</svg>
