<svg width="82" height="88" viewBox="0 0 82 88" fill="none" xmlns="http://www.w3.org/2000/svg">
<path d="M81.3316 22.776V66.0088L40.8865 87.6252L0.441406 66.0088V22.776L40.8865 1.15967L81.3316 22.776Z" fill="white"/>
<path d="M40.7757 88.0001L40.6215 87.9173L0 66.2072V22.5776L0.174123 22.4861L40.7757 0.784668L40.93 0.867523L81.5515 22.5776V66.2072L40.7757 88.0001ZM0.661228 65.8103L40.7757 87.2501L80.8902 65.8103V22.9745L40.7757 1.53472L0.661228 22.9745V65.8103Z" fill="#858585"/>
<path d="M79.3503 23.9508V64.833L40.7787 85.274L2.20703 64.833V23.9508L40.7787 3.50977L79.3503 23.9508Z" fill="#858585"/>
<path d="M79.3503 32.3999H2.20703V56.3844H79.3503V32.3999Z" fill="#17313B"/>
<path d="M75.6008 25.5861V63.1979L40.8864 82.0037L6.17188 63.1979V25.5861L40.8864 6.78027L75.6008 25.5861Z" fill="white" stroke="#17313B" stroke-width="2" stroke-miterlimit="10"/>
<path d="M78.2439 34.5801H3.30469V54.2035H78.2439V34.5801Z" fill="#363636"/>
<path d="M11.6758 56.2754H70.0843" stroke="#17313B" stroke-miterlimit="10"/>
<path d="M11.6758 32.5088H70.0843" stroke="#17313B" stroke-miterlimit="10"/>
<path d="M25.2603 24.0581L26.8873 28.1187L28.5142 24.0581H29.3653V29.0347H28.709V27.0967L28.7706 25.0049L27.1368 29.0347H26.6343L25.004 25.0151L25.0689 27.0967V29.0347H24.4127V24.0581H25.2603ZM34.3521 26.707C34.3521 27.1947 34.2701 27.6208 34.106 27.9854C33.942 28.3477 33.7095 28.6245 33.4088 28.8159C33.108 29.0073 32.7571 29.103 32.356 29.103C31.9641 29.103 31.6166 29.0073 31.3135 28.8159C31.0105 28.6222 30.7746 28.3477 30.606 27.9922C30.4397 27.6344 30.3542 27.2209 30.3497 26.7515V26.3926C30.3497 25.9141 30.4328 25.4914 30.5992 25.1245C30.7655 24.7576 31.0002 24.4774 31.3033 24.2837C31.6086 24.0877 31.9573 23.9897 32.3492 23.9897C32.7479 23.9897 33.0989 24.0866 33.4019 24.2803C33.7073 24.4717 33.942 24.7508 34.106 25.1177C34.2701 25.4823 34.3521 25.9072 34.3521 26.3926V26.707ZM33.6993 26.3857C33.6993 25.7956 33.5808 25.3433 33.3438 25.0288C33.1068 24.7121 32.7753 24.5537 32.3492 24.5537C31.9345 24.5537 31.6075 24.7121 31.3682 25.0288C31.1312 25.3433 31.0093 25.7808 31.0025 26.3413V26.707C31.0025 27.279 31.1221 27.729 31.3614 28.0571C31.6029 28.383 31.9345 28.5459 32.356 28.5459C32.7798 28.5459 33.108 28.3921 33.3404 28.0845C33.5728 27.7746 33.6924 27.3314 33.6993 26.7549V26.3857ZM35.3365 29.0347V24.0581H36.9634C37.5035 24.0581 37.9091 24.1698 38.1802 24.3931C38.4537 24.6164 38.5904 24.9468 38.5904 25.3843C38.5904 25.6167 38.5243 25.8229 38.3922 26.0029C38.26 26.1807 38.08 26.3185 37.8521 26.4165C38.121 26.4917 38.3329 26.6353 38.4879 26.8472C38.6451 27.0568 38.7237 27.3075 38.7237 27.5991C38.7237 28.0457 38.579 28.3966 38.2896 28.6519C38.0002 28.9071 37.5912 29.0347 37.0626 29.0347H35.3365ZM35.9927 26.707V28.498H37.0762C37.3816 28.498 37.622 28.4194 37.7974 28.2622C37.9752 28.1027 38.064 27.884 38.064 27.606C38.064 27.0067 37.7382 26.707 37.0865 26.707H35.9927ZM35.9927 26.1807H36.9839C37.2711 26.1807 37.5001 26.1089 37.671 25.9653C37.8441 25.8218 37.9307 25.627 37.9307 25.3809C37.9307 25.1074 37.851 24.9092 37.6915 24.7861C37.532 24.6608 37.2893 24.5981 36.9634 24.5981H35.9927V26.1807ZM40.4019 29.0347H39.7457V24.0581H40.4019V29.0347ZM42.2647 28.498H44.6231V29.0347H41.605V24.0581H42.2647V28.498ZM48.1846 26.7344H46.0279V28.498H48.5333V29.0347H45.3716V24.0581H48.4991V24.5981H46.0279V26.1978H48.1846V26.7344ZM53.8345 27.7358H51.7496L51.2813 29.0347H50.6046L52.5049 24.0581H53.0792L54.983 29.0347H54.3096L53.8345 27.7358ZM51.9478 27.1958H53.6397L52.7921 24.8682L51.9478 27.1958ZM56.3091 27.0864V29.0347H55.6529V24.0581H57.4883C58.0329 24.0581 58.459 24.1971 58.7667 24.4751C59.0766 24.7531 59.2315 25.1211 59.2315 25.5791C59.2315 26.0622 59.08 26.4347 58.7769 26.6968C58.4761 26.9565 58.0443 27.0864 57.4815 27.0864H56.3091ZM56.3091 26.5498H57.4883C57.8393 26.5498 58.1081 26.4678 58.295 26.3037C58.4818 26.1374 58.5753 25.8981 58.5753 25.5859C58.5753 25.2897 58.4818 25.0527 58.295 24.875C58.1081 24.6973 57.8518 24.605 57.5259 24.5981H56.3091V26.5498ZM60.7252 27.0864V29.0347H60.0689V24.0581H61.9044C62.449 24.0581 62.8751 24.1971 63.1827 24.4751C63.4926 24.7531 63.6475 25.1211 63.6475 25.5791C63.6475 26.0622 63.496 26.4347 63.1929 26.6968C62.8922 26.9565 62.4603 27.0864 61.8975 27.0864H60.7252ZM60.7252 26.5498H61.9044C62.2553 26.5498 62.5241 26.4678 62.711 26.3037C62.8978 26.1374 62.9913 25.8981 62.9913 25.5859C62.9913 25.2897 62.8978 25.0527 62.711 24.875C62.5241 24.6973 62.2678 24.605 61.942 24.5981H60.7252V26.5498Z" fill="#17313B"/>
<path d="M32.8634 39.1587H30.8797V49.4065H32.8634V39.1587Z" fill="white"/>
<path d="M39.2514 46.3548C39.2514 47.9531 37.7239 48.0795 37.2963 48.0795C36.2251 48.0795 35.9452 47.1441 35.9452 46.5815V42.6479H34.4023V46.5728C34.4023 47.5628 34.7175 48.3783 35.3038 48.9234C35.881 49.4267 36.6309 49.6927 37.3999 49.6669C38.0563 49.6513 38.6962 49.4599 39.2514 49.1131V49.4074H41.0146V42.6479H39.2514V46.3548Z" fill="white"/>
<path d="M44.7609 40.2495H42.7772V42.6479H41.6752V43.9562H42.7772V49.4071H44.7609V43.9562H46.0834V42.6479H44.7609V40.2495Z" fill="white"/>
<path d="M51.7996 47.5276C51.382 47.8647 50.8573 48.0446 50.3184 48.0356C49.0643 48.0356 48.143 47.1831 48.143 46.0122C48.143 44.8414 49.0246 44.0238 50.3184 44.0238C50.8554 44.017 51.3785 44.1933 51.7996 44.5231L52.0751 44.7411L53.2895 43.6161L52.9854 43.361C52.2322 42.7484 51.2846 42.4187 50.3096 42.43C48.0548 42.43 46.4172 43.9366 46.4172 46.0057C46.4172 48.0748 48.0945 49.625 50.3096 49.625C51.2937 49.6412 52.2506 49.306 53.0052 48.6809L53.2983 48.4258L52.0641 47.3008L51.7996 47.5276Z" fill="white"/>
<path d="M59.7815 43.284C59.1939 42.7805 58.4359 42.515 57.659 42.5405C56.9914 42.5326 56.3373 42.7257 55.7833 43.0943V39.1587H54.02V49.4065H55.7833V45.8525C55.7833 44.2542 57.2005 44.1278 57.6281 44.1278C58.6993 44.1278 58.869 45.0632 58.869 45.6257V49.4065H60.6323V45.6344C60.6323 44.6445 60.3766 43.8291 59.7815 43.284Z" fill="white"/>
<path d="M50.2449 47.2376C50.9644 47.2376 51.5476 46.6968 51.5476 46.0297C51.5476 45.3626 50.9644 44.8218 50.2449 44.8218C49.5255 44.8218 48.9423 45.3626 48.9423 46.0297C48.9423 46.6968 49.5255 47.2376 50.2449 47.2376Z" fill="black"/>
<path d="M28.7023 47.028C28.0013 47.6835 27.0705 48.0446 26.1059 48.0353C24.0958 48.0353 22.6367 46.5745 22.6367 44.5686C22.6367 42.5626 24.098 41.0931 26.1059 41.0931C27.0655 41.0882 27.9908 41.4453 28.6935 42.0917L28.969 42.3468L30.1747 41.2304L29.9102 40.9753C28.884 40.0154 27.5203 39.4884 26.1081 39.5058C23.148 39.5058 20.9219 41.6861 20.9219 44.5795C20.9219 47.4728 23.1546 49.6248 26.1059 49.6248C27.5229 49.6413 28.8907 49.111 29.919 48.1465L30.1835 47.8914L28.9867 46.7576L28.7023 47.028Z" fill="white"/>
<path d="M37.5024 73.8857H34.2417V73.4312L35.9644 71.5171C36.2196 71.2277 36.395 70.993 36.4907 70.813C36.5887 70.6307 36.6377 70.4427 36.6377 70.249C36.6377 69.9893 36.5591 69.7762 36.4019 69.6099C36.2446 69.4435 36.035 69.3604 35.7729 69.3604C35.4585 69.3604 35.2135 69.4504 35.0381 69.6304C34.8649 69.8081 34.7783 70.0565 34.7783 70.3755H34.146C34.146 69.9175 34.293 69.5472 34.5869 69.2646C34.8831 68.9821 35.2785 68.8408 35.7729 68.8408C36.2355 68.8408 36.6012 68.9627 36.8701 69.2065C37.139 69.4481 37.2734 69.7705 37.2734 70.1738C37.2734 70.6637 36.9613 71.2471 36.3369 71.9238L35.0039 73.3696H37.5024V73.8857ZM41.293 71.7632C41.293 72.5037 41.1665 73.054 40.9136 73.4141C40.6606 73.7741 40.2653 73.9541 39.7275 73.9541C39.1966 73.9541 38.8035 73.7786 38.5483 73.4277C38.2931 73.0745 38.161 72.5482 38.1519 71.8486V71.0044C38.1519 70.2729 38.2783 69.7295 38.5312 69.374C38.7842 69.0186 39.1807 68.8408 39.7207 68.8408C40.2562 68.8408 40.6504 69.0129 40.9033 69.3569C41.1562 69.6987 41.2861 70.2274 41.293 70.9429V71.7632ZM40.6606 70.8984C40.6606 70.363 40.5854 69.9733 40.4351 69.7295C40.2847 69.4834 40.0465 69.3604 39.7207 69.3604C39.3971 69.3604 39.1613 69.4823 39.0132 69.7261C38.8651 69.9699 38.7887 70.3447 38.7842 70.8506V71.8623C38.7842 72.4001 38.8617 72.7977 39.0166 73.0552C39.1738 73.3104 39.4108 73.438 39.7275 73.438C40.0397 73.438 40.271 73.3172 40.4214 73.0757C40.5741 72.8341 40.6538 72.4536 40.6606 71.9341V70.8984ZM44.1812 73.8857H43.5454V69.6714L42.2705 70.1396V69.5654L44.082 68.8853H44.1812V73.8857ZM49.2466 69.2646L47.1855 73.8857H46.5225L48.5767 69.4287H45.8833V68.9092H49.2466V69.2646Z" fill="#17313B"/>
<path d="M39.8408 16.6245H38.2412V21.061H37.5884V16.6245H35.9922V16.0845H39.8408V16.6245ZM44.3115 18.7334C44.3115 19.221 44.2295 19.6471 44.0654 20.0117C43.9014 20.374 43.6689 20.6509 43.3682 20.8423C43.0674 21.0337 42.7165 21.1294 42.3154 21.1294C41.9235 21.1294 41.576 21.0337 41.2729 20.8423C40.9699 20.6486 40.734 20.374 40.5654 20.0186C40.3991 19.6608 40.3136 19.2472 40.3091 18.7778V18.4189C40.3091 17.9404 40.3923 17.5177 40.5586 17.1509C40.7249 16.784 40.9596 16.5037 41.2627 16.3101C41.568 16.1141 41.9167 16.0161 42.3086 16.0161C42.7074 16.0161 43.0583 16.113 43.3613 16.3066C43.6667 16.498 43.9014 16.7772 44.0654 17.144C44.2295 17.5086 44.3115 17.9336 44.3115 18.4189V18.7334ZM43.6587 18.4121C43.6587 17.8219 43.5402 17.3696 43.3032 17.0552C43.0662 16.7384 42.7347 16.5801 42.3086 16.5801C41.8939 16.5801 41.5669 16.7384 41.3276 17.0552C41.0907 17.3696 40.9688 17.8071 40.9619 18.3677V18.7334C40.9619 19.3053 41.0815 19.7554 41.3208 20.0835C41.5623 20.4093 41.8939 20.5723 42.3154 20.5723C42.7393 20.5723 43.0674 20.4185 43.2998 20.1108C43.5322 19.8009 43.6519 19.3577 43.6587 18.7812V18.4121ZM45.9521 19.1128V21.061H45.2959V16.0845H47.1313C47.6759 16.0845 48.1021 16.2235 48.4097 16.5015C48.7196 16.7795 48.8745 17.1475 48.8745 17.6055C48.8745 18.0885 48.723 18.4611 48.4199 18.7231C48.1191 18.9829 47.6873 19.1128 47.1245 19.1128H45.9521ZM45.9521 18.5762H47.1313C47.4823 18.5762 47.7511 18.4941 47.938 18.3301C48.1248 18.1637 48.2183 17.9245 48.2183 17.6123C48.2183 17.3161 48.1248 17.0791 47.938 16.9014C47.7511 16.7236 47.4948 16.6313 47.1689 16.6245H45.9521V18.5762Z" fill="#17313B"/>
<path d="M23.4135 64.9155V59.939H24.8183C25.2512 59.939 25.6341 60.0347 25.9667 60.2261C26.2994 60.4175 26.5558 60.6898 26.7358 61.043C26.9181 61.3962 27.0104 61.8018 27.0126 62.2598V62.5776C27.0126 63.047 26.9215 63.4583 26.7392 63.8115C26.5592 64.1647 26.3006 64.4359 25.9633 64.625C25.6284 64.8141 25.2376 64.911 24.791 64.9155H23.4135ZM24.0698 60.479V64.3789H24.7602C25.2661 64.3789 25.6591 64.2217 25.9394 63.9072C26.2219 63.5928 26.3632 63.145 26.3632 62.564V62.2734C26.3632 61.7083 26.2299 61.2697 25.9633 60.9575C25.699 60.6431 25.323 60.4836 24.8354 60.479H24.0698ZM30.8203 62.6152H28.6635V64.3789H31.1689V64.9155H28.0073V59.939H31.1347V60.479H28.6635V62.0786H30.8203V62.6152ZM33.6332 64.0439L35.0551 59.939H35.7729L33.9272 64.9155H33.3461L31.5038 59.939H32.2182L33.6332 64.0439ZM39.2558 62.6152H37.0991V64.3789H39.6044V64.9155H36.4428V59.939H39.5703V60.479H37.0991V62.0786H39.2558V62.6152ZM41.081 64.3789H43.4394V64.9155H40.4213V59.939H41.081V64.3789ZM47.7905 62.5879C47.7905 63.0755 47.7084 63.5016 47.5444 63.8662C47.3803 64.2285 47.1479 64.5054 46.8471 64.6968C46.5463 64.8882 46.1954 64.9839 45.7944 64.9839C45.4024 64.9839 45.055 64.8882 44.7519 64.6968C44.4488 64.5031 44.213 64.2285 44.0444 63.873C43.878 63.5153 43.7926 63.1017 43.788 62.6323V62.2734C43.788 61.7949 43.8712 61.3722 44.0375 61.0054C44.2039 60.6385 44.4386 60.3582 44.7416 60.1646C45.047 59.9686 45.3956 59.8706 45.7875 59.8706C46.1863 59.8706 46.5372 59.9674 46.8403 60.1611C47.1456 60.3525 47.3803 60.6317 47.5444 60.9985C47.7084 61.3631 47.7905 61.7881 47.7905 62.2734V62.5879ZM47.1376 62.2666C47.1376 61.6764 47.0191 61.2241 46.7822 60.9097C46.5452 60.5929 46.2136 60.4346 45.7875 60.4346C45.3728 60.4346 45.0458 60.5929 44.8066 60.9097C44.5696 61.2241 44.4477 61.6616 44.4409 62.2222V62.5879C44.4409 63.1598 44.5605 63.6099 44.7997 63.938C45.0413 64.2638 45.3728 64.4268 45.7944 64.4268C46.2182 64.4268 46.5463 64.2729 46.7787 63.9653C47.0112 63.6554 47.1308 63.2122 47.1376 62.6357V62.2666ZM49.4311 62.9673V64.9155H48.7748V59.939H50.6103C51.1549 59.939 51.581 60.078 51.8886 60.356C52.1985 60.634 52.3535 61.002 52.3535 61.46C52.3535 61.943 52.2019 62.3156 51.8989 62.5776C51.5981 62.8374 51.1663 62.9673 50.6035 62.9673H49.4311ZM49.4311 62.4307H50.6103C50.9612 62.4307 51.2301 62.3486 51.4169 62.1846C51.6038 62.0182 51.6972 61.779 51.6972 61.4668C51.6972 61.1706 51.6038 60.9336 51.4169 60.7559C51.2301 60.5781 50.9737 60.4858 50.6479 60.479H49.4311V62.4307ZM56.0038 62.6152H53.8471V64.3789H56.3525V64.9155H53.1909V59.939H56.3183V60.479H53.8471V62.0786H56.0038V62.6152ZM58.9946 62.9023H57.8256V64.9155H57.166V59.939H58.8134C59.374 59.939 59.8046 60.0666 60.1054 60.3218C60.4085 60.577 60.56 60.9484 60.56 61.436C60.56 61.7459 60.4757 62.016 60.3071 62.2461C60.1407 62.4762 59.9083 62.6483 59.6098 62.7622L60.7787 64.8745V64.9155H60.0746L58.9946 62.9023ZM57.8256 62.3657H58.8339C59.1598 62.3657 59.4184 62.2814 59.6098 62.1128C59.8035 61.9442 59.9003 61.7186 59.9003 61.436C59.9003 61.1284 59.808 60.8926 59.6235 60.7285C59.4412 60.5645 59.1769 60.4813 58.8305 60.479H57.8256V62.3657ZM62.9492 62.6973C62.3863 62.5355 61.9762 62.3372 61.7187 62.1025C61.4635 61.8656 61.3359 61.5739 61.3359 61.2275C61.3359 60.8356 61.492 60.512 61.8041 60.2568C62.1186 59.9993 62.5265 59.8706 63.0278 59.8706C63.3696 59.8706 63.6738 59.9367 63.9404 60.0688C64.2092 60.201 64.4166 60.3833 64.5624 60.6157C64.7106 60.8481 64.7846 61.1022 64.7846 61.3779H64.1249C64.1249 61.0771 64.0292 60.8413 63.8378 60.6704C63.6464 60.4972 63.3764 60.4106 63.0278 60.4106C62.7042 60.4106 62.4513 60.4824 62.269 60.626C62.089 60.7673 61.999 60.9644 61.999 61.2173C61.999 61.4201 62.0844 61.5921 62.2553 61.7334C62.4285 61.8724 62.7213 62 63.1337 62.1162C63.5484 62.2324 63.872 62.3612 64.1044 62.5024C64.3391 62.6414 64.5123 62.8044 64.624 62.9912C64.7379 63.1781 64.7949 63.3979 64.7949 63.6509C64.7949 64.0542 64.6376 64.3778 64.3232 64.6216C64.0087 64.8631 63.5883 64.9839 63.062 64.9839C62.7202 64.9839 62.4011 64.9189 62.1049 64.7891C61.8087 64.6569 61.5797 64.4769 61.4179 64.249C61.2584 64.0212 61.1786 63.7625 61.1786 63.4731H61.8383C61.8383 63.7739 61.9488 64.012 62.1699 64.1875C62.3932 64.3607 62.6905 64.4473 63.062 64.4473C63.4083 64.4473 63.6738 64.3766 63.8583 64.2354C64.0429 64.0941 64.1352 63.9015 64.1352 63.6577C64.1352 63.4139 64.0497 63.2259 63.8788 63.0938C63.7079 62.9593 63.3981 62.8271 62.9492 62.6973Z" fill="#17313B"/>
</svg>
