<svg width="230" height="10" viewBox="0 0 230 10" fill="none" xmlns="http://www.w3.org/2000/svg">
<path fill-rule="evenodd" clip-rule="evenodd" d="M229.762 9.05031H224.812V0.192871H229.762V9.05031Z" fill="#56CDF2"/>
<path fill-rule="evenodd" clip-rule="evenodd" d="M188.527 9.05031H183.577V0.192871H188.527V9.05031Z" fill="#56CDF2"/>
<path fill-rule="evenodd" clip-rule="evenodd" d="M147 9.1798H139.883V0.192871H147V9.1798Z" fill="#56CDF2"/>
<path fill-rule="evenodd" clip-rule="evenodd" d="M137.117 9.05031H132.167V0.192871H137.117V9.05031Z" fill="#56CDF2"/>
<path fill-rule="evenodd" clip-rule="evenodd" d="M119.957 9.1798H112.84V0.192871H119.957V9.1798Z" fill="#56CDF2"/>
<path fill-rule="evenodd" clip-rule="evenodd" d="M100.32 9.05031H95.1537V0.192871H100.32V9.05031Z" fill="#56CDF2"/>
<path fill-rule="evenodd" clip-rule="evenodd" d="M78.5625 9.1798H71.4453V0.192871H78.5625V9.1798Z" fill="#56CDF2"/>
<path fill-rule="evenodd" clip-rule="evenodd" d="M68.5898 9.1798H61.4294V0.192871H68.5898V9.1798Z" fill="#56CDF2"/>
<path fill-rule="evenodd" clip-rule="evenodd" d="M22.6367 9.1798H15.6063V0.192871H22.6367V9.1798Z" fill="#56CDF2"/>
<path fill-rule="evenodd" clip-rule="evenodd" d="M13.0586 9.05031H7.80528V0.192871H13.0586V9.05031Z" fill="#56CDF2"/>
<path fill-rule="evenodd" clip-rule="evenodd" d="M5.85938 9.05042H3.55345V0.495117H5.85938V9.05042Z" fill="#56CDF2"/>
<path fill-rule="evenodd" clip-rule="evenodd" d="M3.78125 9.00676H0.695137V0.235596H3.78125V9.00676Z" fill="#56CDF2"/>
</svg>
