<svg width="421" height="120" viewBox="0 0 421 120" fill="none" xmlns="http://www.w3.org/2000/svg">
<path fill-rule="evenodd" clip-rule="evenodd" d="M155.59 71.9638H151.203V70.4875H155.59V71.9638Z" fill="#56CDF2"/>
<path fill-rule="evenodd" clip-rule="evenodd" d="M313.107 97.6826H329.066V98.0366H313.107V97.6826Z" fill="#56CDF2"/>
<path fill-rule="evenodd" clip-rule="evenodd" d="M272.103 97.6826H313.375V98.0366H272.103V97.6826Z" fill="#56CDF2"/>
<path fill-rule="evenodd" clip-rule="evenodd" d="M272.103 97.7683H313.375V98.3381H272.103V97.7683Z" fill="#56CDF2"/>
<path fill-rule="evenodd" clip-rule="evenodd" d="M275.223 97.7683H313.375V98.3381H275.223V97.7683Z" fill="#56CDF2"/>
<path fill-rule="evenodd" clip-rule="evenodd" d="M416.363 83.9642H414.621V81.3225H416.363V83.9642Z" fill="#56CDF2"/>
<path fill-rule="evenodd" clip-rule="evenodd" d="M390.746 83.9642H381.548V81.3225H390.746V83.9642Z" fill="#56CDF2"/>
<path fill-rule="evenodd" clip-rule="evenodd" d="M351.078 50.0281H420.914V51.5043H351.078V50.0281Z" fill="#56CDF2"/>
<path fill-rule="evenodd" clip-rule="evenodd" d="M351.078 48.906H420.914V50.0801H351.078V48.906Z" fill="#56CDF2"/>
<path fill-rule="evenodd" clip-rule="evenodd" d="M396.632 20.1145H421V23.0584H396.632V20.1145Z" fill="#56CDF2"/>
<path fill-rule="evenodd" clip-rule="evenodd" d="M0.782602 65.5679H26.2344V67.8642H0.782602V65.5679Z" fill="#56CDF2"/>
<path fill-rule="evenodd" clip-rule="evenodd" d="M169.324 0.906494H235.52V1.47628H169.324V0.906494Z" fill="#56CDF2"/>
<path fill-rule="evenodd" clip-rule="evenodd" d="M319.047 0.906494H396.988V1.47628H319.047V0.906494Z" fill="#56CDF2"/>
<path fill-rule="evenodd" clip-rule="evenodd" d="M196.295 49.8115H420.914V50.295H196.295V49.8115Z" fill="#56CDF2"/>
<path fill-rule="evenodd" clip-rule="evenodd" d="M351.078 49.8115H420.914V50.295H351.078V49.8115Z" fill="#56CDF2"/>
<path fill-rule="evenodd" clip-rule="evenodd" d="M396.632 15.7554H421V16.8431H396.632V15.7554Z" fill="#56CDF2"/>
<path fill-rule="evenodd" clip-rule="evenodd" d="M258.798 15.9277H396.988V16.7133H258.798V15.9277Z" fill="#56CDF2"/>
<path fill-rule="evenodd" clip-rule="evenodd" d="M368.155 111.667H420.914V112.021H368.155V111.667Z" fill="#56CDF2"/>
<path fill-rule="evenodd" clip-rule="evenodd" d="M365.945 110.2H420.914V111.935H365.945V110.2Z" fill="#56CDF2"/>
<path fill-rule="evenodd" clip-rule="evenodd" d="M328.798 115.207H380.863V116.899H328.798V115.207Z" fill="#56CDF2"/>
<path fill-rule="evenodd" clip-rule="evenodd" d="M313.107 115.207H329.066V116.899H313.107V115.207Z" fill="#56CDF2"/>
<path fill-rule="evenodd" clip-rule="evenodd" d="M292.084 115.207H313.375V116.899H292.084V115.207Z" fill="#56CDF2"/>
<path fill-rule="evenodd" clip-rule="evenodd" d="M380.639 115.898H420.914V116.9H380.639V115.898Z" fill="#56CDF2"/>
<path fill-rule="evenodd" clip-rule="evenodd" d="M380.639 114.473H420.914V115.431H380.639V114.473Z" fill="#56CDF2"/>
<path fill-rule="evenodd" clip-rule="evenodd" d="M380.639 115.207H420.914V116.166H380.639V115.207Z" fill="#56CDF2"/>
<path fill-rule="evenodd" clip-rule="evenodd" d="M328.799 117.365H420.914V118.324H328.799V117.365Z" fill="#56CDF2"/>
<path fill-rule="evenodd" clip-rule="evenodd" d="M313.107 117.365H329.066V118.324H313.107V117.365Z" fill="#56CDF2"/>
<path fill-rule="evenodd" clip-rule="evenodd" d="M155.414 119.187H150.074V117.365H155.414V119.187Z" fill="#56CDF2"/>
<path fill-rule="evenodd" clip-rule="evenodd" d="M313.107 118.099H329.066V119.187H313.107V118.099Z" fill="#56CDF2"/>
<path fill-rule="evenodd" clip-rule="evenodd" d="M270.759 118.099H313.375V119.187H270.759V118.099Z" fill="#56CDF2"/>
<path fill-rule="evenodd" clip-rule="evenodd" d="M380.639 118.401H420.914V119.187H380.639V118.401Z" fill="#56CDF2"/>
<path fill-rule="evenodd" clip-rule="evenodd" d="M313.107 106.185H329.066V107.964H313.107V106.185Z" fill="#56CDF2"/>
<path fill-rule="evenodd" clip-rule="evenodd" d="M217.613 107.964H213.314V106.185H217.613V107.964Z" fill="#56CDF2"/>
<path fill-rule="evenodd" clip-rule="evenodd" d="M302.062 108.05H298.586V106.143H302.062V108.05Z" fill="#56CDF2"/>
<path fill-rule="evenodd" clip-rule="evenodd" d="M260.742 108.05H257.353V106.143H260.742V108.05Z" fill="#56CDF2"/>
<path fill-rule="evenodd" clip-rule="evenodd" d="M218.699 108.05H212.102V106.143H218.699V108.05Z" fill="#56CDF2"/>
<path fill-rule="evenodd" clip-rule="evenodd" d="M209.422 108.05H205.946V106.143H209.422V108.05Z" fill="#56CDF2"/>
<path fill-rule="evenodd" clip-rule="evenodd" d="M351.078 53.6543H420.914V54.6126H351.078V53.6543Z" fill="#56CDF2"/>
<path fill-rule="evenodd" clip-rule="evenodd" d="M322.167 61.8557H420.914V62.814H322.167V61.8557Z" fill="#56CDF2"/>
</svg>
