<svg width="190" height="12" viewBox="0 0 190 12" fill="none" xmlns="http://www.w3.org/2000/svg">
<path d="M187.422 3.86728C187.615 3.94968 187.924 4.05074 188.348 4.17012C188.772 4.28949 189.127 4.36783 189.413 4.40446L189.551 3.75706C189.09 3.65634 188.629 3.49118 188.168 3.26125C187.707 3.032 187.311 2.77494 186.979 2.49041H186.965L186.301 2.6281V10.5047L184.49 10.6149V11.207H189.274V10.6149L187.422 10.5047V3.86728Z" fill="#FFD129"/>
<path d="M162.088 9.70669C161.719 9.04573 161.535 8.12331 161.535 6.93874C161.535 4.41428 162.281 3.1517 163.775 3.1517C164.568 3.1517 165.153 3.46845 165.531 4.10227C165.909 4.73542 166.098 5.61682 166.098 6.74577C166.098 7.86625 165.916 8.80461 165.552 9.56222C165.187 10.3195 164.613 10.6986 163.83 10.6986C163.038 10.6986 162.457 10.3676 162.088 9.70669ZM166.471 10.0645C167.024 9.22038 167.301 8.16909 167.301 6.91126C167.301 6.04853 167.14 5.28447 166.817 4.61842C166.494 3.95306 166.059 3.43657 165.51 3.06929C164.962 2.70202 164.355 2.51821 163.692 2.51821C162.484 2.51821 161.62 2.90855 161.099 3.68888C160.578 4.46955 160.318 5.51135 160.318 6.81495C160.318 7.66853 160.472 8.44005 160.781 9.12814C161.09 9.81691 161.514 10.3561 162.053 10.7465C162.592 11.1368 163.199 11.3318 163.871 11.3318C165.052 11.3318 165.918 10.9096 166.471 10.0645Z" fill="#FFD129"/>
<path d="M151.936 9.70669C151.567 9.04573 151.382 8.12331 151.382 6.93874C151.382 4.41428 152.129 3.1517 153.622 3.1517C154.415 3.1517 155 3.46845 155.379 4.10227C155.756 4.73542 155.946 5.61682 155.946 6.74577C155.946 7.86625 155.764 8.80461 155.4 9.56222C155.035 10.3195 154.461 10.6986 153.677 10.6986C152.885 10.6986 152.304 10.3676 151.936 9.70669ZM156.319 10.0645C156.872 9.22038 157.148 8.16909 157.148 6.91126C157.148 6.04853 156.987 5.28447 156.665 4.61842C156.342 3.95306 155.907 3.43657 155.358 3.06929C154.809 2.70202 154.203 2.51821 153.54 2.51821C152.332 2.51821 151.468 2.90855 150.947 3.68888C150.426 4.46955 150.165 5.51135 150.165 6.81495C150.165 7.66853 150.32 8.44005 150.629 9.12814C150.938 9.81691 151.362 10.3561 151.901 10.7465C152.44 11.1368 153.046 11.3318 153.719 11.3318C154.9 11.3318 155.766 10.9096 156.319 10.0645Z" fill="#FFD129"/>
<path d="M104.666 9.70669C104.297 9.04573 104.112 8.12331 104.112 6.93874C104.112 4.41428 104.859 3.1517 106.352 3.1517C107.145 3.1517 107.73 3.46845 108.109 4.10227C108.487 4.73542 108.675 5.61682 108.675 6.74577C108.675 7.86625 108.494 8.80461 108.13 9.56222C107.765 10.3195 107.191 10.6986 106.407 10.6986C105.615 10.6986 105.034 10.3676 104.666 9.70669ZM109.049 10.0645C109.602 9.22038 109.879 8.16909 109.879 6.91126C109.879 6.04853 109.717 5.28447 109.395 4.61842C109.072 3.95306 108.636 3.43657 108.088 3.06929C107.539 2.70202 106.933 2.51821 106.27 2.51821C105.062 2.51821 104.198 2.90855 103.677 3.68888C103.156 4.46955 102.896 5.51135 102.896 6.81495C102.896 7.66853 103.05 8.44005 103.359 9.12814C103.668 9.81691 104.092 10.3561 104.631 10.7465C105.171 11.1368 105.777 11.3318 106.449 11.3318C107.629 11.3318 108.496 10.9096 109.049 10.0645Z" fill="#FFD129"/>
<path d="M97.9409 1.86728C98.1344 1.94968 98.4432 2.05074 98.8672 2.17012C99.2915 2.28949 99.6463 2.36783 99.9321 2.40446L100.07 1.75706C99.6096 1.65634 99.1481 1.49118 98.6874 1.26125C98.2263 1.032 97.8303 0.77494 97.4982 0.490412H97.4843L96.8209 0.628099V8.5047L95.0089 8.61491V9.20703H99.7935V8.61491L97.9409 8.5047V1.86728Z" fill="#FFD129"/>
<path d="M90.6441 3.86728C90.8372 3.94968 91.1464 4.05074 91.5707 4.17012C91.9946 4.28949 92.3495 4.36783 92.6352 4.40446L92.7734 3.75706C92.3127 3.65634 91.8516 3.49118 91.3905 3.26125C90.9298 3.032 90.5334 2.77494 90.2014 2.49041H90.1878L89.5241 2.6281V10.5047L87.7124 10.6149V11.207H92.4966V10.6149L90.6441 10.5047V3.86728Z" fill="#FFD129"/>
<path d="M27.5602 9.70669C27.1914 9.04573 27.0072 8.12331 27.0072 6.93874C27.0072 4.41428 27.7536 3.1517 29.2469 3.1517C30.0403 3.1517 30.625 3.46845 31.0033 4.10227C31.3813 4.73542 31.57 5.61682 31.57 6.74577C31.57 7.86625 31.3885 8.80461 31.0241 9.56222C30.6601 10.3195 30.0859 10.6986 29.3024 10.6986C28.5096 10.6986 27.929 10.3676 27.5602 9.70669ZM31.9436 10.0645C32.4966 9.22038 32.7734 8.16909 32.7734 6.91126C32.7734 6.04853 32.612 5.28447 32.2895 4.61842C31.9671 3.95306 31.5308 3.43657 30.9822 3.06929C30.4343 2.70202 29.8275 2.51821 29.1641 2.51821C27.9566 2.51821 27.0926 2.90855 26.5713 3.68888C26.0509 4.46955 25.7901 5.51135 25.7901 6.81495C25.7901 7.66853 25.9447 8.44005 26.2532 9.12814C26.5624 9.81691 26.986 10.3561 27.5254 10.7465C28.0649 11.1368 28.6713 11.3318 29.3436 11.3318C30.5239 11.3318 31.3902 10.9096 31.9436 10.0645Z" fill="#FFD129"/>
<path d="M20.8394 3.86728C21.0328 3.94968 21.3417 4.05074 21.766 4.17012C22.1899 4.28949 22.5451 4.36783 22.8305 4.40446L22.9688 3.75706C22.508 3.65634 22.0472 3.49118 21.5858 3.26125C21.1247 3.032 20.7287 2.77494 20.3967 2.49041H20.3827L19.719 2.6281V10.5047L17.9074 10.6149V11.207H22.6919V10.6149L20.8394 10.5047V3.86728Z" fill="#FFD129"/>
<path d="M10.1113 9.70669C9.74249 9.04573 9.55827 8.12331 9.55827 6.93874C9.55827 4.41428 10.3047 3.1517 11.798 3.1517C12.5911 3.1517 13.1761 3.46845 13.5545 4.10227C13.9321 4.73542 14.1211 5.61682 14.1211 6.74577C14.1211 7.86625 13.9393 8.80461 13.5752 9.56222C13.2109 10.3195 12.6371 10.6986 11.8535 10.6986C11.0607 10.6986 10.4801 10.3676 10.1113 9.70669ZM14.4947 10.0645C15.0477 9.22038 15.3242 8.16909 15.3242 6.91126C15.3242 6.04853 15.1628 5.28447 14.8407 4.61842C14.5178 3.95306 14.0819 3.43657 13.5333 3.06929C12.9851 2.70202 12.3786 2.51821 11.7152 2.51821C10.5077 2.51821 9.6434 2.90855 9.12204 3.68888C8.6017 4.46955 8.34119 5.51135 8.34119 6.81495C8.34119 7.66853 8.49579 8.44005 8.80432 9.12814C9.11319 9.81691 9.5375 10.3561 10.0769 10.7465C10.6163 11.1368 11.2225 11.3318 11.8947 11.3318C13.075 11.3318 13.9413 10.9096 14.4947 10.0645Z" fill="#FFD129"/>
<path d="M3.39017 3.86728C3.58359 3.94968 3.89246 4.05074 4.31643 4.17012C4.74074 4.28949 5.09558 4.36783 5.38129 4.40446L5.51953 3.75706C5.05879 3.65634 4.59771 3.49118 4.13662 3.26125C3.67553 3.032 3.27949 2.77494 2.94747 2.49041H2.9335L2.27014 2.6281V10.5047L0.458149 10.6149V11.207H5.24268V10.6149L3.39017 10.5047V3.86728Z" fill="#FFD129"/>
</svg>
