<svg width="506" height="36" viewBox="0 0 506 36" fill="none" xmlns="http://www.w3.org/2000/svg">
<g filter="url(#filter0_d)">
<path d="M6.60846 1.30795C6.37138 1.3863 5.99299 1.48238 5.47364 1.59587C4.95364 1.70936 4.51886 1.78385 4.16915 1.81867L4 1.20316C4.56433 1.1074 5.12898 0.950377 5.69396 0.731774C6.25861 0.513817 6.74421 0.269422 7.15079 -0.001091H7.16794L7.98059 0.129814V7.6184L10.1998 7.72318V8.28613H4.33895V7.72318L6.60846 7.6184V1.30795Z" fill="#FFD129"/>
<path d="M37.6437 6.85925C38.0959 6.23085 38.3216 5.35387 38.3216 4.22765C38.3216 1.82755 37.4069 0.627175 35.5774 0.627175C34.606 0.627175 33.8891 0.928317 33.426 1.53092C32.9632 2.13288 32.7318 2.97086 32.7318 4.0442C32.7318 5.10948 32.9542 6.00161 33.4007 6.7219C33.8467 7.44186 34.5499 7.80233 35.5097 7.80233C36.4805 7.80233 37.1918 7.48765 37.6437 6.85925ZM32.2743 7.19941C31.5964 6.3969 31.2578 5.3974 31.2578 4.20154C31.2578 3.3813 31.4553 2.65488 31.8505 2.02165C32.2456 1.38906 32.7792 0.89801 33.4516 0.548829C34.1233 0.199647 34.866 0.0248938 35.6789 0.0248938C37.1584 0.0248938 38.217 0.396002 38.8553 1.13789C39.4933 1.88011 39.8125 2.87058 39.8125 4.10997C39.8125 4.9215 39.6231 5.65501 39.2451 6.30921C38.8667 6.96404 38.3468 7.47669 37.6865 7.8478C37.0257 8.2189 36.283 8.4043 35.4592 8.4043C34.0133 8.4043 32.9521 8.00288 32.2743 7.19941Z" fill="#FFD129"/>
<path d="M50.0774 6.85925C50.5288 6.23085 50.7553 5.35387 50.7553 4.22765C50.7553 1.82755 49.8405 0.627175 48.0112 0.627175C47.0396 0.627175 46.3229 0.928317 45.8594 1.53092C45.3967 2.13288 45.1648 2.97086 45.1648 4.0442C45.1648 5.10948 45.3876 6.00161 45.8339 6.7219C46.2803 7.44186 46.9837 7.80233 47.9436 7.80233C48.9139 7.80233 49.6256 7.48765 50.0774 6.85925ZM44.7076 7.19941C44.0297 6.3969 43.6914 5.3974 43.6914 4.20154C43.6914 3.3813 43.8889 2.65488 44.2841 2.02165C44.6792 1.38906 45.2128 0.89801 45.8852 0.548829C46.5569 0.199647 47.2999 0.0248938 48.1121 0.0248938C49.5923 0.0248938 50.6502 0.396002 51.2889 1.13789C51.9264 1.88011 52.2463 2.87058 52.2463 4.10997C52.2463 4.9215 52.0569 5.65501 51.6786 6.30921C51.2998 6.96404 50.7804 7.47669 50.1196 7.8478C49.4592 8.2189 48.7166 8.4043 47.8923 8.4043C46.4463 8.4043 45.3851 8.00288 44.7076 7.19941Z" fill="#FFD129"/>
<path d="M74.9451 6.85925C75.3969 6.23085 75.623 5.35387 75.623 4.22765C75.623 1.82755 74.7082 0.627175 72.8789 0.627175C71.9073 0.627175 71.1905 0.928317 70.7271 1.53092C70.264 2.13288 70.0329 2.97086 70.0329 4.0442C70.0329 5.10948 70.2557 6.00161 70.7016 6.7219C71.148 7.44186 71.8509 7.80233 72.8113 7.80233C73.782 7.80233 74.4933 7.48765 74.9451 6.85925ZM69.5752 7.19941C68.8978 6.3969 68.5586 5.3974 68.5586 4.20154C68.5586 3.3813 68.7568 2.65488 69.1514 2.02165C69.5469 1.38906 70.0809 0.89801 70.7529 0.548829C71.425 0.199647 72.1676 0.0248938 72.9802 0.0248938C74.4595 0.0248938 75.5183 0.396002 76.1566 1.13789C76.7945 1.88011 77.1136 2.87058 77.1136 4.10997C77.1136 4.9215 76.9242 5.65501 76.5462 6.30921C76.1679 6.96404 75.6481 7.47669 74.9873 7.8478C74.3265 8.2189 73.5839 8.4043 72.76 8.4043C71.3144 8.4043 70.2532 8.00288 69.5752 7.19941Z" fill="#FFD129"/>
<path d="M83.1789 1.30795C82.9419 1.3863 82.5636 1.48238 82.0442 1.59587C81.5244 1.70936 81.0897 1.78385 80.7397 1.81867L80.5703 1.20316C81.1347 1.1074 81.7 0.950377 82.2645 0.731774C82.8293 0.513817 83.3145 0.269422 83.7212 -0.001091H83.7383L84.551 0.129814V7.6184L86.7708 7.72318V8.28613H80.9095V7.72318L83.1789 7.6184V1.30795Z" fill="#FFD129"/>
<path d="M92.1203 1.30795C91.8838 1.3863 91.505 1.48238 90.9852 1.59587C90.4658 1.70936 90.0311 1.78385 89.6811 1.81867L89.5117 1.20316C90.0762 1.1074 90.641 0.950377 91.2059 0.731774C91.7703 0.513817 92.2559 0.269422 92.6626 -0.001091H92.6793L93.4924 0.129814V7.6184L95.7118 7.72318V8.28613H89.8509V7.72318L92.1203 7.6184V1.30795Z" fill="#FFD129"/>
<path d="M196.402 6.85925C196.854 6.23085 197.08 5.35387 197.08 4.22765C197.08 1.82755 196.165 0.627175 194.336 0.627175C193.364 0.627175 192.648 0.928317 192.184 1.53092C191.721 2.13288 191.49 2.97086 191.49 4.0442C191.49 5.10948 191.712 6.00161 192.159 6.7219C192.605 7.44186 193.308 7.80233 194.268 7.80233C195.239 7.80233 195.95 7.48765 196.402 6.85925ZM191.032 7.19941C190.355 6.3969 190.016 5.3974 190.016 4.20154C190.016 3.3813 190.213 2.65488 190.608 2.02165C191.003 1.38906 191.538 0.89801 192.21 0.548829C192.881 0.199647 193.625 0.0248938 194.437 0.0248938C195.917 0.0248938 196.975 0.396002 197.614 1.13789C198.251 1.88011 198.571 2.87058 198.571 4.10997C198.571 4.9215 198.381 5.65501 198.003 6.30921C197.624 6.96404 197.105 7.47669 196.445 7.8478C195.784 8.2189 195.041 8.4043 194.217 8.4043C192.771 8.4043 191.71 8.00288 191.032 7.19941Z" fill="#FFD129"/>
<path d="M204.632 1.30795C204.395 1.3863 204.017 1.48238 203.497 1.59587C202.978 1.70936 202.542 1.78385 202.193 1.81867L202.023 1.20316C202.588 1.1074 203.152 0.950377 203.718 0.731774C204.282 0.513817 204.768 0.269422 205.174 -0.001091H205.191L206.005 0.129814V7.6184L208.224 7.72318V8.28613H202.363V7.72318L204.632 7.6184V1.30795Z" fill="#FFD129"/>
<path d="M217.777 6.85925C218.229 6.23085 218.454 5.35387 218.454 4.22765C218.454 1.82755 217.54 0.627175 215.71 0.627175C214.739 0.627175 214.022 0.928317 213.559 1.53092C213.096 2.13288 212.865 2.97086 212.865 4.0442C212.865 5.10948 213.087 6.00161 213.533 6.7219C213.98 7.44186 214.683 7.80233 215.642 7.80233C216.614 7.80233 217.325 7.48765 217.777 6.85925ZM212.407 7.19941C211.729 6.3969 211.391 5.3974 211.391 4.20154C211.391 3.3813 211.588 2.65488 211.983 2.02165C212.378 1.38906 212.912 0.89801 213.585 0.548829C214.256 0.199647 214.999 0.0248938 215.812 0.0248938C217.291 0.0248938 218.35 0.396002 218.989 1.13789C219.626 1.88011 219.945 2.87058 219.945 4.10997C219.945 4.9215 219.756 5.65501 219.378 6.30921C218.999 6.96404 218.48 7.47669 217.819 7.8478C217.158 8.2189 216.415 8.4043 215.592 8.4043C214.146 8.4043 213.085 8.00288 212.407 7.19941Z" fill="#FFD129"/>
<path d="M180.011 1.30795C179.774 1.3863 179.396 1.48238 178.876 1.59587C178.356 1.70936 177.922 1.78385 177.572 1.81867L177.402 1.20316C177.967 1.1074 178.532 0.950377 179.096 0.731774C179.661 0.513817 180.147 0.269422 180.553 -0.001091H180.57L181.383 0.129814V7.6184L183.603 7.72318V8.28613H177.742V7.72318L180.011 7.6184V1.30795Z" fill="#FFD129"/>
<path d="M198.316 22.1963C198.133 22.2569 197.841 22.3311 197.441 22.4185C197.04 22.5058 196.705 22.5629 196.435 22.59L196.305 22.1157C196.74 22.0419 197.175 21.9206 197.61 21.7523C198.046 21.584 198.42 21.3957 198.734 21.1871H198.747L199.373 21.288V27.0613L201.084 27.1416V27.5759H196.566V27.1416L198.316 27.0613V22.1963Z" fill="#FFD129"/>
<path d="M212.108 22.1963C211.926 22.2569 211.635 22.3311 211.234 22.4185C210.833 22.5058 210.498 22.5629 210.229 22.59L210.098 22.1157C210.533 22.0419 210.968 21.9206 211.404 21.7523C211.839 21.584 212.213 21.3957 212.527 21.1871H212.54L213.166 21.288V27.0613L214.877 27.1416V27.5759H210.359V27.1416L212.108 27.0613V22.1963Z" fill="#FFD129"/>
<path d="M255.2 26.4767C255.549 25.9921 255.723 25.316 255.723 24.448C255.723 22.598 255.018 21.6726 253.608 21.6726C252.859 21.6726 252.306 21.9044 251.949 22.3691C251.592 22.8333 251.414 23.4791 251.414 24.3068C251.414 25.1277 251.585 25.8154 251.929 26.3706C252.274 26.9258 252.815 27.2034 253.555 27.2034C254.304 27.2034 254.852 26.9613 255.2 26.4767ZM251.061 26.7388C250.538 26.1201 250.277 25.3495 250.277 24.4277C250.277 23.7954 250.43 23.2354 250.735 22.7472C251.039 22.2597 251.451 21.8812 251.969 21.612C252.487 21.3428 253.059 21.2083 253.686 21.2083C254.826 21.2083 255.642 21.494 256.134 22.0663C256.626 22.6383 256.872 23.4018 256.872 24.3571C256.872 24.9829 256.726 25.5481 256.435 26.0527C256.143 26.5573 255.742 26.9526 255.233 27.2386C254.724 27.5249 254.152 27.6677 253.516 27.6677C252.402 27.6677 251.584 27.3582 251.061 26.7388Z" fill="#FFD129"/>
<path d="M261.546 22.1963C261.364 22.2569 261.071 22.3311 260.671 22.4185C260.271 22.5058 259.936 22.5629 259.665 22.59L259.535 22.1157C259.97 22.0419 260.405 21.9206 260.841 21.7523C261.276 21.584 261.651 21.3957 261.964 21.1871H261.977L262.604 21.288V27.0613L264.315 27.1416V27.5759H259.796V27.1416L261.546 27.0613V22.1963Z" fill="#FFD129"/>
<path d="M307.267 26.4767C307.615 25.9921 307.79 25.316 307.79 24.448C307.79 22.598 307.084 21.6726 305.674 21.6726C304.925 21.6726 304.372 21.9044 304.015 22.3691C303.658 22.8333 303.48 23.4791 303.48 24.3068C303.48 25.1277 303.652 25.8154 303.996 26.3706C304.34 26.9258 304.882 27.2034 305.622 27.2034C306.37 27.2034 306.919 26.9613 307.267 26.4767ZM303.128 26.7388C302.605 26.1201 302.344 25.3495 302.344 24.4277C302.344 23.7954 302.496 23.2354 302.801 22.7472C303.106 22.2597 303.517 21.8812 304.035 21.612C304.553 21.3428 305.125 21.2083 305.752 21.2083C306.893 21.2083 307.709 21.494 308.201 22.0663C308.693 22.6383 308.938 23.4018 308.938 24.3571C308.938 24.9829 308.793 25.5481 308.501 26.0527C308.21 26.5573 307.809 26.9526 307.3 27.2386C306.79 27.5249 306.218 27.6677 305.583 27.6677C304.468 27.6677 303.65 27.3582 303.128 26.7388Z" fill="#FFD129"/>
<path d="M323.194 22.1963C323.012 22.2569 322.72 22.3311 322.319 22.4185C321.919 22.5058 321.584 22.5629 321.314 22.59L321.184 22.1157C321.619 22.0419 322.054 21.9206 322.489 21.7523C322.925 21.584 323.299 21.3957 323.612 21.1871H323.625L324.252 21.288V27.0613L325.963 27.1416V27.5759H321.445V27.1416L323.194 27.0613V22.1963Z" fill="#FFD129"/>
<path d="M347.118 26.4767C347.467 25.9921 347.641 25.316 347.641 24.448C347.641 22.598 346.936 21.6726 345.525 21.6726C344.777 21.6726 344.224 21.9044 343.867 22.3691C343.51 22.8333 343.332 23.4791 343.332 24.3068C343.332 25.1277 343.503 25.8154 343.847 26.3706C344.191 26.9258 344.733 27.2034 345.473 27.2034C346.222 27.2034 346.77 26.9613 347.118 26.4767ZM342.979 26.7388C342.456 26.1201 342.195 25.3495 342.195 24.4277C342.195 23.7954 342.348 23.2354 342.653 22.7472C342.957 22.2597 343.368 21.8812 343.887 21.612C344.405 21.3428 344.977 21.2083 345.604 21.2083C346.744 21.2083 347.561 21.494 348.052 22.0663C348.544 22.6383 348.79 23.4018 348.79 24.3571C348.79 24.9829 348.644 25.5481 348.353 26.0527C348.061 26.5573 347.661 26.9526 347.151 27.2386C346.642 27.5249 346.069 27.6677 345.434 27.6677C344.32 27.6677 343.501 27.3582 342.979 26.7388Z" fill="#FFD129"/>
<path d="M356.708 26.4767C357.057 25.9921 357.231 25.316 357.231 24.448C357.231 22.598 356.525 21.6726 355.115 21.6726C354.366 21.6726 353.814 21.9044 353.457 22.3691C353.1 22.8333 352.921 23.4791 352.921 24.3068C352.921 25.1277 353.093 25.8154 353.437 26.3706C353.781 26.9258 354.323 27.2034 355.063 27.2034C355.811 27.2034 356.359 26.9613 356.708 26.4767ZM352.569 26.7388C352.046 26.1201 351.785 25.3495 351.785 24.4277C351.785 23.7954 351.937 23.2354 352.242 22.7472C352.547 22.2597 352.958 21.8812 353.476 21.612C353.994 21.3428 354.567 21.2083 355.193 21.2083C356.334 21.2083 357.15 21.494 357.642 22.0663C358.134 22.6383 358.38 23.4018 358.38 24.3571C358.38 24.9829 358.234 25.5481 357.942 26.0527C357.651 26.5573 357.25 26.9526 356.741 27.2386C356.231 27.5249 355.659 27.6677 355.024 27.6677C353.909 27.6677 353.091 27.3582 352.569 26.7388Z" fill="#FFD129"/>
<path d="M375.876 26.4767C376.224 25.9921 376.398 25.316 376.398 24.448C376.398 22.598 375.693 21.6726 374.283 21.6726C373.534 21.6726 372.981 21.9044 372.624 22.3691C372.267 22.8333 372.089 23.4791 372.089 24.3068C372.089 25.1277 372.261 25.8154 372.605 26.3706C372.949 26.9258 373.491 27.2034 374.23 27.2034C374.979 27.2034 375.527 26.9613 375.876 26.4767ZM371.737 26.7388C371.214 26.1201 370.953 25.3495 370.953 24.4277C370.953 23.7954 371.105 23.2354 371.41 22.7472C371.714 22.2597 372.126 21.8812 372.644 21.612C373.162 21.3428 373.735 21.2083 374.361 21.2083C375.502 21.2083 376.318 21.494 376.81 22.0663C377.302 22.6383 377.548 23.4018 377.548 24.3571C377.548 24.9829 377.402 25.5481 377.11 26.0527C376.818 26.5573 376.418 26.9526 375.909 27.2386C375.399 27.5249 374.827 27.6677 374.192 27.6677C373.077 27.6677 372.259 27.3582 371.737 26.7388Z" fill="#FFD129"/>
<path d="M382.226 22.1963C382.043 22.2569 381.751 22.3311 381.351 22.4185C380.95 22.5058 380.615 22.5629 380.345 22.59L380.215 22.1157C380.65 22.0419 381.085 21.9206 381.521 21.7523C381.956 21.584 382.33 21.3957 382.644 21.1871H382.657L383.284 21.288V27.0613L384.994 27.1416V27.5759H380.476V27.1416L382.226 27.0613V22.1963Z" fill="#FFD129"/>
<path d="M389.12 22.1963C388.937 22.2569 388.645 22.3311 388.245 22.4185C387.844 22.5058 387.509 22.5629 387.24 22.59L387.109 22.1157C387.544 22.0419 387.98 21.9206 388.415 21.7523C388.85 21.584 389.224 21.3957 389.538 21.1871H389.551L390.178 21.288V27.0613L391.889 27.1416V27.5759H387.37V27.1416L389.12 27.0613V22.1963Z" fill="#FFD129"/>
<path d="M475.688 26.4767C476.039 25.9921 476.21 25.316 476.21 24.448C476.21 22.598 475.505 21.6726 474.095 21.6726C473.348 21.6726 472.793 21.9044 472.439 22.3691C472.08 22.8333 471.9 23.4791 471.9 24.3068C471.9 25.1277 472.076 25.8154 472.418 26.3706C472.76 26.9258 473.302 27.2034 474.045 27.2034C474.791 27.2034 475.342 26.9613 475.688 26.4767ZM471.55 26.7388C471.028 26.1201 470.766 25.3495 470.766 24.4277C470.766 23.7954 470.92 23.2354 471.225 22.7472C471.529 22.2597 471.938 21.8812 472.455 21.612C472.977 21.3428 473.548 21.2083 474.174 21.2083C475.313 21.2083 476.13 21.494 476.623 22.0663C477.115 22.6383 477.361 23.4018 477.361 24.3571C477.361 24.9829 477.215 25.5481 476.923 26.0527C476.631 26.5573 476.231 26.9526 475.722 27.2386C475.213 27.5249 474.641 27.6677 474.003 27.6677C472.889 27.6677 472.071 27.3582 471.55 26.7388Z" fill="#FFD129"/>
<path d="M482.034 22.1963C481.855 22.2569 481.563 22.3311 481.162 22.4185C480.762 22.5058 480.424 22.5629 480.157 22.59L480.023 22.1157C480.461 22.0419 480.895 21.9206 481.329 21.7523C481.767 21.584 482.138 21.3957 482.456 21.1871H482.468L483.094 21.288V27.0613L484.804 27.1416V27.5759H480.286V27.1416L482.034 27.0613V22.1963Z" fill="#FFD129"/>
<path d="M492.173 26.4767C492.523 25.9921 492.698 25.316 492.698 24.448C492.698 22.598 491.993 21.6726 490.583 21.6726C489.832 21.6726 489.282 21.9044 488.923 22.3691C488.568 22.8333 488.389 23.4791 488.389 24.3068C488.389 25.1277 488.56 25.8154 488.902 26.3706C489.248 26.9258 489.791 27.2034 490.529 27.2034C491.276 27.2034 491.826 26.9613 492.173 26.4767ZM488.034 26.7388C487.513 26.1201 487.25 25.3495 487.25 24.4277C487.25 23.7954 487.404 23.2354 487.709 22.7472C488.013 22.2597 488.426 21.8812 488.944 21.612C489.461 21.3428 490.033 21.2083 490.658 21.2083C491.801 21.2083 492.615 21.494 493.107 22.0663C493.599 22.6383 493.846 23.4018 493.846 24.3571C493.846 24.9829 493.7 25.5481 493.408 26.0527C493.116 26.5573 492.715 26.9526 492.206 27.2386C491.697 27.5249 491.126 27.6677 490.491 27.6677C489.378 27.6677 488.556 27.3582 488.034 26.7388Z" fill="#FFD129"/>
<path d="M498.511 22.1499C498.327 22.2105 498.035 22.2847 497.635 22.3721C497.234 22.4594 496.901 22.5165 496.629 22.5436L496.5 22.0693C496.934 21.9955 497.368 21.8743 497.806 21.7059C498.24 21.5376 498.615 21.3493 498.928 21.1407H498.94L499.566 21.2417V27.015L501.277 27.0952V27.5295H496.759V27.0952L498.511 27.015V22.1499Z" fill="#FFD129"/>
<path d="M269.443 2.65003C269.261 2.71033 268.969 2.78449 268.569 2.87186C268.168 2.95956 267.833 3.01663 267.563 3.04339L267.433 2.56911C267.868 2.49527 268.303 2.37404 268.739 2.20574C269.174 2.03776 269.548 1.84915 269.861 1.64087H269.875L270.502 1.74146V7.51439L272.212 7.59532V8.0293H267.694V7.59532L269.443 7.51439V2.65003Z" fill="#FFD129"/>
<path d="M309.233 2.65003C309.05 2.71033 308.758 2.78449 308.358 2.87186C307.957 2.95956 307.622 3.01663 307.352 3.04339L307.222 2.56911C307.657 2.49527 308.092 2.37404 308.528 2.20574C308.963 2.03776 309.337 1.84915 309.651 1.64087H309.664L310.29 1.74146V7.51439L312.001 7.59532V8.0293H307.483V7.59532L309.233 7.51439V2.65003Z" fill="#FFD129"/>
<path d="M352.321 6.92908C352.669 6.44448 352.843 5.76836 352.843 4.90073C352.843 3.05034 352.138 2.12499 350.728 2.12499C349.979 2.12499 349.426 2.35713 349.069 2.82142C348.713 3.28571 348.534 3.93153 348.534 4.75886C348.534 5.58007 348.706 6.2678 349.05 6.82301C349.394 7.37822 349.936 7.65582 350.675 7.65582C351.424 7.65582 351.973 7.41336 352.321 6.92908ZM348.182 7.19154C347.659 6.57249 347.398 5.80222 347.398 4.88042C347.398 4.24782 347.55 3.68809 347.855 3.19962C348.159 2.71212 348.571 2.3336 349.089 2.06438C349.607 1.79515 350.179 1.6607 350.806 1.6607C351.947 1.6607 352.763 1.94669 353.255 2.51835C353.747 3.09065 353.993 3.85414 353.993 4.80948C353.993 5.4353 353.847 6.00051 353.555 6.5051C353.264 7.00969 352.863 7.40498 352.354 7.69097C351.845 7.97728 351.272 8.12012 350.637 8.12012C349.522 8.12012 348.704 7.81059 348.182 7.19154Z" fill="#FFD129"/>
<path d="M358.671 2.65003C358.487 2.71033 358.196 2.78449 357.795 2.87186C357.395 2.95956 357.059 3.01663 356.79 3.04339L356.659 2.56911C357.094 2.49527 357.53 2.37404 357.965 2.20574C358.4 2.03776 358.775 1.84915 359.088 1.64087H359.102L359.728 1.74146V7.51439L361.439 7.59532V8.0293H356.921V7.59532L358.671 7.51439V2.65003Z" fill="#FFD129"/>
<path d="M378.383 6.92908C378.731 6.44448 378.906 5.76836 378.906 4.90073C378.906 3.05034 378.201 2.12499 376.79 2.12499C376.041 2.12499 375.489 2.35713 375.131 2.82142C374.775 3.28571 374.597 3.93153 374.597 4.75886C374.597 5.58007 374.768 6.2678 375.112 6.82301C375.456 7.37822 375.998 7.65582 376.738 7.65582C377.486 7.65582 378.035 7.41336 378.383 6.92908ZM374.243 7.19154C373.721 6.57249 373.46 5.80222 373.46 4.88042C373.46 4.24782 373.612 3.68809 373.917 3.19962C374.222 2.71212 374.633 2.3336 375.151 2.06438C375.669 1.79515 376.242 1.6607 376.869 1.6607C378.009 1.6607 378.825 1.94669 379.317 2.51835C379.808 3.09065 380.055 3.85414 380.055 4.80948C380.055 5.4353 379.909 6.00051 379.618 6.5051C379.325 7.00969 378.925 7.40498 378.416 7.69097C377.906 7.97728 377.334 8.12012 376.699 8.12012C375.584 8.12012 374.766 7.81059 374.243 7.19154Z" fill="#FFD129"/>
<path d="M394.319 2.65003C394.136 2.71033 393.844 2.78449 393.443 2.87186C393.043 2.95956 392.708 3.01663 392.438 3.04339L392.308 2.56911C392.743 2.49527 393.178 2.37404 393.613 2.20574C394.049 2.03776 394.423 1.84915 394.737 1.64087H394.75L395.376 1.74146V7.51439L397.087 7.59532V8.0293H392.569V7.59532L394.319 7.51439V2.65003Z" fill="#FFD129"/>
<path d="M418.243 6.92908C418.591 6.44448 418.765 5.76836 418.765 4.90073C418.765 3.05034 418.06 2.12499 416.65 2.12499C415.901 2.12499 415.348 2.35713 414.991 2.82142C414.634 3.28571 414.456 3.93153 414.456 4.75886C414.456 5.58007 414.628 6.2678 414.972 6.82301C415.316 7.37822 415.858 7.65582 416.597 7.65582C417.346 7.65582 417.895 7.41336 418.243 6.92908ZM414.103 7.19154C413.581 6.57249 413.32 5.80222 413.32 4.88042C413.32 4.24782 413.472 3.68809 413.777 3.19962C414.081 2.71212 414.493 2.3336 415.011 2.06438C415.529 1.79515 416.101 1.6607 416.728 1.6607C417.868 1.6607 418.684 1.94669 419.177 2.51835C419.669 3.09065 419.915 3.85414 419.915 4.80948C419.915 5.4353 419.769 6.00051 419.477 6.5051C419.185 7.00969 418.785 7.40498 418.276 7.69097C417.766 7.97728 417.193 8.12012 416.559 8.12012C415.444 8.12012 414.626 7.81059 414.103 7.19154Z" fill="#FFD129"/>
<path d="M427.829 6.92908C428.177 6.44448 428.351 5.76836 428.351 4.90073C428.351 3.05034 427.646 2.12499 426.236 2.12499C425.487 2.12499 424.934 2.35713 424.577 2.82142C424.22 3.28571 424.042 3.93153 424.042 4.75886C424.042 5.58007 424.213 6.2678 424.558 6.82301C424.902 7.37822 425.443 7.65582 426.183 7.65582C426.932 7.65582 427.48 7.41336 427.829 6.92908ZM423.689 7.19154C423.167 6.57249 422.906 5.80222 422.906 4.88042C422.906 4.24782 423.058 3.68809 423.362 3.19962C423.667 2.71212 424.079 2.3336 424.597 2.06438C425.114 1.79515 425.687 1.6607 426.314 1.6607C427.454 1.6607 428.27 1.94669 428.763 2.51835C429.254 3.09065 429.5 3.85414 429.5 4.80948C429.5 5.4353 429.354 6.00051 429.063 6.5051C428.771 7.00969 428.37 7.40498 427.862 7.69097C427.352 7.97728 426.779 8.12012 426.144 8.12012C425.03 8.12012 424.212 7.81059 423.689 7.19154Z" fill="#FFD129"/>
<path d="M473.992 6.92908C474.341 6.44448 474.515 5.76836 474.515 4.90073C474.515 3.05034 473.81 2.12499 472.399 2.12499C471.651 2.12499 471.098 2.35713 470.741 2.82142C470.384 3.28571 470.206 3.93153 470.206 4.75886C470.206 5.58007 470.377 6.2678 470.721 6.82301C471.065 7.37822 471.608 7.65582 472.347 7.65582C473.096 7.65582 473.644 7.41336 473.992 6.92908ZM469.853 7.19154C469.331 6.57249 469.07 5.80222 469.07 4.88042C469.07 4.24782 469.222 3.68809 469.526 3.19962C469.831 2.71212 470.243 2.3336 470.761 2.06438C471.279 1.79515 471.851 1.6607 472.478 1.6607C473.618 1.6607 474.434 1.94669 474.927 2.51835C475.418 3.09065 475.664 3.85414 475.664 4.80948C475.664 5.4353 475.518 6.00051 475.227 6.5051C474.935 7.00969 474.534 7.40498 474.025 7.69097C473.516 7.97728 472.943 8.12012 472.308 8.12012C471.193 8.12012 470.375 7.81059 469.853 7.19154Z" fill="#FFD129"/>
<path d="M480.342 2.65003C480.16 2.71033 479.868 2.78449 479.467 2.87186C479.067 2.95956 478.732 3.01663 478.462 3.04339L478.331 2.56911C478.766 2.49527 479.202 2.37404 479.637 2.20574C480.073 2.03776 480.447 1.84915 480.76 1.64087H480.773L481.4 1.74146V7.51439L483.111 7.59532V8.0293H478.592V7.59532L480.342 7.51439V2.65003Z" fill="#FFD129"/>
<path d="M487.237 2.65003C487.054 2.71033 486.763 2.78449 486.362 2.87186C485.961 2.95956 485.626 3.01663 485.357 3.04339L485.226 2.56911C485.661 2.49527 486.096 2.37404 486.532 2.20574C486.967 2.03776 487.342 1.84915 487.655 1.64087H487.668L488.295 1.74146V7.51439L490.005 7.59532V8.0293H485.487V7.59532L487.237 7.51439V2.65003Z" fill="#FFD129"/>
</g>
<defs>
<filter id="filter0_d" x="0" y="-0.00109863" width="505.277" height="35.6689" filterUnits="userSpaceOnUse" color-interpolation-filters="sRGB">
<feFlood flood-opacity="0" result="BackgroundImageFix"/>
<feColorMatrix in="SourceAlpha" type="matrix" values="0 0 0 0 0 0 0 0 0 0 0 0 0 0 0 0 0 0 127 0"/>
<feOffset dy="4"/>
<feGaussianBlur stdDeviation="2"/>
<feColorMatrix type="matrix" values="0 0 0 0 0 0 0 0 0 0 0 0 0 0 0 0 0 0 0.25 0"/>
<feBlend mode="normal" in2="BackgroundImageFix" result="effect1_dropShadow"/>
<feBlend mode="normal" in="SourceGraphic" in2="effect1_dropShadow" result="shape"/>
</filter>
</defs>
</svg>
