<svg width="42" height="37" viewBox="0 0 42 37" fill="none" xmlns="http://www.w3.org/2000/svg">
<path fill-rule="evenodd" clip-rule="evenodd" d="M3.43481 0.411865C1.77796 0.411865 0.434814 1.75501 0.434814 3.41187V26.574C0.434814 28.2309 1.77796 29.574 3.43482 29.574H19.2553V32.8138C19.2553 32.8138 12.2083 33.5159 10.9918 33.921C9.77535 34.326 9.61467 36.2161 9.61467 36.2161H32.5689C32.5689 36.2161 32.6857 35.244 32.0271 34.434C31.3684 33.6239 22.9276 32.8138 22.9276 32.8138V29.574H38.7478C40.4047 29.574 41.7478 28.2309 41.7478 26.574V3.41187C41.7478 1.75501 40.4047 0.411865 38.7478 0.411865H3.43481ZM39.9109 2.24766H2.27013V26.1174H39.9109V2.24766ZM19.298 20.2298H17.7887L23.5603 5.22151H25.0602L19.298 20.2298ZM10.2323 12.9297L16.1749 15.3314V17.192L8.4097 13.5942V12.2083L16.1749 8.61996V10.4806L10.2323 12.9297ZM26.9018 10.4141L33.1766 12.8728L26.9018 15.3599V17.1825L35.0088 13.5847V12.1988L26.9018 8.61047V10.4141Z" fill="#FD009C"/>
</svg>
