<svg width="34" height="40" viewBox="0 0 34 40" fill="none" xmlns="http://www.w3.org/2000/svg">
<path d="M29.3197 25.8747C28.3151 24.9187 27.3112 23.4031 27.286 21.0845C27.27 19.1756 28.0445 17.7676 28.8605 16.8078C29.2702 16.3258 29.6866 15.9622 30.0081 15.7154C30.1683 15.5924 30.3032 15.4997 30.3996 15.437C30.4947 15.3751 30.5499 15.3439 30.5521 15.3427L30.5521 15.3427L31.5125 14.8099L30.8923 13.9035C28.5419 10.4685 24.9354 10.097 23.7497 10.0163C22.7759 9.94126 21.8606 10.0649 21.0332 10.2675C21.6516 9.83224 22.2003 9.32281 22.649 8.78515C24.014 7.14955 24.953 4.82886 24.69 2.46509L24.5867 1.53652L23.6532 1.5766C21.5863 1.66537 19.2218 2.91022 17.7979 4.56404C16.5475 6.00099 15.3956 8.37159 15.71 10.7484L15.7812 11.2864C15.5978 11.2175 15.4062 11.1415 15.1995 11.0596C15.0641 11.006 14.9223 10.9497 14.772 10.8912C13.7829 10.5061 12.5229 10.0571 11.1813 10.0894C7.83752 10.1342 4.80555 12.0261 3.11195 14.9696C1.41253 17.9163 1.23093 21.4885 1.81694 24.8052C2.40433 28.1296 3.78288 31.3226 5.36817 33.6125L5.37015 33.6153C6.10059 34.6626 6.95972 35.8712 7.95512 36.8031C8.95328 37.7375 10.2115 38.5101 11.7433 38.46L11.7532 38.4596C12.9652 38.4079 13.8475 38.0304 14.5955 37.7103C14.6603 37.6826 14.7241 37.6554 14.787 37.6288C15.5599 37.3018 16.2937 37.0258 17.4387 37.0258C18.5592 37.0258 19.2593 37.315 20.0462 37.6543C20.0695 37.6644 20.0929 37.6745 20.1165 37.6847C20.9172 38.0305 21.8558 38.4359 23.225 38.4037C24.74 38.3783 25.9381 37.6838 26.909 36.7784C27.8605 35.8911 28.6611 34.7368 29.3799 33.6836C31.1487 31.1035 31.8843 28.6095 31.9359 28.4292L32.1995 27.5079L31.2903 27.2053C31.2992 27.2082 31.2947 27.2063 31.2784 27.1993C31.1465 27.142 30.2368 26.7475 29.3197 25.8747Z" stroke="#FD009C" stroke-width="2"/>
</svg>
