<svg width="45" height="45" viewBox="0 0 45 45" fill="none" xmlns="http://www.w3.org/2000/svg">
<path d="M2.96015 42.0974L2.71322 42.3454L2.96015 42.0974C2.89974 42.0372 2.86609 41.956 2.86609 41.8716V3.01008C2.86609 2.92571 2.89974 2.84448 2.96015 2.78434C3.02061 2.72415 3.10296 2.69005 3.18914 2.69005H31.4574C31.5436 2.69005 31.6259 2.72415 31.6864 2.78434L31.9333 2.5363L31.6864 2.78435C31.7468 2.84448 31.7804 2.92571 31.7804 3.01008V9.71035C31.7804 9.98139 31.8886 10.241 32.0806 10.4322C32.2726 10.6233 32.5326 10.7304 32.8035 10.7304C33.0743 10.7304 33.3343 10.6233 33.5263 10.4322C33.7184 10.241 33.8265 9.98139 33.8265 9.71035V3.01008C33.8265 1.70707 32.7624 0.65 31.4574 0.65H3.18914C1.8841 0.65 0.819983 1.70707 0.819983 3.01008V41.8716C0.819983 43.1747 1.8841 44.2317 3.18914 44.2317H22.0346C22.3054 44.2317 22.5655 44.1246 22.7575 43.9335C22.9495 43.7424 23.0577 43.4827 23.0577 43.2117C23.0577 42.9407 22.9495 42.681 22.7575 42.4899C22.5655 42.2988 22.3054 42.1917 22.0346 42.1917H3.18914C3.10295 42.1917 3.02061 42.1576 2.96015 42.0974Z" fill="#56CDF2" stroke="#56CDF2" stroke-width="0.7"/>
<path d="M25.0536 15.0706V41.8717C25.0536 43.1747 26.1177 44.2318 27.4228 44.2318H42.2299C43.535 44.2318 44.5991 43.1747 44.5991 41.8717V15.0706C44.5991 13.7676 43.535 12.7105 42.2299 12.7105H27.4228C26.1177 12.7105 25.0536 13.7676 25.0536 15.0706ZM42.553 15.0706V41.8717C42.553 41.9561 42.5194 42.0373 42.4589 42.0974C42.3985 42.1576 42.3161 42.1917 42.2299 42.1917H27.4228C27.3366 42.1917 27.2543 42.1576 27.1938 42.0974C27.1334 42.0373 27.0997 41.9561 27.0997 41.8717V15.0706C27.0997 14.9863 27.1334 14.905 27.1938 14.8449C27.2543 14.7847 27.3366 14.7506 27.4228 14.7506H42.2299C42.3161 14.7506 42.3985 14.7847 42.4589 14.8449C42.5194 14.905 42.553 14.9863 42.553 15.0706Z" fill="#56CDF2" stroke="#56CDF2" stroke-width="0.7"/>
<path d="M17.3218 40.2137C18.2571 40.2137 19.0179 39.4585 19.0179 38.5236C19.0179 37.5888 18.2571 36.8336 17.3218 36.8336C16.3866 36.8336 15.6257 37.5888 15.6257 38.5236C15.6257 39.4585 16.3866 40.2137 17.3218 40.2137Z" fill="#56CDF2" stroke="#56CDF2" stroke-width="0.7"/>
<path d="M34.8252 40.2137C35.7605 40.2137 36.5213 39.4585 36.5213 38.5236C36.5213 37.5888 35.7605 36.8336 34.8252 36.8336C33.89 36.8336 33.1291 37.5888 33.1291 38.5236C33.1291 39.4585 33.89 40.2137 34.8252 40.2137Z" fill="#56CDF2" stroke="#56CDF2" stroke-width="0.7"/>
</svg>
