<svg width="941" height="75" viewBox="0 0 941 75" fill="none" xmlns="http://www.w3.org/2000/svg">
<path fill-rule="evenodd" clip-rule="evenodd" d="M146.422 43.4189H-4.94922V43.904H146.422V43.4189Z" fill="#56CDF2"/>
<path fill-rule="evenodd" clip-rule="evenodd" d="M941 66H-5V67H941V66Z" fill="#56CDF2"/>
<path fill-rule="evenodd" clip-rule="evenodd" d="M281.36 65.9146H263.867V66.685H281.36V65.9146Z" fill="#56CDF2"/>
<path fill-rule="evenodd" clip-rule="evenodd" d="M330.83 65.9146H307.066V66.685H330.83V65.9146Z" fill="#56CDF2"/>
<path fill-rule="evenodd" clip-rule="evenodd" d="M341.328 65.9146H330.582V66.685H341.328V65.9146Z" fill="#56CDF2"/>
<path fill-rule="evenodd" clip-rule="evenodd" d="M77.7723 0.709473H-4.94922V1.33729H77.7723V0.709473Z" fill="#56CDF2"/>
<path fill-rule="evenodd" clip-rule="evenodd" d="M138.535 49.1255H-4.94922V50.4191H138.535V49.1255Z" fill="#56CDF2"/>
<path fill-rule="evenodd" clip-rule="evenodd" d="M89.0792 28.9126H-4.94922V30.6819H89.0792V28.9126Z" fill="#56CDF2"/>
<path fill-rule="evenodd" clip-rule="evenodd" d="M231.034 60.2075H-4.94922V62.3097H231.034V60.2075Z" fill="#56CDF2"/>
<path fill-rule="evenodd" clip-rule="evenodd" d="M90.2194 40.2319H-4.94922V41.2877H90.2194V40.2319Z" fill="#56CDF2"/>
<path fill-rule="evenodd" clip-rule="evenodd" d="M237.163 50.125H-4.94922V51.8942H237.163V50.125Z" fill="#56CDF2"/>
<path fill-rule="evenodd" clip-rule="evenodd" d="M281.36 50.1719H263.867V51.9411H281.36V50.1719Z" fill="#56CDF2"/>
<path fill-rule="evenodd" clip-rule="evenodd" d="M307.066 51.9411H308.169V50.1719H307.066V51.9411Z" fill="#56CDF2"/>
<path fill-rule="evenodd" clip-rule="evenodd" d="M281.36 52.1216H263.867V54.3189H281.36V52.1216Z" fill="#56CDF2"/>
<path fill-rule="evenodd" clip-rule="evenodd" d="M307.066 54.3189H308.169V52.1216H307.066V54.3189Z" fill="#56CDF2"/>
<path fill-rule="evenodd" clip-rule="evenodd" d="M96.0146 7.13037H2.69873V7.94842H96.0146V7.13037Z" fill="#56CDF2"/>
<path fill-rule="evenodd" clip-rule="evenodd" d="M139.249 7.03516H95.7695V7.90078H139.249V7.03516Z" fill="#56CDF2"/>
<path fill-rule="evenodd" clip-rule="evenodd" d="M191.127 54.1191H-4.94922V54.6518H191.127V54.1191Z" fill="#56CDF2"/>
<path fill-rule="evenodd" clip-rule="evenodd" d="M383 27H-5V28H383V27Z" fill="#56CDF2"/>
<path fill-rule="evenodd" clip-rule="evenodd" d="M96.0155 2.75439H-4.94922V3.38221H96.0155V2.75439Z" fill="#56CDF2"/>
<path fill-rule="evenodd" clip-rule="evenodd" d="M120.103 2.80322H95.7695V3.43104H120.103V2.80322Z" fill="#56CDF2"/>
<path fill-rule="evenodd" clip-rule="evenodd" d="M82.3331 17.5935H-4.94922V18.1262H82.3331V17.5935Z" fill="#56CDF2"/>
<path fill-rule="evenodd" clip-rule="evenodd" d="M141.956 31.5288H-4.94922V32.0615H141.956V31.5288Z" fill="#56CDF2"/>
<path fill-rule="evenodd" clip-rule="evenodd" d="M75.2543 11.7915H-4.94922V14.3693H75.2543V11.7915Z" fill="#56CDF2"/>
<path fill-rule="evenodd" clip-rule="evenodd" d="M96.0146 2.42236H2.69873V3.05012H96.0146V2.42236Z" fill="#56CDF2"/>
<path fill-rule="evenodd" clip-rule="evenodd" d="M95.7695 3.09693H97.2993V2.37402H95.7695V3.09693Z" fill="#56CDF2"/>
<path fill-rule="evenodd" clip-rule="evenodd" d="M96.0146 2.75488H2.69873V3.19243H96.0146V2.75488Z" fill="#56CDF2"/>
<path fill-rule="evenodd" clip-rule="evenodd" d="M96.0146 3.13477H2.69873V3.95279H96.0146V3.13477Z" fill="#56CDF2"/>
<path fill-rule="evenodd" clip-rule="evenodd" d="M95.7695 4.00113H97.2993V3.18311H95.7695V4.00113Z" fill="#56CDF2"/>
<path fill-rule="evenodd" clip-rule="evenodd" d="M113.45 72.1919H50.8242V72.9148H113.45V72.1919Z" fill="#56CDF2"/>
<path fill-rule="evenodd" clip-rule="evenodd" d="M95.2969 3.38221H96.019V2.75439H95.2969V3.38221Z" fill="#56CDF2"/>
<path fill-rule="evenodd" clip-rule="evenodd" d="M95.7695 3.43104H97.2993V2.80322H95.7695V3.43104Z" fill="#56CDF2"/>
<path fill-rule="evenodd" clip-rule="evenodd" d="M95.5395 2.75439H2.69873V3.38221H95.5395V2.75439Z" fill="#56CDF2"/>
<path fill-rule="evenodd" clip-rule="evenodd" d="M230.082 22.0645H80.4692V22.7873H230.082V22.0645Z" fill="#56CDF2"/>
<path fill-rule="evenodd" clip-rule="evenodd" d="M80.7178 22.397H-4.94922V22.787H80.7178V22.397Z" fill="#56CDF2"/>
<path fill-rule="evenodd" clip-rule="evenodd" d="M263.867 48.6123H275.089V45.7017H263.867V48.6123Z" fill="#56CDF2"/>
<path fill-rule="evenodd" clip-rule="evenodd" d="M98.3908 70.2417H29.9219V70.8695H98.3908V70.2417Z" fill="#56CDF2"/>
<path fill-rule="evenodd" clip-rule="evenodd" d="M58.1507 74.4756H33.2468V74.9607H58.1507V74.4756Z" fill="#56CDF2"/>
<path fill-rule="evenodd" clip-rule="evenodd" d="M68.9832 4.46704H-4.94922V4.99973H68.9832V4.46704Z" fill="#FD009C"/>
<path fill-rule="evenodd" clip-rule="evenodd" d="M167.515 36.0945H-4.94922V39.0051H167.515V36.0945Z" fill="#FD009C"/>
<path fill-rule="evenodd" clip-rule="evenodd" d="M41.2859 44.4175H-4.94922V46.0916H41.2859V44.4175Z" fill="#FD009C"/>
<path fill-rule="evenodd" clip-rule="evenodd" d="M29.8839 21.3984H-4.94922V22.3591H29.8839V21.3984Z" fill="#FD009C"/>
<path fill-rule="evenodd" clip-rule="evenodd" d="M80.7178 22.0645H-4.94922V22.6922H80.7178V22.0645Z" fill="#FD009C"/>
</svg>
