<svg width="279" height="11" viewBox="0 0 279 11" fill="none" xmlns="http://www.w3.org/2000/svg">
<path fill-rule="evenodd" clip-rule="evenodd" d="M0.843628 5.21942H8.6445V0.59668H0.843628V5.21942Z" fill="#56CDF2"/>
<path fill-rule="evenodd" clip-rule="evenodd" d="M11.4413 5.21886H15.1565V0.500977H11.4413V5.21886Z" fill="#56CDF2"/>
<path fill-rule="evenodd" clip-rule="evenodd" d="M30.4883 5.21942H38.2892V0.59668H30.4883V5.21942Z" fill="#56CDF2"/>
<path fill-rule="evenodd" clip-rule="evenodd" d="M79.0625 5.21886H82.7301V0.500977H79.0625V5.21886Z" fill="#56CDF2"/>
<path fill-rule="evenodd" clip-rule="evenodd" d="M103.003 5.21942H110.662V0.59668H103.003V5.21942Z" fill="#56CDF2"/>
<path fill-rule="evenodd" clip-rule="evenodd" d="M113.836 5.21942H121.637V0.59668H113.836V5.21942Z" fill="#56CDF2"/>
<path fill-rule="evenodd" clip-rule="evenodd" d="M135.688 5.21942H143.393V0.59668H135.688V5.21942Z" fill="#56CDF2"/>
<path fill-rule="evenodd" clip-rule="evenodd" d="M146.188 5.21886H149.998V0.500977H146.188V5.21886Z" fill="#56CDF2"/>
<path fill-rule="evenodd" clip-rule="evenodd" d="M154.074 5.21886H157.884V0.500977H154.074V5.21886Z" fill="#56CDF2"/>
<path fill-rule="evenodd" clip-rule="evenodd" d="M245.59 5.21942H253.391V0.59668H245.59V5.21942Z" fill="#56CDF2"/>
<path fill-rule="evenodd" clip-rule="evenodd" d="M256.09 5.21886H259.9V0.500977H256.09V5.21886Z" fill="#56CDF2"/>
<path fill-rule="evenodd" clip-rule="evenodd" d="M264.406 5.21942H272.112V0.59668H264.406V5.21942Z" fill="#56CDF2"/>
<path fill-rule="evenodd" clip-rule="evenodd" d="M274.906 5.21886H278.716V0.500977H274.906V5.21886Z" fill="#56CDF2"/>
<path fill-rule="evenodd" clip-rule="evenodd" d="M0.843628 10.3551H8.6445V4.92383H0.843628V10.3551Z" fill="#56CDF2"/>
<path fill-rule="evenodd" clip-rule="evenodd" d="M11.6749 10.26H17.1004V4.92383H11.6749V10.26Z" fill="#56CDF2"/>
<path fill-rule="evenodd" clip-rule="evenodd" d="M30.4883 10.3551H38.2892V4.92383H30.4883V10.3551Z" fill="#56CDF2"/>
<path fill-rule="evenodd" clip-rule="evenodd" d="M79.25 10.26H84.6754V4.92383H79.25V10.26Z" fill="#56CDF2"/>
<path fill-rule="evenodd" clip-rule="evenodd" d="M102.859 10.3551H110.66V4.92383H102.859V10.3551Z" fill="#56CDF2"/>
<path fill-rule="evenodd" clip-rule="evenodd" d="M113.836 10.3551H121.637V4.92383H113.836V10.3551Z" fill="#56CDF2"/>
<path fill-rule="evenodd" clip-rule="evenodd" d="M135.688 10.3551H143.536V4.92383H135.688V10.3551Z" fill="#56CDF2"/>
<path fill-rule="evenodd" clip-rule="evenodd" d="M146.523 10.26H151.949V4.92383H146.523V10.26Z" fill="#56CDF2"/>
<path fill-rule="evenodd" clip-rule="evenodd" d="M154.406 10.26H159.832V4.92383H154.406V10.26Z" fill="#56CDF2"/>
<path fill-rule="evenodd" clip-rule="evenodd" d="M245.59 10.3551H253.391V4.92383H245.59V10.3551Z" fill="#56CDF2"/>
<path fill-rule="evenodd" clip-rule="evenodd" d="M256.421 10.26H261.846V4.92383H256.421V10.26Z" fill="#56CDF2"/>
<path fill-rule="evenodd" clip-rule="evenodd" d="M264.309 10.3551H272.109V4.92383H264.309V10.3551Z" fill="#56CDF2"/>
<path fill-rule="evenodd" clip-rule="evenodd" d="M129.418 10.2125H135.081V0.54834H129.418V10.2125Z" fill="#56CDF2"/>
<path fill-rule="evenodd" clip-rule="evenodd" d="M145.141 10.2602H150.757V0.500977H145.141V10.2602Z" fill="#56CDF2"/>
</svg>
