<svg width="40" height="36" viewBox="0 0 40 36" fill="none" xmlns="http://www.w3.org/2000/svg">
<path d="M32.888 11.6683C32.4623 11.5206 32.033 11.3837 31.6005 11.2579C31.6731 10.9575 31.74 10.6609 31.7994 10.3694C32.7741 5.58331 32.1369 1.72753 29.9605 0.45802C27.8737 -0.759014 24.4611 0.51002 21.0145 3.54423C20.6749 3.8438 20.3427 4.152 20.0184 4.46854C19.8013 4.25805 19.5804 4.05165 19.3558 3.84944C15.7436 0.60517 12.123 -0.762175 9.94891 0.510969C7.86406 1.7318 7.24672 5.3565 8.12422 9.89241C8.21152 10.3416 8.31009 10.7886 8.41984 11.2327C7.90734 11.38 7.41281 11.5368 6.93953 11.7037C2.70453 13.1974 0 15.538 0 17.9659C0 20.4735 2.90344 22.9886 7.31437 24.5137C7.67198 24.6369 8.03256 24.751 8.39578 24.8559C8.27782 25.3343 8.17309 25.8159 8.08172 26.3002C7.24516 30.7574 7.89844 34.2965 9.97766 35.5096C12.1252 36.7623 15.7295 35.4748 19.2391 32.3713C19.5236 32.119 19.802 31.8596 20.0737 31.5932C20.4249 31.936 20.7855 32.2688 21.155 32.5912C24.5547 35.5503 27.9122 36.7452 29.9894 35.5288C32.1348 34.2724 32.8322 30.4706 31.9269 25.845C31.8556 25.4827 31.7756 25.1221 31.687 24.7636C31.9402 24.6877 32.1886 24.6097 32.4308 24.5284C37.0164 22.9916 40 20.507 40 17.9659C40 15.5292 37.2081 13.1727 32.888 11.6683ZM31.8934 22.8878C31.6747 22.961 31.4503 23.0316 31.2216 23.1004C30.7153 21.4792 30.0322 19.7554 29.1961 17.9743C29.9939 16.2357 30.6508 14.5339 31.1428 12.9233C31.552 13.0431 31.9491 13.1694 32.3319 13.3026C36.0334 14.5917 38.2912 16.4974 38.2912 17.9659C38.2912 19.5301 35.8528 21.5606 31.8934 22.8878ZM30.2506 26.1807C30.6509 28.226 30.708 30.0753 30.4428 31.521C30.2047 32.8201 29.7256 33.6861 29.1331 34.033C27.8727 34.7711 25.1769 33.8117 22.2695 31.2809C21.9258 30.9811 21.5904 30.6718 21.2638 30.3531C22.3909 29.1062 23.5173 27.6567 24.6167 26.0467C26.5505 25.8732 28.3773 25.5893 30.0341 25.2019C30.1156 25.5349 30.1881 25.8615 30.2506 26.1807ZM13.6369 33.9054C12.4053 34.3453 11.4244 34.358 10.8314 34.0121C9.56969 33.2761 9.04516 30.4344 9.76062 26.6227C9.84567 26.1723 9.94306 25.7243 10.0527 25.2794C11.6911 25.646 13.5047 25.9097 15.443 26.0687C16.5498 27.644 17.7087 29.092 18.8767 30.3599C18.6285 30.6029 18.3744 30.8396 18.1147 31.0699C16.5627 32.4422 15.0075 33.4158 13.6369 33.9054ZM7.86719 22.8782C5.91672 22.2037 4.30594 21.3273 3.20188 20.3709C2.20969 19.5116 1.70891 18.6582 1.70891 17.9659C1.70891 16.4925 3.88031 14.6132 7.50203 13.336C7.94156 13.1811 8.40156 13.0349 8.87891 12.8977C9.37953 14.5446 10.0361 16.2667 10.8284 18.008C10.0258 19.775 9.35984 21.5246 8.85437 23.191C8.52283 23.0949 8.19367 22.9906 7.86719 22.8782ZM9.80125 9.56033C9.04953 5.6742 9.54875 2.74272 10.8052 2.00697C12.1433 1.22333 15.1023 2.34063 18.2212 5.14202C18.4246 5.32511 18.6247 5.51191 18.8214 5.70233C17.6592 6.96473 16.5109 8.40193 15.4139 9.96796C13.5327 10.1443 11.7319 10.4276 10.0763 10.8071C9.97425 10.3939 9.88255 9.97829 9.80125 9.56049V9.56033ZM27.0555 13.8702C26.6644 13.1869 26.2589 12.5122 25.8391 11.8466C27.1153 12.0099 28.3381 12.2266 29.4864 12.4915C29.1417 13.6093 28.712 14.7778 28.2063 15.9758C27.8366 15.2663 27.4529 14.5643 27.0555 13.8702ZM20.0192 6.9377C20.8073 7.80148 21.5967 8.76578 22.3731 9.81211C20.7981 9.73687 19.2205 9.73655 17.6455 9.81116C18.4227 8.77447 19.2188 7.81143 20.0192 6.9377ZM12.9378 13.8821C12.5454 14.5705 12.1689 15.2682 11.8086 15.9744C11.3111 14.7806 10.8853 13.6067 10.5377 12.4731C11.6789 12.2149 12.8959 12.0037 14.1641 11.8435C13.7396 12.5131 13.3307 13.1928 12.9378 13.8819V13.8821ZM14.2005 24.2114C12.8903 24.0634 11.655 23.8632 10.5141 23.6119C10.8672 22.458 11.3023 21.2592 11.8106 20.0398C12.1723 20.7465 12.5504 21.4446 12.9445 22.1334C13.3498 22.8415 13.7695 23.535 14.2005 24.2114ZM20.0664 29.1159C19.2564 28.232 18.4486 27.2541 17.6597 26.2024C18.4256 26.2327 19.2064 26.2482 20 26.2482C20.8153 26.2482 21.6213 26.2297 22.4145 26.194C21.6356 27.2647 20.8492 28.244 20.0664 29.1159ZM28.2223 19.9775C28.757 21.2103 29.2077 22.4029 29.5655 23.5369C28.4058 23.8047 27.1536 24.0203 25.8342 24.1804C26.257 23.5024 26.6664 22.816 27.0622 22.1215C27.4646 21.4157 27.8514 20.7008 28.2223 19.9775ZM25.582 21.2579C24.9761 22.3227 24.3361 23.3672 23.6631 24.3898C22.444 24.4772 21.2222 24.5205 20 24.5199C18.7552 24.5199 17.5444 24.4807 16.3784 24.4042C15.6878 23.3839 15.0357 22.3376 14.4233 21.2674H14.4234C13.8139 20.2029 13.2446 19.1154 12.7167 18.0072C13.2433 16.8987 13.8109 15.8107 14.4183 14.7454L14.4181 14.7455C15.0253 13.6799 15.6723 12.6381 16.3577 11.6222C17.5472 11.5311 18.767 11.4837 19.9998 11.4837H20C21.2384 11.4837 22.4598 11.5316 23.6491 11.6233C24.3275 12.6377 24.9704 13.6759 25.5764 14.7362C26.1858 15.7992 26.7609 16.8819 27.3008 17.9827C26.7665 19.0947 26.1932 20.1872 25.582 21.2579ZM29.107 1.95545C30.4464 2.73688 30.9673 5.88805 30.1258 10.0204C30.072 10.2841 30.0117 10.5526 29.9461 10.8249C28.2864 10.4374 26.4844 10.1492 24.5977 9.97017C23.4986 8.38692 22.3597 6.9475 21.2164 5.70138C21.516 5.40922 21.8228 5.12463 22.1364 4.84788C25.0895 2.24832 27.8495 1.22191 29.107 1.95545ZM20 14.3528C21.9727 14.3528 23.5719 15.9705 23.5719 17.9659C23.5719 19.9614 21.9727 21.5791 20 21.5791C18.0273 21.5791 16.4281 19.9614 16.4281 17.9659C16.4281 15.9705 18.0273 14.3528 20 14.3528Z" fill="#00D8FF"/>
</svg>
