<?xml version="1.0" encoding="utf-8"?><svg xmlns="http://www.w3.org/2000/svg" xmlns:xlink="http://www.w3.org/1999/xlink"><symbol viewBox="0 0 78.35 91.32" id="android_picture" xmlns="http://www.w3.org/2000/svg"><path d="M24.514 4.265c-.26-.397-.2-.894.149-1.132.348-.248.845-.12 1.103.258m-1.252.874l31.668-1.142c-.348-.238-.845-.119-1.103.258l-4.634 6.715m-25.931-5.83l3.886 5.62-3.887-5.622zm1.252-.875l4.634 6.705M25.766 3.39l.823-.568v.001c-.504-.735-1.605-1.142-2.5-.51-.89.616-.894 1.758-.414 2.497l.008.012.008.011 3.805 5.502 26.758-7.52m-28.488.575l.825-.565 4.187 6.059m-.378 1.21c3.052-1.201 6.453-1.866 10.022-1.866 3.57 0 6.97.665 10.023 1.867m-20.045 0l-.367-.93c.247-.098.495-.191.745-.281m-.378 1.21l.822-.568-.444-.642m19.667 1.21l-.823-.567.444-.643m.38 1.21l.365-.93c-.246-.097-.494-.19-.745-.28m4.188-6.069l.001-.002-.001.002zm0 0l-4.188 6.069m-19.288 0a28.49 28.49 0 0 1 9.644-1.656c3.407 0 6.67.585 9.644 1.656m-29.47 66.653h3.842v10.96c0 3.568 2.87 6.502 6.43 6.502 3.567 0 6.428-2.924 6.428-6.503V75.53h6.452v10.958c0 3.569 2.87 6.503 6.429 6.503 3.568 0 6.429-2.924 6.429-6.503V75.53h3.842c2.886 0 5.236-2.343 5.236-5.222V30.054H15.36v40.263c0 2.88 2.35 5.222 5.236 5.222zm29.162-58.5l-.707-.707.707.708a1.676 1.676 0 0 1 2.859 1.18 1.677 1.677 0 0 1-2.606 1.391 1.672 1.672 0 0 1-.253-2.571zM28.673 18.86l-.923.383.924-.383a1.668 1.668 0 0 1 .362-1.821 1.676 1.676 0 0 1 2.86 1.18 1.677 1.677 0 0 1-3.223.641zm44.482 11.035c-3.568 0-6.429 2.924-6.429 6.502v21.495c0 3.568 2.87 6.502 6.43 6.502 3.567 0 6.428-2.924 6.428-6.503V36.388c.01-3.584-2.856-6.493-6.429-6.493zm-65.485 0c-3.568 0-6.43 2.924-6.43 6.502v21.495c0 3.568 2.872 6.502 6.43 6.502 3.568 0 6.429-2.924 6.429-6.503V36.388c0-3.582-2.874-6.492-6.43-6.492z"/></symbol><symbol viewBox="0 0 69.18 82.13" id="apple_picture" xmlns="http://www.w3.org/2000/svg"><path d="M64.033 73.61c4.007-5.753 5.674-11.324 5.776-11.676l.27-.928-.919-.301-.009-.004c-.17-.068-2.621-1.039-5.08-3.342-2.542-2.382-5.08-6.173-5.144-11.903-.082-9.522 7.932-14.113 8.287-14.307l.978-.534-.636-.914c-5.117-7.363-12.97-8.17-15.635-8.349-3.607-.275-6.886.695-9.585 1.682-.665.243-1.259.472-1.816.688a62.54 62.54 0 0 1-1.809.68c-1.076.378-1.886.584-2.495.584-.637 0-1.426-.182-2.4-.508a49.842 49.842 0 0 1-2.24-.835c-.31-.12-.629-.245-.958-.371-2.303-.883-5.018-1.818-7.852-1.749-7.282.093-13.935 4.15-17.668 10.538C1.347 38.464.901 46.318 2.236 53.753c1.336 7.443 4.475 14.592 8.06 19.689l.002.003c1.711 2.414 3.639 5.075 5.842 7.105 2.206 2.033 4.807 3.544 7.866 3.446h.01c2.569-.109 4.417-.886 6.165-1.62l.436-.183c1.863-.776 3.768-1.487 6.7-1.487 2.896 0 4.736.755 6.606 1.55l.133.056c1.86.79 3.818 1.622 6.713 1.554 3.093-.05 5.584-1.435 7.697-3.374 2.093-1.922 3.88-4.449 5.567-6.882zm0 0v.001l-.82-.571.82.57zM52.888 2.888l-.105-.926-.931.039c-4.4.186-9.578 2.842-12.688 6.399-2.758 3.12-5.223 8.203-4.555 13.174l.108.802.807.062c4.946.377 9.902-2.48 12.905-6.021 3-3.54 5.025-8.523 4.459-13.53z"/></symbol><symbol viewBox="0 0 862.39 445.81" id="blue_lines" xmlns="http://www.w3.org/2000/svg"><path fill-rule="evenodd" clip-rule="evenodd" d="M408.811 420.656h26.43v.479h-26.43v-.479z"/><path fill-rule="evenodd" clip-rule="evenodd" d="M379.739 420.656h29.517v.479h-29.517v-.479z"/><path fill-rule="evenodd" clip-rule="evenodd" d="M380.257 421.251h-2.455v-.537h2.455v.537zm286.186-.712h195.768v1.178H666.443v-1.178z"/><path fill-rule="evenodd" clip-rule="evenodd" d="M666.652 420.714h195.481v.537H666.652v-.537z"/><path fill-rule="evenodd" clip-rule="evenodd" d="M780.507 420.539h81.704v1.178h-81.704v-1.178z"/><path fill-rule="evenodd" clip-rule="evenodd" d="M780.507 420.831h81.704v.887h-81.704v-.887zM.075 114.514h599.909v1.47H.075v-1.47z"/><path fill-rule="evenodd" clip-rule="evenodd" d="M599.248 114.745h26.287v.887h-26.287v-.887z"/><path fill-rule="evenodd" clip-rule="evenodd" d="M625.091 114.745h236.971v.887H625.091v-.887z"/><path fill-rule="evenodd" clip-rule="evenodd" d="M843.237 114.745h6.978v.887h-6.978v-.887zM698.525 235.034h163.537v1.295H698.525v-1.295zm-19.166 5.424h182.703v1.353H679.359v-1.353zm-45.943 134.23h228.717v.595H633.416v-.595zM496.31 402.28h365.823v.887H496.31v-.887z"/><path fill-rule="evenodd" clip-rule="evenodd" d="M470.323 402.28h26.43v.945h-26.43v-.945z"/><path fill-rule="evenodd" clip-rule="evenodd" d="M434.862 402.28h35.906v.945h-35.906v-.945z"/><path fill-rule="evenodd" clip-rule="evenodd" d="M419.004 402.28h16.237v.945h-16.237v-.945zm318.139-79.977h124.99v.77h-124.99v-.77zm-27.635-23.042h152.554v.478H709.508v-.478z"/><path fill-rule="evenodd" clip-rule="evenodd" d="M683.522 299.261h26.431v.478h-26.431v-.478z"/><path fill-rule="evenodd" clip-rule="evenodd" d="M577.426 299.261h106.541v.653H577.426v-.653z"/><path fill-rule="evenodd" clip-rule="evenodd" d="M661.785 299.68h-2.311v-.479h2.311v.479zm-23.753 0h-2.168v-.479h2.168v.479zm71.543 14.398h86.226v.77h-86.226v-.77z"/><path fill-rule="evenodd" clip-rule="evenodd" d="M683.522 314.078h26.431v.653h-26.431v-.653z"/><path fill-rule="evenodd" clip-rule="evenodd" d="M545.196 314.078h138.771v.653H545.196v-.653zm100.136 67.61h216.801v1.587H645.332v-1.587zm74.727-24.792h142.074v2.17H720.059v-2.17zM505.57 395.28h356.563v2.579H505.57v-2.579zm212.766-24.5h143.797v1.295H718.336v-1.295zm76.451-104.129h67.275v1.062h-67.275v-1.062z"/><path fill-rule="evenodd" clip-rule="evenodd" d="M854.526 267.713h-2.886v-1.062h2.886v1.062zm-57.153-1.062H811.6v1.062h-14.227v-1.062zM496.31 382.914h365.823v2.17H496.31v-2.17z"/><path fill-rule="evenodd" clip-rule="evenodd" d="M470.323 382.972h26.43v2.17h-26.43v-2.17z"/><path fill-rule="evenodd" clip-rule="evenodd" d="M470.768 385.142h-1.665v-2.17h1.665v2.17zm-.445.221h26.43v2.695h-26.43v-2.695z"/><path fill-rule="evenodd" clip-rule="evenodd" d="M470.768 388.058h-1.665v-2.695h1.665v2.695zm238.813-57.879h140.997v1.003H709.581v-1.003z"/><path fill-rule="evenodd" clip-rule="evenodd" d="M644.257 330.062h65.696v1.061h-65.696v-1.061zm151.104-21h66.701v.478h-66.701v-.478zm-229.493 78.75h296.265v.654H565.868v-.654zm4.164-32.724h292.101v.595H570.032v-.595zm139.476-66.036h152.554v.77H709.508v-.77z"/><path fill-rule="evenodd" clip-rule="evenodd" d="M701.612 289.052h8.341v.77h-8.341v-.77zm7.967 35.759h152.554v.77H709.579v-.77z"/><path fill-rule="evenodd" clip-rule="evenodd" d="M673.185 324.87h36.768v.77h-36.768v-.77zm57.067 18.142h131.881v.653H730.252v-.653zm-90.088 17.092h221.969v.654H640.164v-.654zm100.784-24.209h121.185v3.161H740.948v-3.161z"/><path fill-rule="evenodd" clip-rule="evenodd" d="M709.581 324.403h140.997v.77H709.581v-.77z"/><path fill-rule="evenodd" clip-rule="evenodd" d="M709.953 325.23h-2.312v-.886h2.312v.886z"/><path fill-rule="evenodd" clip-rule="evenodd" d="M709.581 324.812h140.997v.536H709.581v-.536z"/><path fill-rule="evenodd" clip-rule="evenodd" d="M709.581 325.277h140.997v1.004H709.581v-1.004z"/><path fill-rule="evenodd" clip-rule="evenodd" d="M709.953 326.339h-2.312v-1.003h2.312v1.003zm-26.718 83.641h94.625v.887h-94.625v-.887z"/><path fill-rule="evenodd" clip-rule="evenodd" d="M710.664 325.581h-1.091v-.77h1.091v.77z"/><path fill-rule="evenodd" clip-rule="evenodd" d="M709.953 325.64h-2.312v-.77h2.312v.77zm.346-.829h140.279v.77H710.299v-.77zm85.061-10.325h66.773v.479H795.36v-.479z"/><path fill-rule="evenodd" clip-rule="evenodd" d="M795.36 314.194h66.773v.654H795.36v-.654zm-288.355 34.302h226.06v.887h-226.06v-.887z"/><path fill-rule="evenodd" clip-rule="evenodd" d="M732.693 348.904h129.44v.479h-129.44v-.479zm-235.94 32.154h-16.955v-3.57h16.955v3.57zm240.033-104.899h125.276v.77H736.786v-.77zm-30.798 131.43h103.455v.77H705.988v-.77zm60.803 5.193h37.629v.595h-37.629v-.595zm-16.368-85.871h111.71v.654h-111.71v-.654zm-40.915-17.676h152.554v.712H709.508v-.712z"/><path fill-rule="evenodd" clip-rule="evenodd" d="M691.777 309.235h18.176v.712h-18.176v-.712zm-90.233 56.469h260.589v3.57H601.544v-3.57zm190.729 10.209h69.86v2.053h-69.86v-2.053zm17.228-28.234h52.632v1.178h-52.632v-1.178z"/><path fill-rule="evenodd" clip-rule="evenodd" d="M732.693 348.496h129.44v.77h-129.44v-.77zm25.623-36.285h37.485v2.17h-37.485v-2.17z"/><path fill-rule="evenodd" clip-rule="evenodd" d="M758.321 312.153h37.413v.479h-37.413v-.479zm-.005 1.925h37.485v.478h-37.485v-.478z"/><path fill-rule="evenodd" clip-rule="evenodd" d="M795.36 312.211h66.773v2.17H795.36v-2.17z"/><path fill-rule="evenodd" clip-rule="evenodd" d="M795.361 312.153h66.701v.479h-66.701v-.479zm-.001 1.925h66.773v.478H795.36v-.478zm-20.299-13.347h-4.034v-1.178h4.034v1.178z"/><path fill-rule="evenodd" clip-rule="evenodd" d="M709.508 299.261h152.554v.653H709.508v-.653z"/><path fill-rule="evenodd" clip-rule="evenodd" d="M683.522 299.261h26.431v.653h-26.431v-.653z"/><path fill-rule="evenodd" clip-rule="evenodd" d="M621.645 299.261h62.322v.653h-62.322v-.653z"/><path fill-rule="evenodd" clip-rule="evenodd" d="M661.785 299.971h-2.311v-.77h2.311v.77zm-23.753 0h-2.168v-.77h2.168v.77zm136.656-.418h87.374v1.178h-87.374v-1.178z"/><path fill-rule="evenodd" clip-rule="evenodd" d="M774.688 299.436h87.374v.478h-87.374v-.478zm1.363 6.417h86.011v.595h-86.011v-.595zm-66.543-32.085h152.554v.77H709.508v-.77z"/><path fill-rule="evenodd" clip-rule="evenodd" d="M533.28 273.768h176.673v.77H533.28v-.77zM506 27.242h78.114v.77H506v-.77zm203.508 230.017h152.554v.77H709.508v-.77z"/><path fill-rule="evenodd" clip-rule="evenodd" d="M851.642 257.259h4.608v.77h-4.608v-.77zm-52.336 0h9.562v.77h-9.562v-.77zm-21.388 0h9.561v.77h-9.561v-.77zm-42.927 0h9.777v.77h-9.777v-.77zm-15.153 0h4.609v.77h-4.609v-.77zm-217.21 0h207.325v.77H502.628v-.77z"/><path fill-rule="evenodd" clip-rule="evenodd" d="M704.548 257.259h4.537v.77h-4.537v-.77zm-132.001 0h9.562v.77h-9.562v-.77zm-15.144 0h4.537v.77h-4.537v-.77zm-21.691 0h9.705v.77h-9.705v-.77zm-15.141 0h4.537v.77h-4.537v-.77zM599.249 77.47h262.813v.653H599.249v-.653zm-43.145-.059h28.01v.77h-28.01v-.77zm265.961 58.743h39.997v.77h-39.997v-.77zm-241.192 0h18.822v.77h-18.822v-.77z"/><path fill-rule="evenodd" clip-rule="evenodd" d="M599.248 136.154h26.287v.77h-26.287v-.77z"/><path fill-rule="evenodd" clip-rule="evenodd" d="M625.088 136.154h197.347v.77H625.088v-.77zm-44.426 54.778h281.549v1.178H580.662v-1.178zm-113.338 58.872h-7.264v-1.995h7.264v1.995z"/><path fill-rule="evenodd" clip-rule="evenodd" d="M466.593 248.042h26.287v1.47h-26.287v-1.47z"/><path fill-rule="evenodd" clip-rule="evenodd" d="M492.435 248.042h369.627v1.47H492.435v-1.47zM440.416 43.64h422.049v3.714H440.416V43.64zm261.847 24.67h159.948v2.87H702.263v-2.87zm119.802 83.129h39.997v1.587h-39.997v-1.587zm-251.026 0h28.656v1.587h-28.656v-1.587z"/><path fill-rule="evenodd" clip-rule="evenodd" d="M599.246 151.439h223.189v1.587H599.246v-1.587zm222.819 1.633h39.997v1.937h-39.997v-1.937zm-251.026 0h28.656v1.937h-28.656v-1.937zm236.884-66.036h54.139v1.704h-54.139v-1.704zm14.142 58.803h39.997v1.003h-39.997v-1.003zM.219 184.282h295.906v3.57H.219v-3.57z"/><path fill-rule="evenodd" clip-rule="evenodd" d="M.22 184.865h269.85v2.987H.221v-2.987zm569.387 11.434h292.604v2.812H569.607v-2.812zm114.36 85.123h-2.311v-2.986h2.311v2.986zm138.098-119.075h39.997v3.395h-39.997v-3.395zm-.211 8.459h40.357v.886h-40.357v-.886z"/><path fill-rule="evenodd" clip-rule="evenodd" d="M456.972 170.748h365.463v.77H456.972v-.77zm365.093-45.676h39.997v.77h-39.997v-.77z"/><path fill-rule="evenodd" clip-rule="evenodd" d="M839.436 125.072h10.423v.77h-10.423v-.77zm-258.563 0h18.822v.77h-18.822v-.77z"/><path fill-rule="evenodd" clip-rule="evenodd" d="M599.248 125.072h26.287v.77h-26.287v-.77z"/><path fill-rule="evenodd" clip-rule="evenodd" d="M625.088 125.072h197.347v.77H625.088v-.77z"/><path fill-rule="evenodd" clip-rule="evenodd" d="M748.486 125.072h10.064v.77h-10.064v-.77zm-19.46 0h10.567v.77h-10.567v-.77zm-38.617 0h9.921v.77h-9.921v-.77zm-40.984 0h10.566v.77h-10.566v-.77zm60.083 165.263h152.554v.712H709.508v-.712z"/><path fill-rule="evenodd" clip-rule="evenodd" d="M683.522 290.335h26.431v.712h-26.431v-.712z"/><path fill-rule="evenodd" clip-rule="evenodd" d="M580.872 290.335h103.095v.712H580.872v-.712zM807.923 86.862h54.139v.479h-54.139v-.479zM580.662 213.1h281.549v1.178H580.662V213.1zm-105.457-17.967h95.487v.945h-95.487v-.945zm-179.883-.292h163.106v1.237H295.322v-1.237z"/><path fill-rule="evenodd" clip-rule="evenodd" d="M287.066 195.073h9.059v.77h-9.059v-.77zm170.192-.232h19.037v1.237h-19.037v-1.237zM599.984 87.398h-4.896V83.42h4.896v3.978zm207.939-2.228h54.139v1.762h-54.139V85.17z"/><path fill-rule="evenodd" clip-rule="evenodd" d="M807.923 86.57h54.139v.654h-54.139v-.654zm13.931 80.853h40.357v3.978h-40.357v-3.978z"/><path fill-rule="evenodd" clip-rule="evenodd" d="M821.854 170.515h40.357v1.178h-40.357v-1.178zm-355.261 74.319h26.287v2.403h-26.287v-2.403z"/><path fill-rule="evenodd" clip-rule="evenodd" d="M492.435 244.834h369.627v2.403H492.435v-2.403zm-25.111 3.861h-7.264V246.7h7.264v1.995zm216.198 34.756h26.431v.479h-26.431v-.479z"/><path fill-rule="evenodd" clip-rule="evenodd" d="M615.615 283.451h68.352v.479h-68.352v-.479z"/><path fill-rule="evenodd" clip-rule="evenodd" d="M615.615 283.567h68.352v.77h-68.352v-.77z"/><path fill-rule="evenodd" clip-rule="evenodd" d="M620.784 283.567h63.183v.77h-63.183v-.77zm174.003-22.224h67.275v3.57h-67.275v-3.57z"/><path fill-rule="evenodd" clip-rule="evenodd" d="M854.526 264.913h-2.886v-3.57h2.886v3.57zm-42.425 0h-15.233v-3.57h15.233v3.57zm-65.696-45.863h115.657v1.995H746.405v-1.995z"/><path fill-rule="evenodd" clip-rule="evenodd" d="M746.405 217.533h115.657v1.587H746.405v-1.587zm75.449-38.91h40.357v3.979h-40.357v-3.979z"/><path fill-rule="evenodd" clip-rule="evenodd" d="M615.613 178.855h206.822v3.454H615.613v-3.454zm-320.296 60.844h172.007v3.687H295.317v-3.687z"/><path fill-rule="evenodd" clip-rule="evenodd" d="M466.593 240.051h26.287v3.162h-26.287v-3.162zm-212.62 0h42.152v3.103h-42.152v-3.103zm374.42-131.313h233.669v.595H628.393v-.595zm-138.326 43.926h109.628v.77H490.067v-.77zm203.287 0h129.081v.77H693.354v-.77zm-203.288 66.094h371.996v.653H490.066v-.653z"/><path fill-rule="evenodd" clip-rule="evenodd" d="M746.405 218.758h115.657v.653H746.405v-.653zM385.557 16.335h151.046v1.47H385.557v-1.47zm436.297 156.396h40.357v1.471h-40.357v-1.471z"/><path fill-rule="evenodd" clip-rule="evenodd" d="M593.575 172.965h228.86v1.062h-228.86v-1.062zm38.763-16.218h190.097v1.762H632.338v-1.762zm189.727-17.091h39.997v1.47h-39.997v-1.47zm-276.868 0h54.498v1.47h-54.498v-1.47z"/><path fill-rule="evenodd" clip-rule="evenodd" d="M599.248 139.656h26.287v1.47h-26.287v-1.47z"/><path fill-rule="evenodd" clip-rule="evenodd" d="M625.088 139.656h197.347v1.47H625.088v-1.47z"/><path fill-rule="evenodd" clip-rule="evenodd" d="M822.065 140.764h39.997v1.47h-39.997v-1.47zm-276.868 0h54.498v1.47h-54.498v-1.47z"/><path fill-rule="evenodd" clip-rule="evenodd" d="M599.248 140.764h26.287v1.47h-26.287v-1.47z"/><path fill-rule="evenodd" clip-rule="evenodd" d="M625.088 140.764h197.347v1.47H625.088v-1.47zM595.808 5.019h266.403v2.578H595.808V5.019z"/><path fill-rule="evenodd" clip-rule="evenodd" d="M595.976 4.643h266.403v1.411H595.976V4.643zM671.253 38.62h190.958v2.87H671.253v-2.87z"/><path fill-rule="evenodd" clip-rule="evenodd" d="M671.253 37.218h190.958v2.286H671.253v-2.286zM583.39 17.325h278.821v1.47H583.39v-1.47z"/><path fill-rule="evenodd" clip-rule="evenodd" d="M536.149 17.442h47.965v.945h-47.965v-.945zm0-1.632h47.965v.886h-47.965v-.886zm147.373 301.942h26.431v.77h-26.431v-.77z"/><path fill-rule="evenodd" clip-rule="evenodd" d="M586.543 317.752h97.424v.77h-97.424v-.77zm123.036.059h152.554v.77H709.579v-.77z"/><path fill-rule="evenodd" clip-rule="evenodd" d="M694.72 317.752h15.233v.77H694.72v-.77zm111.694 17.734h55.719v.479h-55.719v-.479z"/><path fill-rule="evenodd" clip-rule="evenodd" d="M806.414 335.603h55.719v.653h-55.719v-.653zM583.39 0h278.821v.887H583.39V0z"/><path fill-rule="evenodd" clip-rule="evenodd" d="M513.896.117h70.218v.479h-70.218V.117z"/><path fill-rule="evenodd" clip-rule="evenodd" d="M583.39 0h278.821v1.178H583.39V0z"/><path fill-rule="evenodd" clip-rule="evenodd" d="M513.896.233h70.218v.654h-70.218V.233zm260.792 302.119h87.374v.478h-87.374v-.478z"/><path fill-rule="evenodd" clip-rule="evenodd" d="M771.027 300.368h91.035v2.345h-91.035v-2.345zm-61.519 6.768h86.226v2.286h-86.226v-2.286z"/><path fill-rule="evenodd" clip-rule="evenodd" d="M683.522 307.136h26.431v2.286h-26.431v-2.286z"/><path fill-rule="evenodd" clip-rule="evenodd" d="M648.707 307.136h35.26v2.286h-35.26v-2.286zm146.654.933h66.701v1.354h-66.701v-1.354zm-135.886 91.645H777.86v2.345H659.475v-2.345zM438.028 441.54h424.183v4.27H438.028v-4.27z"/><path fill-rule="evenodd" clip-rule="evenodd" d="M580.662 444.106h281.549v1.412H580.662v-1.412zm59.502-82.018h221.969v.595H640.164v-.595zm0-1.692h221.969v1.586H640.164v-1.586zM.15 360.453h378.098v1.587H.15v-1.587zm0 10.91h378.098v.887H.15v-.887zm709.358-81.087h152.554v1.354H709.508v-1.354zm-329.251 130.8h-2.455v-3.162h2.455v3.162z"/></symbol><symbol viewBox="0 0 541.84 301.05" id="cubes" xmlns="http://www.w3.org/2000/svg"><path fill-rule="evenodd" clip-rule="evenodd" d="M523.578 122.834h-11.14v-15.296h11.14v15.296zm-89.944-9.509h-14.73v-5.787h14.73v5.787zm-20.529 0h-7.121v-5.787h7.121v5.787zm-37.696 0h-14.73v-5.787h14.73v5.787zm-41.918 0h-7.12v-5.787h7.12v5.787z"/><path fill-rule="evenodd" clip-rule="evenodd" d="M433.771 123.008h-15.089v-10.045h15.089v10.045zm-21.178-.175h-10.567v-9.87h10.567v9.87zm-36.887.175h-15.232v-10.045h15.232v10.045zm-42.715-.175h-10.566v-9.87h10.566v9.87zm189.234-70.565h8.485v1.353h-8.485v-1.353zM231.944 15.82h-11.069V.466h11.069V15.82zm-30.793 0H190.01V.466h11.141V15.82zm-89.589.232H96.258V.582h15.304v15.47zm-20.666-.232h-11.14V.466h11.14V15.82zm-37.618.232H38.046V.582h15.232v15.47zm-41.995-.232H.142V.466h11.14V15.82z"/><path fill-rule="evenodd" clip-rule="evenodd" d="M534.513 67.738h-15.017v-14.48h15.017v14.48zm-167.69 161.298H349.15v-17.454h17.673v17.454zm-24.976.7H324.03v-18.154h17.817v18.154zm-50.318 0h-17.673v-18.154h17.673v18.154zm-24.117-.293h-13.007v-17.979h13.007v17.979zm-18.098 0h-13.007v-17.979h13.007v17.979zm-148.517.293h-17.6v-18.154h17.6v18.154zm-24.262-.293h-12.79v-17.979h12.791v17.979zm-18.808.293H39.91v-18.154h17.817v18.154zm-24.266-.293H20.454v-17.979H33.46v17.979zM385.623 90.535h57.441v10.279h-57.441V90.535zm156.356 11.037h-8.198v-11.97h8.198v11.97zm-28.428.175h-11.787V89.602h11.787v12.145zm-32.514-.175h-8.556v-11.97h8.556v11.97z"/><path fill-rule="evenodd" clip-rule="evenodd" d="M444.999 101.747h-11.787V89.602h11.787v12.145zm-16.511 0H416.63V89.602h11.858v12.145zm-33.095 0h-11.644V89.602h11.644v12.145zm-15.858-.175h-8.7v-11.97h8.7v11.97zm-11.918.001h-3.819V90.011h3.819v11.562zm-310.531 87.27H45.299v-5.67h11.787v5.67zm-15.866-.001h-5.757v-5.787h5.757v5.787zm-12.567.001H17.01v-5.67h11.643v5.67zm-15.865-.001H7.03v-5.787h5.757v5.787z"/><path fill-rule="evenodd" clip-rule="evenodd" d="M57.086 195.142H45.299v-6.662h11.787v6.662zm-16.374-.116h-8.198v-6.546h8.198v6.546zm-11.91.116H17.015v-6.662h11.787v6.662zm316.488-6.299h-11.787v-5.67h11.787v5.67zm-16.014-.001h-5.614v-5.787h5.614v5.787zm-28.776.001h-11.787v-5.67H300.5v5.67zm-32.592-.001h-5.541v-5.787h5.541v5.787zm-36.179.001h-11.572v-5.67h11.572v5.67zm-16.374 0h-11.787v-5.67h11.787v5.67zm-33.009 0h-11.643v-5.67h11.643v5.67zm-15.87-.001h-5.757v-5.787h5.757v5.787zm-11.91 0h-5.757v-5.787h5.757v5.787z"/><path fill-rule="evenodd" clip-rule="evenodd" d="M345.29 195.142h-11.787v-6.662h11.787v6.662zm-16.362-.116h-8.198v-6.546h8.198v6.546zm-28.428.116h-11.787v-6.662H300.5v6.662zm-32.881-.116h-8.197v-6.546h8.197v6.546zm-35.675.116h-11.787v-6.662h11.787v6.662zm-16.589 0h-11.787v-6.662h11.787v6.662zm-33.009 0h-11.859v-6.662h11.859v6.662zm-16.374-.116h-8.198v-6.546h8.198v6.546zm-11.918 0h-8.197v-6.546h8.197v6.546zm284.05-.06h-8.557v-11.854h8.557v11.854zm-23.75.059h-8.485v-11.97h8.485v11.97zM51.17 301.513h-5.111v-11.854h5.11v11.854z"/></symbol><symbol viewBox="0 0 663.41 292.67" id="numbers" xmlns="http://www.w3.org/2000/svg"><path d="M3.538 116.373c-.32.111-.832.248-1.534.409-.703.161-1.29.267-1.763.317l-.229-.875c.763-.136 1.526-.36 2.29-.67.763-.31 1.42-.658 1.97-1.042h.023l1.098.186v10.645l3 .149v.8H.47v-.8l3.068-.149v-8.97zm41.955 7.891c.611-.894.916-2.14.916-3.741 0-3.412-1.236-5.118-3.71-5.118-1.313 0-2.282.428-2.908 1.285-.626.855-.938 2.046-.938 3.572 0 1.514.3 2.783.904 3.806.603 1.024 1.553 1.536 2.851 1.536 1.312 0 2.274-.447 2.885-1.34zm-7.259.483c-.916-1.14-1.374-2.561-1.374-4.261 0-1.166.267-2.199.801-3.099a5.595 5.595 0 0 1 2.165-2.093c.908-.497 1.912-.745 3.01-.745 2 0 3.432.527 4.295 1.582.862 1.055 1.294 2.463 1.294 4.225 0 1.153-.256 2.196-.767 3.126a5.652 5.652 0 0 1-2.107 2.187c-.894.527-1.898.791-3.011.791-1.955 0-3.39-.571-4.306-1.713zm24.066-.483c.611-.894.917-2.14.917-3.741 0-3.412-1.237-5.118-3.71-5.118-1.313 0-2.282.428-2.908 1.285-.626.855-.94 2.046-.94 3.572 0 1.514.302 2.783.905 3.806.603 1.024 1.554 1.536 2.852 1.536 1.312 0 2.274-.447 2.885-1.34zm-7.259.483c-.916-1.14-1.373-2.561-1.373-4.261 0-1.166.267-2.199.8-3.099a5.594 5.594 0 0 1 2.165-2.093c.908-.497 1.913-.745 3.01-.745 2.002 0 3.432.527 4.295 1.582.862 1.055 1.295 2.463 1.295 4.225 0 1.153-.256 2.196-.768 3.126a5.653 5.653 0 0 1-2.107 2.187c-.893.527-1.897.791-3.011.791-1.955 0-3.39-.571-4.306-1.713zm40.876-.483c.61-.894.916-2.14.916-3.741 0-3.412-1.237-5.118-3.71-5.118-1.313 0-2.282.428-2.909 1.285-.626.855-.938 2.046-.938 3.572 0 1.514.301 2.783.904 3.806.603 1.024 1.554 1.536 2.852 1.536 1.312 0 2.274-.447 2.885-1.34zm-7.26.483c-.916-1.14-1.374-2.561-1.374-4.261 0-1.166.268-2.199.801-3.099a5.603 5.603 0 0 1 2.165-2.093c.909-.497 1.913-.745 3.011-.745 2 0 3.432.527 4.294 1.582.863 1.055 1.294 2.463 1.294 4.225 0 1.153-.256 2.196-.767 3.126a5.648 5.648 0 0 1-2.107 2.187c-.894.527-1.898.791-3.011.791-1.954 0-3.39-.571-4.306-1.713zm18.393-8.374c-.32.111-.832.248-1.534.409-.702.161-1.29.267-1.763.317l-.229-.875c.763-.136 1.527-.36 2.29-.67a9.971 9.971 0 0 0 1.969-1.042h.024l1.098.186v10.645l3.001.149v.8h-7.924v-.8l3.068-.149v-8.97zm12.09 0c-.32.111-.832.248-1.534.409-.703.161-1.29.267-1.763.317l-.229-.875c.763-.136 1.526-.36 2.29-.67.763-.31 1.419-.658 1.969-1.042h.023l1.099.186v10.645l3 .149v.8h-7.923v-.8l3.068-.149v-8.97zm104.472 7.891c.611-.894.916-2.14.916-3.741 0-3.412-1.236-5.118-3.709-5.118-1.314 0-2.283.428-2.909 1.285-.626.855-.939 2.046-.939 3.572 0 1.514.301 2.783.904 3.806.603 1.024 1.554 1.536 2.852 1.536 1.313 0 2.274-.447 2.885-1.34zm-7.259.483c-.916-1.14-1.375-2.561-1.375-4.261 0-1.166.268-2.199.802-3.099a5.595 5.595 0 0 1 2.165-2.093c.907-.497 1.912-.745 3.011-.745 2 0 3.43.527 4.294 1.582.862 1.055 1.294 2.463 1.294 4.225 0 1.153-.257 2.196-.767 3.126a5.66 5.66 0 0 1-2.107 2.187c-.894.527-1.898.791-3.011.791-1.955 0-3.39-.571-4.306-1.713zm18.389-8.374c-.321.111-.832.248-1.535.409-.702.161-1.29.267-1.763.317l-.229-.875c.763-.136 1.526-.36 2.291-.67.763-.31 1.419-.658 1.969-1.042h.023l1.099.186v10.645l3 .149v.8h-7.923v-.8l3.068-.149v-8.97zm17.763 7.891c.611-.894.916-2.14.916-3.741 0-3.412-1.236-5.118-3.709-5.118-1.314 0-2.283.428-2.909 1.285-.626.855-.939 2.046-.939 3.572 0 1.514.301 2.783.904 3.806.604 1.024 1.554 1.536 2.852 1.536 1.313 0 2.274-.447 2.885-1.34zm-7.259.483c-.916-1.14-1.374-2.561-1.374-4.261 0-1.166.267-2.199.801-3.099a5.595 5.595 0 0 1 2.165-2.093c.908-.497 1.912-.745 3.011-.745 2 0 3.431.527 4.294 1.582.862 1.055 1.294 2.463 1.294 4.225 0 1.153-.257 2.196-.767 3.126a5.655 5.655 0 0 1-2.108 2.187c-.893.527-1.897.791-3.011.791-1.954 0-3.389-.571-4.305-1.713zm18.393-8.374c-.32.111-.832.248-1.534.409-.703.161-1.29.267-1.763.317l-.229-.875c.763-.136 1.526-.36 2.29-.67a10 10 0 0 0 1.969-1.042h.023l1.099.186v10.645l3.001.149v.8h-7.924v-.8l3.068-.149v-8.97zM485.172 42.76c-.32.112-.832.248-1.534.41-.703.161-1.291.266-1.763.316l-.229-.875c.763-.136 1.526-.36 2.29-.67a9.983 9.983 0 0 0 1.969-1.042h.023l1.099.186V51.73l3.001.149v.8h-7.924v-.8l3.068-.149v-8.97zm24.184 0c-.321.112-.832.248-1.535.41a15.25 15.25 0 0 1-1.763.316l-.229-.875c.763-.136 1.526-.36 2.29-.67a10.05 10.05 0 0 0 1.97-1.042h.022l1.1.186V51.73l2.999.149v.8h-7.923v-.8l3.069-.149v-8.97zm75.565 7.89c.615-.894.919-2.14.919-3.74 0-3.412-1.235-5.12-3.711-5.12-1.314 0-2.284.429-2.91 1.285-.626.856-.936 2.047-.936 3.573 0 1.514.299 2.782.903 3.806.603 1.024 1.556 1.536 2.853 1.536 1.314 0 2.273-.447 2.882-1.34zm-7.258.483c-.914-1.14-1.371-2.562-1.371-4.261 0-1.166.265-2.199.801-3.099a5.535 5.535 0 0 1 2.166-2.093c.908-.497 1.912-.745 3.006-.745 2.002 0 3.434.528 4.297 1.582.863 1.055 1.292 2.463 1.292 4.224 0 1.154-.254 2.197-.767 3.127a5.663 5.663 0 0 1-2.104 2.187c-.897.528-1.9.79-3.011.79-1.957 0-3.39-.57-4.309-1.712zm18.387-8.373c-.321.112-.834.248-1.534.41a15.31 15.31 0 0 1-1.765.316l-.226-.875c.762-.136 1.523-.36 2.29-.67.761-.31 1.416-.658 1.968-1.042h.023l1.1.186V51.73l3 .149v.8h-7.924v-.8l3.068-.149v-8.97zm34.582 7.89c.615-.894.919-2.14.919-3.74 0-3.412-1.241-5.12-3.711-5.12-1.314 0-2.284.429-2.91 1.285-.626.856-.936 2.047-.936 3.573 0 1.514.299 2.782.902 3.806.604 1.024 1.557 1.536 2.854 1.536 1.308 0 2.273-.447 2.882-1.34zm-7.259.483c-.913-1.14-1.376-2.562-1.376-4.261 0-1.166.271-2.199.807-3.099a5.56 5.56 0 0 1 2.16-2.093c.908-.497 1.912-.745 3.012-.745 2.002 0 3.434.528 4.297 1.582.863 1.055 1.291 2.463 1.291 4.224 0 1.154-.253 2.197-.767 3.127a5.633 5.633 0 0 1-2.109 2.187c-.891.528-1.895.79-3.006.79-1.957 0-3.389-.57-4.309-1.712zm35.19-8.373c-.321.112-.829.248-1.534.41a15.29 15.29 0 0 1-1.765.316l-.226-.875a11.38 11.38 0 0 0 2.29-.67c.761-.31 1.421-.658 1.968-1.042h.023l1.099.186V51.73l3.001.149v.8h-7.924v-.8l3.068-.149v-8.97zM10.168 2.64c-.32.11-.833.248-1.535.409a15.38 15.38 0 0 1-1.763.316l-.23-.875a11.327 11.327 0 0 0 2.29-.67A9.977 9.977 0 0 0 10.901.78h.023l1.099.186V11.61l3 .15v.8H7.1v-.8l3.069-.15V2.64zm75.573 7.89c.61-.894.916-2.14.916-3.74 0-3.413-1.236-5.119-3.71-5.119-1.312 0-2.282.428-2.908 1.284-.625.856-.938 2.047-.938 3.573 0 1.514.3 2.782.904 3.806.603 1.024 1.554 1.535 2.851 1.535 1.313 0 2.274-.446 2.885-1.34zm-7.259.483c-.916-1.141-1.374-2.562-1.374-4.262 0-1.165.267-2.198.801-3.098a5.605 5.605 0 0 1 2.165-2.094c.908-.496 1.912-.744 3.01-.744 2.001 0 3.432.527 4.295 1.582.862 1.055 1.294 2.463 1.294 4.224 0 1.154-.256 2.197-.767 3.127a5.647 5.647 0 0 1-2.107 2.187c-.893.527-1.897.79-3.011.79-1.955 0-3.39-.57-4.306-1.712zM96.86 2.64c-.32.11-.832.248-1.534.409a15.38 15.38 0 0 1-1.763.316l-.23-.875a11.309 11.309 0 0 0 2.29-.67 9.94 9.94 0 0 0 1.97-1.04h.023l1.1.186V11.61l2.999.15v.8h-7.923v-.8l3.069-.15V2.64zm62.521 0c-.32.11-.832.248-1.535.409-.702.161-1.29.266-1.762.316l-.23-.875a11.38 11.38 0 0 0 2.291-.67 9.99 9.99 0 0 0 1.969-1.04h.023l1.099.186V11.61l3 .15v.8h-7.923v-.8l3.068-.15V2.64zm-27.939 7.89c.611-.894.917-2.14.917-3.74 0-3.413-1.236-5.119-3.71-5.119-1.313 0-2.282.428-2.908 1.284-.626.856-.939 2.047-.939 3.573 0 1.514.301 2.782.904 3.806.604 1.024 1.554 1.535 2.852 1.535 1.312 0 2.274-.446 2.884-1.34zm-7.258.483c-.917-1.141-1.374-2.562-1.374-4.262 0-1.165.266-2.198.801-3.098a5.598 5.598 0 0 1 2.164-2.094c.909-.496 1.912-.744 3.011-.744 2 0 3.431.527 4.295 1.582.861 1.055 1.293 2.463 1.293 4.224 0 1.154-.256 2.197-.767 3.127a5.644 5.644 0 0 1-2.108 2.187c-.892.527-1.896.79-3.01.79-1.955 0-3.39-.57-4.305-1.712zm196.648 174.361a12.34 12.34 0 0 1-1.183.315c-.541.125-.995.206-1.359.244l-.177-.674a8.734 8.734 0 0 0 1.766-.517 7.687 7.687 0 0 0 1.518-.803h.018l.847.143v8.207l2.313.114v.618h-6.109v-.618l2.366-.114v-6.915zm18.648 0c-.246.086-.64.191-1.182.315-.542.125-.995.206-1.359.244l-.177-.674a8.752 8.752 0 0 0 1.766-.517 7.687 7.687 0 0 0 1.518-.803h.018l.847.143v8.207l2.312.114v.618h-6.107v-.618l2.364-.114v-6.915zm58.25 6.084c.471-.688.706-1.65.706-2.883 0-2.63-.953-3.946-2.86-3.946-1.012 0-1.759.33-2.242.99-.482.66-.723 1.578-.723 2.755 0 1.167.231 2.144.697 2.934.465.789 1.197 1.183 2.198 1.183 1.012 0 1.753-.344 2.224-1.033zm-5.597.373c-.706-.88-1.059-1.975-1.059-3.285 0-.899.207-1.695.618-2.389a4.327 4.327 0 0 1 1.669-1.614 4.766 4.766 0 0 1 2.321-.573c1.542 0 2.645.406 3.31 1.219.665.813.998 1.898.998 3.256 0 .89-.197 1.693-.592 2.411a4.35 4.35 0 0 1-1.624 1.685c-.688.407-1.462.61-2.321.61-1.507 0-2.613-.44-3.32-1.32zm14.179-6.457c-.246.086-.641.191-1.183.315-.541.125-.994.206-1.359.244l-.176-.674a8.744 8.744 0 0 0 1.765-.517 7.63 7.63 0 0 0 1.518-.803h.018l.847.143v8.207l2.313.114v.618h-6.108v-.618l2.365-.114v-6.915zm26.66 6.084c.47-.688.706-1.65.706-2.883 0-2.63-.954-3.946-2.86-3.946-1.013 0-1.76.33-2.243.99-.482.66-.724 1.578-.724 2.755 0 1.167.233 2.144.698 2.934.465.789 1.198 1.183 2.198 1.183 1.012 0 1.754-.344 2.225-1.033zm-5.597.373c-.706-.88-1.059-1.975-1.059-3.285 0-.899.206-1.695.618-2.389a4.317 4.317 0 0 1 1.668-1.614 4.766 4.766 0 0 1 2.321-.573c1.542 0 2.645.406 3.311 1.219.665.813.997 1.898.997 3.256 0 .89-.197 1.693-.592 2.411a4.34 4.34 0 0 1-1.623 1.685c-.689.407-1.463.61-2.322.61-1.506 0-2.613-.44-3.319-1.32zm27.128-6.457a12.34 12.34 0 0 1-1.183.315c-.541.125-.994.206-1.359.244l-.176-.674a8.725 8.725 0 0 0 1.765-.517 7.696 7.696 0 0 0 1.519-.803h.017l.847.143v8.207l2.314.114v.618h-6.109v-.618l2.365-.114v-6.915zm32.342 6.084c.471-.688.707-1.65.707-2.883 0-2.63-.954-3.946-2.86-3.946-1.012 0-1.759.33-2.242.99-.483.66-.724 1.578-.724 2.755 0 1.167.232 2.144.697 2.934.465.789 1.198 1.183 2.198 1.183 1.013 0 1.754-.344 2.224-1.033zm-5.595.373c-.707-.88-1.06-1.975-1.06-3.285 0-.899.206-1.695.618-2.389a4.313 4.313 0 0 1 1.669-1.614 4.766 4.766 0 0 1 2.321-.573c1.542 0 2.645.406 3.31 1.219.665.813.998 1.898.998 3.256 0 .89-.198 1.693-.592 2.411a4.339 4.339 0 0 1-1.625 1.685c-.688.407-1.462.61-2.32.61-1.507 0-2.613-.44-3.319-1.32zm18.56-.373c.472-.688.707-1.65.707-2.883 0-2.63-.953-3.946-2.86-3.946-1.012 0-1.759.33-2.242.99-.482.66-.724 1.578-.724 2.755 0 1.167.233 2.144.697 2.934.466.789 1.199 1.183 2.199 1.183 1.011 0 1.752-.344 2.223-1.033zm-5.595.373c-.706-.88-1.059-1.975-1.059-3.285 0-.899.205-1.695.617-2.389a4.32 4.32 0 0 1 1.669-1.614 4.766 4.766 0 0 1 2.321-.573c1.542 0 2.645.406 3.31 1.219.665.813.998 1.898.998 3.256 0 .89-.198 1.693-.592 2.411a4.35 4.35 0 0 1-1.624 1.685c-.689.407-1.463.61-2.321.61-1.507 0-2.613-.44-3.319-1.32zm31.511-.373c.471-.688.706-1.65.706-2.883 0-2.63-.954-3.946-2.86-3.946-1.012 0-1.759.33-2.242.99-.483.66-.724 1.578-.724 2.755 0 1.167.233 2.144.697 2.934.466.789 1.198 1.183 2.198 1.183 1.012 0 1.753-.344 2.225-1.033zm-5.596.373c-.706-.88-1.059-1.975-1.059-3.285 0-.899.205-1.695.617-2.389a4.32 4.32 0 0 1 1.669-1.614 4.766 4.766 0 0 1 2.321-.573c1.541 0 2.645.406 3.31 1.219.665.813.998 1.898.998 3.256 0 .89-.198 1.693-.592 2.411a4.357 4.357 0 0 1-1.624 1.685c-.689.407-1.463.61-2.321.61-1.507 0-2.613-.44-3.319-1.32zm14.175-6.457c-.247.086-.642.191-1.183.315-.541.125-.995.206-1.359.244l-.177-.674a8.734 8.734 0 0 0 1.766-.517 7.687 7.687 0 0 0 1.518-.803h.017l.848.143v8.207l2.313.114v.618h-6.109v-.618l2.366-.114v-6.915zm9.326 0a12.51 12.51 0 0 1-1.183.315c-.542.125-.995.206-1.359.244l-.176-.674a8.735 8.735 0 0 0 1.764-.517 7.668 7.668 0 0 0 1.519-.803h.017l.848.143v8.207l2.313.114v.618h-6.109v-.618l2.366-.114v-6.915zm80.529 6.084c.473-.688.705-1.65.705-2.883 0-2.63-.954-3.946-2.86-3.946-1.009 0-1.759.33-2.239.99-.485.66-.727 1.578-.727 2.755 0 1.167.237 2.144.699 2.934.463.789 1.196 1.183 2.2 1.183 1.009 0 1.754-.344 2.222-1.033zm-5.595.373c-.705-.88-1.06-1.975-1.06-3.285 0-.899.208-1.695.62-2.389a4.32 4.32 0 0 1 1.664-1.614 4.79 4.79 0 0 1 2.323-.573c1.54 0 2.645.406 3.311 1.219.665.813.998 1.898.998 3.256 0 .89-.197 1.693-.592 2.411a4.357 4.357 0 0 1-1.624 1.685c-.688.407-1.461.61-2.324.61-1.506 0-2.611-.44-3.316-1.32zm14.17-6.457c-.242.086-.637.191-1.179.315-.541.125-.998.206-1.359.244l-.18-.674a8.632 8.632 0 0 0 1.765-.517 7.764 7.764 0 0 0 1.523-.803h.017l.846.143v8.207l2.312.114v.618h-6.108v-.618l2.363-.114v-6.915zm13.705 6.084c.473-.688.71-1.65.71-2.883 0-2.63-.953-3.946-2.859-3.946-1.015 0-1.76.33-2.245.99-.479.66-.722 1.578-.722 2.755 0 1.167.232 2.144.694 2.934.468.789 1.201 1.183 2.2 1.183 1.009 0 1.754-.344 2.222-1.033zm-5.595.373c-.705-.88-1.06-1.975-1.06-3.285 0-.899.208-1.695.62-2.389a4.33 4.33 0 0 1 1.67-1.614 4.75 4.75 0 0 1 2.317-.573c1.546 0 2.645.406 3.311 1.219.665.813.998 1.898.998 3.256 0 .89-.197 1.693-.592 2.411a4.357 4.357 0 0 1-1.624 1.685c-.688.407-1.461.61-2.318.61-1.506 0-2.617-.44-3.322-1.32zm14.162-6.524c-.248.086-.643.192-1.184.316-.542.124-.993.205-1.359.244l-.175-.674a8.905 8.905 0 0 0 1.765-.517 7.73 7.73 0 0 0 1.517-.803h.017l.846.143v8.207l2.312.114v.617h-6.107v-.617l2.368-.114v-6.916zM48.777 290.875c.716-1.049 1.075-2.511 1.075-4.39 0-4.003-1.45-6.006-4.353-6.006-1.541 0-2.678.503-3.414 1.508-.733 1.004-1.101 2.402-1.101 4.192 0 1.777.353 3.265 1.061 4.467.709 1.201 1.823 1.802 3.346 1.802 1.54 0 2.669-.525 3.386-1.573zm-8.519.567c-1.075-1.339-1.612-3.006-1.612-5 0-1.369.314-2.581.94-3.637a6.56 6.56 0 0 1 2.54-2.456c1.066-.583 2.244-.874 3.534-.874 2.346 0 4.026.619 5.04 1.856 1.01 1.238 1.517 2.89 1.517 4.958 0 1.354-.3 2.577-.9 3.669a6.626 6.626 0 0 1-2.473 2.566c-1.048.619-2.226.928-3.533.928-2.294 0-3.978-.67-5.053-2.01zm28.242-.567c.716-1.049 1.075-2.511 1.075-4.39 0-4.003-1.45-6.006-4.353-6.006-1.54 0-2.678.503-3.413 1.508-.734 1.004-1.102 2.402-1.102 4.192 0 1.777.353 3.265 1.061 4.467.709 1.201 1.824 1.802 3.346 1.802 1.54 0 2.669-.525 3.386-1.573zm-8.519.567c-1.074-1.339-1.612-3.006-1.612-5 0-1.369.314-2.581.94-3.637a6.564 6.564 0 0 1 2.54-2.456c1.066-.583 2.244-.874 3.534-.874 2.347 0 4.026.619 5.039 1.856 1.011 1.238 1.518 2.89 1.518 4.958 0 1.354-.3 2.577-.9 3.669a6.636 6.636 0 0 1-2.473 2.566c-1.048.619-2.226.928-3.533.928-2.294 0-3.977-.67-5.053-2.01zm47.97-.567c.718-1.049 1.075-2.511 1.075-4.39 0-4.003-1.45-6.006-4.352-6.006-1.542 0-2.679.503-3.414 1.508-.734 1.004-1.101 2.402-1.101 4.192 0 1.777.353 3.265 1.061 4.467.708 1.201 1.823 1.802 3.346 1.802 1.541 0 2.669-.525 3.385-1.573zm-8.518.567c-1.075-1.339-1.613-3.006-1.613-5 0-1.369.314-2.581.941-3.637a6.571 6.571 0 0 1 2.54-2.456c1.066-.583 2.244-.874 3.533-.874 2.348 0 4.027.619 5.039 1.856 1.012 1.238 1.519 2.89 1.519 4.958 0 1.354-.3 2.577-.9 3.669a6.629 6.629 0 0 1-2.474 2.566c-1.047.619-2.225.928-3.532.928-2.294 0-3.977-.67-5.053-2.01zm21.581-9.825c-.376.131-.977.291-1.801.48s-1.515.313-2.07.371l-.268-1.026c.895-.16 1.791-.422 2.687-.786.896-.364 1.666-.772 2.311-1.223h.028l1.289.218v12.491l3.521.176v.939h-9.299v-.939l3.602-.176v-10.525zm14.188 0c-.375.131-.977.291-1.801.48s-1.514.313-2.069.371l-.268-1.026c.895-.16 1.791-.422 2.686-.786.897-.364 1.667-.772 2.312-1.223h.027l1.289.218v12.491l3.521.176v.939h-9.297v-.939l3.6-.176v-10.525zm122.589 9.258c.717-1.049 1.078-2.511 1.078-4.39 0-4.003-1.45-6.006-4.354-6.006-1.54 0-2.679.503-3.412 1.508-.739 1.004-1.106 2.402-1.106 4.192 0 1.777.356 3.265 1.066 4.467.705 1.201 1.822 1.802 3.345 1.802 1.539 0 2.667-.525 3.383-1.573zm-8.515.567c-1.078-1.339-1.613-3.006-1.613-5 0-1.369.31-2.581.941-3.637a6.558 6.558 0 0 1 2.538-2.456c1.066-.583 2.245-.874 3.531-.874 2.352 0 4.026.619 5.042 1.856 1.009 1.238 1.517 2.89 1.517 4.958 0 1.354-.299 2.577-.897 3.669a6.648 6.648 0 0 1-2.476 2.566c-1.049.619-2.228.928-3.53.928-2.296 0-3.982-.67-5.053-2.01zm21.574-9.825c-.378.131-.976.291-1.8.48-.823.189-1.517.313-2.069.371l-.271-1.026c.897-.16 1.793-.422 2.69-.786.897-.364 1.664-.772 2.307-1.223h.028l1.291.218v12.491l3.52.176v.939h-9.295v-.939l3.599-.176v-10.525zm20.86 9.258c.716-1.049 1.071-2.511 1.071-4.39 0-4.003-1.449-6.006-4.354-6.006-1.539 0-2.679.503-3.412 1.508-.733 1.004-1.1 2.402-1.1 4.192 0 1.777.35 3.265 1.061 4.467.705 1.201 1.821 1.802 3.344 1.802 1.54 0 2.668-.525 3.39-1.573zm-8.522.567c-1.077-1.339-1.613-3.006-1.613-5 0-1.369.316-2.581.942-3.637a6.558 6.558 0 0 1 2.538-2.456c1.066-.583 2.244-.874 3.536-.874 2.346 0 4.027.619 5.036 1.856 1.015 1.238 1.523 2.89 1.523 4.958 0 1.354-.305 2.577-.903 3.669a6.646 6.646 0 0 1-2.475 2.566c-1.044.619-2.222.928-3.531.928-2.295 0-3.976-.67-5.053-2.01zm21.57-9.825c-.372.131-.976.291-1.799.48s-1.512.313-2.07.371l-.271-1.026c.897-.16 1.794-.422 2.691-.786.896-.364 1.663-.772 2.312-1.223h.028l1.286.218v12.491l3.525.176v.939h-9.3v-.939l3.598-.176v-10.525zm-84.774-138.028c-.246.086-.641.191-1.182.315-.542.125-.995.206-1.359.244l-.177-.674a8.752 8.752 0 0 0 1.766-.517 7.649 7.649 0 0 0 1.517-.803h.019l.847.143v8.206l2.312.115v.617h-6.108v-.617l2.365-.115v-6.914m18.645 0c-.247.086-.641.191-1.182.315a11.59 11.59 0 0 1-1.36.244l-.176-.674a8.725 8.725 0 0 0 1.765-.517 7.696 7.696 0 0 0 1.519-.803h.018l.846.143v8.206l2.314.115v.617h-6.109v-.617l2.365-.115v-6.914m58.246 6.082c.471-.689.707-1.65.707-2.883 0-2.63-.954-3.946-2.86-3.946-1.013 0-1.76.33-2.243.99-.482.66-.723 1.578-.723 2.754 0 1.168.232 2.145.697 2.934.465.79 1.198 1.184 2.198 1.184 1.012 0 1.754-.344 2.224-1.033zm-5.596.373c-.706-.88-1.06-1.975-1.06-3.285 0-.899.207-1.695.619-2.389a4.31 4.31 0 0 1 1.668-1.614 4.756 4.756 0 0 1 2.321-.574c1.542 0 2.646.407 3.311 1.22s.997 1.898.997 3.256c0 .89-.197 1.693-.591 2.411a4.353 4.353 0 0 1-1.625 1.685c-.688.407-1.463.61-2.321.61-1.507 0-2.613-.44-3.319-1.32zm14.183-6.455a12.51 12.51 0 0 1-1.183.315c-.542.125-.995.206-1.359.244l-.177-.674a8.725 8.725 0 0 0 1.765-.517 7.668 7.668 0 0 0 1.519-.803h.018l.847.143v8.206l2.313.115v.617h-6.109v-.617l2.366-.115v-6.914m26.65 6.082c.471-.689.706-1.65.706-2.883 0-2.63-.953-3.946-2.859-3.946-1.013 0-1.76.33-2.243.99-.482.66-.723 1.578-.723 2.754 0 1.168.232 2.145.697 2.934.465.79 1.198 1.184 2.198 1.184 1.012 0 1.753-.344 2.224-1.033zm-5.596.373c-.707-.88-1.059-1.975-1.059-3.285 0-.899.206-1.695.618-2.389a4.31 4.31 0 0 1 1.668-1.614 4.76 4.76 0 0 1 2.322-.574c1.541 0 2.644.407 3.31 1.22.664.813.998 1.898.998 3.256 0 .89-.198 1.693-.592 2.411a4.36 4.36 0 0 1-1.625 1.685c-.688.407-1.462.61-2.321.61-1.506 0-2.613-.44-3.319-1.32m27.137-6.455c-.248.086-.642.191-1.184.315-.541.125-.994.206-1.359.244l-.176-.674a8.725 8.725 0 0 0 1.765-.517 7.668 7.668 0 0 0 1.519-.803h.017l.847.143v8.206l2.314.115v.617h-6.109v-.617l2.366-.115v-6.914m32.346 6.082c.47-.689.706-1.65.706-2.883 0-2.63-.953-3.946-2.86-3.946-1.013 0-1.759.33-2.242.99-.483.66-.724 1.578-.724 2.754 0 1.168.233 2.145.697 2.934.466.79 1.198 1.184 2.198 1.184 1.013 0 1.754-.344 2.225-1.033zm-5.596.373c-.706-.88-1.06-1.975-1.06-3.285 0-.899.207-1.695.618-2.389a4.327 4.327 0 0 1 1.669-1.614 4.756 4.756 0 0 1 2.321-.574c1.542 0 2.645.407 3.31 1.22s.998 1.898.998 3.256c0 .89-.197 1.693-.592 2.411a4.35 4.35 0 0 1-1.624 1.685c-.689.407-1.463.61-2.321.61-1.507 0-2.613-.44-3.319-1.32m18.553-.373c.471-.689.706-1.65.706-2.883 0-2.63-.953-3.946-2.859-3.946-1.013 0-1.76.33-2.243.99-.482.66-.723 1.578-.723 2.754 0 1.168.232 2.145.697 2.934.465.79 1.197 1.184 2.198 1.184 1.012 0 1.753-.344 2.224-1.033zm-5.596.373c-.706-.88-1.059-1.975-1.059-3.285 0-.899.206-1.695.617-2.389a4.327 4.327 0 0 1 1.669-1.614 4.756 4.756 0 0 1 2.321-.574c1.542 0 2.645.407 3.311 1.22.664.813.997 1.898.997 3.256 0 .89-.198 1.693-.591 2.411a4.357 4.357 0 0 1-1.624 1.685c-.689.407-1.463.61-2.322.61-1.507 0-2.613-.44-3.319-1.32m31.503-.373c.471-.689.706-1.65.706-2.883 0-2.63-.953-3.946-2.859-3.946-1.013 0-1.76.33-2.243.99-.482.66-.723 1.578-.723 2.754 0 1.168.231 2.145.697 2.934.465.79 1.198 1.184 2.198 1.184 1.012 0 1.753-.344 2.224-1.033zm-5.596.373c-.706-.88-1.059-1.975-1.059-3.285 0-.899.206-1.695.618-2.389a4.317 4.317 0 0 1 1.668-1.614 4.76 4.76 0 0 1 2.322-.574c1.541 0 2.644.407 3.31 1.22.664.813.997 1.898.997 3.256 0 .89-.198 1.693-.591 2.411a4.36 4.36 0 0 1-1.625 1.685c-.688.407-1.462.61-2.321.61-1.507 0-2.613-.44-3.319-1.32m14.179-6.455a12.34 12.34 0 0 1-1.183.315c-.541.125-.994.206-1.359.244l-.176-.674a8.725 8.725 0 0 0 1.765-.517 7.658 7.658 0 0 0 1.518-.803h.018l.847.143v8.206l2.313.115v.617h-6.108v-.617l2.365-.115v-6.914m9.319 0a12.34 12.34 0 0 1-1.183.315c-.542.125-.994.206-1.359.244l-.177-.674a8.725 8.725 0 0 0 1.765-.517 7.64 7.64 0 0 0 1.519-.803h.018l.847.143v8.206l2.312.115v.617H440.4v-.617l2.365-.115v-6.914"/></symbol><symbol viewBox="0 0 25 32" id="offer_H" xmlns="http://www.w3.org/2000/svg"><path d="M25.742 32.927v-32h-3.066v14.237H3.786V.927H.742v32h3.044V17.914h18.89v15.013h3.066z"/></symbol><symbol viewBox="0 0 35.97 41.73" id="offer_android" xmlns="http://www.w3.org/2000/svg"><path d="M12.197 34.906h-1.154a2.881 2.881 0 0 1-2.885-2.872v-3.64a3.402 3.402 0 0 1-2.866 1.569c-1.895 0-3.416-1.555-3.416-3.441v-9.534c0-1.89 1.517-3.44 3.416-3.44 1.203 0 2.258.624 2.866 1.567V14.07h-.13l.094-1.087c.287-3.273 2.31-6.06 5.184-7.745l-1.342-1.933-.008-.012-.007-.012c-.339-.519-.367-1.386.332-1.87.7-.49 1.522-.158 1.885.367l.002.003 1.623 2.341a13.324 13.324 0 0 1 4.074-.63c1.426 0 2.8.221 4.073.63l1.624-2.346s0-.002.002-.002c.378-.547 1.198-.835 1.877-.372l.008.006.008.005c.67.478.683 1.342.31 1.883l-.002.004-1.341 1.934c2.87 1.685 4.897 4.47 5.192 7.747l.098 1.09h-.054v.901a3.398 3.398 0 0 1 2.769-1.426 3.417 3.417 0 0 1 3.415 3.439v-.002h-1l1 .003-25.647 17.919zm0 0v4.304c0 1.886 1.522 3.441 3.416 3.441 1.899 0 3.416-1.55 3.416-3.44V34.9h1.76v4.305c0 1.886 1.522 3.44 3.416 3.44 1.898 0 3.415-1.55 3.415-3.44v-4.304h1.155a2.881 2.881 0 0 0 2.885-2.873v-3.496l-19.462 6.373zM27.209 2.913zm-14.686.005zm2.802 6.193a.194.194 0 0 1-.106-.033.186.186 0 0 1-.079-.188.183.183 0 0 1 .05-.094.191.191 0 0 1 .21-.04.19.19 0 0 1 .086.068.18.18 0 0 1-.025.23l.706.709-.706-.709a.196.196 0 0 1-.136.057zm9.22 0a.194.194 0 0 1-.106-.033.186.186 0 0 1-.08-.188l-.98-.196.98.196a.184.184 0 0 1 .052-.094.191.191 0 0 1 .21-.04.189.189 0 0 1 .085.068l.83-.557-.83.557a.18.18 0 0 1-.025.23.196.196 0 0 1-.136.057z"/></symbol><symbol viewBox="0 0 30.97 36.97" id="offer_apple" xmlns="http://www.w3.org/2000/svg"><path d="M29.32 25.875c-1.005-.956-2.009-2.472-2.034-4.79-.016-1.91.758-3.317 1.574-4.277.41-.482.827-.846 1.148-1.093a6.208 6.208 0 0 1 .544-.372l.96-.533-.62-.907c-2.35-3.434-5.957-3.806-7.142-3.887-.974-.075-1.89.049-2.717.252a8.46 8.46 0 0 0 1.616-1.483c1.365-1.635 2.304-3.956 2.041-6.32l-.103-.928-.934.04c-2.067.088-4.431 1.333-5.855 2.987-1.25 1.437-2.402 3.808-2.088 6.184l.071.538a37.833 37.833 0 0 1-.582-.226l-.427-.169c-.99-.385-2.25-.834-3.59-.802-3.344.045-6.376 1.937-8.07 4.88-1.7 2.947-1.881 6.52-1.295 9.836.587 3.325 1.966 6.518 3.551 8.807l.002.003c.73 1.048 1.59 2.256 2.585 3.188.998.934 2.256 1.707 3.788 1.657h.01c1.212-.052 2.095-.43 2.842-.75l.192-.081c.773-.327 1.507-.603 2.652-.603 1.12 0 1.82.289 2.607.628l.07.03c.801.347 1.74.752 3.109.72 1.515-.026 2.713-.72 3.684-1.626.951-.887 1.752-2.041 2.47-3.094 1.77-2.58 2.505-5.074 2.557-5.255l.264-.921-.91-.303c.01.003.005.001-.012-.006-.131-.057-1.041-.452-1.958-1.324z"/></symbol><symbol viewBox="0 0 41.31 35.8" id="offer_diplay" xmlns="http://www.w3.org/2000/svg"><path fill-rule="evenodd" clip-rule="evenodd" d="M3.435.412a3 3 0 0 0-3 3v23.162a3 3 0 0 0 3 3h15.82v3.24s-7.047.702-8.263 1.107c-1.217.405-1.377 2.295-1.377 2.295h22.954s.117-.972-.542-1.782-9.1-1.62-9.1-1.62v-3.24h15.82a3 3 0 0 0 3-3V3.412a3 3 0 0 0-3-3H3.436zM39.91 2.248H2.27v23.87h37.64V2.247zM19.298 20.23h-1.51L23.56 5.222h1.5L19.298 20.23zm-9.066-7.3l5.943 2.401v1.861L8.41 13.594v-1.386l7.765-3.588v1.86l-5.943 2.45zm16.67-2.516l6.275 2.459-6.275 2.487v1.823l8.107-3.598v-1.386L26.902 8.61v1.804z"/></symbol><symbol viewBox="0 0 32.13 39.14" id="offer_doc" xmlns="http://www.w3.org/2000/svg"><g filter="url(#jfilter0_d)"><path fill-rule="evenodd" clip-rule="evenodd" d="M32.638 3.067H12.899v5.654H6.645v27.183c0 .442.106.867.294 1.18.188.312.444.487.71.487h26.108c.266 0 .521-.175.71-.488.188-.312.294-.736.294-1.179V5.894c0-2.827-2.123-2.827-2.123-2.827zM9.686.893l-2.754 2.61c-.918.869-2.295 2.391-2.295 2.391v30.01c0 1.327.167 2.45.918 3.262.804.87 2.414.87 3.213.87h24.329c.799 0 2.313-.573 2.754-1.305.565-.938.918-1.5.918-2.827V5.894c0-1.326-.317-2.598-.882-3.536-.565-.938-1.331-1.465-2.13-1.465H9.687z"/><path fill-rule="evenodd" clip-rule="evenodd" d="M15.654 21.77c0-.27.09-.527.252-.718a.8.8 0 0 1 .608-.297h12.05a.8.8 0 0 1 .609.297c.161.19.252.449.252.718 0 .269-.091.527-.252.717a.8.8 0 0 1-.609.298h-12.05a.8.8 0 0 1-.608-.298 1.114 1.114 0 0 1-.252-.717zm0-5.075c0-.269.09-.527.252-.717a.8.8 0 0 1 .608-.297h12.05a.8.8 0 0 1 .609.297c.161.19.252.448.252.717 0 .27-.091.528-.252.718a.8.8 0 0 1-.609.297h-12.05a.8.8 0 0 1-.608-.297 1.114 1.114 0 0 1-.252-.718zm0 10.149c0-.27.09-.527.252-.718a.8.8 0 0 1 .608-.297h12.05a.8.8 0 0 1 .609.297c.161.19.252.449.252.718 0 .27-.091.527-.252.718a.8.8 0 0 1-.609.297h-12.05a.8.8 0 0 1-.608-.297 1.114 1.114 0 0 1-.252-.718z"/><path d="M12.9 17.421c.506 0 .918-.39.918-.87s-.412-.87-.919-.87c-.507 0-.918.39-.918.87s.411.87.918.87zm0 5.219c.506 0 .918-.39.918-.87s-.412-.87-.919-.87c-.507 0-.918.39-.918.87s.411.87.918.87zm0 5.219c.506 0 .918-.39.918-.87s-.412-.87-.919-.87c-.507 0-.918.39-.918.87s.411.87.918.87z"/></g><defs><filter id="jfilter0_d" x=".637" y=".893" filterUnits="userSpaceOnUse" color-interpolation-filters="sRGB"><feFlood flood-opacity="0" result="BackgroundImageFix"/><feColorMatrix in="SourceAlpha" values="0 0 0 0 0 0 0 0 0 0 0 0 0 0 0 0 0 0 127 0"/><feOffset dy="4"/><feGaussianBlur stdDeviation="2"/><feColorMatrix values="0 0 0 0 0 0 0 0 0 0 0 0 0 0 0 0 0 0 0.25 0"/><feBlend in2="BackgroundImageFix" result="effect1_dropShadow"/><feBlend in="SourceGraphic" in2="effect1_dropShadow" result="shape"/></filter></defs></symbol><symbol viewBox="0 0 38.72 36.48" id="offer_gadget" xmlns="http://www.w3.org/2000/svg"><path d="M3.157 36.867h16.634a.959.959 0 0 0 .66-.26.893.893 0 0 0 .285-.65.893.893 0 0 0-.285-.65.964.964 0 0 0-.66-.258H3.157a.264.264 0 0 1-.18-.069.193.193 0 0 1-.064-.14V2.417c0-.048.02-.099.064-.14a.264.264 0 0 1 .18-.069H28.11c.071 0 .136.027.18.069a.193.193 0 0 1 .064.14v5.59a.89.89 0 0 0 .284.65.964.964 0 0 0 .66.26.965.965 0 0 0 .66-.26.893.893 0 0 0 .284-.65v-5.59c0-1.137-.977-2.027-2.132-2.027H3.157c-1.155 0-2.132.89-2.132 2.027V34.84c0 1.137.977 2.027 2.132 2.027z"/><path d="M22.416 12.478v22.36c0 1.138.977 2.027 2.132 2.027h13.07c1.156 0 2.132-.889 2.132-2.027v-22.36c0-1.138-.976-2.027-2.132-2.027h-13.07c-1.155 0-2.132.89-2.132 2.027zm15.446 0v22.36c0 .049-.02.1-.064.14a.264.264 0 0 1-.18.07h-13.07a.263.263 0 0 1-.18-.07.193.193 0 0 1-.064-.14v-22.36c0-.048.02-.1.064-.14a.263.263 0 0 1 .18-.069h13.07c.071 0 .136.027.18.069a.193.193 0 0 1 .064.14zM15.634 33.515c.83 0 1.538-.638 1.538-1.468s-.709-1.468-1.538-1.468c-.829 0-1.538.637-1.538 1.468 0 .83.709 1.468 1.538 1.468z"/><path d="M31.08 33.515c.83 0 1.538-.638 1.538-1.468s-.709-1.468-1.538-1.468c-.83 0-1.538.637-1.538 1.468 0 .83.709 1.468 1.538 1.468z"/></symbol><symbol viewBox="0 0 49.7 47.92" id="offer_search" xmlns="http://www.w3.org/2000/svg"><path fill-rule="evenodd" clip-rule="evenodd" d="M14.238 19.214c0-9.453 7.624-17.115 17.028-17.115 9.405 0 17.029 7.662 17.029 17.115S40.67 36.33 31.266 36.33s-17.028-7.663-17.028-17.116zM31.266.577c-10.24 0-18.542 8.344-18.542 18.637 0 4.599.874 8.272 3.62 11.522L.233 46.436C.106 48.1.657 48.411 2.13 48.5l16.026-16.108a18.437 18.437 0 0 0 13.111 5.458c10.24 0 18.542-8.344 18.542-18.637C49.808 8.921 41.507.577 31.266.577zM43.822 19.88c-2.597-4.55-7.153-7.303-12.194-7.303-5.04 0-9.603 2.753-12.178 7.303l-.216.343.2.351c2.598 4.55 7.154 7.303 12.194 7.303 5.041 0 9.604-2.717 12.194-7.303l.2-.35-.2-.344zm-12.194 6.5c-4.339 0-8.324-2.293-10.636-6.157 2.312-3.863 6.297-6.156 10.636-6.156 4.34 0 8.279 2.3 10.63 6.156-2.351 3.864-6.298 6.157-10.63 6.157zm.225-11.145a5.494 5.494 0 0 0-2.93.864 5.072 5.072 0 0 0-1.93 2.259 4.765 4.765 0 0 0-.281 2.894c.21.97.719 1.86 1.462 2.556a5.388 5.388 0 0 0 2.714 1.356 5.56 5.56 0 0 0 3.051-.3 5.232 5.232 0 0 0 2.362-1.856 4.823 4.823 0 0 0 .878-2.785 4.784 4.784 0 0 0-.413-1.92 5.005 5.005 0 0 0-1.158-1.621 5.32 5.32 0 0 0-1.725-1.078 5.546 5.546 0 0 0-2.03-.37zm0 8.56a3.893 3.893 0 0 1-2.069-.615 3.594 3.594 0 0 1-1.362-1.597 3.376 3.376 0 0 1-.202-2.045 3.497 3.497 0 0 1 1.028-1.808 3.815 3.815 0 0 1 1.912-.966 3.94 3.94 0 0 1 2.157.199 3.712 3.712 0 0 1 1.68 1.298 3.42 3.42 0 0 1 .64 1.962c.002.47-.095.937-.284 1.372a3.55 3.55 0 0 1-.82 1.163c-.353.332-.77.595-1.23.772-.46.178-.954.268-1.45.264z"/></symbol><symbol viewBox="0 0 41.31 47.84" id="offer_virus" xmlns="http://www.w3.org/2000/svg"><path d="M16.329 12.178l-1.836 1.74 2.754 2.61a5.686 5.686 0 0 0-2.525 3.044h-5.05v2.174h4.591v2.175h-4.59v2.175h4.59v2.174h-4.59v2.175h5.05c.917 2.61 3.442 4.35 6.426 4.35 2.983 0 5.508-1.74 6.426-4.35h5.05V28.27h-4.59v-2.174h4.59V23.92h-4.59v-2.175h4.59v-2.174h-5.05c-.459-1.305-1.377-2.392-2.524-3.262l2.754-2.61-1.607-1.522-3.213 3.044h-1.836c-.46 0-1.148 0-1.607.218l-3.213-3.262zm2.524 9.568h4.59v2.175h-4.59v-2.175zm0 4.35h4.59v2.174h-4.59v-2.174zm22.952-4.35c0 11.961-8.721 23.27-20.656 26.096C9.214 45.015.492 33.707.492 21.746V8.7L21.15 0l20.656 8.699v13.047zM21.15 46.537c8.72-2.174 17.9-10.437 19.279-23.486V10.003L21.148 1.74 2.329 9.568v12.613c0 12.613 10.098 22.182 18.82 24.356z"/></symbol><symbol viewBox="0 0 43.78 43.59" id="phone_picture" xmlns="http://www.w3.org/2000/svg"><path d="M2.96 42.097l-.247.248.247-.248a.319.319 0 0 1-.094-.225V3.01c0-.084.034-.166.094-.226a.325.325 0 0 1 .23-.094h28.267c.087 0 .169.034.23.094l.246-.248-.247.248c.06.06.094.142.094.226v6.7a1.019 1.019 0 0 0 1.023 1.02 1.025 1.025 0 0 0 1.024-1.02v-6.7a2.367 2.367 0 0 0-2.37-2.36H3.19A2.367 2.367 0 0 0 .82 3.01v38.862a2.367 2.367 0 0 0 2.37 2.36h18.845a1.025 1.025 0 0 0 1.023-1.02 1.019 1.019 0 0 0-1.023-1.02H3.189a.325.325 0 0 1-.229-.095z"/><path d="M25.054 15.07v26.802a2.367 2.367 0 0 0 2.369 2.36H42.23a2.367 2.367 0 0 0 2.37-2.36V15.07a2.367 2.367 0 0 0-2.37-2.36H27.423a2.367 2.367 0 0 0-2.37 2.36zm17.499 0v26.802a.318.318 0 0 1-.094.225.324.324 0 0 1-.23.095H27.424a.325.325 0 0 1-.23-.095.318.318 0 0 1-.093-.225V15.07c0-.085.033-.166.094-.226a.325.325 0 0 1 .229-.094H42.23a.32.32 0 0 1 .323.32zM17.322 40.214c.935 0 1.696-.755 1.696-1.69 0-.935-.76-1.69-1.696-1.69-.935 0-1.696.755-1.696 1.69 0 .934.76 1.69 1.696 1.69z"/><path d="M34.825 40.214c.935 0 1.696-.755 1.696-1.69 0-.935-.76-1.69-1.696-1.69-.935 0-1.696.755-1.696 1.69 0 .934.761 1.69 1.696 1.69z"/></symbol><symbol viewBox="0 0 867.9 433.79" id="pink_lines" xmlns="http://www.w3.org/2000/svg"><path fill-rule="evenodd" clip-rule="evenodd" d="M752.029 81.516h13.653v.886h-13.653v-.886zm-13.278 0h6.977v.886h-6.977v-.886zm-44.799 0h13.509v.886h-13.509v-.886zm-34.811 0h6.977v.886h-6.977v-.886zm56.209 208.43h152.554v1.004H715.35v-1.004z"/><path fill-rule="evenodd" clip-rule="evenodd" d="M457.067 289.83h258.65v1.178h-258.65v-1.178zm177.168 33.135h233.669v1.062H634.235v-1.062z"/><path fill-rule="evenodd" clip-rule="evenodd" d="M725.83 323.257h142.074v.77H725.83v-.77zm-107.962 34.418h250.036v.478H617.868v-.478z"/><path fill-rule="evenodd" clip-rule="evenodd" d="M617.868 357.267h250.036v.77H617.868v-.77z"/><path fill-rule="evenodd" clip-rule="evenodd" d="M752.242 357.267h10.208v.77h-10.208v-.77zm-36.963-80.445h152.555v1.295H715.279v-1.295z"/><path fill-rule="evenodd" clip-rule="evenodd" d="M689.286 276.822h26.431v1.295h-26.431v-1.295zm-216.483 2.462h-8.844v-2.462h8.844v2.462z"/><path fill-rule="evenodd" clip-rule="evenodd" d="M689.286 277.814h26.431v1.471h-26.431v-1.471z"/><path fill-rule="evenodd" clip-rule="evenodd" d="M619.154 277.814h70.577v1.471h-70.577v-1.471zm181.978.408h66.702v1.061h-66.702v-1.061zm-360.79 147.179H867.97v4.271H440.342v-4.271z"/><path fill-rule="evenodd" clip-rule="evenodd" d="M352.051 425.46h88.954v3.862h-88.954v-3.862zm363.228-191.339h152.555v2.579H715.279v-2.579z"/><path fill-rule="evenodd" clip-rule="evenodd" d="M860.294 236.699h-2.886v-1.178h2.886v1.178zm-55.936-1.178h12.146v1.178h-12.146v-1.178zm-8.524 1.179h-13.653v-2.579h13.653v2.579zm-42.933 0h-13.654v-2.579h13.654v2.579zm-24.403 0h-2.886v-2.579h2.886v2.579zm-284.351-2.579h28.656v2.579h-28.656v-2.579z"/><path fill-rule="evenodd" clip-rule="evenodd" d="M472.36 234.121h26.287v2.579H472.36v-2.579z"/><path fill-rule="evenodd" clip-rule="evenodd" d="M498.199 234.121h217.518v2.579H498.199v-2.579z"/><path fill-rule="evenodd" clip-rule="evenodd" d="M713.129 236.7h-2.814v-2.579h2.814v2.579zm-122.669 0h-13.653v-2.579h13.653v2.579zm-24.48 0h-2.814v-2.579h2.814v2.579zm-12.344 0h-13.725v-2.579h13.725v2.579zm-24.481 0h-2.814v-2.579h2.814v2.579zm271.403-2.579h67.276v1.762h-67.276v-1.762z"/><path fill-rule="evenodd" clip-rule="evenodd" d="M860.294 235.883h-2.886v-1.762h2.886v1.762zm-56.796-1.762h13.725v1.762h-13.725v-1.762zm-114.212 27.592h26.431v2.403h-26.431v-2.403z"/><path fill-rule="evenodd" clip-rule="evenodd" d="M555.41 261.713h134.321v2.403H555.41v-2.403z"/><path fill-rule="evenodd" clip-rule="evenodd" d="M575.814 264.116h-7.121v-2.403h7.121v2.403zm95.179.118h-5.757v-2.579h5.757v2.579zm-23.754 0h-5.613v-2.579h5.613v2.579z"/><path fill-rule="evenodd" clip-rule="evenodd" d="M577.604 264.234h-10.925v-2.579h10.925v2.579zm-15.353 0h-5.757v-2.579h5.757v2.579zm189.925-73.514h115.658v1.295H752.176v-1.295zm-67.046 27.417h182.704v1.47H685.13v-1.47zM377.8 327.453h46.602v1.587H377.8v-1.587zm241.123 63.179h243.288v2.053H618.923v-2.053zm21.241-61.953h221.969v.77H640.164v-.77z"/><path fill-rule="evenodd" clip-rule="evenodd" d="M640.164 329.088h221.969v.478H640.164v-.478z"/><path fill-rule="evenodd" clip-rule="evenodd" d="M747.34 328.679h52.417v.77H747.34v-.77z"/><path fill-rule="evenodd" clip-rule="evenodd" d="M747.34 329.088h52.417v.478H747.34v-.478zm65.75-20.709h49.043v.595H813.09v-.595zM583.39.602h278.821V1.78H583.39V.602z"/><path fill-rule="evenodd" clip-rule="evenodd" d="M489.418.835h94.696v.653h-94.696V.835z"/><path fill-rule="evenodd" clip-rule="evenodd" d="M583.39.894h278.821v.886H583.39V.894z"/><path fill-rule="evenodd" clip-rule="evenodd" d="M489.418 1.127h94.696v.478h-94.696v-.478zm233.943 349.778h138.772v.654H723.361v-.654z"/><path fill-rule="evenodd" clip-rule="evenodd" d="M723.361 350.905h138.772v.479H723.361v-.479zm-142.699 82.311h281.549v1.178H580.662v-1.178zM328.485 297.762h49.688v3.687h-49.688v-3.687zm521.645.117h12.003v.478H850.13v-.478z"/><path fill-rule="evenodd" clip-rule="evenodd" d="M850.13 297.879h12.003v.77H850.13v-.77zm-54.769-24.735h66.701v1.295h-66.701v-1.295z"/><path fill-rule="evenodd" clip-rule="evenodd" d="M795.361 272.969h66.701v.478h-66.701v-.478zm0 1.167h66.701v1.295h-66.701v-1.295zM666.443 387.831h195.768v1.47H666.443v-1.47z"/><path fill-rule="evenodd" clip-rule="evenodd" d="M666.652 386.606h195.481v1.471H666.652v-1.471zM625.091 66.172h236.971v.945H625.091v-.945zm152.395 302.641h84.647v.654h-84.647v-.654zm0-2.916h84.647v1.062h-84.647v-1.062z"/><path fill-rule="evenodd" clip-rule="evenodd" d="M777.486 366.598h84.647v2.578h-84.647v-2.578z"/><path fill-rule="evenodd" clip-rule="evenodd" d="M777.492 366.714h33.967v2.345h-33.967v-2.345z"/><path fill-rule="evenodd" clip-rule="evenodd" d="M811.08 366.714h51.053v2.345H811.08v-2.345zm-33.594 9.567h84.647v2.404h-84.647v-2.404zm-342.624 23.393h61.891v2.753h-61.891v-2.753z"/><path fill-rule="evenodd" clip-rule="evenodd" d="M408.811 402.064h26.43v2.871h-26.43v-2.871z"/><path fill-rule="evenodd" clip-rule="evenodd" d="M408.811 399.674h26.43v2.753h-26.43v-2.753z"/><path fill-rule="evenodd" clip-rule="evenodd" d="M364.018 402.064h45.238v2.871h-45.238v-2.871z"/><path fill-rule="evenodd" clip-rule="evenodd" d="M364.018 399.674h45.238v2.753h-45.238v-2.753z"/><path fill-rule="evenodd" clip-rule="evenodd" d="M368.684 399.674h7.48v1.062h-7.48v-1.062zm211.978.467h281.549v1.178H580.662v-1.178zm199.845-12.31h81.704v1.178h-81.704v-1.178zm32.583-51.919h49.043v.537H813.09v-.537z"/><path fill-rule="evenodd" clip-rule="evenodd" d="M815.531 335.388h46.602v.886h-46.602v-.886zm0-2.392h46.602v.653h-46.602v-.653zM.066 15.282h862.399v2.786H.066v-2.786z"/><path fill-rule="evenodd" clip-rule="evenodd" d="M86.078 15.128h226.276v3.103H86.078v-3.103zM496.31 339.88h365.823v.77H496.31v-.77z"/><path fill-rule="evenodd" clip-rule="evenodd" d="M473.266 339.88h23.487v.653h-23.487v-.653zm-270.687 11.9h175.669v.945H202.579v-.945zm232.288 0h34.685v.945h-34.685v-.945z"/><path fill-rule="evenodd" clip-rule="evenodd" d="M377.8 351.78h57.441v.945H377.8v-.945zm92.523 0h26.43v.945h-26.43v-.945z"/><path fill-rule="evenodd" clip-rule="evenodd" d="M470.768 352.725h-1.665v-.945h1.665v.945zm25.542 27.756h365.823v.887H496.31v-.887z"/><path fill-rule="evenodd" clip-rule="evenodd" d="M469.102 380.481h27.651v.945h-27.651v-.945z"/><path fill-rule="evenodd" clip-rule="evenodd" d="M470.768 381.426h-1.665v-.945h1.665v.945zm333.206-.945h58.159v.77h-58.159v-.77zm-308.091 7.058h171.648v1.178H495.883v-1.178z"/><path fill-rule="evenodd" clip-rule="evenodd" d="M434.862 387.772h61.891v.77h-61.891v-.77z"/><path fill-rule="evenodd" clip-rule="evenodd" d="M.148 387.655H435.24v.887H.148v-.887z"/><path fill-rule="evenodd" clip-rule="evenodd" d="M6.034 387.655h403.222v.887H6.034v-.887z"/><path fill-rule="evenodd" clip-rule="evenodd" d="M57.36 387.655h320.168v.887H57.36v-.887z"/><path fill-rule="evenodd" clip-rule="evenodd" d="M363.513 387.655h16.955v.887h-16.955v-.887zm-25.122 0h16.955v.887h-16.955v-.887zm-50.178 0h16.812v.887h-16.812v-.887zm-12.113.887h-3.173v-.887h3.173v.887zm-18.101 0h-3.173v-.887h3.173v.887zm-160.438-.887h16.74v.887h-16.74v-.887zm-12.193.887h-3.173v-.887h3.173v.887zm-31.097-.887h16.955v.887H54.271v-.887zm-12.122.887h-3.173v-.887h3.173v.887zm454.157-.828h170.787v.537H496.306v-.537z"/><path fill-rule="evenodd" clip-rule="evenodd" d="M434.862 387.656h61.891v.479h-61.891v-.479z"/></symbol><symbol viewBox="0 0 44.42 49.45" id="play_picture" xmlns="http://www.w3.org/2000/svg"><path d="M41.78 19.862L7.483.608C4.697-.956.43.56.43 4.429v38.5c0 3.47 3.966 5.56 7.054 3.82L41.78 27.506c3.059-1.712 3.069-5.931 0-7.643z"/></symbol></svg>