<svg width="44" height="44" viewBox="0 0 44 44" fill="none" xmlns="http://www.w3.org/2000/svg">
<rect width="44" height="44" rx="7" fill="#FF4370"/>
<path d="M10.8956 13.4754C10.8956 13.4754 8.42679 15.7008 8.2918 18.0544V18.4921C8.40079 20.394 9.92166 21.5137 9.92166 21.5137C12.3595 23.7636 18.2649 26.5937 19.6498 27.2333C19.6498 27.2333 19.7328 27.2729 19.7848 27.2238L19.8108 27.1748V27.121C16.0251 19.3383 10.8946 13.4763 10.8946 13.4763L10.8956 13.4754ZM18.8639 29.1483C18.8379 29.0455 18.7339 29.0455 18.7339 29.0455L8.89575 29.3747C9.95866 31.1727 11.7605 32.5538 13.6403 32.1406C14.9212 31.8265 17.854 29.9001 18.8119 29.2464C18.8949 29.1823 18.8639 29.1332 18.8639 29.1332V29.1483ZM18.9729 28.1653C14.6503 25.4088 6.28098 21.1986 6.28098 21.1986C6.10225 21.7262 6.00756 22.2759 6 22.8297V22.9184C6 24.2645 6.53095 25.2079 6.53095 25.2079C7.59886 27.3352 9.65069 27.9795 9.65069 27.9795C10.5886 28.353 11.5205 28.3672 11.5205 28.3672C11.6815 28.3917 17.385 28.3672 18.9049 28.3672C18.9729 28.3672 19.0139 28.303 19.0139 28.303V28.2295C19.0139 28.1898 18.9719 28.1653 18.9719 28.1653H18.9729ZM18.077 9.76516C17.1323 9.99339 16.29 10.501 15.6734 11.2137C15.0567 11.9263 14.6982 12.8065 14.6503 13.7254V14.2414C14.6735 14.6877 14.7452 15.1305 14.8642 15.563C15.7442 19.2091 20.0148 25.1834 20.9317 26.4409C20.9997 26.505 21.0667 26.4805 21.0667 26.4805C21.0923 26.4697 21.1136 26.4516 21.1276 26.4287C21.1416 26.4059 21.1476 26.3794 21.1447 26.3531C22.5616 13.0235 19.6658 9.47555 19.6658 9.47555C19.2389 9.50008 18.077 9.76516 18.077 9.76516ZM29.144 12.6198C29.144 12.6198 28.4931 10.3548 25.8943 9.75007C25.8943 9.75007 25.1344 9.57272 24.3314 9.47461C24.3314 9.47461 21.4257 13.0075 22.8365 26.3663C22.8525 26.455 22.9195 26.4644 22.9195 26.4644C23.0135 26.5041 23.0495 26.4305 23.0495 26.4305C24.0135 25.1334 28.2521 19.1836 29.117 15.5621C29.117 15.5621 29.596 13.798 29.143 12.6188L29.144 12.6198ZM25.2533 29.0596C25.2533 29.0596 25.1594 29.0596 25.1334 29.119C25.1334 29.119 25.1174 29.2077 25.1693 29.2464C26.1013 29.8898 28.971 31.7623 30.3459 32.1406C30.3459 32.1406 30.5599 32.2048 30.9189 32.2142H31.1008C32.0228 32.1897 33.6366 31.752 35.1005 29.3747L25.2363 29.0606L25.2533 29.0596ZM35.6904 18.4818C35.8784 15.8875 33.1017 13.4848 33.1017 13.4754C33.1017 13.4754 27.9721 19.3374 24.2114 27.0606C24.2114 27.0606 24.1694 27.1588 24.2374 27.2229L24.2894 27.2323H24.3724C25.7833 26.5692 31.6478 23.7485 34.0746 21.5231C34.0746 21.5231 35.6105 20.3534 35.6894 18.4818H35.6904ZM37.7163 21.1741C37.7163 21.1741 29.347 25.4098 25.0244 28.1512C25.0244 28.1512 24.9564 28.2049 24.9824 28.2936C24.9824 28.2936 25.0244 28.3672 25.0764 28.3672C26.6232 28.3672 32.4927 28.3672 32.6387 28.3427C32.6387 28.3427 33.3986 28.3181 34.3316 27.9795C34.3316 27.9795 36.4094 27.3503 37.4923 25.1202C37.4923 25.1202 38.4662 23.2976 37.7163 21.175V21.1741Z" fill="white"/>
</svg>
