<svg width="89" height="65" viewBox="0 0 89 65" fill="none" xmlns="http://www.w3.org/2000/svg">
<path fill-rule="evenodd" clip-rule="evenodd" d="M0.234253 64.8562V0.0708008H88.1587V64.8562H0.234253ZM15.8093 30.1312L21.5875 31.5565C24.6018 32.3339 26.8629 32.9818 26.8629 35.314C26.8629 38.4237 23.7225 39.2012 20.8334 39.2012C15.558 39.2012 14.6787 36.0915 14.6787 34.407H8.9015C8.9015 38.1646 10.7852 44.384 21.2109 44.384C22.7181 44.384 26.4864 44.1249 29.2493 42.0517V43.6066H34.9023V36.6097L37.2887 34.1479L42.3138 43.6066H48.9693L41.3074 30.1312L48.8441 21.5795H41.9353L34.9013 29.8721V13.8053H29.2493V16.3967C27.4908 14.4532 24.7279 13.0279 20.4569 13.0279C11.1617 13.0279 9.40325 18.8586 9.40325 22.0978C9.40325 26.6328 11.6644 29.0946 15.8093 30.1312ZM25.8575 22.6161H29.1241V28.0581C27.8018 27.3853 26.4115 26.8639 24.9783 26.5032L17.9443 24.6892C16.8147 24.4301 14.9301 23.9118 14.9301 21.5795C14.9301 18.9881 17.694 18.0811 19.9542 18.0811C25.2297 18.0811 25.7324 21.3204 25.8575 22.6161ZM13.1034 57.4901V49.035H16.2733C17.9139 49.035 19.0565 50.1659 19.0565 51.8124C19.0565 52.1218 19.0156 52.4131 18.9383 52.6822C19.2116 51.8135 20.094 51.2147 21.3956 51.2147C22.8897 51.2147 23.8448 52.0057 23.8448 53.2421V57.4901H22.6319V56.4765H22.6026C22.2452 57.162 21.4659 57.5956 20.6573 57.5956C19.4503 57.5956 18.6065 56.8456 18.6065 55.7382C18.6065 54.66 19.4327 53.9979 20.8975 53.9159L22.585 53.8163V53.3417C22.585 52.6561 22.1221 52.246 21.3487 52.246C20.6163 52.246 20.1593 52.5975 20.0479 53.1483H18.8526C18.8616 53.0058 18.885 52.8682 18.9222 52.7364C18.5708 53.8737 17.5591 54.6015 16.2323 54.6015H14.4159V57.4901H13.1034ZM15.9276 50.1425H14.4159V53.4999H15.9218C17.0643 53.4999 17.7147 52.8847 17.7147 51.8182C17.7147 50.7518 17.0643 50.1425 15.9276 50.1425ZM19.8839 55.703C19.8839 56.2421 20.3292 56.5936 21.0089 56.5936C21.8936 56.5936 22.585 55.9843 22.585 55.1815V54.6952L21.0675 54.789C20.3116 54.8417 19.8839 55.1757 19.8839 55.703ZM26.8209 57.4901H25.5553V51.3261H26.7623V52.3749H26.7916C26.9967 51.6542 27.5475 51.2265 28.274 51.2265C28.4557 51.2265 28.6139 51.2557 28.7076 51.2733V52.4511C28.608 52.41 28.3853 52.3807 28.1393 52.3807C27.3248 52.3807 26.8209 52.9257 26.8209 53.7987V57.4901ZM30.5646 51.3261V49.8671H31.8361V51.3261H33.0079V52.328H31.8361V55.7265C31.8361 56.2597 32.0704 56.4999 32.5861 56.4999C32.715 56.4999 32.92 56.4882 33.0021 56.4706V57.4725C32.8614 57.5077 32.5802 57.5311 32.2989 57.5311C31.0509 57.5311 30.5646 57.0565 30.5646 55.8671V52.328H29.6681V51.3261H30.5646ZM35.9313 49.6034C35.9313 50.0018 35.609 50.33 35.2047 50.33C34.8004 50.33 34.4723 50.0018 34.4723 49.6034C34.4723 49.1991 34.8004 48.8768 35.2047 48.8768C35.609 48.8768 35.9313 49.1991 35.9313 49.6034ZM35.8375 51.3261V57.4901H34.5719V51.3261H35.8375ZM40.2375 51.2147C41.8253 51.2147 42.7921 52.2343 42.9035 53.4472H41.6964C41.5675 52.7909 41.0753 52.2694 40.2492 52.2694C39.2707 52.2694 38.6261 53.0839 38.6261 54.4081C38.6261 55.7616 39.2765 56.5468 40.2609 56.5468C41.0402 56.5468 41.55 56.119 41.6964 55.4042H42.9152C42.7804 56.7167 41.7316 57.6073 40.2492 57.6073C38.4855 57.6073 37.3371 56.4003 37.3371 54.4081C37.3371 52.4511 38.4855 51.2147 40.2375 51.2147ZM45.6921 49.6034C45.6921 50.0018 45.3698 50.33 44.9655 50.33C44.5612 50.33 44.2331 50.0018 44.2331 49.6034C44.2331 49.1991 44.5612 48.8768 44.9655 48.8768C45.3698 48.8768 45.6921 49.1991 45.6921 49.6034ZM48.6213 52.3866C48.9846 51.6776 49.6936 51.2265 50.5842 51.2265C52.1486 51.2265 53.1799 52.4569 53.1799 54.4081C53.1799 56.3593 52.1545 57.5956 50.6076 57.5956C49.7228 57.5956 49.0197 57.162 48.6682 56.4765H48.6389V59.5292H47.3732V51.3261H48.5978V52.3866H48.6213ZM48.633 54.4081C48.633 55.6913 49.2775 56.5233 50.2502 56.5233C51.2521 56.5233 51.8791 55.703 51.8791 54.4081C51.8791 53.119 51.2521 52.2929 50.2502 52.2929C49.2834 52.2929 48.633 53.1366 48.633 54.4081ZM45.5983 57.4901H44.3327V51.3261H45.5983V57.4901ZM58.3884 56.4765C58.031 57.162 57.2517 57.5956 56.4431 57.5956C55.2361 57.5956 54.3923 56.8456 54.3923 55.7382C54.3923 54.66 55.2185 53.9979 56.6833 53.9159L58.3708 53.8163V53.3417C58.3708 52.6561 57.9079 52.246 57.1345 52.246C56.4021 52.246 55.945 52.5975 55.8337 53.1483H54.6384C54.7087 52.035 55.6579 51.2147 57.1814 51.2147C58.6755 51.2147 59.6306 52.0057 59.6306 53.2421V57.4901H58.4177V56.4765H58.3884ZM55.6696 55.703C55.6696 56.2421 56.115 56.5936 56.7946 56.5936C57.6794 56.5936 58.3708 55.9843 58.3708 55.1815V54.6952L56.8532 54.789C56.0974 54.8417 55.6696 55.1757 55.6696 55.703ZM62.6067 57.4901H61.341V51.3261H62.5481V52.3573H62.5774C62.9114 51.6542 63.5676 51.2206 64.5168 51.2206C65.8762 51.2206 66.6555 52.0878 66.6555 53.4999V57.4901H65.384V53.746C65.384 52.8202 64.9504 52.3104 64.0715 52.3104C63.1809 52.3104 62.6067 52.9432 62.6067 53.8983V57.4901ZM68.7293 51.3261V49.8671H70.0007V51.3261H71.1726V52.328H70.0007V55.7265C70.0007 56.2597 70.2351 56.4999 70.7507 56.4999C70.8796 56.4999 71.0847 56.4882 71.1668 56.4706V57.4725C71.0261 57.5077 70.7449 57.5311 70.4636 57.5311C69.2156 57.5311 68.7293 57.0565 68.7293 55.8671V52.328H67.8328V51.3261H68.7293Z" fill="#828282"/>
</svg>
