<svg width="862" height="446" viewBox="0 0 862 446" fill="none" xmlns="http://www.w3.org/2000/svg">
<path fill-rule="evenodd" clip-rule="evenodd" d="M408.811 420.656H435.241V421.135H408.811V420.656Z" fill="#56CDF2"/>
<path fill-rule="evenodd" clip-rule="evenodd" d="M379.739 420.656H409.256V421.135H379.739V420.656Z" fill="#56CDF2"/>
<path fill-rule="evenodd" clip-rule="evenodd" d="M380.257 421.251H377.802V420.714H380.257V421.251Z" fill="#56CDF2"/>
<path fill-rule="evenodd" clip-rule="evenodd" d="M666.443 420.539H862.211V421.717H666.443V420.539Z" fill="#56CDF2"/>
<path fill-rule="evenodd" clip-rule="evenodd" d="M666.652 420.714H862.133V421.251H666.652V420.714Z" fill="#56CDF2"/>
<path fill-rule="evenodd" clip-rule="evenodd" d="M780.507 420.539H862.211V421.717H780.507V420.539Z" fill="#56CDF2"/>
<path fill-rule="evenodd" clip-rule="evenodd" d="M780.507 420.831H862.211V421.718H780.507V420.831Z" fill="#56CDF2"/>
<path fill-rule="evenodd" clip-rule="evenodd" d="M0.0754395 114.514H599.984V115.984H0.0754395V114.514Z" fill="#56CDF2"/>
<path fill-rule="evenodd" clip-rule="evenodd" d="M599.248 114.745H625.535V115.632H599.248V114.745Z" fill="#56CDF2"/>
<path fill-rule="evenodd" clip-rule="evenodd" d="M625.091 114.745H862.062V115.632H625.091V114.745Z" fill="#56CDF2"/>
<path fill-rule="evenodd" clip-rule="evenodd" d="M843.237 114.745H850.215V115.632H843.237V114.745Z" fill="#56CDF2"/>
<path fill-rule="evenodd" clip-rule="evenodd" d="M698.525 235.034H862.062V236.329H698.525V235.034Z" fill="#56CDF2"/>
<path fill-rule="evenodd" clip-rule="evenodd" d="M679.359 240.458H862.062V241.811H679.359V240.458Z" fill="#56CDF2"/>
<path fill-rule="evenodd" clip-rule="evenodd" d="M633.416 374.688H862.133V375.283H633.416V374.688Z" fill="#56CDF2"/>
<path fill-rule="evenodd" clip-rule="evenodd" d="M496.31 402.28H862.133V403.167H496.31V402.28Z" fill="#56CDF2"/>
<path fill-rule="evenodd" clip-rule="evenodd" d="M470.323 402.28H496.753V403.225H470.323V402.28Z" fill="#56CDF2"/>
<path fill-rule="evenodd" clip-rule="evenodd" d="M434.862 402.28H470.768V403.225H434.862V402.28Z" fill="#56CDF2"/>
<path fill-rule="evenodd" clip-rule="evenodd" d="M419.004 402.28H435.241V403.225H419.004V402.28Z" fill="#56CDF2"/>
<path fill-rule="evenodd" clip-rule="evenodd" d="M737.143 322.303H862.133V323.073H737.143V322.303Z" fill="#56CDF2"/>
<path fill-rule="evenodd" clip-rule="evenodd" d="M709.508 299.261H862.062V299.739H709.508V299.261Z" fill="#56CDF2"/>
<path fill-rule="evenodd" clip-rule="evenodd" d="M683.522 299.261H709.953V299.739H683.522V299.261Z" fill="#56CDF2"/>
<path fill-rule="evenodd" clip-rule="evenodd" d="M577.426 299.261H683.967V299.914H577.426V299.261Z" fill="#56CDF2"/>
<path fill-rule="evenodd" clip-rule="evenodd" d="M661.785 299.68H659.474V299.201H661.785V299.68Z" fill="#56CDF2"/>
<path fill-rule="evenodd" clip-rule="evenodd" d="M638.032 299.68H635.864V299.201H638.032V299.68Z" fill="#56CDF2"/>
<path fill-rule="evenodd" clip-rule="evenodd" d="M709.575 314.078H795.801V314.848H709.575V314.078Z" fill="#56CDF2"/>
<path fill-rule="evenodd" clip-rule="evenodd" d="M683.522 314.078H709.953V314.731H683.522V314.078Z" fill="#56CDF2"/>
<path fill-rule="evenodd" clip-rule="evenodd" d="M545.196 314.078H683.967V314.731H545.196V314.078Z" fill="#56CDF2"/>
<path fill-rule="evenodd" clip-rule="evenodd" d="M645.332 381.688H862.133V383.275H645.332V381.688Z" fill="#56CDF2"/>
<path fill-rule="evenodd" clip-rule="evenodd" d="M720.059 356.896H862.133V359.066H720.059V356.896Z" fill="#56CDF2"/>
<path fill-rule="evenodd" clip-rule="evenodd" d="M505.57 395.28H862.133V397.859H505.57V395.28Z" fill="#56CDF2"/>
<path fill-rule="evenodd" clip-rule="evenodd" d="M718.336 370.78H862.133V372.075H718.336V370.78Z" fill="#56CDF2"/>
<path fill-rule="evenodd" clip-rule="evenodd" d="M794.787 266.651H862.062V267.713H794.787V266.651Z" fill="#56CDF2"/>
<path fill-rule="evenodd" clip-rule="evenodd" d="M854.526 267.713H851.64V266.651H854.526V267.713Z" fill="#56CDF2"/>
<path fill-rule="evenodd" clip-rule="evenodd" d="M797.373 266.651H811.6V267.713H797.373V266.651Z" fill="#56CDF2"/>
<path fill-rule="evenodd" clip-rule="evenodd" d="M496.31 382.914H862.133V385.084H496.31V382.914Z" fill="#56CDF2"/>
<path fill-rule="evenodd" clip-rule="evenodd" d="M470.323 382.972H496.753V385.142H470.323V382.972Z" fill="#56CDF2"/>
<path fill-rule="evenodd" clip-rule="evenodd" d="M470.768 385.142H469.103V382.972H470.768V385.142Z" fill="#56CDF2"/>
<path fill-rule="evenodd" clip-rule="evenodd" d="M470.323 385.363H496.753V388.058H470.323V385.363Z" fill="#56CDF2"/>
<path fill-rule="evenodd" clip-rule="evenodd" d="M470.768 388.058H469.103V385.363H470.768V388.058Z" fill="#56CDF2"/>
<path fill-rule="evenodd" clip-rule="evenodd" d="M709.581 330.179H850.578V331.182H709.581V330.179Z" fill="#56CDF2"/>
<path fill-rule="evenodd" clip-rule="evenodd" d="M644.257 330.062H709.953V331.123H644.257V330.062Z" fill="#56CDF2"/>
<path fill-rule="evenodd" clip-rule="evenodd" d="M795.361 309.062H862.062V309.54H795.361V309.062Z" fill="#56CDF2"/>
<path fill-rule="evenodd" clip-rule="evenodd" d="M565.868 387.812H862.133V388.466H565.868V387.812Z" fill="#56CDF2"/>
<path fill-rule="evenodd" clip-rule="evenodd" d="M570.032 355.088H862.133V355.683H570.032V355.088Z" fill="#56CDF2"/>
<path fill-rule="evenodd" clip-rule="evenodd" d="M709.508 289.052H862.062V289.822H709.508V289.052Z" fill="#56CDF2"/>
<path fill-rule="evenodd" clip-rule="evenodd" d="M701.612 289.052H709.953V289.822H701.612V289.052Z" fill="#56CDF2"/>
<path fill-rule="evenodd" clip-rule="evenodd" d="M709.579 324.811H862.133V325.581H709.579V324.811Z" fill="#56CDF2"/>
<path fill-rule="evenodd" clip-rule="evenodd" d="M673.185 324.87H709.953V325.64H673.185V324.87Z" fill="#56CDF2"/>
<path fill-rule="evenodd" clip-rule="evenodd" d="M730.252 343.012H862.133V343.665H730.252V343.012Z" fill="#56CDF2"/>
<path fill-rule="evenodd" clip-rule="evenodd" d="M640.164 360.104H862.133V360.758H640.164V360.104Z" fill="#56CDF2"/>
<path fill-rule="evenodd" clip-rule="evenodd" d="M740.948 335.895H862.133V339.056H740.948V335.895Z" fill="#56CDF2"/>
<path fill-rule="evenodd" clip-rule="evenodd" d="M709.581 324.403H850.578V325.173H709.581V324.403Z" fill="#56CDF2"/>
<path fill-rule="evenodd" clip-rule="evenodd" d="M709.953 325.23H707.641V324.344H709.953V325.23Z" fill="#56CDF2"/>
<path fill-rule="evenodd" clip-rule="evenodd" d="M709.581 324.812H850.578V325.348H709.581V324.812Z" fill="#56CDF2"/>
<path fill-rule="evenodd" clip-rule="evenodd" d="M709.581 325.277H850.578V326.281H709.581V325.277Z" fill="#56CDF2"/>
<path fill-rule="evenodd" clip-rule="evenodd" d="M709.953 326.339H707.641V325.336H709.953V326.339Z" fill="#56CDF2"/>
<path fill-rule="evenodd" clip-rule="evenodd" d="M683.235 409.98H777.86V410.867H683.235V409.98Z" fill="#56CDF2"/>
<path fill-rule="evenodd" clip-rule="evenodd" d="M710.664 325.581H709.573V324.811H710.664V325.581Z" fill="#56CDF2"/>
<path fill-rule="evenodd" clip-rule="evenodd" d="M709.953 325.64H707.641V324.87H709.953V325.64Z" fill="#56CDF2"/>
<path fill-rule="evenodd" clip-rule="evenodd" d="M710.299 324.811H850.578V325.581H710.299V324.811Z" fill="#56CDF2"/>
<path fill-rule="evenodd" clip-rule="evenodd" d="M795.36 314.486H862.133V314.965H795.36V314.486Z" fill="#56CDF2"/>
<path fill-rule="evenodd" clip-rule="evenodd" d="M795.36 314.194H862.133V314.848H795.36V314.194Z" fill="#56CDF2"/>
<path fill-rule="evenodd" clip-rule="evenodd" d="M507.005 348.496H733.065V349.383H507.005V348.496Z" fill="#56CDF2"/>
<path fill-rule="evenodd" clip-rule="evenodd" d="M732.693 348.904H862.133V349.383H732.693V348.904Z" fill="#56CDF2"/>
<path fill-rule="evenodd" clip-rule="evenodd" d="M496.753 381.058H479.798V377.488H496.753V381.058Z" fill="#56CDF2"/>
<path fill-rule="evenodd" clip-rule="evenodd" d="M736.786 276.159H862.062V276.929H736.786V276.159Z" fill="#56CDF2"/>
<path fill-rule="evenodd" clip-rule="evenodd" d="M705.988 407.589H809.443V408.359H705.988V407.589Z" fill="#56CDF2"/>
<path fill-rule="evenodd" clip-rule="evenodd" d="M766.791 412.782H804.42V413.377H766.791V412.782Z" fill="#56CDF2"/>
<path fill-rule="evenodd" clip-rule="evenodd" d="M750.423 326.911H862.133V327.565H750.423V326.911Z" fill="#56CDF2"/>
<path fill-rule="evenodd" clip-rule="evenodd" d="M709.508 309.235H862.062V309.947H709.508V309.235Z" fill="#56CDF2"/>
<path fill-rule="evenodd" clip-rule="evenodd" d="M691.777 309.235H709.953V309.947H691.777V309.235Z" fill="#56CDF2"/>
<path fill-rule="evenodd" clip-rule="evenodd" d="M601.544 365.704H862.133V369.274H601.544V365.704Z" fill="#56CDF2"/>
<path fill-rule="evenodd" clip-rule="evenodd" d="M792.273 375.913H862.133V377.966H792.273V375.913Z" fill="#56CDF2"/>
<path fill-rule="evenodd" clip-rule="evenodd" d="M809.501 347.679H862.133V348.857H809.501V347.679Z" fill="#56CDF2"/>
<path fill-rule="evenodd" clip-rule="evenodd" d="M732.693 348.496H862.133V349.266H732.693V348.496Z" fill="#56CDF2"/>
<path fill-rule="evenodd" clip-rule="evenodd" d="M758.316 312.211H795.801V314.381H758.316V312.211Z" fill="#56CDF2"/>
<path fill-rule="evenodd" clip-rule="evenodd" d="M758.321 312.153H795.734V312.632H758.321V312.153Z" fill="#56CDF2"/>
<path fill-rule="evenodd" clip-rule="evenodd" d="M758.316 314.078H795.801V314.556H758.316V314.078Z" fill="#56CDF2"/>
<path fill-rule="evenodd" clip-rule="evenodd" d="M795.36 312.211H862.133V314.381H795.36V312.211Z" fill="#56CDF2"/>
<path fill-rule="evenodd" clip-rule="evenodd" d="M795.361 312.153H862.062V312.632H795.361V312.153Z" fill="#56CDF2"/>
<path fill-rule="evenodd" clip-rule="evenodd" d="M795.36 314.078H862.133V314.556H795.36V314.078Z" fill="#56CDF2"/>
<path fill-rule="evenodd" clip-rule="evenodd" d="M775.061 300.731H771.027V299.553H775.061V300.731Z" fill="#56CDF2"/>
<path fill-rule="evenodd" clip-rule="evenodd" d="M709.508 299.261H862.062V299.914H709.508V299.261Z" fill="#56CDF2"/>
<path fill-rule="evenodd" clip-rule="evenodd" d="M683.522 299.261H709.953V299.914H683.522V299.261Z" fill="#56CDF2"/>
<path fill-rule="evenodd" clip-rule="evenodd" d="M621.645 299.261H683.967V299.914H621.645V299.261Z" fill="#56CDF2"/>
<path fill-rule="evenodd" clip-rule="evenodd" d="M661.785 299.971H659.474V299.201H661.785V299.971Z" fill="#56CDF2"/>
<path fill-rule="evenodd" clip-rule="evenodd" d="M638.032 299.971H635.864V299.201H638.032V299.971Z" fill="#56CDF2"/>
<path fill-rule="evenodd" clip-rule="evenodd" d="M774.688 299.553H862.062V300.731H774.688V299.553Z" fill="#56CDF2"/>
<path fill-rule="evenodd" clip-rule="evenodd" d="M774.688 299.436H862.062V299.914H774.688V299.436Z" fill="#56CDF2"/>
<path fill-rule="evenodd" clip-rule="evenodd" d="M776.051 305.853H862.062V306.448H776.051V305.853Z" fill="#56CDF2"/>
<path fill-rule="evenodd" clip-rule="evenodd" d="M709.508 273.768H862.062V274.538H709.508V273.768Z" fill="#56CDF2"/>
<path fill-rule="evenodd" clip-rule="evenodd" d="M533.28 273.768H709.953V274.538H533.28V273.768Z" fill="#56CDF2"/>
<path fill-rule="evenodd" clip-rule="evenodd" d="M506 27.2422H584.114V28.0122H506V27.2422Z" fill="#56CDF2"/>
<path fill-rule="evenodd" clip-rule="evenodd" d="M709.508 257.259H862.062V258.029H709.508V257.259Z" fill="#56CDF2"/>
<path fill-rule="evenodd" clip-rule="evenodd" d="M851.642 257.259H856.25V258.029H851.642V257.259Z" fill="#56CDF2"/>
<path fill-rule="evenodd" clip-rule="evenodd" d="M799.306 257.259H808.868V258.029H799.306V257.259Z" fill="#56CDF2"/>
<path fill-rule="evenodd" clip-rule="evenodd" d="M777.918 257.259H787.479V258.029H777.918V257.259Z" fill="#56CDF2"/>
<path fill-rule="evenodd" clip-rule="evenodd" d="M734.991 257.259H744.768V258.029H734.991V257.259Z" fill="#56CDF2"/>
<path fill-rule="evenodd" clip-rule="evenodd" d="M719.838 257.259H724.447V258.029H719.838V257.259Z" fill="#56CDF2"/>
<path fill-rule="evenodd" clip-rule="evenodd" d="M502.628 257.259H709.953V258.029H502.628V257.259Z" fill="#56CDF2"/>
<path fill-rule="evenodd" clip-rule="evenodd" d="M704.548 257.259H709.085V258.029H704.548V257.259Z" fill="#56CDF2"/>
<path fill-rule="evenodd" clip-rule="evenodd" d="M572.547 257.259H582.109V258.029H572.547V257.259Z" fill="#56CDF2"/>
<path fill-rule="evenodd" clip-rule="evenodd" d="M557.403 257.259H561.94V258.029H557.403V257.259Z" fill="#56CDF2"/>
<path fill-rule="evenodd" clip-rule="evenodd" d="M535.712 257.259H545.417V258.029H535.712V257.259Z" fill="#56CDF2"/>
<path fill-rule="evenodd" clip-rule="evenodd" d="M520.571 257.259H525.108V258.029H520.571V257.259Z" fill="#56CDF2"/>
<path fill-rule="evenodd" clip-rule="evenodd" d="M599.249 77.4697H862.062V78.1231H599.249V77.4697Z" fill="#56CDF2"/>
<path fill-rule="evenodd" clip-rule="evenodd" d="M556.104 77.4111H584.114V78.1812H556.104V77.4111Z" fill="#56CDF2"/>
<path fill-rule="evenodd" clip-rule="evenodd" d="M822.065 136.154H862.062V136.924H822.065V136.154Z" fill="#56CDF2"/>
<path fill-rule="evenodd" clip-rule="evenodd" d="M580.873 136.154H599.695V136.924H580.873V136.154Z" fill="#56CDF2"/>
<path fill-rule="evenodd" clip-rule="evenodd" d="M599.248 136.154H625.535V136.924H599.248V136.154Z" fill="#56CDF2"/>
<path fill-rule="evenodd" clip-rule="evenodd" d="M625.088 136.154H822.435V136.924H625.088V136.154Z" fill="#56CDF2"/>
<path fill-rule="evenodd" clip-rule="evenodd" d="M580.662 190.932H862.211V192.11H580.662V190.932Z" fill="#56CDF2"/>
<path fill-rule="evenodd" clip-rule="evenodd" d="M467.324 249.804H460.06V247.809H467.324V249.804Z" fill="#56CDF2"/>
<path fill-rule="evenodd" clip-rule="evenodd" d="M466.593 248.042H492.88V249.512H466.593V248.042Z" fill="#56CDF2"/>
<path fill-rule="evenodd" clip-rule="evenodd" d="M492.435 248.042H862.062V249.512H492.435V248.042Z" fill="#56CDF2"/>
<path fill-rule="evenodd" clip-rule="evenodd" d="M440.416 43.6396H862.465V47.3536H440.416V43.6396Z" fill="#56CDF2"/>
<path fill-rule="evenodd" clip-rule="evenodd" d="M702.263 68.3105H862.211V71.1807H702.263V68.3105Z" fill="#56CDF2"/>
<path fill-rule="evenodd" clip-rule="evenodd" d="M822.065 151.439H862.062V153.026H822.065V151.439Z" fill="#56CDF2"/>
<path fill-rule="evenodd" clip-rule="evenodd" d="M571.039 151.439H599.695V153.026H571.039V151.439Z" fill="#56CDF2"/>
<path fill-rule="evenodd" clip-rule="evenodd" d="M599.246 151.439H822.435V153.026H599.246V151.439Z" fill="#56CDF2"/>
<path fill-rule="evenodd" clip-rule="evenodd" d="M822.065 153.072H862.062V155.009H822.065V153.072Z" fill="#56CDF2"/>
<path fill-rule="evenodd" clip-rule="evenodd" d="M571.039 153.072H599.695V155.009H571.039V153.072Z" fill="#56CDF2"/>
<path fill-rule="evenodd" clip-rule="evenodd" d="M807.923 87.0361H862.062V88.7395H807.923V87.0361Z" fill="#56CDF2"/>
<path fill-rule="evenodd" clip-rule="evenodd" d="M822.065 145.839H862.062V146.842H822.065V145.839Z" fill="#56CDF2"/>
<path fill-rule="evenodd" clip-rule="evenodd" d="M0.218964 184.282H296.125V187.852H0.218964V184.282Z" fill="#56CDF2"/>
<path fill-rule="evenodd" clip-rule="evenodd" d="M0.220612 184.865H270.069V187.852H0.220612V184.865Z" fill="#56CDF2"/>
<path fill-rule="evenodd" clip-rule="evenodd" d="M569.607 196.299H862.211V199.111H569.607V196.299Z" fill="#56CDF2"/>
<path fill-rule="evenodd" clip-rule="evenodd" d="M683.967 281.422H681.656V278.436H683.967V281.422Z" fill="#56CDF2"/>
<path fill-rule="evenodd" clip-rule="evenodd" d="M822.065 162.347H862.062V165.742H822.065V162.347Z" fill="#56CDF2"/>
<path fill-rule="evenodd" clip-rule="evenodd" d="M821.854 170.806H862.211V171.692H821.854V170.806Z" fill="#56CDF2"/>
<path fill-rule="evenodd" clip-rule="evenodd" d="M456.972 170.748H822.435V171.518H456.972V170.748Z" fill="#56CDF2"/>
<path fill-rule="evenodd" clip-rule="evenodd" d="M822.065 125.072H862.062V125.842H822.065V125.072Z" fill="#56CDF2"/>
<path fill-rule="evenodd" clip-rule="evenodd" d="M839.436 125.072H849.859V125.842H839.436V125.072Z" fill="#56CDF2"/>
<path fill-rule="evenodd" clip-rule="evenodd" d="M580.873 125.072H599.695V125.842H580.873V125.072Z" fill="#56CDF2"/>
<path fill-rule="evenodd" clip-rule="evenodd" d="M599.248 125.072H625.535V125.842H599.248V125.072Z" fill="#56CDF2"/>
<path fill-rule="evenodd" clip-rule="evenodd" d="M625.088 125.072H822.435V125.842H625.088V125.072Z" fill="#56CDF2"/>
<path fill-rule="evenodd" clip-rule="evenodd" d="M748.486 125.072H758.55V125.842H748.486V125.072Z" fill="#56CDF2"/>
<path fill-rule="evenodd" clip-rule="evenodd" d="M729.026 125.072H739.593V125.842H729.026V125.072Z" fill="#56CDF2"/>
<path fill-rule="evenodd" clip-rule="evenodd" d="M690.409 125.072H700.33V125.842H690.409V125.072Z" fill="#56CDF2"/>
<path fill-rule="evenodd" clip-rule="evenodd" d="M649.425 125.072H659.991V125.842H649.425V125.072Z" fill="#56CDF2"/>
<path fill-rule="evenodd" clip-rule="evenodd" d="M709.508 290.335H862.062V291.047H709.508V290.335Z" fill="#56CDF2"/>
<path fill-rule="evenodd" clip-rule="evenodd" d="M683.522 290.335H709.953V291.047H683.522V290.335Z" fill="#56CDF2"/>
<path fill-rule="evenodd" clip-rule="evenodd" d="M580.872 290.335H683.967V291.047H580.872V290.335Z" fill="#56CDF2"/>
<path fill-rule="evenodd" clip-rule="evenodd" d="M807.923 86.8623H862.062V87.3407H807.923V86.8623Z" fill="#56CDF2"/>
<path fill-rule="evenodd" clip-rule="evenodd" d="M580.662 213.1H862.211V214.278H580.662V213.1Z" fill="#56CDF2"/>
<path fill-rule="evenodd" clip-rule="evenodd" d="M475.205 195.133H570.692V196.078H475.205V195.133Z" fill="#56CDF2"/>
<path fill-rule="evenodd" clip-rule="evenodd" d="M295.322 194.841H458.428V196.078H295.322V194.841Z" fill="#56CDF2"/>
<path fill-rule="evenodd" clip-rule="evenodd" d="M287.066 195.073H296.125V195.843H287.066V195.073Z" fill="#56CDF2"/>
<path fill-rule="evenodd" clip-rule="evenodd" d="M457.258 194.841H476.295V196.078H457.258V194.841Z" fill="#56CDF2"/>
<path fill-rule="evenodd" clip-rule="evenodd" d="M599.984 87.3984H595.088V83.4199H599.984V87.3984Z" fill="#56CDF2"/>
<path fill-rule="evenodd" clip-rule="evenodd" d="M807.923 85.1699H862.062V86.9317H807.923V85.1699Z" fill="#56CDF2"/>
<path fill-rule="evenodd" clip-rule="evenodd" d="M807.923 86.5703H862.062V87.2237H807.923V86.5703Z" fill="#56CDF2"/>
<path fill-rule="evenodd" clip-rule="evenodd" d="M821.854 167.423H862.211V171.401H821.854V167.423Z" fill="#56CDF2"/>
<path fill-rule="evenodd" clip-rule="evenodd" d="M821.854 170.515H862.211V171.693H821.854V170.515Z" fill="#56CDF2"/>
<path fill-rule="evenodd" clip-rule="evenodd" d="M466.593 244.834H492.88V247.237H466.593V244.834Z" fill="#56CDF2"/>
<path fill-rule="evenodd" clip-rule="evenodd" d="M492.435 244.834H862.062V247.237H492.435V244.834Z" fill="#56CDF2"/>
<path fill-rule="evenodd" clip-rule="evenodd" d="M467.324 248.695H460.06V246.7H467.324V248.695Z" fill="#56CDF2"/>
<path fill-rule="evenodd" clip-rule="evenodd" d="M683.522 283.451H709.953V283.93H683.522V283.451Z" fill="#56CDF2"/>
<path fill-rule="evenodd" clip-rule="evenodd" d="M615.615 283.451H683.967V283.93H615.615V283.451Z" fill="#56CDF2"/>
<path fill-rule="evenodd" clip-rule="evenodd" d="M615.615 283.567H683.967V284.337H615.615V283.567Z" fill="#56CDF2"/>
<path fill-rule="evenodd" clip-rule="evenodd" d="M620.784 283.567H683.967V284.337H620.784V283.567Z" fill="#56CDF2"/>
<path fill-rule="evenodd" clip-rule="evenodd" d="M794.787 261.343H862.062V264.913H794.787V261.343Z" fill="#56CDF2"/>
<path fill-rule="evenodd" clip-rule="evenodd" d="M854.526 264.913H851.64V261.343H854.526V264.913Z" fill="#56CDF2"/>
<path fill-rule="evenodd" clip-rule="evenodd" d="M812.101 264.913H796.868V261.343H812.101V264.913Z" fill="#56CDF2"/>
<path fill-rule="evenodd" clip-rule="evenodd" d="M746.405 219.05H862.062V221.045H746.405V219.05Z" fill="#56CDF2"/>
<path fill-rule="evenodd" clip-rule="evenodd" d="M746.405 217.533H862.062V219.12H746.405V217.533Z" fill="#56CDF2"/>
<path fill-rule="evenodd" clip-rule="evenodd" d="M821.854 178.623H862.211V182.602H821.854V178.623Z" fill="#56CDF2"/>
<path fill-rule="evenodd" clip-rule="evenodd" d="M615.613 178.855H822.435V182.309H615.613V178.855Z" fill="#56CDF2"/>
<path fill-rule="evenodd" clip-rule="evenodd" d="M295.317 239.699H467.324V243.386H295.317V239.699Z" fill="#56CDF2"/>
<path fill-rule="evenodd" clip-rule="evenodd" d="M466.593 240.051H492.88V243.213H466.593V240.051Z" fill="#56CDF2"/>
<path fill-rule="evenodd" clip-rule="evenodd" d="M253.973 240.051H296.125V243.154H253.973V240.051Z" fill="#56CDF2"/>
<path fill-rule="evenodd" clip-rule="evenodd" d="M628.393 108.738H862.062V109.333H628.393V108.738Z" fill="#56CDF2"/>
<path fill-rule="evenodd" clip-rule="evenodd" d="M490.067 152.664H599.695V153.434H490.067V152.664Z" fill="#56CDF2"/>
<path fill-rule="evenodd" clip-rule="evenodd" d="M693.354 152.664H822.435V153.434H693.354V152.664Z" fill="#56CDF2"/>
<path fill-rule="evenodd" clip-rule="evenodd" d="M490.066 218.758H862.062V219.411H490.066V218.758Z" fill="#56CDF2"/>
<path fill-rule="evenodd" clip-rule="evenodd" d="M746.405 218.758H862.062V219.411H746.405V218.758Z" fill="#56CDF2"/>
<path fill-rule="evenodd" clip-rule="evenodd" d="M385.557 16.335H536.603V17.805H385.557V16.335Z" fill="#56CDF2"/>
<path fill-rule="evenodd" clip-rule="evenodd" d="M821.854 172.731H862.211V174.202H821.854V172.731Z" fill="#56CDF2"/>
<path fill-rule="evenodd" clip-rule="evenodd" d="M593.575 172.965H822.435V174.027H593.575V172.965Z" fill="#56CDF2"/>
<path fill-rule="evenodd" clip-rule="evenodd" d="M632.338 156.747H822.435V158.509H632.338V156.747Z" fill="#56CDF2"/>
<path fill-rule="evenodd" clip-rule="evenodd" d="M822.065 139.656H862.062V141.126H822.065V139.656Z" fill="#56CDF2"/>
<path fill-rule="evenodd" clip-rule="evenodd" d="M545.197 139.656H599.695V141.126H545.197V139.656Z" fill="#56CDF2"/>
<path fill-rule="evenodd" clip-rule="evenodd" d="M599.248 139.656H625.535V141.126H599.248V139.656Z" fill="#56CDF2"/>
<path fill-rule="evenodd" clip-rule="evenodd" d="M625.088 139.656H822.435V141.126H625.088V139.656Z" fill="#56CDF2"/>
<path fill-rule="evenodd" clip-rule="evenodd" d="M822.065 140.764H862.062V142.234H822.065V140.764Z" fill="#56CDF2"/>
<path fill-rule="evenodd" clip-rule="evenodd" d="M545.197 140.764H599.695V142.234H545.197V140.764Z" fill="#56CDF2"/>
<path fill-rule="evenodd" clip-rule="evenodd" d="M599.248 140.764H625.535V142.234H599.248V140.764Z" fill="#56CDF2"/>
<path fill-rule="evenodd" clip-rule="evenodd" d="M625.088 140.764H822.435V142.234H625.088V140.764Z" fill="#56CDF2"/>
<path fill-rule="evenodd" clip-rule="evenodd" d="M595.808 5.01855H862.211V7.59699H595.808V5.01855Z" fill="#56CDF2"/>
<path fill-rule="evenodd" clip-rule="evenodd" d="M595.976 4.64258H862.379V6.0543H595.976V4.64258Z" fill="#FD009C"/>
<path fill-rule="evenodd" clip-rule="evenodd" d="M671.253 38.6191H862.211V41.4892H671.253V38.6191Z" fill="#56CDF2"/>
<path fill-rule="evenodd" clip-rule="evenodd" d="M671.253 37.2178H862.211V39.5045H671.253V37.2178Z" fill="#56CDF2"/>
<path fill-rule="evenodd" clip-rule="evenodd" d="M583.39 17.3252H862.211V18.7953H583.39V17.3252Z" fill="#56CDF2"/>
<path fill-rule="evenodd" clip-rule="evenodd" d="M536.149 17.4424H584.114V18.3874H536.149V17.4424Z" fill="#56CDF2"/>
<path fill-rule="evenodd" clip-rule="evenodd" d="M536.149 15.8096H584.114V16.6963H536.149V15.8096Z" fill="#56CDF2"/>
<path fill-rule="evenodd" clip-rule="evenodd" d="M683.522 317.752H709.953V318.522H683.522V317.752Z" fill="#56CDF2"/>
<path fill-rule="evenodd" clip-rule="evenodd" d="M586.543 317.752H683.967V318.522H586.543V317.752Z" fill="#56CDF2"/>
<path fill-rule="evenodd" clip-rule="evenodd" d="M709.579 317.811H862.133V318.581H709.579V317.811Z" fill="#56CDF2"/>
<path fill-rule="evenodd" clip-rule="evenodd" d="M694.72 317.752H709.953V318.522H694.72V317.752Z" fill="#56CDF2"/>
<path fill-rule="evenodd" clip-rule="evenodd" d="M806.414 335.486H862.133V335.965H806.414V335.486Z" fill="#56CDF2"/>
<path fill-rule="evenodd" clip-rule="evenodd" d="M806.414 335.603H862.133V336.256H806.414V335.603Z" fill="#56CDF2"/>
<path fill-rule="evenodd" clip-rule="evenodd" d="M583.39 0H862.211V0.886708H583.39V0Z" fill="#56CDF2"/>
<path fill-rule="evenodd" clip-rule="evenodd" d="M513.896 0.117188H584.114V0.595548H513.896V0.117188Z" fill="#56CDF2"/>
<path fill-rule="evenodd" clip-rule="evenodd" d="M583.39 0H862.211V1.17838H583.39V0Z" fill="#FFD129"/>
<path fill-rule="evenodd" clip-rule="evenodd" d="M513.896 0.233398H584.114V0.886765H513.896V0.233398Z" fill="#56CDF2"/>
<path fill-rule="evenodd" clip-rule="evenodd" d="M774.688 302.352H862.062V302.83H774.688V302.352Z" fill="#56CDF2"/>
<path fill-rule="evenodd" clip-rule="evenodd" d="M771.027 300.368H862.062V302.713H771.027V300.368Z" fill="#56CDF2"/>
<path fill-rule="evenodd" clip-rule="evenodd" d="M709.508 307.136H795.734V309.422H709.508V307.136Z" fill="#56CDF2"/>
<path fill-rule="evenodd" clip-rule="evenodd" d="M683.522 307.136H709.953V309.422H683.522V307.136Z" fill="#56CDF2"/>
<path fill-rule="evenodd" clip-rule="evenodd" d="M648.707 307.136H683.967V309.422H648.707V307.136Z" fill="#56CDF2"/>
<path fill-rule="evenodd" clip-rule="evenodd" d="M795.361 308.069H862.062V309.423H795.361V308.069Z" fill="#56CDF2"/>
<path fill-rule="evenodd" clip-rule="evenodd" d="M659.475 399.714H777.86V402.059H659.475V399.714Z" fill="#56CDF2"/>
<path fill-rule="evenodd" clip-rule="evenodd" d="M438.028 441.54H862.211V445.81H438.028V441.54Z" fill="#56CDF2"/>
<path fill-rule="evenodd" clip-rule="evenodd" d="M580.662 444.106H862.211V445.518H580.662V444.106Z" fill="#56CDF2"/>
<path fill-rule="evenodd" clip-rule="evenodd" d="M640.164 362.088H862.133V362.683H640.164V362.088Z" fill="#56CDF2"/>
<path fill-rule="evenodd" clip-rule="evenodd" d="M640.164 360.396H862.133V361.982H640.164V360.396Z" fill="#56CDF2"/>
<path fill-rule="evenodd" clip-rule="evenodd" d="M0.150085 360.453H378.248V362.04H0.150085V360.453Z" fill="#56CDF2"/>
<path fill-rule="evenodd" clip-rule="evenodd" d="M0.150085 371.363H378.248V372.25H0.150085V371.363Z" fill="#56CDF2"/>
<path fill-rule="evenodd" clip-rule="evenodd" d="M709.508 290.276H862.062V291.63H709.508V290.276Z" fill="#56CDF2"/>
<path fill-rule="evenodd" clip-rule="evenodd" d="M380.257 421.076H377.802V417.914H380.257V421.076Z" fill="#56CDF2"/>
</svg>
