<svg width="57" height="38" viewBox="0 0 57 38" fill="none" xmlns="http://www.w3.org/2000/svg">
<path d="M27.6749 36.8927L27.6751 36.8925L26.0091 35.85C25.9387 35.8089 25.8732 35.7624 25.8249 35.7067C25.7749 35.6489 25.7141 35.5438 25.7495 35.4133C25.7803 35.3 25.8661 35.2428 25.9013 35.2219C25.943 35.1971 25.9858 35.182 26.0054 35.1751M27.6749 36.8927L26.0881 35.411M27.6749 36.8927L27.6844 36.8981C27.8799 37.009 28.0977 37.0761 28.3349 37.0761H28.335C28.5457 37.0761 28.7717 37.0291 28.9715 36.9319L28.9822 36.9267L28.9923 36.9205L34.0002 33.8657L27.6749 36.8927ZM26.0054 35.1751L26.0881 35.411M26.0054 35.1751C26.0054 35.1751 26.0053 35.1752 26.0053 35.1752L26.0881 35.411M26.0054 35.1751C26.1761 35.1152 26.2648 35.0827 26.3536 35.041C26.4417 34.9995 26.5343 34.9468 26.7067 34.8432M26.0881 35.411C26.427 35.292 26.4898 35.2655 26.8412 35.054M26.7067 34.8432C26.7035 34.8453 26.7004 34.8474 26.6972 34.8496L26.8412 35.054M26.7067 34.8432C26.8667 34.7377 27.0317 34.81 27.1036 34.8579M26.7067 34.8432C26.7086 34.8421 26.7104 34.8409 26.7123 34.8398L26.8412 35.054M26.8412 35.054L27.1036 34.8579M27.1036 34.8579C27.106 34.8596 27.1084 34.8611 27.1106 34.8627L26.9667 35.0672L27.1 34.8557L27.1036 34.8579ZM26.1614 35.6504L26.1601 35.6495C26.1585 35.6506 26.1572 35.6514 26.1565 35.6518C26.1549 35.6528 26.154 35.6532 26.154 35.6533C26.154 35.6533 26.1561 35.6524 26.1614 35.6504ZM22.7994 25.6245L22.6696 25.4109C22.6696 25.4109 22.6695 25.4109 22.6695 25.411L22.6693 25.4111L22.7994 25.6245ZM27.0033 30.6765V30.5439C26.9882 30.5875 26.9803 30.6327 26.9803 30.6765C26.9803 30.7912 26.9871 30.9101 27.0033 31.0306V30.6765ZM28.3804 35.6624L28.3233 35.6264L28.2674 35.6605L28.2605 35.6647L28.2538 35.6694C28.2585 35.6661 28.2631 35.6632 28.2676 35.6607C28.2948 35.6454 28.3175 35.6437 28.3271 35.6437C28.34 35.6437 28.3519 35.6466 28.3636 35.6527L28.3169 35.7415L28.3116 35.7515L28.2471 35.8739L28.3182 35.761L28.3236 35.7525L28.3804 35.6624ZM33.2758 32.6055L33.2313 32.6326V32.6735C33.2313 32.6756 33.2309 32.665 33.2395 32.648C33.2471 32.6329 33.2596 32.6177 33.2761 32.606C33.2803 32.603 33.2847 32.6002 33.2894 32.5977L33.2825 32.6014L33.2758 32.6055ZM33.2313 26.5768V26.6177L33.2762 26.6449L33.2825 26.6488L33.2891 26.6522C33.2846 26.6499 33.2804 26.6473 33.2765 26.6445C33.26 26.6329 33.2473 26.6176 33.2395 26.6022C33.2324 26.5882 33.2315 26.5786 33.2313 26.5768H33.2313ZM28.2679 23.6032L28.3224 23.6363L28.3769 23.6032L28.3843 23.5987L28.3913 23.5937C28.3864 23.5973 28.3815 23.6003 28.3767 23.6029C28.3498 23.6179 28.3273 23.6196 28.3176 23.6196C28.3045 23.6196 28.2925 23.6167 28.2807 23.6105L28.3275 23.522L28.3332 23.5114L28.3976 23.3895L28.328 23.5041L28.3224 23.5135L28.2679 23.6032ZM23.3685 26.6449L23.4134 26.6177V26.5767C23.4134 26.5869 23.4116 26.5938 23.408 26.6014C23.4051 26.6075 23.3945 26.6272 23.3684 26.6447C23.3644 26.6473 23.36 26.6499 23.3553 26.6524L23.362 26.6489L23.3685 26.6449ZM23.4134 32.6734V32.6326L23.3688 32.6054L23.3623 32.6015L23.3557 32.5979C23.3604 32.6004 23.3647 32.603 23.3686 32.6057C23.3945 32.623 23.4051 32.6426 23.408 32.6487C23.4117 32.6563 23.4134 32.6633 23.4134 32.6734ZM24.737 33.4385L24.7309 33.4348C24.7289 33.4338 24.727 33.4327 24.725 33.4317L24.607 33.6521L24.737 33.4385ZM28.4217 30.6501C28.4217 30.6426 28.4215 30.6353 28.4212 30.628C28.4205 30.6236 28.4198 30.6191 28.4192 30.6146L28.1717 30.6501H28.4217ZM31.0148 28.7169L31.2596 28.6662L31.0139 28.7126C31.0141 28.7135 31.0143 28.7145 31.0145 28.7154C31.0146 28.7159 31.0147 28.7164 31.0148 28.7169ZM34.0002 25.4109L33.8704 25.6245L34.0006 25.4111L34.0002 25.4109Z" fill="#539E43" stroke="white" stroke-width="0.5"/>
<path d="M7.27616 8.95875L7.2768 8.95914L12.5967 12.1847C12.5971 12.1849 12.5975 12.1851 12.5979 12.1853C12.8763 12.3509 13.0455 12.6585 13.0456 12.9813L7.27616 8.95875ZM7.27616 8.95875C7.14832 8.88176 7.01103 8.84823 6.89129 8.83239L6.87497 8.83023H6.85851H6.80823C6.64479 8.83023 6.4988 8.8935 6.39046 8.95882L6.38994 8.95914L1.06886 12.1853C0.790175 12.351 0.621094 12.6586 0.621093 12.9817L0.621094 12.9821L0.633692 21.6571H0.883692L0.633692 21.6575L0.633692 21.6573C0.633765 21.8497 0.731174 22.0583 0.919368 22.1634C1.09215 22.2718 1.32146 22.282 1.49879 22.1568L4.65127 20.2588C4.65154 20.2586 4.6518 20.2585 4.65207 20.2583C4.93076 20.0928 5.10018 19.785 5.10018 19.4619V15.4018C5.10018 15.2492 5.18147 15.1076 5.30394 15.035L5.30395 15.0351L5.30681 15.0333L6.64983 14.2133L6.6499 14.2135L6.65702 14.2088C6.70942 14.1743 6.77235 14.1573 6.84591 14.1573C6.92352 14.1573 6.97786 14.176 7.00955 14.1998L7.0192 14.2071L7.02951 14.2133L8.37252 15.0333L8.37251 15.0333L8.37539 15.035C8.49788 15.1076 8.57915 15.2491 8.57915 15.4018V19.4619C8.57915 19.785 8.74857 20.0928 9.02725 20.2583C9.02752 20.2585 9.02779 20.2586 9.02806 20.2588L12.186 22.1601C12.3658 22.2758 12.5918 22.2769 12.7725 22.1634C12.9608 22.0582 13.0582 21.8496 13.0582 21.6571V21.6568L13.0456 12.9817L7.27616 8.95875Z" fill="#333333" stroke="white" stroke-width="0.5"/>
<path d="M37.9335 0.825572L37.9334 0.825395L37.9249 0.830992C37.762 0.938333 37.6494 1.11876 37.6494 1.3306V9.89986L36.3596 9.11788L36.3586 9.11728C36.2227 9.03578 36.0681 8.99237 35.9099 8.99237C35.7517 8.99237 35.597 9.03578 35.4611 9.11727L35.4598 9.11812L30.1388 12.3575C29.8605 12.5231 29.6913 12.8306 29.6913 13.1536V19.6204C29.6913 19.9433 29.8604 20.2509 30.1388 20.4166C30.1392 20.4169 30.1397 20.4172 30.1402 20.4174L35.4598 23.656L35.4612 23.6568C35.597 23.7383 35.7517 23.7817 35.9099 23.7817C36.0681 23.7817 36.2227 23.7383 36.3586 23.6568L36.36 23.656L41.6795 20.4174C41.68 20.4172 41.6805 20.4169 41.681 20.4166C41.9593 20.2509 42.1284 19.9434 42.1284 19.6204V3.49953C42.1284 3.1654 41.9609 2.85623 41.6796 2.68938L41.6787 2.68882L38.503 0.824151L38.4444 0.789734H38.4292C38.2719 0.729665 38.0844 0.73468 37.9335 0.825572ZM37.6369 15.3104V17.4504L35.9099 18.5045L34.1829 17.4504V15.3104L35.9099 14.2562L37.6369 15.3104ZM37.6369 17.4916C37.6369 17.4916 37.6369 17.4915 37.6369 17.4913C37.6369 17.4915 37.6369 17.4916 37.6369 17.4916Z" fill="#333333" stroke="white" stroke-width="0.5"/>
<path d="M56.2197 12.2676L56.2197 12.2676L56.2164 12.2656L50.932 9.03876L50.932 9.03876L50.9303 9.03773C50.7945 8.95627 50.6398 8.91287 50.4817 8.91287C50.3235 8.91287 50.1688 8.95627 50.033 9.03773L50.033 9.03773L50.0316 9.03859L44.7107 12.2779C44.4321 12.4435 44.2632 12.7511 44.2632 13.0741V19.541C44.2632 19.8642 44.4325 20.172 44.7115 20.3376C44.7117 20.3377 44.7119 20.3378 44.7121 20.338L49.9952 23.5111L49.9965 23.5119C50.272 23.6751 50.6096 23.6803 50.8813 23.5105L54.0747 21.6371C54.2663 21.5329 54.3655 21.3223 54.3655 21.1281C54.3655 20.9346 54.267 20.7246 54.0765 20.6201L48.7395 17.3862C48.7042 17.3618 48.6919 17.3317 48.6919 17.3061V15.2827C48.6919 15.2662 48.6966 15.2481 48.7048 15.2331C48.7131 15.2182 48.7209 15.2133 48.7218 15.2128L48.722 15.2132L48.734 15.2059L50.4035 14.2008L50.4036 14.201L50.4127 14.195C50.4213 14.1893 50.4299 14.187 50.4377 14.187C50.4455 14.187 50.4542 14.1893 50.4628 14.195L50.4626 14.1952L50.472 14.2008L52.136 15.2027C52.1714 15.2273 52.1835 15.2572 52.1835 15.2827V16.8697C52.1835 17.0621 52.2808 17.2708 52.4692 17.3759C52.6502 17.4896 52.8768 17.4883 53.0568 17.3718L56.2155 15.4304C56.5012 15.2602 56.65 14.9479 56.65 14.6345V13.0608C56.65 12.7389 56.4821 12.4334 56.2197 12.2676Z" fill="#333333" stroke="white" stroke-width="0.5"/>
<path d="M51.6887 15.3294L51.6824 15.3251L51.6759 15.3211L50.6636 14.7022C50.6055 14.6641 50.537 14.643 50.466 14.643C50.3951 14.643 50.3266 14.664 50.2685 14.7022L49.2562 15.3211L49.2497 15.3251L49.2434 15.3294C49.1467 15.397 49.0738 15.5096 49.0738 15.6534V16.8965C49.0738 17.0404 49.1468 17.1527 49.243 17.2202L49.2495 17.2247L49.2562 17.2288L50.2685 17.8477C50.3266 17.8859 50.3951 17.9069 50.466 17.9069C50.537 17.9069 50.6055 17.8859 50.6636 17.8477L51.6759 17.2288L51.6826 17.2247L51.6891 17.2202C51.7853 17.1527 51.8583 17.0404 51.8583 16.8965V15.6534C51.8583 15.5096 51.7854 15.397 51.6887 15.3294Z" fill="#539E43" stroke="white" stroke-width="0.5"/>
<mask id="mask0" mask-type="alpha" maskUnits="userSpaceOnUse" x="14" y="8" width="14" height="16">
<path d="M21.822 9.06525L21.822 9.06525L21.8207 9.06446C21.6848 8.983 21.5302 8.93961 21.372 8.93961C21.2139 8.93961 21.0592 8.983 20.9234 9.06446L20.9234 9.06446L20.9221 9.06525L15.6388 12.278C15.3527 12.4481 15.2037 12.7607 15.2037 13.0741V19.5147C15.2037 19.8366 15.3716 20.1421 15.634 20.3079L15.634 20.3079L15.6376 20.3101L20.922 23.5238L20.9234 23.5246C21.0592 23.606 21.2138 23.6494 21.372 23.6494C21.5302 23.6494 21.6848 23.606 21.8207 23.5246L21.822 23.5238L27.1054 20.3108C27.3913 20.1407 27.5405 19.8282 27.5405 19.5147V13.0742C27.5405 12.7523 27.3723 12.4468 27.1102 12.2811L27.1102 12.2811L27.1065 12.2788L21.822 9.06525Z" fill="white" stroke="white" stroke-width="0.5"/>
</mask>
<g mask="url(#mask0)">
<path d="M21.8236 9.06486L21.8236 9.06485L21.8223 9.06407C21.6865 8.9826 21.5318 8.93921 21.3736 8.93921C21.2155 8.93921 21.0608 8.9826 20.925 9.06407L20.925 9.06406L20.9237 9.06486L15.6404 12.2776C15.3543 12.4477 15.2053 12.7603 15.2053 13.0737V19.5143C15.2053 19.8362 15.3733 20.1417 15.6356 20.3075L15.6356 20.3075L15.6393 20.3097L20.9237 23.5234L20.925 23.5242C21.0608 23.6056 21.2155 23.649 21.3736 23.649C21.5318 23.649 21.6865 23.6056 21.8223 23.5242L21.8236 23.5234L27.107 20.3104C27.3929 20.1403 27.5421 19.8278 27.5421 19.5143V13.0738C27.5421 12.7519 27.374 12.4464 27.1118 12.2807L27.1118 12.2807L27.1081 12.2784L21.8236 9.06486Z" fill="url(#paint0_linear)" stroke="white" stroke-width="0.5"/>
<path d="M15.3748 20.0993L15.6088 20.3768L15.7846 20.0593L21.7343 9.32088L21.9043 9.0141L21.5589 8.95348C21.366 8.91964 21.1241 8.9331 20.9078 9.06602L20.8939 9.07458L15.6131 12.2781C15.3421 12.4393 15.1528 12.7428 15.1528 13.0746V19.515C15.1528 19.7423 15.2431 19.9431 15.3748 20.0993Z" stroke="white" stroke-width="0.5"/>
<path d="M21.3322 23.2612L21.5191 23.3582L21.554 23.6263H21.5541H21.7061L21.7321 23.5761C21.7642 23.5614 21.7924 23.5466 21.8141 23.5351C21.8166 23.5338 21.8189 23.5326 21.8212 23.5314L21.8279 23.5279L21.8343 23.5239L27.1291 20.3117C27.1295 20.3115 27.1299 20.3112 27.1303 20.311C27.4089 20.1453 27.578 19.8377 27.578 19.5148V13.0743C27.578 12.8335 27.4745 12.6011 27.321 12.4394L27.0794 12.1848L26.9178 12.4963L21.3322 23.2612Z" stroke="white" stroke-width="0.5"/>
<path d="M27.2403 12.3763V12.3516L27.1197 12.2787L21.8102 9.06515L21.8104 9.06482L21.7982 9.05832C21.7308 9.02245 21.6599 8.99372 21.5867 8.97264L21.3954 8.91758L21.2989 9.09173L15.3492 19.8303L15.2692 19.9747L15.3705 20.1049C15.4376 20.1913 15.5192 20.2651 15.6119 20.3226L15.6142 20.3241L20.9223 23.5368C20.9225 23.537 20.9228 23.5371 20.923 23.5373C21.1296 23.664 21.3807 23.7053 21.6199 23.6276L21.7174 23.596L21.7646 23.505L27.3503 12.7401L27.4208 12.6043L27.332 12.4798C27.3035 12.4399 27.2713 12.4054 27.2403 12.3763Z" fill="url(#paint1_linear)" stroke="white" stroke-width="0.5"/>
<path d="M27.4994 19.7936C27.533 19.7403 27.5537 19.6823 27.565 19.6255L27.5758 19.614V19.5145V13.074C27.5758 12.7421 27.3863 12.4387 27.1155 12.2777L21.8098 9.0667C21.7214 9.00992 21.6229 8.97116 21.5195 8.9531L21.0036 8.863L21.2579 9.32078L27.0695 19.7814L27.2742 20.1499L27.4994 19.7936Z" stroke="white" stroke-width="0.5"/>
<path d="M15.9008 12.1709L15.6989 12.2422H15.6731L15.6142 12.2771C15.3429 12.438 15.1528 12.7418 15.1528 13.0741V19.5145C15.1528 19.8536 15.3614 20.1517 15.6081 20.3076L15.6081 20.3077L15.6122 20.3102L20.92 23.5226C21.0991 23.635 21.2997 23.6722 21.5089 23.6354L21.8449 23.5762L21.6872 23.2736L16.0011 12.3634L15.9008 12.1709Z" stroke="white" stroke-width="0.5"/>
<path d="M27.5547 19.7434L27.5841 19.643L27.5333 19.5517L21.7089 9.07746L21.651 8.97331L21.5336 8.95272C21.3436 8.91938 21.1111 8.93093 20.9045 9.06722L15.637 12.2651L15.4369 12.3866L15.5449 12.5942L21.231 23.518L21.3153 23.68L21.4952 23.6489C21.6027 23.6304 21.7068 23.5957 21.8044 23.5462L21.8129 23.5419L21.821 23.5369L27.1306 20.3101L27.1591 20.2928L27.1616 20.2902C27.355 20.1603 27.4922 19.9571 27.5547 19.7434Z" fill="url(#paint2_linear)" stroke="white" stroke-width="0.5"/>
<path d="M27.5695 20.2409H27.9179L27.7076 19.8681L27.6699 19.8012L27.2021 18.9718V19.924V20.0176V20.502L27.5695 20.2409Z" fill="url(#paint3_linear)" stroke="white" stroke-width="0.5"/>
<path d="M27.0424 19.6262C27.0282 19.7309 26.9628 19.8263 26.8711 19.8829C26.8709 19.883 26.8708 19.8831 26.8706 19.8832L21.581 23.0924C21.5329 23.1176 21.4817 23.1342 21.4293 23.1419L21.0863 23.1928L21.2429 23.5022L21.3434 23.7006L21.4656 23.942L21.6966 23.8011L27.571 20.2172L27.6908 20.1441V20.0037V19.9243V19.8581L27.658 19.8006L27.5074 19.5361L27.1417 18.8937L27.0424 19.6262Z" fill="url(#paint4_linear)" stroke="white" stroke-width="0.5"/>
<path d="M27.0424 19.6262C27.0282 19.7309 26.9628 19.8263 26.8711 19.8829C26.8709 19.883 26.8708 19.8831 26.8706 19.8832L21.581 23.0924C21.5329 23.1176 21.4817 23.1342 21.4293 23.1419L21.0863 23.1928L21.2429 23.5022L21.3434 23.7006L21.4656 23.942L21.6966 23.8011L27.571 20.2172L27.6908 20.1441V20.0037V19.9243V19.8581L27.658 19.8006L27.5074 19.5361L27.1417 18.8937L27.0424 19.6262Z" fill="url(#paint5_linear)" stroke="white" stroke-width="0.5"/>
</g>
<defs>
<linearGradient id="paint0_linear" x1="23.5266" y1="11.6741" x2="17.2946" y2="20.9683" gradientUnits="userSpaceOnUse">
<stop stop-color="#41873F"/>
<stop offset="0.3288" stop-color="#418B3D"/>
<stop offset="0.6352" stop-color="#419637"/>
<stop offset="0.9319" stop-color="#3FA92D"/>
<stop offset="1" stop-color="#3FAE2A"/>
</linearGradient>
<linearGradient id="paint1_linear" x1="20.5709" y1="17.0491" x2="35.4126" y2="9.39568" gradientUnits="userSpaceOnUse">
<stop offset="0.1376" stop-color="#41873F"/>
<stop offset="0.4032" stop-color="#54A044"/>
<stop offset="0.7136" stop-color="#66B848"/>
<stop offset="0.9081" stop-color="#6CC04A"/>
</linearGradient>
<linearGradient id="paint2_linear" x1="15.2598" y1="16.2943" x2="27.4879" y2="16.2943" gradientUnits="userSpaceOnUse">
<stop offset="0.09192" stop-color="#6CC04A"/>
<stop offset="0.2864" stop-color="#66B848"/>
<stop offset="0.5968" stop-color="#54A044"/>
<stop offset="0.8624" stop-color="#41873F"/>
</linearGradient>
<linearGradient id="paint3_linear" x1="23.7881" y1="19.9579" x2="27.4627" y2="19.9579" gradientUnits="userSpaceOnUse">
<stop offset="0.09192" stop-color="#6CC04A"/>
<stop offset="0.2864" stop-color="#66B848"/>
<stop offset="0.5968" stop-color="#54A044"/>
<stop offset="0.8624" stop-color="#41873F"/>
</linearGradient>
<linearGradient id="paint4_linear" x1="15.2605" y1="21.6345" x2="27.4884" y2="21.6345" gradientUnits="userSpaceOnUse">
<stop offset="0.09192" stop-color="#6CC04A"/>
<stop offset="0.2864" stop-color="#66B848"/>
<stop offset="0.5968" stop-color="#54A044"/>
<stop offset="0.8624" stop-color="#41873F"/>
</linearGradient>
<linearGradient id="paint5_linear" x1="29.2698" y1="11.3692" x2="25.8442" y2="28.4061" gradientUnits="userSpaceOnUse">
<stop stop-color="#41873F"/>
<stop offset="0.3288" stop-color="#418B3D"/>
<stop offset="0.6352" stop-color="#419637"/>
<stop offset="0.9319" stop-color="#3FA92D"/>
<stop offset="1" stop-color="#3FAE2A"/>
</linearGradient>
</defs>
</svg>
