<svg width="39" height="44" viewBox="0 0 39 44" fill="none" xmlns="http://www.w3.org/2000/svg">
<path d="M12.1975 34.906H11.043C9.45651 34.906 8.15832 33.6222 8.15832 32.0336V28.3937C7.55152 29.336 6.49871 29.9628 5.29163 29.9628C3.39745 29.9628 1.87605 28.4077 1.87605 26.522V16.9881C1.87605 15.0979 3.393 13.5473 5.29163 13.5473C6.49498 13.5473 7.55016 14.1722 8.15832 15.1148V14.6178V14.0714H8.02725L8.1223 12.9843C8.40855 9.71062 10.4312 6.92427 13.3057 5.23911L11.9644 3.30556L11.9564 3.29398L11.9487 3.28219C11.6101 2.76344 11.5823 1.89642 12.2807 1.41293C12.9802 0.922153 13.8032 1.25379 14.166 1.77913C14.1666 1.77995 14.1672 1.78078 14.1678 1.78161L15.7911 4.12318C17.0637 3.71435 18.4383 3.49348 19.8647 3.49348C21.291 3.49348 22.6653 3.71429 23.9378 4.12301L25.5617 1.7772C25.5623 1.77631 25.5629 1.77542 25.5635 1.77454C25.5636 1.77447 25.5636 1.77439 25.5637 1.77432C25.9415 1.22754 26.7622 0.939654 27.4409 1.40311L27.4488 1.40851L27.4566 1.41406C28.1279 1.89155 28.1395 2.75611 27.7675 3.29748L27.765 3.30116L26.4235 5.23516C29.2948 6.92022 31.3208 9.70594 31.6157 12.9817L31.7139 14.0714H31.6596V14.6178V14.9732C32.278 14.1111 33.2841 13.5473 34.4289 13.5473C36.3274 13.5473 37.8501 15.0894 37.8445 16.9857V16.9837H36.8445L37.8445 16.9869L12.1975 34.906ZM12.1975 34.906V39.2104C12.1975 41.0962 13.7189 42.6512 15.6131 42.6512C17.5117 42.6512 19.0287 41.1006 19.0287 39.2104V34.9016H20.7892V39.206C20.7892 41.0918 22.3106 42.6468 24.2048 42.6468C26.1034 42.6468 27.6204 41.0962 27.6204 39.206V34.9016H28.7749C30.3614 34.9016 31.6596 33.6178 31.6596 32.0291V28.5332L12.1975 34.906ZM27.2081 2.91266C27.208 2.91276 27.208 2.91286 27.2079 2.91296L27.2081 2.91266ZM12.5217 2.91763L12.5224 2.91855L12.5217 2.91763ZM15.3243 9.11075C15.2862 9.1105 15.2494 9.09912 15.2183 9.07848C15.187 9.05764 15.1632 9.02845 15.1494 8.9951C15.1355 8.96179 15.132 8.92537 15.139 8.89028C15.146 8.85517 15.1634 8.82234 15.1897 8.79618C15.216 8.76997 15.25 8.75166 15.2877 8.74419C15.3254 8.73673 15.3644 8.7406 15.3997 8.75514C15.4349 8.76966 15.4643 8.79398 15.4847 8.82436C15.5048 8.85434 15.5154 8.88909 15.5156 8.92434C15.5152 8.97229 15.4959 9.01898 15.4605 9.05415L16.1662 9.76273L15.4605 9.05415C15.425 9.0895 15.3762 9.11028 15.3243 9.11075ZM24.5442 9.11075C24.5061 9.1105 24.4692 9.09912 24.4382 9.07848C24.4069 9.05764 24.3831 9.02846 24.3693 8.9951C24.3554 8.96178 24.3518 8.92536 24.3588 8.89029L23.3782 8.69441L24.3588 8.89028C24.3659 8.85518 24.3833 8.82235 24.4096 8.79618C24.4359 8.76997 24.4699 8.75166 24.5076 8.74419C24.5453 8.73673 24.5843 8.7406 24.6195 8.75514C24.6548 8.76966 24.6842 8.79397 24.7046 8.82436L25.535 8.26719L24.7046 8.82437C24.7247 8.85434 24.7353 8.88909 24.7355 8.92435C24.7351 8.97229 24.7158 9.01898 24.6804 9.05416C24.6449 9.0895 24.5961 9.11028 24.5442 9.11075Z" stroke="#FFD129" stroke-width="2"/>
</svg>
