<svg width="33" height="40" viewBox="0 0 33 40" fill="none" xmlns="http://www.w3.org/2000/svg">
<path d="M28.8053 26.299C27.8007 25.343 26.7969 23.8274 26.7717 21.5088C26.7556 19.5999 27.5302 18.192 28.3461 17.2321C28.7558 16.7501 29.1722 16.3865 29.4937 16.1397C29.6539 16.0167 29.7889 15.924 29.8852 15.8613C29.9804 15.7994 30.0355 15.7683 30.0377 15.767L30.0378 15.767L30.9981 15.2342L30.378 14.3279C28.0276 10.8928 24.421 10.5213 23.2353 10.4407C22.2615 10.3656 21.3462 10.4892 20.5189 10.6918C21.1373 10.2566 21.686 9.74713 22.1347 9.20947C23.4997 7.57386 24.4387 5.25318 24.1756 2.88941L24.0723 1.96083L23.1389 2.00092C21.072 2.08969 18.7074 3.33454 17.2836 4.98835C16.0332 6.42531 14.8813 8.7959 15.1957 11.1728L15.2668 11.7107C15.0834 11.6418 14.8918 11.5658 14.6851 11.4839C14.5498 11.4303 14.4079 11.3741 14.2577 11.3155C13.2685 10.9304 12.0085 10.4814 10.6669 10.5137C7.32315 10.5585 4.29118 12.4505 2.59757 15.394C0.898152 18.3406 0.71656 21.9128 1.30257 25.2295C1.88996 28.554 3.26851 31.747 4.8538 34.0368L4.85578 34.0396C5.58621 35.0869 6.44534 36.2956 7.44074 37.2274C8.4389 38.1618 9.69709 38.9344 11.2289 38.8843L11.2388 38.8839C12.4508 38.8322 13.3331 38.4547 14.0812 38.1347C14.1459 38.1069 14.2097 38.0797 14.2726 38.0531C15.0455 37.7261 15.7793 37.4501 16.9243 37.4501C18.0449 37.4501 18.7449 37.7393 19.5318 38.0786C19.5551 38.0887 19.5785 38.0988 19.6021 38.109C20.4028 38.4548 21.3414 38.8603 22.7106 38.828C24.2256 38.8026 25.4237 38.1081 26.3946 37.2027C27.3461 36.3154 28.1467 35.1611 28.8655 34.1079C30.6343 31.5278 31.3699 29.0338 31.4215 28.8535L31.6851 27.9322L30.7759 27.6296C30.7848 27.6325 30.7803 27.6306 30.7641 27.6236C30.6322 27.5664 29.7225 27.1719 28.8053 26.299Z" stroke="#FD009C" stroke-width="2"/>
</svg>
