<svg width="368" height="195" viewBox="0 0 368 195" fill="none" xmlns="http://www.w3.org/2000/svg">
<path fill-rule="evenodd" clip-rule="evenodd" d="M281.721 0H291.82V0.623801H281.721V0Z" fill="#FD009C"/>
<path fill-rule="evenodd" clip-rule="evenodd" d="M271.901 0H277.062V0.623801H271.901V0Z" fill="#FD009C"/>
<path fill-rule="evenodd" clip-rule="evenodd" d="M211.761 0H221.754V0.623779H211.761V0Z" fill="#FD009C"/>
<path fill-rule="evenodd" clip-rule="evenodd" d="M186.011 0H191.172V0.623801H186.011V0Z" fill="#FD009C"/>
<path fill-rule="evenodd" clip-rule="evenodd" d="M254.587 146.63H367.434V147.336H254.587V146.63Z" fill="#FD009C"/>
<path fill-rule="evenodd" clip-rule="evenodd" d="M63.5328 146.549H254.859V147.378H63.5328V146.549Z" fill="#FD009C"/>
<path fill-rule="evenodd" clip-rule="evenodd" d="M194.586 169.859H367.434V170.606H194.586V169.859Z" fill="#FD009C"/>
<path fill-rule="evenodd" clip-rule="evenodd" d="M262.34 170.064H367.434V170.606H262.34V170.064Z" fill="#FD009C"/>
<path fill-rule="evenodd" clip-rule="evenodd" d="M182.479 194.277H367.434V194.614H182.479V194.277Z" fill="#FD009C"/>
<path fill-rule="evenodd" clip-rule="evenodd" d="M182.479 193.99H367.434V194.532H182.479V193.99Z" fill="#FD009C"/>
<path fill-rule="evenodd" clip-rule="evenodd" d="M281.879 193.99H289.43V194.532H281.879V193.99Z" fill="#FD009C"/>
<path fill-rule="evenodd" clip-rule="evenodd" d="M254.537 137.397H367.383V138.309H254.537V137.397Z" fill="#FD009C"/>
<path fill-rule="evenodd" clip-rule="evenodd" d="M235.308 137.397H254.859V138.309H235.308V137.397Z" fill="#FD009C"/>
<path fill-rule="evenodd" clip-rule="evenodd" d="M22.1758 139.129H15.634V137.397H22.1758V139.129Z" fill="#FD009C"/>
<path fill-rule="evenodd" clip-rule="evenodd" d="M235.308 138.095H254.859V139.13H235.308V138.095Z" fill="#FD009C"/>
<path fill-rule="evenodd" clip-rule="evenodd" d="M156.434 138.095H208.641V139.13H156.434V138.095Z" fill="#FD009C"/>
<path fill-rule="evenodd" clip-rule="evenodd" d="M318.043 138.382H367.383V139.129H318.043V138.382Z" fill="#FD009C"/>
<path fill-rule="evenodd" clip-rule="evenodd" d="M254.537 107.357H367.383V109.171H254.537V107.357Z" fill="#FD009C"/>
<path fill-rule="evenodd" clip-rule="evenodd" d="M361.805 109.171H359.67V108.342H361.805V109.171Z" fill="#FD009C"/>
<path fill-rule="evenodd" clip-rule="evenodd" d="M320.43 108.342H329.414V109.171H320.43V108.342Z" fill="#FD009C"/>
<path fill-rule="evenodd" clip-rule="evenodd" d="M314.125 109.171H304.026V107.357H314.125V109.171Z" fill="#FD009C"/>
<path fill-rule="evenodd" clip-rule="evenodd" d="M282.367 109.171H272.268V107.357H282.367V109.171Z" fill="#FD009C"/>
<path fill-rule="evenodd" clip-rule="evenodd" d="M264.316 109.171H262.182V107.357H264.316V109.171Z" fill="#FD009C"/>
<path fill-rule="evenodd" clip-rule="evenodd" d="M0.978634 107.357H22.1758V109.171H0.978634V107.357Z" fill="#FD009C"/>
<path fill-rule="evenodd" clip-rule="evenodd" d="M114.34 128.541H110.081V126.728H114.34V128.541Z" fill="#FD009C"/>
<path fill-rule="evenodd" clip-rule="evenodd" d="M281.83 76.8246H367.383V77.7356H281.83V76.8246Z" fill="#FD009C"/>
<path fill-rule="evenodd" clip-rule="evenodd" d="M232.235 96.1124H367.383V97.1466H232.235V96.1124Z" fill="#FD009C"/>
</svg>
