<svg width="30" height="28" viewBox="0 0 30 28" fill="none" xmlns="http://www.w3.org/2000/svg">
<path d="M6.32094 17.7003C6.32094 19.3278 4.9127 20.6431 3.17024 20.6431C1.42777 20.6431 0.0195312 19.3278 0.0195312 17.7003C0.0195312 16.073 1.42777 14.7577 3.17035 14.7577H6.32082V17.7004L6.32094 17.7003ZM7.89635 17.7003C7.89635 16.073 9.30459 14.7577 11.0471 14.7577C12.7895 14.7577 14.1978 16.073 14.1978 17.7004V25.0572C14.1978 26.6846 12.7895 28 11.0469 28C9.30471 28 7.89635 26.6846 7.89635 25.0572V17.7004V17.7003Z" fill="#E01E5A"/>
<path d="M11.0514 5.88528C9.30895 5.88528 7.90059 4.57004 7.90059 2.94264C7.90059 1.31524 9.30906 0 11.0514 0C12.7938 0 14.2021 1.31524 14.2021 2.94264V5.88539H11.0513L11.0514 5.88528ZM11.0514 7.37893C12.7939 7.37893 14.2021 8.69417 14.2021 10.3216C14.2021 11.949 12.7939 13.2642 11.0513 13.2642H3.15084C1.40824 13.2642 0 11.949 0 10.3215C0 8.69428 1.40824 7.37893 3.15072 7.37893H11.0513H11.0514Z" fill="#36C5F0"/>
<path d="M23.6747 10.3216C23.6747 8.69417 25.0829 7.37882 26.8253 7.37882C28.5677 7.37882 29.9761 8.69417 29.9761 10.3216C29.9761 11.949 28.5677 13.2642 26.8253 13.2642H23.6747V10.3215V10.3216ZM22.0993 10.3216C22.0993 11.949 20.6909 13.2642 18.9484 13.2642C17.2061 13.2642 15.7979 11.949 15.7979 10.3215V2.94275C15.7979 1.31524 17.2061 0 18.9484 0C20.6908 0 22.0991 1.31524 22.0991 2.94264V10.3215L22.0993 10.3216Z" fill="#2EB67D"/>
<path d="M18.9475 22.1146C20.69 22.1146 22.0983 23.4298 22.0983 25.0572C22.0983 26.6846 20.69 28 18.9475 28C17.2051 28 15.7969 26.6846 15.7969 25.0572V22.1146H18.9476H18.9475ZM18.9475 20.6431C17.2051 20.6431 15.7969 19.3278 15.7969 17.7003C15.7969 16.073 17.2051 14.7577 18.9476 14.7577H26.8482C28.5907 14.7577 29.999 16.073 29.999 17.7004C29.999 19.3278 28.5907 20.6431 26.8482 20.6431H18.9476H18.9475Z" fill="#ECB22E"/>
</svg>
