<svg width="35" height="35" viewBox="0 0 35 35" fill="none" xmlns="http://www.w3.org/2000/svg">
<mask id="mask0" mask-type="alpha" maskUnits="userSpaceOnUse" x="0" y="0" width="35" height="35">
<path d="M17.5 0H0V35H17.5H35V0H17.5Z" fill="white"/>
</mask>
<g mask="url(#mask0)">
<path d="M35 17.5C35 27.166 27.166 35 17.5 35C7.83398 35 0 27.166 0 17.5C0 7.83398 7.83398 0 17.5 0C27.166 0 35 7.83398 35 17.5Z" fill="url(#paint0_linear)"/>
</g>
<path d="M17.5273 21.916C16.6113 21.916 15.873 21.1777 15.873 20.2617C15.873 19.3457 16.6113 18.6074 17.5273 18.6074C18.4434 18.6074 19.1816 19.3457 19.1816 20.2617C19.1816 21.1777 18.4434 21.916 17.5273 21.916ZM17.5 6.69922C13.043 6.69922 9.43359 10.3086 9.43359 14.7656H9.5293C9.47461 14.7656 9.43359 14.8066 9.43359 14.8613V24.8145C9.47461 24.8145 9.51563 24.8145 9.55664 24.8145C10.418 24.8145 11.1016 25.5117 11.1016 26.3594C11.1016 26.9473 10.7734 27.4531 10.2949 27.7129C10.7324 28.0957 11.3203 28.3418 11.9492 28.3418C13.3438 28.3418 14.4785 27.207 14.4785 25.8125V14.7656C14.4785 14.752 14.4785 14.7383 14.4785 14.7246C14.4785 13.1113 15.791 11.7988 17.4043 11.7988C19.0176 11.7988 20.3301 13.1113 20.3301 14.7246C20.3301 16.3105 19.0723 17.6094 17.4863 17.6504C16.0645 17.6641 14.916 18.8125 14.916 20.248C14.916 21.6836 16.0781 22.8457 17.5137 22.8457C17.6367 22.8457 17.7461 22.832 17.8555 22.8184C22.1484 22.6406 25.5664 19.0996 25.5664 14.7656C25.5664 10.3086 21.957 6.69922 17.5 6.69922Z" fill="url(#paint1_linear)"/>
<defs>
<linearGradient id="paint0_linear" x1="17.4996" y1="-0.0004375" x2="17.4996" y2="34.9996" gradientUnits="userSpaceOnUse">
<stop stop-color="white"/>
<stop offset="1" stop-color="#F3F3F3"/>
</linearGradient>
<linearGradient id="paint1_linear" x1="17.5016" y1="6.70037" x2="17.5016" y2="28.3468" gradientUnits="userSpaceOnUse">
<stop stop-color="#BE62D4"/>
<stop offset="1" stop-color="#5C21AA"/>
</linearGradient>
</defs>
</svg>
