<?xml version="1.0" encoding="utf-8"?><svg xmlns="http://www.w3.org/2000/svg" xmlns:xlink="http://www.w3.org/1999/xlink"><symbol id="bus" viewBox="0 0 18.2 14.8" xml:space="preserve" xmlns="http://www.w3.org/2000/svg"><style>.ast0,.ast1{fill:none;stroke:#000;stroke-width:.5;stroke-miterlimit:10}.ast1{fill:#fff}</style><g id="aдоставка"><path class="ast0" d="M1.9 12h8.3c.4 0 .8-.3.8-.8V3c0-.4-.3-.8-.8-.8H1.9c-.5 0-.8.4-.8.8v8.3c0 .4.3.7.8.7z"/><path class="ast0" d="M11.2 3.8h3.6s.4 0 .9.5c.2.2.4.5.7.9.5.7 1.1 1.4 1.1 1.4s.4.4.4 1.1v3.5s.1.8-1.1.8h-6.3"/><circle class="ast1" cx="4.7" cy="12.4" r="1.9"/><circle class="ast1" cx="14.1" cy="12.4" r="1.9"/><circle class="ast1" cx="4" cy="4.2" r="3.7"/><path class="ast0" d="M2.7 5.5l1.4-1.1V1.9"/><circle cx="4" cy="4.4" r=".5"/><path class="ast0" d="M17.7 8.1h-4s-.6-.1-.6-.8V5.8s0-.5.7-.5h2.5"/></g></symbol><symbol viewBox="0 0 36.71 36.71" id="fb" xmlns="http://www.w3.org/2000/svg"><path d="M36.711 34.686a2.025 2.025 0 0 1-2.026 2.025H25.33V22.495h4.771l.715-5.541H25.33v-3.537c0-1.604.445-2.696 2.746-2.696l2.934-.001V5.764c-.508-.067-2.249-.219-4.275-.219-4.23 0-7.127 2.582-7.127 7.323v4.086h-4.784v5.541h4.784v14.216H2.026A2.025 2.025 0 0 1 0 34.686V2.026C0 .907.907 0 2.026 0h32.659c1.119 0 2.026.907 2.026 2.026v32.66z"/></symbol><symbol viewBox="0 0 22.3 18.9" id="hand" xmlns="http://www.w3.org/2000/svg"><path d="M7.3 11.6c-.3-.7-.9-2-1.7-2.7-1.2-1-2.1-2.4-2.5-3.8 0-.5.3-1 1-1.2 0 0 .2 1 .7 1s.8-.2 1.4-.9c.6-.7.7-.8.7-.8s.5-.8 0-1.2S5.1.7 5.1.7 4.5.5 4.2.5s-.9 0-1.4.5C2.2 1.4 1 2.6 1 2.6s-.6.8-.6 1.9c0 1.2.4 4.8.4 4.8s.5 2.5 1.1 4.1c.6 1.6 1.9 3.3 3.1 4.3.4.4.9.7 1.1.7.6 0 1.4-.6 2.1-.6.7 0 2.1.6 3.4.6s5.3-.9 6.8-5.8c0 0 3.5-.8 3.5-4.5s-3.1-4.6-4.4-4.6-4.5.9-4.5 4.2v.6s-.7-.5-1.8-.5-3.4.7-3.6 3.7l-.3.1z" stroke-width=".75" stroke-miterlimit="10"/></symbol><symbol id="human" viewBox="0 0 19.6 20.4" xml:space="preserve" xmlns="http://www.w3.org/2000/svg"><style>.dst0{fill:none;stroke:#000;stroke-width:.75;stroke-miterlimit:10}.dst1{fill:#fff}</style><g id="dиконка"><circle class="dst0" cx="9.9" cy="10.7" r="9.3"/><path transform="rotate(50.437 2.644 4.805)" class="dst1" d="M1.8 4h1.6v1.5H1.8z"/><path transform="rotate(50.437 16.957 4.805)" class="dst1" d="M16.2 4h1.6v1.5h-1.6z"/><path transform="rotate(56.441 15.699 17.825)" class="dst1" d="M14.9 16.8h1.6v2h-1.6z"/><ellipse transform="rotate(-3.5 9.582 3.497) scale(.99996)" cx="9.6" cy="3.5" rx="2.7" ry="3.1" stroke-width=".75" stroke-miterlimit="10"/><path class="dst0" d="M5.2 18.6s-.1-3.4.2-5c.2-1.5 1-2.4.7-3.3 0 0-.8-1.2-1.4-1.8S1.5 4.8 1.5 4.8s-.5-.7 0-1.1c.5-.3 1.1-.3 1.3-.1S5 5.9 5 5.9 7.1 8 9.1 8c2 0 3-.6 3.3-.8s1.3-.8 1.8-1.2l2.5-2s.7-.7 1.1-.5c0 0 .5.1.7.5s-.6 1.2-.6 1.2l-2.2 2.2s-2.3 2.6-2.4 4.4c0 0-.2 1.8.2 3.6s1 3.1 1 3.1"/></g></symbol><symbol viewBox="0 0 36.66 36.67" id="inst" xmlns="http://www.w3.org/2000/svg"><path d="M32.305 0H4.357A4.352 4.352 0 0 0 0 4.349v27.967c0 2.4 1.95 4.348 4.357 4.348h27.947a4.353 4.353 0 0 0 4.358-4.348V4.349A4.351 4.351 0 0 0 32.305 0m-5.953 5.729c0-.632.513-1.146 1.146-1.146h3.438c.632 0 1.145.514 1.145 1.146v3.438c0 .633-.513 1.146-1.145 1.146h-3.438a1.146 1.146 0 0 1-1.146-1.146V5.729zm-7.978 5.612c3.894 0 7.051 3.149 7.051 7.033 0 3.885-3.157 7.034-7.051 7.034s-7.051-3.148-7.051-7.034c0-3.884 3.157-7.033 7.051-7.033M33.226 32.08c0 .633-.513 1.146-1.146 1.146H4.583a1.147 1.147 0 0 1-1.146-1.146V14.895H8.02c-.597.858-.798 2.462-.798 3.479 0 6.135 5.003 11.127 11.152 11.127s11.153-4.992 11.153-11.127c0-1.018-.145-2.596-.885-3.479h4.583V32.08z"/></symbol><symbol id="leaf" viewBox="0 0 16 15.2" xml:space="preserve" xmlns="http://www.w3.org/2000/svg"><style>.fst0{fill:none;stroke:#000;stroke-width:.5;stroke-miterlimit:10}</style><g id="fлистья"><path class="fst0" d="M2.4 14.9S5.3 9 12.3 9.6m-8 2.7s-.8-5.4 5.1-5.5c4.5.3 6.1 2.7 6.1 2.7s-2 4.3-7 4.8c-1.6.1-3.6-1-3.6-1m-2.1-1.2s-.1-2.2-.4-3.2-.4-3.6.3-5.1"/><path class="fst0" d="M2.3 9.4s-2-1-1.8-3.8S3 .6 3 .6s4.1 3.7.6 7.9"/></g></symbol><symbol viewBox="0 0 46.7 57.73" id="map-marker" xmlns="http://www.w3.org/2000/svg"><path fill-rule="evenodd" clip-rule="evenodd" d="M23.122 57.727h-.185c-.072-.075-.135-.164-.217-.225a79.117 79.117 0 0 1-8.019-6.756 66.348 66.348 0 0 1-7.328-8.306c-1.932-2.606-3.591-5.385-4.87-8.378C1.356 31.378.543 28.608.22 25.698c-.474-4.298.14-8.417 1.964-12.349a22.933 22.933 0 0 1 5.893-7.794 22.327 22.327 0 0 1 5.453-3.483c1.698-.764 3.453-1.367 5.3-1.667.876-.144 1.754-.271 2.632-.405h3.136c.117.029.232.072.352.083 2.025.199 3.996.612 5.915 1.316 4.017 1.475 7.367 3.869 10.053 7.188a22.621 22.621 0 0 1 4.486 9.182c1.039 4.431.682 8.784-.766 13.069-1.745 5.164-4.655 9.661-8.084 13.835-1.517 1.847-3.16 3.595-4.81 5.326-2.173 2.279-4.521 4.374-6.977 6.347-.558.448-1.097.92-1.645 1.381z"/><path d="M29.899 18.672c-.405.546-1.076.881-1.873.918-1.147.053-1.704-.943-1.803-3.063-.083-1.801.299-5.251.236-6.589l-.044-.956c-.382.018-2.158 7.478-3.12 8.8-.283.428-.761.818-1.349.845-1.354.063-2.288-1.459-2.397-3.817-.072-1.546.211-4.401.06-7.651-.016-.352-.086-.492-.15-.489-1.274.06-4.118 8.638-4.255 12.923-.019.624.094 1.672.247 2.225-1.538-.104-3.183-.124-3.255-1.669-.066-1.418.672-4.438 1.554-7.114.616-1.865 3.002-8.267 5.52-8.383 2.788-.129 2.463 4.916 2.685 9.68.035.764.061 1.322.16 1.733 2.617-7.594 3.104-9.837 4.665-9.909.894-.042 1.586 1.124 1.658 2.686.042.908.031 2.745.084 3.86.232 5.018.749 4.835 1.377 5.97zm8.532-7.33c-.021 1.008-2.636 5.102-5.12 5.051-1.365-.028-2.047-.912-2.022-2.075.021-1.009.507-2.024.878-2.686-2.384-.405-2.671-1.514-2.658-2.135.025-1.242 1.219-1.87 1.979-1.854.605.012.782.513.775.839-.008.372-.172.819-.433 1.356 1.175.289 3.101.313 3.082 1.229-.017.837-1.428 2.223-1.451 3.356-.009.418.172.655.499.662 1.304.027 2.979-2.92 3.739-4.365.54.105.738.312.732.622zm1.677 10.984c-.015.735-1.92 3.718-3.729 3.681-.996-.021-1.492-.665-1.475-1.513.016-.735.37-1.475.64-1.957-1.736-.295-1.946-1.104-1.937-1.556.019-.905.888-1.362 1.442-1.351.44.009.568.374.563.611-.005.271-.125.597-.313.989.855.211 2.258.228 2.244.895-.013.611-1.04 1.62-1.057 2.446-.007.305.126.478.363.483.95.02 2.171-2.129 2.725-3.181.396.076.54.227.534.453zm.291 7.451c-.012.578-1.513 2.928-2.938 2.899-.783-.017-1.176-.523-1.161-1.192.012-.578.291-1.161.504-1.541-1.368-.232-1.533-.869-1.526-1.226.016-.713.7-1.073 1.137-1.064.348.007.448.294.444.482-.004.213-.099.471-.248.778.674.166 1.78.18 1.77.706-.01.48-.82 1.275-.834 1.927-.004.239.1.376.287.379.748.016 1.711-1.677 2.146-2.506.31.061.423.179.419.358zm-2.474-14.173c.018-.846.938-1.468 2.033-1.445 1.114.022 1.97.558 1.956 1.238-.022 1.095-1.14 2.186-2.254 2.164-1.114-.023-1.748-1.316-1.735-1.957zM21.712 33.859c.011-.529.586-.918 1.271-.904.696.015 1.231.35 1.223.774-.014.684-.712 1.367-1.409 1.353s-1.093-.824-1.085-1.223zm-8.823-9.247c.011-.53.587-.918 1.271-.904.697.014 1.232.349 1.223.774-.014.684-.712 1.366-1.409 1.352-.697-.014-1.093-.822-1.085-1.222z"/><path d="M25.817 28.532c-.025 1.276-1.092 2.851-3.67 2.798-1.468-.03-2.513-.729-2.498-1.469.004-.217.149-.419.381-.554.391.237.871.49 1.79.509 1.442.029 2.114-.965 2.134-1.96.02-.969-.565-1.672-1.434-1.715-.74-.015-1.417-.016-1.92.267-.418-.148-.617-.446-.611-.727.011-.536.449-.744 1.011-.733.243.005.498.048.75.118.901-.313 2.236-1.282 2.264-2.661.023-1.173-.97-1.909-2.616-1.943a8 8 0 0 0-1.074.067.796.796 0 0 1 .132.424c-1.659 3.082-1.956 9.459-.81 11.487-.17.188-.989.273-1.359.266-.919-.019-1.508-.566-1.604-1.463-.364-2.79.568-7.138 1.365-9.292a5.26 5.26 0 0 1 .363-.874c-.605.255-1.136.59-1.526.952-.419-.123-.707-.397-.701-.666a.497.497 0 0 1 .082-.254c.292-.492 2.488-1.749 5.385-1.689 3.765.078 4.802 1.784 4.78 2.907-.034 1.62-1.78 2.76-3.091 3.128 1.664.418 2.505 1.788 2.477 3.077zm10.127-6.001c-.011.527-1.996 3.944-3.897 3.904-.776-.016-1.268-.442-1.43-1.334-.556.669-1.304 1.292-2.136 1.274-.972-.02-1.444-.64-1.421-1.806.01-.471.127-1.413.146-2.371.013-.623-.009-.944-.097-1.404.404-.061.794-.122 1.183-.114.679.014.964.353.948 1.13-.01.458-.157 1.565-.173 2.329-.011.527.082.737.234.74.208.004.757-.345 1.287-1.153.054-.596.136-1.219.147-1.746.01-.5-.024-.875-.104-1.098a4.48 4.48 0 0 1 .766-.068c.888.018 1.28.483 1.258 1.58-.007.361-.192 1.315-.207 1.981-.013.638.064.945.314.95.471.009 1.824-1.656 2.482-3.294.338-.09.709.07.7.5zm-3.014 8.093c-.962.032-1.921.389-2.757.916l-.006.303c-.034 1.661-.711 4.543-2.497 4.506-.742-.015-1.151-.462-1.135-1.236.024-1.201.981-2.478 2.213-3.444a.943.943 0 0 0-.007-.19c-.362.37-.763.55-1.191.541-.711-.015-1.108-.504-1.092-1.328.025-1.255 1.378-2.45 2.674-2.424.429.009.853.186.846.53-.005.262-.28.423-.848.557-.069-.178-.162-.254-.256-.255-.449-.01-1.013.972-1.026 1.641-.006.293.074.409.2.411.271.006.724-.622.578-1.189.51-.324.645-.321.843-.317.439.009.632.306.688 1.122.813-.411 1.654-.656 2.365-.642.261.003.488.165.408.498zm-4.258 2.202c-.685.8-1.122 1.712-1.139 2.559-.005.22.044.366.17.369.481.009.839-1.656.969-2.928z"/><path d="M37.417 30.464c-.01.502-1.758 3.132-3.7 3.092-1.474-.03-2.519-1.076-2.489-2.508.028-1.38.929-2.458 2.057-2.435.805.017 1.275.538 1.258 1.395-.02.92-.733 1.585-1.358 2 .202.339.491.533.847.54.804.017 1.88-.965 2.693-2.422.42-.127.7-.006.692.338zm-4.55.137c-.004.199.003.387.03.555.331-.338.59-.73.6-1.211.005-.229-.075-.388-.17-.39-.198-.005-.449.514-.46 1.046z"/><path fill-rule="evenodd" clip-rule="evenodd" d="M.001 17.166L0 17.168zM7.077 26.606l.471-.47c.049.356-.01.636-.173.897l-.07.149a.564.564 0 0 1-.27.321l-.087.06-.154.095-.101.024.01.153c.523.103 1.042.128 1.548-.088.483-.206.779-.624 1.122-.988a.511.511 0 0 1 .224-.24.693.693 0 0 1 .275-.275.635.635 0 0 1 .308-.243c.204-.245.502-.265.782-.331-.036-.3-.383-.274-.506-.484-.836-.55-1.703-1.021-2.738-1.053l-.162.049c-.111.038-.22.078-.331.112-.983.313-1.859.87-2.822 1.227a5.251 5.251 0 0 1-2.238.312c-.229-.017-.443-.188-.684-.064.405.737 1.063 1.186 1.799 1.524.85.391 1.717.249 2.579.022l.638-.301.58-.408zm6.754 2.877c-.501-.168-1.014-.301-1.528-.104a39.56 39.56 0 0 1-2.188.785c-.593.188-1.192.338-1.827.276-.136-.015-.303-.093-.431.101 1.2.49 2.348 1.142 3.715.786l1.156-.465.085-.052c.539-.27 1.045-.602 1.608-.822-.036-.355-.38-.353-.59-.505zm-4.44-9.871c-.351-.195-.803-.186-1.177-.164-.514.03-1.008.032-1.507-.07l-.117-.056c.14.388.424.667.697.962.175.189.35.23.592.248.637.046 1.251-.163 1.884-.125l.289.074c-.135-.357-.34-.69-.661-.869zm7.168 14.961c-.5-.211-.979-.221-1.413.129a2.415 2.415 0 0 1-.852.44c.499.243.986.342 1.483.268.343-.05.692-.16.871-.526.069-.145.102-.231-.089-.311z"/></symbol><symbol id="meter" viewBox="0 0 15.2 15.2" xml:space="preserve" xmlns="http://www.w3.org/2000/svg"><style>.hst0{fill:none;stroke:#000;stroke-width:.5;stroke-miterlimit:10}</style><g id="hлинейка"><path class="hst0" d="M10 3.8S10.3.4 6.2.4H3.7S1 .4.4 2.6v6.1c0 .4.6 2.4 3.5 2.4"/><path class="hst0" d="M14.7 6.8v6.3c0 1.7-1.6 1.6-1.6 1.6H6.7c-1.4 0-1.5-.8-1.5-.8v-3.4c0-1.7 1.2-1.6 1.2-1.6h6.2c1.5 0 2.1-.7 2.1-2.1s-1.4-1.7-1.4-1.7H4C2.1 5.1.8 3.7.8 3.7l-.4-.5m8.5 7.6V9m3.6 1.8V8.9"/><ellipse cx="5.2" cy="2.9" rx="1" ry=".4"/></g></symbol><symbol viewBox="0 0 11 11" id="phone" xmlns="http://www.w3.org/2000/svg"><path d="M10.758 9.774c-.164.383-.602.633-.953.828-.461.25-.93.398-1.453.398-.727 0-1.383-.297-2.047-.539a7.313 7.313 0 0 1-1.367-.648c-1.328-.82-2.93-2.422-3.75-3.75A7.227 7.227 0 0 1 .54 4.695C.297 4.031 0 3.375 0 2.648c0-.523.148-.992.398-1.453.196-.352.446-.789.829-.953C1.485.125 2.032 0 2.313 0c.055 0 .109 0 .164.023.164.055.336.438.414.594.25.445.492.898.75 1.336.125.203.359.453.359.695 0 .477-1.414 1.172-1.414 1.594 0 .211.195.484.305.672.789 1.422 1.774 2.407 3.195 3.196.188.109.461.305.672.305C7.18 8.415 7.875 7 8.352 7c.242 0 .492.235.695.36.438.258.891.5 1.336.75.156.078.539.25.594.414a.406.406 0 0 1 .023.164c0 .281-.125.828-.242 1.086z"/></symbol><symbol viewBox="0 0 300 300" id="play" xmlns="http://www.w3.org/2000/svg"><path d="M196.1 139.6l-91-72.5c-8.7-6.9-21.5-.7-21.5 10.4v145c0 11.1 12.8 17.3 21.5 10.4l91-72.5c6.7-5.3 6.7-15.5 0-20.8z"/></symbol><symbol id="smile" viewBox="0 0 20.6 20.8" xml:space="preserve" xmlns="http://www.w3.org/2000/svg"><style>.kst0{fill:none;stroke:#000;stroke-width:.75;stroke-miterlimit:10}</style><circle class="kst0" cx="10.3" cy="10.4" r="9.8"/><path class="kst0" d="M4.1 12.8s2.4 3.3 6.1 3.3 5.9-3.3 5.9-3.3m-9.2-1.7S4.3 9.7 4.3 8.4c-.1-1.2 1.4-2.1 2.6-.6"/><path class="kst0" d="M6.5 11.1s2.6-1.4 2.6-2.7c.1-1.2-1.4-2.1-2.6-.7"/><path d="M6.6 8l.1.1.1-.1v-.2l-.2.1z"/><path class="kst0" d="M13.7 11.1s-2.6-1.4-2.6-2.7c-.1-1.2 1.4-2.1 2.6-.7"/><path class="kst0" d="M13.3 11.1s2.6-1.4 2.6-2.7c.1-1.2-1.4-2.1-2.6-.7"/><path d="M13.4 8l.1.1.1-.1v-.2l-.2.1z"/></symbol><symbol viewBox="0 0 37.45 31.21" id="tw" xmlns="http://www.w3.org/2000/svg"><path d="M36.421.577a15.112 15.112 0 0 1-4.884 1.909A7.575 7.575 0 0 0 25.93 0c-4.24 0-7.682 3.528-7.682 7.879 0 .618.066 1.217.198 1.794-6.385-.329-12.047-3.462-15.839-8.235a8.02 8.02 0 0 0-1.04 3.966c0 2.731 1.356 5.144 3.418 6.557a7.547 7.547 0 0 1-3.481-.981v.096c0 3.819 2.648 7.004 6.167 7.725a7.292 7.292 0 0 1-2.025.277c-.495 0-.979-.047-1.447-.139.979 3.129 3.815 5.408 7.179 5.469a15.172 15.172 0 0 1-9.544 3.375c-.619 0-1.232-.037-1.833-.109a21.388 21.388 0 0 0 11.778 3.537c14.136 0 21.863-12.004 21.863-22.417 0-.343-.006-.685-.021-1.021a15.749 15.749 0 0 0 3.832-4.078 15.04 15.04 0 0 1-4.412 1.24 7.861 7.861 0 0 0 3.38-4.358"/></symbol><symbol viewBox="0 0 126.01 71.62" id="vk" xmlns="http://www.w3.org/2000/svg"><defs><path id="ma" d="M0 0h126v72H0z"/></defs><clipPath id="mb"><use xlink:href="#ma" overflow="visible"/></clipPath><path clip-path="url(#mb)" d="M124.523 64.503a8.35 8.35 0 0 0-.426-.816c-2.172-3.91-6.324-8.711-12.449-14.401l-.129-.134-.066-.063-.066-.066h-.063c-2.781-2.651-4.543-4.434-5.281-5.344-1.348-1.738-1.652-3.5-.914-5.281.523-1.348 2.477-4.19 5.867-8.538a447.262 447.262 0 0 0 4.234-5.539c7.52-9.996 10.777-16.383 9.777-19.164l-.387-.649c-.262-.39-.934-.75-2.02-1.074-1.086-.327-2.477-.383-4.172-.163l-18.772.127c-.301-.105-.738-.099-1.301.034l-.852.195-.323.166-.258.195c-.219.129-.457.354-.719.683a4.443 4.443 0 0 0-.648 1.142c-2.047 5.258-4.367 10.145-6.977 14.663-1.609 2.695-3.086 5.031-4.434 7.009-1.348 1.976-2.477 3.434-3.387 4.366-.914.935-1.738 1.685-2.477 2.246-.742.567-1.305.806-1.695.72-.391-.091-.762-.177-1.109-.263a4.288 4.288 0 0 1-1.465-1.597c-.371-.672-.621-1.52-.75-2.543a28.65 28.65 0 0 1-.23-2.637c-.02-.738-.008-1.785.035-3.129.043-1.349.066-2.263.066-2.738 0-1.653.031-3.446.094-5.379.066-1.935.121-3.465.164-4.594.043-1.13.066-2.324.066-3.587 0-1.258-.078-2.245-.23-2.965a9.987 9.987 0 0 0-.684-2.086c-.305-.672-.75-1.194-1.336-1.562-.586-.371-1.313-.664-2.18-.883-2.305-.521-5.238-.802-8.8-.849-8.082-.086-13.274.438-15.579 1.567-.914.476-1.738 1.129-2.476 1.953-.781.957-.891 1.479-.328 1.565 2.609.392 4.453 1.325 5.543 2.802l.39.784c.305.563.61 1.563.911 2.996.304 1.435.5 3.021.585 4.758.219 3.173.219 5.888 0 8.149-.214 2.257-.421 4.019-.617 5.277-.195 1.262-.488 2.28-.879 3.065-.39.782-.652 1.258-.785 1.435-.129.172-.238.28-.324.323a4.815 4.815 0 0 1-1.762.328c-.605 0-1.344-.304-2.215-.914-.867-.608-1.769-1.444-2.703-2.512-.933-1.062-1.988-2.55-3.164-4.464-1.172-1.911-2.386-4.168-3.648-6.778l-1.043-1.89c-.653-1.215-1.543-2.985-2.672-5.313a100.975 100.975 0 0 1-2.996-6.745c-.348-.91-.871-1.605-1.567-2.087l-.324-.194c-.219-.172-.566-.356-1.043-.556a7.006 7.006 0 0 0-1.5-.422l-17.858.133c-1.824 0-3.063.414-3.715 1.238l-.262.392C.066 5.113 0 5.46 0 5.938c0 .48.129 1.065.391 1.762a215.077 215.077 0 0 0 8.507 17.725c3.063 5.696 5.723 10.278 7.981 13.754a161.747 161.747 0 0 0 6.91 9.84c2.348 3.086 3.902 5.063 4.66 5.935a43.02 43.02 0 0 0 1.793 1.953l1.629 1.565c1.043 1.043 2.574 2.293 4.598 3.746 2.02 1.457 4.258 2.891 6.711 4.305 2.457 1.41 5.312 2.563 8.574 3.453 3.258.892 6.43 1.25 9.516 1.074h7.496c1.52-.129 2.672-.609 3.453-1.433l.258-.324c.176-.262.34-.665.488-1.208.152-.542.23-1.14.23-1.792-.043-1.868.098-3.551.422-5.051.324-1.496.695-2.625 1.109-3.388.414-.762.879-1.401 1.402-1.922.52-.522.891-.836 1.109-.944.215-.11.387-.185.52-.231 1.043-.347 2.27-.007 3.684 1.012 1.41 1.024 2.734 2.281 3.977 3.781 1.238 1.5 2.727 3.184 4.461 5.051 1.742 1.867 3.262 3.258 4.563 4.172l1.305.781c.871.524 2 1 3.391 1.435 1.391.437 2.605.547 3.648.327l16.688-.262c1.648 0 2.934-.272 3.844-.815.914-.544 1.453-1.142 1.629-1.789.176-.653.184-1.392.035-2.22-.158-.824-.31-1.402-.459-1.727zm0 0"/></symbol><symbol viewBox="0 0 300 300" id="volume" xmlns="http://www.w3.org/2000/svg"><path d="M178.5 59.2L112.1 112c-4.8-2.6-10.3-4-16.1-4-18.8 0-34 15.2-34 34s15.2 34 34 34c5.8 0 11.3-1.5 16.1-4l66.4 52.9c8.7 6.9 21.5.7 21.5-10.4v-145c0-11.1-12.8-17.3-21.5-10.3z"/></symbol></svg>