<svg width="80" height="94" viewBox="0 0 80 94" fill="none" xmlns="http://www.w3.org/2000/svg">
<path fill-rule="evenodd" clip-rule="evenodd" d="M16.0557 70.3173C16.0557 72.6415 17.9463 74.5386 20.2725 74.5386H25.093V86.4975C25.093 89.5269 27.5181 92.0001 30.4975 92.0001C33.4868 92.0001 35.902 89.5368 35.902 86.4975V74.5287H44.3157V86.4875C44.3157 89.517 46.7408 91.9902 49.7202 91.9902C52.7095 91.9902 55.1247 89.5269 55.1247 86.4875V74.5287H59.9453C62.2714 74.5287 64.162 72.6316 64.162 70.3073V31.0537H16.0557V70.3173ZM57.1247 76.5287V86.4875C57.1247 90.5964 53.8489 93.9902 49.7202 93.9902C45.6015 93.9902 42.3157 90.5865 42.3157 86.4875V76.5287H37.902V86.4975C37.902 90.6063 34.6262 94.0001 30.4975 94.0001C26.3788 94.0001 23.093 90.5964 23.093 86.4975V76.5386H20.2725C16.8383 76.5386 14.0557 73.7426 14.0557 70.3173V61.1916C12.8569 63.67 10.3473 65.3942 7.40453 65.3942C3.28581 65.3942 0 61.9906 0 57.8916V36.3975C0 32.2886 3.27587 28.8948 7.40453 28.8948C10.3377 28.8948 12.8541 30.6132 14.0557 33.0925V29.5674H13.7856L13.9741 27.3945C14.6136 20.0254 19.1835 13.7451 25.6874 9.9934L22.5091 5.37643L22.4938 5.35286C21.7963 4.276 21.7432 2.49253 23.1714 1.49651C24.6151 0.475456 26.3201 1.1669 27.069 2.26023C27.07 2.26173 27.071 2.26323 27.0721 2.26474L30.8044 7.68966C33.6738 6.74188 36.7814 6.22863 40.0099 6.22863C43.238 6.22863 46.3452 6.74176 49.2143 7.68931L52.9477 2.2548C52.9489 2.25312 52.95 2.25143 52.9512 2.24974C53.7303 1.11273 55.4305 0.510911 56.8326 1.47564L56.8484 1.48652L56.864 1.4977C58.2383 2.48272 58.2635 4.26223 57.4998 5.3823L57.4947 5.38965L54.3317 9.98441C60.8284 13.7359 65.4059 20.0149 66.065 27.3894L66.2596 29.5674H66.162V32.6809C67.4307 30.428 69.8205 28.8948 72.5954 28.8948C76.7241 28.8948 80.0106 32.2689 80 36.3888V57.8916C80 62.0005 76.7241 65.3942 72.5954 65.3942C69.8256 65.3942 67.4324 63.8549 66.162 61.5999V70.3073C66.162 73.7327 63.3794 76.5287 59.9453 76.5287H57.1247ZM78 36.3875C78.0099 33.3482 75.5946 30.8948 72.5954 30.8948C69.6061 30.8948 67.1909 33.3581 67.1909 36.3975V57.8916C67.1909 60.921 69.616 63.3943 72.5954 63.3943C75.5847 63.3943 78 60.931 78 57.8916V36.3875ZM53.194 11.6371C52.7542 11.387 52.3044 11.149 51.8453 10.9237C51.6988 10.8518 51.5513 10.7811 51.4029 10.7118L55.8473 4.25559C55.85 4.25166 55.8526 4.24772 55.8553 4.24376C55.8562 4.24228 55.8572 4.2408 55.8582 4.23932C56.1029 3.86372 56.0403 3.36804 55.6989 3.12327C55.3524 2.88489 54.8575 3.00408 54.6001 3.38152L49.9875 10.096C46.9487 8.89411 43.5634 8.22863 40.0099 8.22863C36.6347 8.22863 33.4113 8.82899 30.4924 9.91909C30.3381 9.97668 30.1848 10.0356 30.0323 10.096L25.4196 3.39145C25.1623 3.01401 24.6674 2.88489 24.3209 3.13321C23.9792 3.3683 23.9168 3.85455 24.162 4.24901C24.1631 4.25081 24.1642 4.25261 24.1653 4.25441C24.1677 4.25812 24.17 4.26182 24.1724 4.26552L28.6168 10.7217C28.47 10.7902 28.3241 10.86 28.1792 10.931C27.7182 11.1569 27.2666 11.3955 26.8251 11.6462C21.3414 14.7607 17.4124 19.7504 16.252 25.5674C16.121 26.224 16.0253 26.8912 15.9667 27.5674H64.0729C64.0125 26.8911 63.9152 26.224 63.7828 25.5674C62.6085 19.7432 58.6724 14.7522 53.194 11.6371ZM29.8541 20.8927C29.3275 20.8927 28.8127 20.736 28.3748 20.4424C27.9369 20.1488 27.5957 19.7315 27.3941 19.2433C27.1926 18.7551 27.1399 18.2179 27.2426 17.6996C27.3453 17.1813 27.5989 16.7052 27.9713 16.3315C28.3437 15.9579 28.8181 15.7034 29.3347 15.6003C29.8512 15.4972 30.3865 15.5501 30.8731 15.7523C31.3596 15.9546 31.7755 16.297 32.068 16.7364C32.3606 17.1758 32.5168 17.6924 32.5168 18.2208C32.515 18.9289 32.2338 19.6074 31.7349 20.1081C31.2359 20.6088 30.5597 20.8908 29.8541 20.8927ZM29.8515 18.8927C29.7229 18.8922 29.5967 18.8537 29.4886 18.7812C29.3797 18.7082 29.2938 18.6037 29.2428 18.4802C29.1918 18.3566 29.1783 18.2201 29.2044 18.0884C29.2305 17.9568 29.2948 17.8368 29.388 17.7433C29.4811 17.6498 29.5989 17.587 29.7261 17.5616C29.8533 17.5362 29.9852 17.5492 30.1055 17.5992C30.2258 17.6492 30.3297 17.7343 30.4033 17.8449C30.4766 17.9549 30.5163 18.0848 30.5168 18.2183C30.5156 18.399 30.4435 18.5706 30.3182 18.6963C30.1932 18.8218 30.0254 18.8915 29.8515 18.8927ZM50.1169 18.7812C50.225 18.8537 50.3512 18.8922 50.4798 18.8927C50.6537 18.8915 50.8215 18.8218 50.9465 18.6963C51.0719 18.5705 51.144 18.3988 51.1451 18.218C51.1445 18.0845 51.1048 17.9548 51.0316 17.8449C50.958 17.7343 50.854 17.6492 50.7337 17.5992C50.6135 17.5492 50.4816 17.5362 50.3544 17.5616C50.2272 17.587 50.1094 17.6498 50.0163 17.7433C49.923 17.8368 49.8588 17.9568 49.8327 18.0884C49.8066 18.2201 49.8201 18.3565 49.8711 18.4802C49.9221 18.6037 50.008 18.7082 50.1169 18.7812ZM50.4824 20.8927C49.9558 20.8927 49.441 20.736 49.0031 20.4424C48.5652 20.1488 48.2239 19.7315 48.0224 19.2433C47.8209 18.7551 47.7681 18.2179 47.8709 17.6996C47.9736 17.1813 48.2272 16.7052 48.5996 16.3315C48.972 15.9579 49.4464 15.7034 49.9629 15.6003C50.4794 15.4972 51.0148 15.5501 51.5014 15.7523C51.9879 15.9546 52.4037 16.297 52.6963 16.7364C52.9889 17.1758 53.1451 17.6924 53.1451 18.2208C53.1432 18.9289 52.8621 19.6074 52.3632 20.1081C51.8642 20.6088 51.188 20.8908 50.4824 20.8927ZM2 36.3975C2 33.3581 4.41521 30.8948 7.40453 30.8948C10.3839 30.8948 12.8091 33.3482 12.8091 36.3875V57.8916C12.8091 60.931 10.3938 63.3943 7.40453 63.3943C4.42511 63.3943 2 60.921 2 57.8916V36.3975Z" fill="#FFD129"/>
</svg>
