<svg width="81" height="94" viewBox="0 0 81 94" fill="none" xmlns="http://www.w3.org/2000/svg">
<path d="M24.5135 4.2654C24.2549 3.8681 24.3146 3.37147 24.6626 3.13308C25.0106 2.88477 25.5078 3.01389 25.7663 3.39133M24.5135 4.2654L56.1823 3.12315C55.8343 2.88477 55.3371 3.00396 55.0786 3.3814L50.4451 10.0958M24.5135 4.2654L28.4011 9.88749L24.5135 4.2654ZM25.7663 3.39133L30.3998 10.0958M25.7663 3.39133L26.589 2.82279L26.5899 2.82414C26.0847 2.08887 24.9844 1.68196 24.0896 2.31354C23.1989 2.93034 23.1948 4.07233 23.6753 4.81079L23.683 4.82259L23.691 4.83416L27.4958 10.3364L54.2536 2.81631M25.7663 3.39133L26.5913 2.82624L30.7784 8.88474M30.3998 10.0958C33.4523 8.89399 36.8529 8.22851 40.4224 8.22851C43.992 8.22851 47.3926 8.89399 50.4451 10.0958M30.3998 10.0958L30.0334 9.16535C30.2796 9.06842 30.528 8.97486 30.7784 8.88474M30.3998 10.0958L31.2224 9.52729L30.7784 8.88474M50.4451 10.0958L49.622 9.52786L50.066 8.88455M50.4451 10.0958L50.8114 9.16535C50.5651 9.06835 50.3166 8.97473 50.066 8.88455M54.2536 2.81631C54.2541 2.81553 54.2546 2.81475 54.2552 2.81397L54.2536 2.81631ZM54.2536 2.81631L50.066 8.88455M30.7784 8.88474C33.7524 7.81427 37.0157 7.22851 40.4224 7.22851C43.829 7.22851 47.0921 7.8142 50.066 8.88455M20.5959 75.5385H24.4382V86.4973C24.4382 90.0658 27.3088 93 30.8671 93C34.4354 93 37.2961 90.0757 37.2961 86.4973V75.5286H43.7477V86.4874C43.7477 90.0559 46.6183 92.9901 50.1766 92.9901C53.7449 92.9901 56.6056 90.0658 56.6056 86.4874V75.5286H60.4479C63.3343 75.5286 65.6836 73.1862 65.6836 70.3072V31.0536V30.0536H64.6836H16.3601H15.3601V31.0536V70.3171C15.3601 73.1962 17.7095 75.5385 20.5959 75.5385ZM49.7577 17.0389L49.051 16.3314L49.7577 17.0389C49.9918 16.805 50.2903 16.6456 50.6153 16.581C50.9404 16.5164 51.2773 16.5496 51.5835 16.6762C51.8896 16.8029 52.1511 17.0173 52.335 17.2923C52.5186 17.5668 52.6167 17.8895 52.6169 18.2195C52.6154 18.6624 52.4386 19.087 52.1248 19.4005C51.8109 19.714 51.3854 19.891 50.9411 19.8926C50.61 19.8923 50.2865 19.7942 50.0114 19.6105C49.736 19.4267 49.5215 19.1655 49.3949 18.8601C49.2683 18.5548 49.2352 18.2188 49.2997 17.8947C49.3642 17.5706 49.5236 17.2728 49.7577 17.0389ZM28.6735 18.8601L27.7497 19.2432L28.6735 18.8601C28.5468 18.5548 28.5137 18.2188 28.5783 17.8947C28.6428 17.5706 28.8021 17.2728 29.0362 17.0389C29.2704 16.805 29.5688 16.6456 29.8939 16.581C30.219 16.5164 30.5559 16.5496 30.862 16.6762C31.1682 16.8029 31.4297 17.0173 31.6135 17.2923C31.7972 17.5668 31.8953 17.8895 31.8955 18.2195C31.894 18.6624 31.7172 19.087 31.4033 19.4005C31.0895 19.714 30.664 19.891 30.2196 19.8926C29.8886 19.8923 29.5651 19.7942 29.29 19.6105C29.0146 19.4267 28.8001 19.1655 28.6735 18.8601ZM73.1552 29.8947C69.5869 29.8947 66.7262 32.8189 66.7262 36.3973V57.8915C66.7262 61.46 69.5968 64.3941 73.1552 64.3941C76.7234 64.3941 79.5841 61.4699 79.5841 57.8915L79.5841 36.3907C79.5841 36.3899 79.5841 36.389 79.5841 36.3882C79.5945 32.8042 76.7284 29.8947 73.1552 29.8947ZM7.66984 29.8947C4.10157 29.8947 1.24091 32.8189 1.24091 36.3973V57.8915C1.24091 61.46 4.11153 64.3941 7.66984 64.3941C11.2381 64.3941 14.0988 61.4699 14.0988 57.8915V36.3874C14.0988 32.8054 11.2246 29.8947 7.66984 29.8947Z" stroke="#FFD129" stroke-width="2"/>
</svg>
