<svg width="72" height="85" viewBox="0 0 72 85" fill="none" xmlns="http://www.w3.org/2000/svg">
<path d="M64.0333 73.6104C68.0405 67.8566 69.707 62.2862 69.8093 61.9342L70.0791 61.0058L69.1604 60.7048C69.1622 60.7054 69.1591 60.7041 69.1514 60.7011C68.9801 60.6332 66.5299 59.6621 64.0719 57.3594C61.5285 54.9767 58.9903 51.1864 58.9274 45.4562C58.8449 35.9336 66.8588 31.3432 67.2144 31.149L68.192 30.6152L67.5563 29.7006C62.439 22.3384 54.5854 21.5301 51.9214 21.3522C48.3137 21.077 45.0351 22.0469 42.3357 23.0338C41.6711 23.2767 41.0774 23.5064 40.5199 23.7222C39.8873 23.967 39.3013 24.1937 38.7112 24.4013C37.6346 24.78 36.8248 24.9859 36.2163 24.9859C35.5787 24.9859 34.7896 24.8041 33.8156 24.4782C33.1136 24.2433 32.3754 23.9553 31.5751 23.643C31.2658 23.5224 30.9473 23.3981 30.618 23.2719C28.3154 22.3893 25.5998 21.4542 22.7659 21.523C15.4835 21.6164 8.83124 25.6738 5.09832 32.061C1.34682 38.464 0.901448 46.3178 2.236 53.7531C3.57191 61.1961 6.71143 68.3447 10.2963 73.4419L10.2983 73.4447C12.009 75.8593 13.937 78.52 16.1396 80.5497C18.3459 82.5829 20.9468 84.094 24.0057 83.9955L24.0155 83.9951C26.585 83.8872 28.4331 83.1104 30.1807 82.3758C30.3267 82.3145 30.472 82.2534 30.617 82.193C32.4802 81.4172 34.3847 80.7061 37.3173 80.7061C40.213 80.7061 42.0525 81.4612 43.9232 82.2553C43.9674 82.2741 44.0116 82.2929 44.0559 82.3117C45.9163 83.1022 47.8738 83.934 50.7689 83.8659C53.8623 83.8164 56.3533 82.4309 58.466 80.4915C60.5589 78.5703 62.3468 76.0431 64.0333 73.6104ZM64.0333 73.6104C64.0331 73.6107 64.0329 73.611 64.0326 73.6113L63.2121 73.0398L64.0339 73.6095C64.0337 73.6098 64.0335 73.6101 64.0333 73.6104ZM52.8878 2.88768L52.7831 1.96152L51.8519 2.00089C47.4529 2.18687 42.2744 4.84274 39.1645 8.40002C36.4056 11.5199 33.9407 16.6028 34.6087 21.5738L34.7165 22.3761L35.5236 22.4377C40.4704 22.8154 45.4265 19.9583 48.4292 16.4166C51.4293 12.8778 53.4536 7.89362 52.8878 2.88768Z" stroke="#FD009C" stroke-width="2"/>
</svg>
