<svg width="40" height="40" viewBox="0 0 40 40" fill="none" xmlns="http://www.w3.org/2000/svg">
<circle cx="20" cy="20" r="19.5" stroke="white"/>
<path d="M22.9546 13.6365H29.8485V15.5844H22.9546V13.6365ZM17.5497 19.8971C18.1258 19.6195 19.4239 18.9874 19.4239 17.1145C19.4239 13.5917 15.5317 13.6374 14.8118 13.6374H8.18182V27.2728H15.1004C15.6765 27.2719 20 27.1112 20 23.3751C20 20.9645 18.4144 20.1756 17.5497 19.8971ZM11.1364 16.0012H14.02C14.3076 16.0012 16.1817 16.1025 16.1817 17.5323C16.1817 18.9611 14.7409 19.2017 14.3086 19.2017H11.1364V16.0012ZM14.4218 24.9061H11.1058V21.1505H14.4218C15.1417 21.1505 16.7274 21.3814 16.7274 23.0985C16.7274 24.8136 14.7094 24.9061 14.4218 24.9061ZM28.3102 24.7347C27.8522 25.0162 27.3952 25.1594 26.7846 25.1594C24.4939 25.1594 24.0379 23.2494 24.0379 22.4031H31.8182C31.8182 21.5567 31.8182 20.9314 31.6655 20.2253C31.5119 19.5192 30.4689 16.5583 26.632 16.5583C21.2695 16.5583 20.9849 21.2119 20.9849 21.9151C20.9849 22.6193 21.1385 23.4666 21.4448 24.0296C21.7491 24.7347 22.0544 25.2996 22.5124 25.7204C22.9693 26.144 23.5789 26.5638 24.1896 26.8472C24.9518 27.1306 25.7151 27.2719 26.4783 27.2719C27.6976 27.2719 28.7671 26.9914 29.6821 26.4265C30.5989 25.8625 31.2086 25.0162 31.6655 23.8883H29.0724C28.9198 24.1708 28.7671 24.4513 28.3102 24.7347ZM26.632 18.5326C28.127 18.5326 28.7671 20.0831 28.9188 20.7863H24.0379C24.0379 20.647 24.4033 18.5326 26.632 18.5326Z" fill="white"/>
</svg>
