<svg width="535" height="302" viewBox="0 0 535 302" fill="none" xmlns="http://www.w3.org/2000/svg">
<path fill-rule="evenodd" clip-rule="evenodd" d="M523.578 122.834H512.438V107.538H523.578V122.834Z" fill="#56CDF2"/>
<path fill-rule="evenodd" clip-rule="evenodd" d="M433.634 113.325H418.904V107.538H433.634V113.325Z" fill="#56CDF2"/>
<path fill-rule="evenodd" clip-rule="evenodd" d="M413.105 113.325H405.984V107.538H413.105V113.325Z" fill="#56CDF2"/>
<path fill-rule="evenodd" clip-rule="evenodd" d="M375.409 113.325H360.679V107.538H375.409V113.325Z" fill="#56CDF2"/>
<path fill-rule="evenodd" clip-rule="evenodd" d="M333.491 113.325H326.371V107.538H333.491V113.325Z" fill="#56CDF2"/>
<path fill-rule="evenodd" clip-rule="evenodd" d="M433.771 123.008H418.682V112.963H433.771V123.008Z" fill="#56CDF2"/>
<path fill-rule="evenodd" clip-rule="evenodd" d="M412.593 122.833H402.026V112.963H412.593V122.833Z" fill="#56CDF2"/>
<path fill-rule="evenodd" clip-rule="evenodd" d="M375.706 123.008H360.474V112.963H375.706V123.008Z" fill="#56CDF2"/>
<path fill-rule="evenodd" clip-rule="evenodd" d="M332.991 122.833H322.425V112.963H332.991V122.833Z" fill="#56CDF2"/>
<path fill-rule="evenodd" clip-rule="evenodd" d="M522.225 52.2676H530.71V53.621H522.225V52.2676Z" fill="#56CDF2"/>
<path fill-rule="evenodd" clip-rule="evenodd" d="M231.944 15.8197H220.875V0.46582H231.944V15.8197Z" fill="#56CDF2"/>
<path fill-rule="evenodd" clip-rule="evenodd" d="M201.151 15.8197H190.01V0.46582H201.151V15.8197Z" fill="#56CDF2"/>
<path fill-rule="evenodd" clip-rule="evenodd" d="M111.562 16.0525H96.2578V0.582031H111.562V16.0525Z" fill="#56CDF2"/>
<path fill-rule="evenodd" clip-rule="evenodd" d="M90.8963 15.8197H79.7556V0.46582H90.8963V15.8197Z" fill="#56CDF2"/>
<path fill-rule="evenodd" clip-rule="evenodd" d="M53.2784 16.0525H38.0461V0.582031H53.2784V16.0525Z" fill="#56CDF2"/>
<path fill-rule="evenodd" clip-rule="evenodd" d="M11.2827 15.8197H0.141965V0.46582H11.2827V15.8197Z" fill="#56CDF2"/>
<path fill-rule="evenodd" clip-rule="evenodd" d="M534.513 67.7376H519.496V53.2588H534.513V67.7376Z" fill="#56CDF2"/>
<path fill-rule="evenodd" clip-rule="evenodd" d="M366.823 229.036H349.15V211.582H366.823V229.036Z" fill="#56CDF2"/>
<path fill-rule="evenodd" clip-rule="evenodd" d="M341.847 229.736H324.03V211.582H341.847V229.736Z" fill="#56CDF2"/>
<path fill-rule="evenodd" clip-rule="evenodd" d="M291.529 229.736H273.856V211.582H291.529V229.736Z" fill="#56CDF2"/>
<path fill-rule="evenodd" clip-rule="evenodd" d="M267.412 229.443H254.405V211.464H267.412V229.443Z" fill="#56CDF2"/>
<path fill-rule="evenodd" clip-rule="evenodd" d="M249.314 229.443H236.307V211.464H249.314V229.443Z" fill="#56CDF2"/>
<path fill-rule="evenodd" clip-rule="evenodd" d="M100.797 229.736H83.1961V211.582H100.797V229.736Z" fill="#56CDF2"/>
<path fill-rule="evenodd" clip-rule="evenodd" d="M76.5355 229.443H63.7438V211.464H76.5355V229.443Z" fill="#56CDF2"/>
<path fill-rule="evenodd" clip-rule="evenodd" d="M57.7266 229.736H39.91V211.582H57.7266V229.736Z" fill="#56CDF2"/>
<path fill-rule="evenodd" clip-rule="evenodd" d="M33.461 229.443H20.4539V211.464H33.461V229.443Z" fill="#56CDF2"/>
<path fill-rule="evenodd" clip-rule="evenodd" d="M385.623 90.5352H443.064V100.814H385.623V90.5352Z" fill="#56CDF2"/>
<path fill-rule="evenodd" clip-rule="evenodd" d="M541.979 101.572H533.781V89.6016H541.979V101.572Z" fill="#56CDF2"/>
<path fill-rule="evenodd" clip-rule="evenodd" d="M513.551 101.747H501.764V89.6016H513.551V101.747Z" fill="#56CDF2"/>
<path fill-rule="evenodd" clip-rule="evenodd" d="M481.037 101.572H472.481V89.6016H481.037V101.572Z" fill="#56CDF2"/>
<path fill-rule="evenodd" clip-rule="evenodd" d="M444.999 101.747H433.212V89.6016H444.999V101.747Z" fill="#56CDF2"/>
<path fill-rule="evenodd" clip-rule="evenodd" d="M428.488 101.747H416.63V89.6016H428.488V101.747Z" fill="#56CDF2"/>
<path fill-rule="evenodd" clip-rule="evenodd" d="M395.393 101.747H383.749V89.6016H395.393V101.747Z" fill="#56CDF2"/>
<path fill-rule="evenodd" clip-rule="evenodd" d="M379.535 101.572H370.835V89.6016H379.535V101.572Z" fill="#56CDF2"/>
<path fill-rule="evenodd" clip-rule="evenodd" d="M367.617 101.573H363.798V90.0107H367.617V101.573Z" fill="#56CDF2"/>
<path fill-rule="evenodd" clip-rule="evenodd" d="M57.0856 188.843H45.2988V183.173H57.0856V188.843Z" fill="#56CDF2"/>
<path fill-rule="evenodd" clip-rule="evenodd" d="M41.2199 188.842H35.463V183.055H41.2199V188.842Z" fill="#56CDF2"/>
<path fill-rule="evenodd" clip-rule="evenodd" d="M28.6532 188.843H17.0101V183.173H28.6532V188.843Z" fill="#56CDF2"/>
<path fill-rule="evenodd" clip-rule="evenodd" d="M12.7876 188.842H7.03058V183.055H12.7876V188.842Z" fill="#56CDF2"/>
<path fill-rule="evenodd" clip-rule="evenodd" d="M57.0856 195.142H45.2988V188.48H57.0856V195.142Z" fill="#56CDF2"/>
<path fill-rule="evenodd" clip-rule="evenodd" d="M40.7118 195.026H32.5142V188.48H40.7118V195.026Z" fill="#56CDF2"/>
<path fill-rule="evenodd" clip-rule="evenodd" d="M28.8018 195.142H17.015V188.48H28.8018V195.142Z" fill="#56CDF2"/>
<path fill-rule="evenodd" clip-rule="evenodd" d="M345.29 188.843H333.503V183.173H345.29V188.843Z" fill="#56CDF2"/>
<path fill-rule="evenodd" clip-rule="evenodd" d="M329.276 188.842H323.662V183.055H329.276V188.842Z" fill="#56CDF2"/>
<path fill-rule="evenodd" clip-rule="evenodd" d="M300.5 188.843H288.713V183.173H300.5V188.843Z" fill="#56CDF2"/>
<path fill-rule="evenodd" clip-rule="evenodd" d="M267.908 188.842H262.367V183.055H267.908V188.842Z" fill="#56CDF2"/>
<path fill-rule="evenodd" clip-rule="evenodd" d="M231.729 188.843H220.157V183.173H231.729V188.843Z" fill="#56CDF2"/>
<path fill-rule="evenodd" clip-rule="evenodd" d="M215.355 188.843H203.568V183.173H215.355V188.843Z" fill="#56CDF2"/>
<path fill-rule="evenodd" clip-rule="evenodd" d="M182.346 188.843H170.703V183.173H182.346V188.843Z" fill="#56CDF2"/>
<path fill-rule="evenodd" clip-rule="evenodd" d="M166.476 188.842H160.719V183.055H166.476V188.842Z" fill="#56CDF2"/>
<path fill-rule="evenodd" clip-rule="evenodd" d="M154.566 188.842H148.809V183.055H154.566V188.842Z" fill="#56CDF2"/>
<path fill-rule="evenodd" clip-rule="evenodd" d="M345.29 195.142H333.503V188.48H345.29V195.142Z" fill="#56CDF2"/>
<path fill-rule="evenodd" clip-rule="evenodd" d="M328.928 195.026H320.73V188.48H328.928V195.026Z" fill="#56CDF2"/>
<path fill-rule="evenodd" clip-rule="evenodd" d="M300.5 195.142H288.713V188.48H300.5V195.142Z" fill="#56CDF2"/>
<path fill-rule="evenodd" clip-rule="evenodd" d="M267.619 195.026H259.422V188.48H267.619V195.026Z" fill="#56CDF2"/>
<path fill-rule="evenodd" clip-rule="evenodd" d="M231.944 195.142H220.157V188.48H231.944V195.142Z" fill="#56CDF2"/>
<path fill-rule="evenodd" clip-rule="evenodd" d="M215.355 195.142H203.568V188.48H215.355V195.142Z" fill="#56CDF2"/>
<path fill-rule="evenodd" clip-rule="evenodd" d="M182.346 195.142H170.487V188.48H182.346V195.142Z" fill="#56CDF2"/>
<path fill-rule="evenodd" clip-rule="evenodd" d="M165.972 195.026H157.774V188.48H165.972V195.026Z" fill="#56CDF2"/>
<path fill-rule="evenodd" clip-rule="evenodd" d="M154.054 195.026H145.857V188.48H154.054V195.026Z" fill="#56CDF2"/>
<path fill-rule="evenodd" clip-rule="evenodd" d="M438.104 194.966H429.547V183.112H438.104V194.966Z" fill="#56CDF2"/>
<path fill-rule="evenodd" clip-rule="evenodd" d="M414.354 195.025H405.869V183.055H414.354V195.025Z" fill="#56CDF2"/>
<path fill-rule="evenodd" clip-rule="evenodd" d="M51.1695 301.513H46.0585V289.659H51.1695V301.513Z" fill="#56CDF2"/>
</svg>
