<svg width="34" height="33" viewBox="0 0 34 33" fill="none" xmlns="http://www.w3.org/2000/svg">
<path d="M0.0189819 15.9638V15.9171C0.433208 10.5029 2.36626 6.44221 5.72609 3.87511C9.0399 1.26134 12.6299 0.00112942 16.542 0.00112942C20.6382 -0.0455451 24.4583 1.35469 27.8642 4.15516C31.3161 6.90896 33.019 11.0163 33.019 16.3372V16.6639C33.019 22.0315 31.3161 26.0455 27.8642 28.7993C24.4123 31.5998 20.5922 33 16.496 33H16.3119C12.3077 32.9533 8.62568 31.5531 5.21982 28.7526C1.81396 25.9988 0.065007 21.7514 0.0189819 15.9638ZM15.5294 8.63591V1.26134H14.4248C14.1947 1.54139 14.0106 1.86811 13.8265 2.14816C13.6424 2.4282 13.4583 2.70825 13.2742 3.03497C13.0901 3.31502 12.86 3.68842 12.7219 3.96846C12.5378 4.24851 12.3997 4.52856 12.2617 4.85528C11.9855 5.32202 11.7554 5.78877 11.5713 6.20884C11.3412 6.62891 11.1571 7.04898 11.019 7.42238C11.2951 7.60907 11.6173 7.84245 11.9855 7.98247C12.3997 8.12249 12.814 8.26252 13.2282 8.35587C13.6884 8.44921 14.1027 8.49589 14.4709 8.54256C14.8851 8.58924 15.2533 8.63591 15.5294 8.63591ZM17.4625 1.26134V8.58924C17.6926 8.58924 17.9688 8.63591 18.2449 8.58924C18.5211 8.58924 18.8433 8.54256 19.1194 8.49589C19.6257 8.40254 20.224 8.26252 20.6843 8.12249C21.1905 7.93579 21.6508 7.70242 21.973 7.42238C21.4207 6.06881 20.8223 4.9953 20.224 3.96846C19.6257 2.94162 18.9353 2.05481 18.1989 1.30802V1.26134H17.4625ZM12.4918 1.68141V1.63474C12.1696 1.77476 11.8474 2.00813 11.4792 2.14816C11.1571 2.28818 10.7428 2.47488 10.4207 2.66158C9.7763 2.9883 9.13195 3.36169 8.4876 3.78176C7.88928 4.20183 7.29095 4.66858 6.78467 5.13532C6.96877 5.32202 7.1989 5.50872 7.383 5.64874C7.5671 5.78877 7.79722 5.97547 8.02735 6.16216C8.21145 6.25551 8.44158 6.39554 8.6717 6.58223C8.90183 6.72226 9.17798 6.90896 9.45413 7.09565C9.82233 6.25551 10.1905 5.3687 10.6508 4.57523C11.111 3.73509 11.6173 2.94162 12.1236 2.24151C12.1696 2.14816 12.2156 2.05481 12.3077 1.96146C12.3537 1.91478 12.3997 1.77476 12.4918 1.68141ZM26.5755 5.13532V5.08865C25.4248 4.20183 24.4123 3.45504 23.3997 2.9883C22.3872 2.52155 21.3746 2.05481 20.4541 1.68141C21.1905 2.4282 21.8349 3.36169 22.2491 4.24851C22.7094 5.182 23.1696 6.16216 23.5378 7.09565C23.7219 7.0023 23.952 6.90896 24.2282 6.72226C24.4583 6.58223 24.7805 6.44221 25.0566 6.30219C25.3328 6.11549 25.5629 5.92879 25.8391 5.74209C26.1152 5.50872 26.3914 5.32202 26.5755 5.13532ZM25.793 15.5437H31.0859C31.0859 13.8168 30.7177 12.1832 30.0273 10.5029C29.383 8.86928 28.4625 7.51572 27.3119 6.34886V6.30219C27.0817 6.67558 26.7596 7.0023 26.4374 7.23568C26.0692 7.46905 25.747 7.65575 25.3788 7.84245C25.1487 7.98247 24.9186 8.16917 24.6884 8.26252C24.4583 8.40254 24.1361 8.49589 23.906 8.63591C24.0901 9.00931 24.2742 9.42938 24.4583 9.80277C24.5964 10.2228 24.8265 10.6896 24.9186 11.1097C25.1947 11.8565 25.3788 12.6499 25.5629 13.4434C25.701 14.1435 25.793 14.8903 25.793 15.5437ZM9.13195 8.63591V8.58924C8.76375 8.40254 8.34953 8.26252 8.02735 8.07582C7.70517 7.84245 7.383 7.60907 7.10685 7.42238C6.8307 7.28235 6.55455 7.09565 6.32442 6.90896C6.0943 6.72226 5.9102 6.53556 5.72609 6.34886C4.52944 7.51572 3.65497 8.82261 3.10266 10.3629C2.50434 11.9031 2.09011 13.6301 1.90601 15.4971H7.5671C7.5671 14.1902 7.7512 12.93 8.07338 11.6698C8.34953 10.3629 8.76375 9.3827 9.13195 8.63591ZM15.5294 15.4971V10.1295C15.1612 10.1762 14.701 10.1762 14.2868 10.1295C13.8265 10.0828 13.3663 9.9428 12.952 9.80277C12.5838 9.70943 12.1236 9.61608 11.7554 9.47605C11.3412 9.3827 10.9269 9.19601 10.6048 9.00931C10.3286 9.47605 10.0985 10.0361 9.91438 10.6429C9.68425 11.203 9.54618 11.8098 9.4081 12.3699C9.31605 12.93 9.27003 13.5367 9.224 14.0502C9.17798 14.5636 9.13195 15.077 9.13195 15.4971H15.5294ZM17.4625 10.2228V15.4971H24.2742C24.2742 15.217 24.2742 14.8903 24.2282 14.5169C24.1361 14.1902 24.0901 13.7701 24.0441 13.3967C23.906 12.8366 23.7679 12.2298 23.5838 11.6698C23.3997 11.1563 23.2156 10.6429 22.9855 10.2228C22.8935 9.98947 22.8014 9.70943 22.7094 9.52273C22.5713 9.28936 22.4332 9.14933 22.3412 9.00931C21.8349 9.3827 21.1445 9.61608 20.3161 9.80277C19.5336 9.98947 18.6131 10.1762 17.7847 10.2228H17.4625ZM7.5671 17.0373H1.90601C1.90601 17.8308 2.04409 18.7176 2.27421 19.7911C2.50434 20.9113 2.96459 21.9381 3.47086 23.0583C3.70099 23.6184 3.97714 24.1785 4.25329 24.7386C4.57547 25.252 4.94367 25.8121 5.31187 26.3255C5.58802 26.1388 5.86417 25.9988 6.0943 25.8588C6.37045 25.7188 6.69262 25.5321 6.96877 25.3921C7.29095 25.252 7.61312 25.112 7.98133 24.9253C8.3035 24.7853 8.71773 24.5986 9.13195 24.4119C8.76375 23.245 8.34953 22.1248 8.07338 20.8646C7.7512 19.6511 7.5671 18.4376 7.5671 17.084V17.0373ZM15.5294 22.4982V17.0373H9.13195C9.13195 17.4107 9.17798 17.9708 9.27003 18.5309C9.31605 19.091 9.45413 19.6978 9.54618 20.3045C9.73028 20.958 9.86835 21.6114 10.0525 22.1715C10.2366 22.7316 10.4207 23.1984 10.6048 23.6184C11.4332 23.2917 12.2617 23.0583 12.814 22.9183C13.4123 22.7316 13.9646 22.5916 14.5169 22.5449H15.0232C15.2073 22.4982 15.3914 22.4982 15.5294 22.4982ZM17.4625 17.0373V22.4516C17.7847 22.4982 18.1529 22.5449 18.5211 22.5916C18.9353 22.6383 19.4416 22.7316 19.8558 22.825L20.5462 22.965C20.7763 23.0583 21.0525 23.105 21.2826 23.1517C21.5587 23.245 21.8349 23.2917 22.111 23.3851C22.3412 23.4784 22.5713 23.5251 22.7554 23.6184C23.3537 22.0782 23.7219 20.818 23.952 19.7444C24.1822 18.7176 24.2742 17.8308 24.2742 17.084V17.0373H17.4625ZM31.0859 17.084V17.0373H25.793V17.3174C25.747 18.2042 25.6089 19.231 25.4248 20.3045C25.2407 21.3314 24.8265 22.5449 24.2742 24.0385C25.0106 24.4119 25.701 24.7853 26.2533 25.1587C26.8056 25.5321 27.3119 25.9522 27.6801 26.3255C28.4625 25.5321 29.1529 24.4586 29.7512 23.0583C30.3495 21.7048 30.7638 20.3045 30.9939 18.811C31.0399 18.5309 31.0399 18.2509 31.0859 17.9708V17.084ZM15.5294 31.273V23.9918C14.3788 24.1785 13.4123 24.4119 12.6759 24.5986C11.9395 24.7853 11.3872 24.972 11.019 25.1587C11.2951 25.8588 11.5713 26.4656 11.8474 27.0257C12.1236 27.5391 12.4458 28.0992 12.7219 28.5659C12.814 28.7526 12.9981 28.9393 13.1361 29.1727C13.2742 29.3594 13.3663 29.5928 13.5043 29.7795C13.6424 30.0128 13.7805 30.2929 13.9186 30.5729C14.1027 30.8063 14.2407 31.0863 14.4248 31.273H15.5294ZM17.4625 31.273H18.5211C18.9353 30.9463 19.3495 30.4796 19.6717 29.9662C20.0399 29.4527 20.4541 28.846 20.7303 28.3326C21.0525 27.7258 21.3746 27.1657 21.6508 26.6056C21.9269 26.0455 22.1571 25.5321 22.3412 25.1587C21.8349 24.972 21.1445 24.7853 20.4541 24.5986C19.7638 24.4119 18.7972 24.2252 17.4625 24.0385V31.273ZM26.5755 27.4457V27.3991C26.4834 27.259 26.2993 27.0723 26.1612 26.9323C26.0232 26.7923 25.793 26.6056 25.5629 26.4656C25.3788 26.3255 25.1487 26.1855 24.8725 26.0455C24.5964 25.9055 24.2282 25.7188 23.906 25.5321C23.7219 25.9055 23.3997 26.5589 22.9395 27.4457C22.5253 28.3326 21.7889 29.4061 20.8684 30.5729C22.019 30.3862 23.0315 29.9662 23.952 29.4061C24.9646 28.8926 25.8391 28.1925 26.5755 27.4457ZM9.45413 25.9522V25.9055C9.13195 26.0922 8.62568 26.3255 8.1194 26.5589C7.5671 26.7923 6.96877 27.0723 6.41647 27.4457C6.73865 27.7258 7.06082 28.0058 7.33697 28.1925C7.61312 28.4259 7.9353 28.6126 8.21145 28.7993C8.71773 29.126 9.31605 29.4527 9.91438 29.7328C10.5127 30.0128 11.2491 30.2929 12.1696 30.5729C11.8474 30.1995 11.6173 29.7328 11.3872 29.3594C11.1571 28.986 10.8809 28.6126 10.6508 28.2392C10.4207 27.8658 10.2366 27.4457 10.0525 27.0723C9.82233 26.6989 9.63823 26.3255 9.45413 25.9522Z" fill="#979797"/>
</svg>
