<svg width="44" height="44" viewBox="0 0 44 44" fill="none" xmlns="http://www.w3.org/2000/svg">
<path d="M9.636 0H34.364C39.6859 0 44 4.31406 44 9.636V34.364C44 39.6859 39.6859 44 34.364 44H9.636C4.31406 44 0 39.6859 0 34.364V9.636C0 4.31406 4.31406 0 9.636 0Z" fill="url(#paint0_linear)"/>
<path d="M25.6903 21.6184L12.0074 35.3383C11.3534 34.718 11 33.8673 11 32.9453V11.4263C11 10.4869 11.3712 9.63587 12.043 8.99805L25.6903 21.6184Z" fill="#2299F8"/>
<path d="M37.5219 22.1852C37.5219 23.4262 36.8497 24.525 35.7359 25.1458L31.8474 27.3081L27.021 22.841L25.6953 21.618L30.8041 16.4952L35.7359 19.225C36.8497 19.8459 37.5219 20.9446 37.5219 22.1852Z" fill="#FFC107"/>
<path d="M25.6942 21.618L12.0469 8.99761C12.2236 8.82004 12.4536 8.66065 12.6834 8.51888C13.7969 7.84537 15.1406 7.82735 16.2894 8.46583L30.803 16.4952L25.6942 21.618Z" fill="#5ACF5F"/>
<path d="M31.8428 27.3083L16.2859 35.9052C15.7381 36.2244 15.119 36.366 14.5181 36.366C13.8819 36.366 13.2456 36.2065 12.6799 35.8522C12.432 35.7103 12.2023 35.5331 12.0078 35.338L25.6907 21.6182L27.0164 22.8412L31.8428 27.3083Z" fill="#F84437"/>
<defs>
<linearGradient id="paint0_linear" x1="22" y1="0" x2="22" y2="44" gradientUnits="userSpaceOnUse">
<stop stop-color="#BFFFFF"/>
<stop offset="1" stop-color="#7E9ABF"/>
</linearGradient>
</defs>
</svg>
