<svg width="574" height="121" viewBox="0 0 574 121" fill="none" xmlns="http://www.w3.org/2000/svg">
<path fill-rule="evenodd" clip-rule="evenodd" d="M481.799 109.38H573.914V109.734H481.799V109.38Z" fill="#56CDF2"/>
<path fill-rule="evenodd" clip-rule="evenodd" d="M466.107 109.38H482.066V109.734H466.107V109.38Z" fill="#56CDF2"/>
<path fill-rule="evenodd" clip-rule="evenodd" d="M402.043 109.38H466.375V109.864H402.043V109.38Z" fill="#56CDF2"/>
<path fill-rule="evenodd" clip-rule="evenodd" d="M452.98 109.69H451.585V109.336H452.98V109.69Z" fill="#56CDF2"/>
<path fill-rule="evenodd" clip-rule="evenodd" d="M411.664 109.69H410.355V109.336H411.664V109.69Z" fill="#56CDF2"/>
<path fill-rule="evenodd" clip-rule="evenodd" d="M481.841 120.344H533.906V120.914H481.841V120.344Z" fill="#56CDF2"/>
<path fill-rule="evenodd" clip-rule="evenodd" d="M466.107 120.344H482.066V120.828H466.107V120.344Z" fill="#56CDF2"/>
<path fill-rule="evenodd" clip-rule="evenodd" d="M382.582 120.344H466.375V120.828H382.582V120.344Z" fill="#56CDF2"/>
<path fill-rule="evenodd" clip-rule="evenodd" d="M533.639 116.632H573.914V116.986H533.639V116.632Z" fill="#56CDF2"/>
<path fill-rule="evenodd" clip-rule="evenodd" d="M481.799 101.826H573.914V102.396H481.799V101.826Z" fill="#56CDF2"/>
<path fill-rule="evenodd" clip-rule="evenodd" d="M477.03 101.826H482.066V102.396H477.03V101.826Z" fill="#56CDF2"/>
<path fill-rule="evenodd" clip-rule="evenodd" d="M533.638 120.646H573.957V121H533.638V120.646Z" fill="#56CDF2"/>
<path fill-rule="evenodd" clip-rule="evenodd" d="M533.638 120.43H573.957V120.914H533.638V120.43Z" fill="#56CDF2"/>
<path fill-rule="evenodd" clip-rule="evenodd" d="M481.799 116.761H573.914V117.288H481.799V116.761Z" fill="#56CDF2"/>
<path fill-rule="evenodd" clip-rule="evenodd" d="M471.092 116.761H482.066V117.288H471.092V116.761Z" fill="#56CDF2"/>
<path fill-rule="evenodd" clip-rule="evenodd" d="M511.272 118.962H533.906V120.568H511.272V118.962Z" fill="#56CDF2"/>
<path fill-rule="evenodd" clip-rule="evenodd" d="M511.272 118.919H533.863V119.273H511.272V118.919Z" fill="#56CDF2"/>
<path fill-rule="evenodd" clip-rule="evenodd" d="M511.272 120.344H533.906V120.698H511.272V120.344Z" fill="#56CDF2"/>
<path fill-rule="evenodd" clip-rule="evenodd" d="M533.638 118.962H573.957V120.568H533.638V118.962Z" fill="#56CDF2"/>
<path fill-rule="evenodd" clip-rule="evenodd" d="M533.639 118.919H573.914V119.273H533.639V118.919Z" fill="#56CDF2"/>
<path fill-rule="evenodd" clip-rule="evenodd" d="M533.638 120.344H573.957V120.698H533.638V120.344Z" fill="#56CDF2"/>
<path fill-rule="evenodd" clip-rule="evenodd" d="M521.379 110.468H518.943V109.596H521.379V110.468Z" fill="#56CDF2"/>
<path fill-rule="evenodd" clip-rule="evenodd" d="M481.799 109.38H573.914V109.864H481.799V109.38Z" fill="#56CDF2"/>
<path fill-rule="evenodd" clip-rule="evenodd" d="M466.107 109.38H482.066V109.864H466.107V109.38Z" fill="#56CDF2"/>
<path fill-rule="evenodd" clip-rule="evenodd" d="M428.743 109.38H466.375V109.864H428.743V109.38Z" fill="#56CDF2"/>
<path fill-rule="evenodd" clip-rule="evenodd" d="M452.98 109.906H451.585V109.336H452.98V109.906Z" fill="#56CDF2"/>
<path fill-rule="evenodd" clip-rule="evenodd" d="M411.664 109.906H410.355V109.336H411.664V109.906Z" fill="#56CDF2"/>
<path fill-rule="evenodd" clip-rule="evenodd" d="M521.155 109.596H573.914V110.468H521.155V109.596Z" fill="#56CDF2"/>
<path fill-rule="evenodd" clip-rule="evenodd" d="M521.155 109.509H573.914V109.863H521.155V109.509Z" fill="#56CDF2"/>
<path fill-rule="evenodd" clip-rule="evenodd" d="M521.979 114.258H573.914V114.698H521.979V114.258Z" fill="#56CDF2"/>
<path fill-rule="evenodd" clip-rule="evenodd" d="M481.799 78.3008H573.914V78.8706H481.799V78.3008Z" fill="#56CDF2"/>
<path fill-rule="evenodd" clip-rule="evenodd" d="M567.62 78.3008H570.402V78.8706H567.62V78.3008Z" fill="#56CDF2"/>
<path fill-rule="evenodd" clip-rule="evenodd" d="M536.02 78.3008H541.793V78.8706H536.02V78.3008Z" fill="#56CDF2"/>
<path fill-rule="evenodd" clip-rule="evenodd" d="M523.102 78.3008H528.875V78.8706H523.102V78.3008Z" fill="#56CDF2"/>
<path fill-rule="evenodd" clip-rule="evenodd" d="M497.186 78.3008H503.09V78.8706H497.186V78.3008Z" fill="#56CDF2"/>
<path fill-rule="evenodd" clip-rule="evenodd" d="M488.041 78.3008H490.824V78.8706H488.041V78.3008Z" fill="#56CDF2"/>
<path fill-rule="evenodd" clip-rule="evenodd" d="M356.879 78.3008H482.066V78.8706H356.879V78.3008Z" fill="#56CDF2"/>
<path fill-rule="evenodd" clip-rule="evenodd" d="M478.804 78.3008H481.543V78.8706H478.804V78.3008Z" fill="#56CDF2"/>
<path fill-rule="evenodd" clip-rule="evenodd" d="M372.121 78.3008H377.895V78.8706H372.121V78.3008Z" fill="#56CDF2"/>
<path fill-rule="evenodd" clip-rule="evenodd" d="M362.975 78.3008H365.715V78.8706H362.975V78.3008Z" fill="#56CDF2"/>
<path fill-rule="evenodd" clip-rule="evenodd" d="M349.886 78.3008H355.746V78.8706H349.886V78.3008Z" fill="#56CDF2"/>
<path fill-rule="evenodd" clip-rule="evenodd" d="M340.745 78.3008H343.484V78.8706H340.745V78.3008Z" fill="#56CDF2"/>
<path fill-rule="evenodd" clip-rule="evenodd" d="M308.59 72.7843H304.203V71.3081H308.59V72.7843Z" fill="#56CDF2"/>
<path fill-rule="evenodd" clip-rule="evenodd" d="M308.151 71.4814H324.023V72.5692H308.151V71.4814Z" fill="#56CDF2"/>
<path fill-rule="evenodd" clip-rule="evenodd" d="M350.725 71.4814H573.914V72.5692H350.725V71.4814Z" fill="#56CDF2"/>
<path fill-rule="evenodd" clip-rule="evenodd" d="M549.762 0H573.914V1.17409H549.762V0Z" fill="#56CDF2"/>
<path fill-rule="evenodd" clip-rule="evenodd" d="M371.216 0H388.52V1.17409H371.216V0Z" fill="#56CDF2"/>
<path fill-rule="evenodd" clip-rule="evenodd" d="M415.222 0H549.988V1.17409H415.222V0Z" fill="#56CDF2"/>
<path fill-rule="evenodd" clip-rule="evenodd" d="M549.763 1.20825H573.914V2.64134H549.763V1.20825Z" fill="#56CDF2"/>
<path fill-rule="evenodd" clip-rule="evenodd" d="M371.216 1.20825H388.52V2.64134H371.216V1.20825Z" fill="#56CDF2"/>
<path fill-rule="evenodd" clip-rule="evenodd" d="M0.560379 24.3018H179.234V26.9435H0.560379V24.3018Z" fill="#56CDF2"/>
<path fill-rule="evenodd" clip-rule="evenodd" d="M0.56395 24.7332H163.504V26.9432H0.56395V24.7332Z" fill="#56CDF2"/>
<path fill-rule="evenodd" clip-rule="evenodd" d="M549.763 8.07129H573.914V10.5835H549.763V8.07129Z" fill="#56CDF2"/>
<path fill-rule="evenodd" clip-rule="evenodd" d="M549.632 14.3303H574V14.9864H549.632V14.3303Z" fill="#56CDF2"/>
<path fill-rule="evenodd" clip-rule="evenodd" d="M329.314 14.2876H549.988V14.8574H329.314V14.2876Z" fill="#56CDF2"/>
<path fill-rule="evenodd" clip-rule="evenodd" d="M481.799 102.775H573.914V103.302H481.799V102.775Z" fill="#56CDF2"/>
<path fill-rule="evenodd" clip-rule="evenodd" d="M466.107 102.775H482.066V103.302H466.107V102.775Z" fill="#56CDF2"/>
<path fill-rule="evenodd" clip-rule="evenodd" d="M404.124 102.775H466.375V103.302H404.124V102.775Z" fill="#56CDF2"/>
<path fill-rule="evenodd" clip-rule="evenodd" d="M403.995 45.6252H574V46.4972H403.995V45.6252Z" fill="#56CDF2"/>
<path fill-rule="evenodd" clip-rule="evenodd" d="M313.347 32.3306H371.004V33.0298H313.347V32.3306Z" fill="#56CDF2"/>
<path fill-rule="evenodd" clip-rule="evenodd" d="M204.728 32.1145H303.215V33.0296H204.728V32.1145Z" fill="#56CDF2"/>
<path fill-rule="evenodd" clip-rule="evenodd" d="M173.764 32.2869H179.234V32.8566H173.764V32.2869Z" fill="#56CDF2"/>
<path fill-rule="evenodd" clip-rule="evenodd" d="M302.509 32.1145H314.004V33.0296H302.509V32.1145Z" fill="#56CDF2"/>
<path fill-rule="evenodd" clip-rule="evenodd" d="M549.632 11.8271H574V14.771H549.632V11.8271Z" fill="#56CDF2"/>
<path fill-rule="evenodd" clip-rule="evenodd" d="M549.632 14.1147H574V14.9867H549.632V14.1147Z" fill="#56CDF2"/>
<path fill-rule="evenodd" clip-rule="evenodd" d="M308.151 69.1069H324.023V70.8853H308.151V69.1069Z" fill="#56CDF2"/>
<path fill-rule="evenodd" clip-rule="evenodd" d="M350.725 69.1069H573.914V70.8853H350.725V69.1069Z" fill="#56CDF2"/>
</svg>
