<svg width="370" height="112" viewBox="0 0 370 112" fill="none" xmlns="http://www.w3.org/2000/svg">
<path fill-rule="evenodd" clip-rule="evenodd" d="M199.995 26.2224H370V27.0944H199.995V26.2224Z" fill="#FD009C"/>
<path fill-rule="evenodd" clip-rule="evenodd" d="M329.292 78.3225H369.914V80.9642H329.292V78.3225Z" fill="#FD009C"/>
<path fill-rule="evenodd" clip-rule="evenodd" d="M221.105 17.2869H345.988V19.8423H221.105V17.2869Z" fill="#FD009C"/>
<path fill-rule="evenodd" clip-rule="evenodd" d="M0.728271 62.3083H104.59V65.0364H0.728271V62.3083Z" fill="#FD009C"/>
<path fill-rule="evenodd" clip-rule="evenodd" d="M104.151 62.5679H120.023V64.9074H104.151V62.5679Z" fill="#FD009C"/>
<path fill-rule="evenodd" clip-rule="evenodd" d="M231.204 0.927734H345.988V2.23132H231.204V0.927734Z" fill="#FD009C"/>
<path fill-rule="evenodd" clip-rule="evenodd" d="M329.639 111.344H369.914V111.697H329.639V111.344Z" fill="#FD009C"/>
<path fill-rule="evenodd" clip-rule="evenodd" d="M181.269 103.185H262.375V104.964H181.269V103.185Z" fill="#FD009C"/>
<path fill-rule="evenodd" clip-rule="evenodd" d="M259.594 70.9417H369.914V72.0294H259.594V70.9417Z" fill="#FD009C"/>
<path fill-rule="evenodd" clip-rule="evenodd" d="M259.594 62.8694H369.914V63.8708H259.594V62.8694Z" fill="#FD009C"/>
</svg>
