<svg width="179" height="50" viewBox="0 0 179 50" fill="none" xmlns="http://www.w3.org/2000/svg">
<path d="M63.8 6.72L59.36 8.04C59.12 7.13333 58.5067 6.37333 57.52 5.76C56.5333 5.12 55.3867 4.8 54.08 4.8C52.64 4.8 51.44 5.14667 50.48 5.84C49.52 6.50667 49.04 7.36 49.04 8.4C48.88 9.30667 49.56 10.2133 51.08 11.12C51.3467 11.28 51.8667 11.4933 52.64 11.76C53.6267 12.08 54.2 12.2667 54.36 12.32L56.48 12.92C58.5867 13.48 60.3733 14.2 61.84 15.08C63.8133 16.28 64.8 18.2133 64.8 20.88C64.8 23.4667 63.84 25.56 61.92 27.16C59.9733 28.7333 57.5067 29.52 54.52 29.52C51.8 29.52 49.4667 28.8933 47.52 27.64C45.6 26.36 44.36 24.76 43.8 22.84L48.24 21.44C48.48 22.5067 49.1733 23.4 50.32 24.12C51.4933 24.84 52.8933 25.2 54.52 25.2C56.1733 25.2 57.5467 24.84 58.64 24.12C59.7333 23.3733 60.28 22.4133 60.28 21.24C60.28 20.4667 59.9733 19.8 59.36 19.24C58.8267 18.7067 58.28 18.32 57.72 18.08C57.16 17.8133 56.32 17.5333 55.2 17.24C51.8133 16.2533 49.5733 15.48 48.48 14.92C45.8667 13.5067 44.56 11.44 44.56 8.72C44.56 6.26667 45.44 4.28 47.2 2.76C48.96 1.24 51.2267 0.479998 54 0.479998C56.4533 0.479998 58.5733 1.08 60.36 2.28C62.12 3.42667 63.2667 4.90667 63.8 6.72ZM76.7481 5.16H66.8681V0.999998H91.1081V5.16H81.2281V29H76.7481V5.16ZM97.3963 29H92.6763L104.796 0.999998H108.436L120.596 29H115.876L113.396 23.24H99.8763L97.3963 29ZM111.636 19.08L106.636 7.36L101.636 19.08H111.636ZM123.822 0.999998H136.622C139.288 0.999998 141.515 1.84 143.302 3.52C145.115 5.2 146.022 7.30667 146.022 9.84C146.022 11.68 145.515 13.3333 144.502 14.8C143.488 16.24 142.142 17.2933 140.462 17.96L147.102 29H142.062L135.822 18.68H128.302V29H123.822V0.999998ZM136.622 5.16H128.302V14.52H136.622C137.955 14.52 139.075 14.08 139.982 13.2C140.888 12.2933 141.342 11.1733 141.342 9.84C141.342 8.50667 140.888 7.4 139.982 6.52C139.075 5.61333 137.955 5.16 136.622 5.16ZM158.311 5.16H148.431V0.999998H172.671V5.16H162.791V29H158.311V5.16Z" fill="white"/>
<path d="M19 29H179V50H19V29Z" fill="#FD009C"/>
<rect x="10" y="11" width="6" height="18" fill="black"/>
<path d="M46.2021 35.144H42.0101V33.8H51.8341V35.144H47.6421V45H46.2021V35.144ZM53.5136 33.8H61.5776V35.144H54.9536V38.664H60.7616V40.008H54.9536V43.656H61.6576V45H53.5136V33.8ZM68.6233 33.624C69.7113 33.624 70.6979 33.8853 71.5833 34.408C72.4793 34.92 73.1833 35.6293 73.6953 36.536L72.2873 37.064C71.9033 36.424 71.3913 35.9227 70.7513 35.56C70.1113 35.1973 69.4019 35.016 68.6233 35.016C67.3966 35.016 66.3779 35.4373 65.5673 36.28C64.7459 37.1227 64.3353 38.1627 64.3353 39.4C64.3353 40.6373 64.7459 41.6827 65.5673 42.536C66.3886 43.368 67.4073 43.784 68.6233 43.784C69.4019 43.784 70.1113 43.6027 70.7513 43.24C71.3913 42.8773 71.9033 42.376 72.2873 41.736L73.6953 42.264C73.1833 43.1707 72.4793 43.8853 71.5833 44.408C70.6979 44.92 69.7113 45.176 68.6233 45.176C66.9699 45.176 65.5939 44.6267 64.4953 43.528C63.3966 42.4293 62.8473 41.0533 62.8473 39.4C62.8473 37.7573 63.3966 36.3867 64.4953 35.288C65.6046 34.1787 66.9806 33.624 68.6233 33.624ZM77.1411 45H75.7011V33.8H77.1411V38.664H83.7811V33.8H85.2371V45H83.7811V40.008H77.1411V45ZM89.1244 45H87.7324V33.8H88.9964L95.9244 42.504V33.8H97.3164V45H96.0524L89.1244 36.296V45ZM101.027 35.288C102.136 34.1787 103.512 33.624 105.155 33.624C106.797 33.624 108.173 34.1787 109.283 35.288C110.392 36.3973 110.947 37.768 110.947 39.4C110.947 41.0427 110.392 42.4187 109.283 43.528C108.184 44.6267 106.808 45.176 105.155 45.176C103.501 45.176 102.125 44.6267 101.027 43.528C99.9278 42.4293 99.3785 41.0533 99.3785 39.4C99.3785 37.7573 99.9278 36.3867 101.027 35.288ZM102.099 42.536C102.92 43.368 103.939 43.784 105.155 43.784C106.371 43.784 107.389 43.368 108.211 42.536C109.032 41.6827 109.443 40.6373 109.443 39.4C109.443 38.1627 109.032 37.1227 108.211 36.28C107.4 35.4373 106.381 35.016 105.155 35.016C103.928 35.016 102.909 35.4373 102.099 36.28C101.277 37.1227 100.867 38.1627 100.867 39.4C100.867 40.6373 101.277 41.6827 102.099 42.536ZM112.998 33.8H114.438V43.656H120.502V45H112.998V33.8ZM122.745 35.288C123.855 34.1787 125.231 33.624 126.873 33.624C128.516 33.624 129.892 34.1787 131.001 35.288C132.111 36.3973 132.665 37.768 132.665 39.4C132.665 41.0427 132.111 42.4187 131.001 43.528C129.903 44.6267 128.527 45.176 126.873 45.176C125.22 45.176 123.844 44.6267 122.745 43.528C121.647 42.4293 121.097 41.0533 121.097 39.4C121.097 37.7573 121.647 36.3867 122.745 35.288ZM123.817 42.536C124.639 43.368 125.657 43.784 126.873 43.784C128.089 43.784 129.108 43.368 129.929 42.536C130.751 41.6827 131.161 40.6373 131.161 39.4C131.161 38.1627 130.751 37.1227 129.929 36.28C129.119 35.4373 128.1 35.016 126.873 35.016C125.647 35.016 124.628 35.4373 123.817 36.28C122.996 37.1227 122.585 38.1627 122.585 39.4C122.585 40.6373 122.996 41.6827 123.817 42.536ZM134.285 39.4C134.285 37.7573 134.845 36.3813 135.965 35.272C137.074 34.1733 138.471 33.624 140.157 33.624C141.266 33.624 142.269 33.8853 143.165 34.408C144.071 34.92 144.781 35.6293 145.293 36.536L143.885 37.064C143.501 36.424 142.978 35.9227 142.317 35.56C141.666 35.1973 140.946 35.016 140.157 35.016C138.919 35.016 137.879 35.4373 137.037 36.28C136.194 37.112 135.773 38.152 135.773 39.4C135.773 40.648 136.178 41.6933 136.989 42.536C137.799 43.368 138.797 43.784 139.981 43.784C140.994 43.784 141.895 43.4693 142.685 42.84C143.474 42.2 143.954 41.384 144.125 40.392H139.677V39.048H145.741C145.762 39.304 145.773 39.464 145.773 39.528C145.741 41.1387 145.175 42.4827 144.077 43.56C142.967 44.6373 141.618 45.176 140.029 45.176C138.397 45.176 137.031 44.6267 135.933 43.528C134.834 42.4293 134.285 41.0533 134.285 39.4ZM149.266 45H147.826V33.8H149.266V45ZM151.764 33.8H159.828V35.144H153.204V38.664H159.012V40.008H153.204V43.656H159.908V45H151.764V33.8ZM169.251 36.12L167.827 36.536C167.731 36.1093 167.454 35.752 166.995 35.464C166.547 35.1653 166.019 35.016 165.411 35.016C164.739 35.016 164.185 35.1813 163.747 35.512C163.31 35.832 163.091 36.2373 163.091 36.728C163.091 37.2613 163.39 37.6773 163.987 37.976C164.457 38.2 165.177 38.4347 166.147 38.68C166.937 38.8827 167.55 39.0907 167.987 39.304C169.011 39.784 169.55 40.6213 169.603 41.816C169.603 42.8187 169.219 43.6293 168.451 44.248C167.705 44.8667 166.734 45.176 165.539 45.176C164.462 45.176 163.545 44.9253 162.787 44.424C162.03 43.9333 161.55 43.2933 161.347 42.504L162.787 42.072C162.873 42.5627 163.171 42.9733 163.683 43.304C164.206 43.624 164.825 43.784 165.539 43.784C166.286 43.784 166.91 43.6133 167.411 43.272C167.913 42.92 168.163 42.472 168.163 41.928C168.163 41.3733 167.897 40.9573 167.363 40.68C166.894 40.4347 166.355 40.2373 165.747 40.088L165.075 39.912L164.451 39.72L163.795 39.496C163.763 39.4853 163.715 39.4693 163.651 39.448C163.598 39.416 163.529 39.384 163.443 39.352C163.358 39.3093 163.283 39.272 163.219 39.24C162.953 39.112 162.638 38.8827 162.275 38.552C161.913 38.1893 161.699 37.6133 161.635 36.824C161.635 35.8747 161.987 35.1067 162.691 34.52C163.406 33.9227 164.307 33.624 165.395 33.624C166.377 33.624 167.214 33.8587 167.907 34.328C168.611 34.7867 169.059 35.384 169.251 36.12Z" fill="black"/>
<rect y="17" width="14" height="28" fill="#F2E310"/>
<rect x="8" y="2" width="27" height="33" fill="#56CCF2"/>
<rect x="19" y="35" width="6" height="16" transform="rotate(-90 19 35)" fill="black"/>
<rect x="8" y="17" width="6" height="18" fill="black"/>
</svg>
