<svg width="167" height="8" viewBox="0 0 167 8" fill="none" xmlns="http://www.w3.org/2000/svg">
<path d="M164.679 1.4802C164.828 1.54362 165.066 1.62162 165.393 1.71352C165.72 1.80577 165.994 1.86579 166.214 1.89394L166.32 1.39508C165.965 1.31742 165.61 1.18991 165.254 1.01288C164.899 0.836199 164.593 0.637818 164.338 0.418743H164.327L163.815 0.524545V6.5966L162.419 6.68172V7.13818H166.107V6.68172L164.679 6.5966V1.4802Z" fill="#FFD129"/>
<path d="M153.417 1.4802C153.567 1.54362 153.804 1.62162 154.131 1.71352C154.459 1.80577 154.732 1.86579 154.952 1.89394L155.059 1.39508C154.703 1.31742 154.348 1.18991 153.993 1.01288C153.637 0.836199 153.332 0.637818 153.076 0.418743H153.065L152.554 0.524545V6.5966L151.157 6.68172V7.13818H154.845V6.68172L153.417 6.5966V1.4802Z" fill="#FFD129"/>
<path d="M118.247 5.98041C117.963 5.4707 117.82 4.75955 117.82 3.84695C117.82 1.90069 118.396 0.927392 119.547 0.927392C120.158 0.927392 120.61 1.17157 120.901 1.65991C121.192 2.14826 121.338 2.82754 121.338 3.69774C121.338 4.5615 121.198 5.28486 120.917 5.86884C120.636 6.45282 120.194 6.7448 119.59 6.7448C118.979 6.7448 118.531 6.48978 118.247 5.98041ZM121.626 6.25646C122.052 5.60534 122.266 4.79516 122.266 3.82559C122.266 3.16022 122.141 2.57149 121.892 2.05771C121.644 1.54495 121.308 1.14681 120.885 0.86364C120.462 0.580468 119.995 0.439051 119.483 0.439051C118.552 0.439051 117.886 0.739861 117.485 1.34114C117.083 1.94309 116.882 2.74614 116.882 3.75098C116.882 4.40923 117.001 5.00372 117.239 5.53446C117.477 6.06519 117.804 6.48097 118.22 6.78177C118.636 7.08292 119.103 7.23315 119.622 7.23315C120.532 7.23315 121.199 6.90759 121.626 6.25646Z" fill="#FFD129"/>
<path d="M113.065 1.4802C113.215 1.54362 113.453 1.62162 113.78 1.71352C114.107 1.80577 114.38 1.86579 114.6 1.89394L114.707 1.39508C114.352 1.31742 113.996 1.18991 113.641 1.01288C113.286 0.836199 112.98 0.637818 112.724 0.418743H112.714L112.202 0.524545V6.5966L110.806 6.68172V7.13818H114.494V6.68172L113.065 6.5966V1.4802Z" fill="#FFD129"/>
<path d="M96.9696 5.98041C96.6856 5.4707 96.5433 4.75955 96.5433 3.84695C96.5433 1.90069 97.1188 0.927392 98.2701 0.927392C98.8814 0.927392 99.3326 1.17157 99.6241 1.65991C99.9152 2.14826 100.061 2.82754 100.061 3.69774C100.061 4.5615 99.9207 5.28486 99.6398 5.86884C99.3592 6.45282 98.9168 6.7448 98.3127 6.7448C97.7018 6.7448 97.254 6.48978 96.9696 5.98041ZM100.349 6.25646C100.775 5.60534 100.988 4.79516 100.988 3.82559C100.988 3.16022 100.864 2.57149 100.615 2.05771C100.367 1.54495 100.031 1.14681 99.6077 0.86364C99.1851 0.580468 98.7176 0.439051 98.2061 0.439051C97.2754 0.439051 96.6093 0.739861 96.2071 1.34114C95.8063 1.94309 95.6047 2.74614 95.6047 3.75098C95.6047 4.40923 95.7243 5.00372 95.962 5.53446C96.2007 6.06519 96.5276 6.48097 96.943 6.78177C97.3588 7.08292 97.826 7.23315 98.3447 7.23315C99.2543 7.23315 99.9224 6.90759 100.349 6.25646Z" fill="#FFD129"/>
<path d="M83.9641 1.4802C84.1133 1.54362 84.3513 1.62162 84.6785 1.71352C85.0055 1.80577 85.2789 1.86579 85.4992 1.89394L85.6055 1.39508C85.2503 1.31742 84.8948 1.18991 84.5399 1.01288C84.1841 0.836199 83.8786 0.637818 83.6229 0.418743H83.6123L83.1008 0.524545V6.5966L81.704 6.68172V7.13818H85.3926V6.68172L83.9641 6.5966V1.4802Z" fill="#FFD129"/>
<path d="M64.4341 5.98041C64.1501 5.4707 64.0078 4.75955 64.0078 3.84695C64.0078 1.90069 64.5836 0.927392 65.7346 0.927392C66.3462 0.927392 66.7971 1.17157 67.0886 1.65991C67.3801 2.14826 67.5255 2.82754 67.5255 3.69774C67.5255 4.5615 67.3852 5.28486 67.1046 5.86884C66.8237 6.45282 66.3813 6.7448 65.7775 6.7448C65.1663 6.7448 64.7185 6.48978 64.4341 5.98041ZM67.8133 6.25646C68.2396 5.60534 68.4531 4.79516 68.4531 3.82559C68.4531 3.16022 68.3285 2.57149 68.0799 2.05771C67.8313 1.54495 67.4952 1.14681 67.0723 0.86364C66.6497 0.580468 66.1824 0.439051 65.671 0.439051C64.7399 0.439051 64.0738 0.739861 63.672 1.34114C63.2705 1.94309 63.0696 2.74614 63.0696 3.75098C63.0696 4.40923 63.1888 5.00372 63.4268 5.53446C63.6648 6.06519 63.9921 6.48097 64.4076 6.78177C64.8234 7.08292 65.2909 7.23315 65.8092 7.23315C66.7188 7.23315 67.3869 6.90759 67.8133 6.25646Z" fill="#FFD129"/>
<path d="M56.6102 5.98041C56.3259 5.4707 56.1839 4.75955 56.1839 3.84695C56.1839 1.90069 56.7594 0.927392 57.9104 0.927392C58.5217 0.927392 58.9729 1.17157 59.2647 1.65991C59.5559 2.14826 59.7013 2.82754 59.7013 3.69774C59.7013 4.5615 59.5613 5.28486 59.2804 5.86884C58.9994 6.45282 58.5574 6.7448 57.9533 6.7448C57.3421 6.7448 56.8946 6.48978 56.6102 5.98041ZM59.9894 6.25646C60.4157 5.60534 60.6289 4.79516 60.6289 3.82559C60.6289 3.16022 60.5043 2.57149 60.256 2.05771C60.0071 1.54495 59.6713 1.14681 59.2484 0.86364C58.8258 0.580468 58.3582 0.439051 57.8467 0.439051C56.9157 0.439051 56.2496 0.739861 55.8478 1.34114C55.4467 1.94309 55.2457 2.74614 55.2457 3.75098C55.2457 4.40923 55.3649 5.00372 55.6026 5.53446C55.841 6.06519 56.1679 6.48097 56.5833 6.78177C56.9991 7.08292 57.4667 7.23315 57.985 7.23315C58.8949 7.23315 59.5627 6.90759 59.9894 6.25646Z" fill="#FFD129"/>
<path d="M40.9661 5.98041C40.6817 5.4707 40.5397 4.75955 40.5397 3.84695C40.5397 1.90069 41.1149 0.927392 42.2662 0.927392C42.8775 0.927392 43.3287 1.17157 43.6202 1.65991C43.9113 2.14826 44.0571 2.82754 44.0571 3.69774C44.0571 4.5615 43.9171 5.28486 43.6362 5.86884C43.3552 6.45282 42.9126 6.7448 42.3088 6.7448C41.6979 6.7448 41.2501 6.48978 40.9661 5.98041ZM44.3452 6.25646C44.7712 5.60534 44.9844 4.79516 44.9844 3.82559C44.9844 3.16022 44.8601 2.57149 44.6115 2.05771C44.3629 1.54495 44.0268 1.14681 43.6038 0.86364C43.1809 0.580468 42.7137 0.439051 42.2022 0.439051C41.2715 0.439051 40.6054 0.739861 40.2033 1.34114C39.8025 1.94309 39.6012 2.74614 39.6012 3.75098C39.6012 4.40923 39.7207 5.00372 39.9581 5.53446C40.1965 6.06519 40.5237 6.48097 40.9395 6.78177C41.3549 7.08292 41.8222 7.23315 42.3408 7.23315C43.2507 7.23315 43.9185 6.90759 44.3452 6.25646Z" fill="#FFD129"/>
<path d="M8.81177 1.4802C8.96059 1.54362 9.19861 1.62162 9.52586 1.71352C9.85277 1.80577 10.1262 1.86579 10.3465 1.89394L10.4531 1.39508C10.098 1.31742 9.74244 1.18991 9.38727 1.01288C9.03175 0.836199 8.7263 0.637818 8.47056 0.418743H8.45965L7.94817 0.524545V6.5966L6.55166 6.68172V7.13818H10.24V6.68172L8.81177 6.5966V1.4802Z" fill="#FFD129"/>
<path d="M3.18251 1.4802C3.33167 1.54362 3.5697 1.62162 3.89695 1.71352C4.22386 1.80577 4.4973 1.86579 4.71729 1.89394L4.82422 1.39508C4.46904 1.31742 4.11353 1.18991 3.75836 1.01288C3.40284 0.836199 3.09704 0.637818 2.8413 0.418743H2.83074L2.31926 0.524545V6.5966L0.922742 6.68172V7.13818H4.6107V6.68172L3.18251 6.5966V1.4802Z" fill="#FFD129"/>
</svg>
