<svg width="664" height="294" viewBox="0 0 664 294" fill="none" xmlns="http://www.w3.org/2000/svg">
<path d="M3.53838 116.373C3.21787 116.484 2.70633 116.621 2.00423 116.782C1.30125 116.943 0.713491 117.049 0.240727 117.099L0.0120544 116.224C0.774958 116.088 1.5383 115.864 2.30208 115.554C3.06542 115.244 3.72189 114.896 4.27154 114.512H4.29471L5.39333 114.698V125.343L8.39336 125.492V126.292H0.470279V125.492L3.53838 125.343V116.373Z" fill="#FFD129"/>
<path d="M45.4928 124.264C46.1041 123.37 46.4092 122.124 46.4092 120.523C46.4092 117.111 45.1727 115.405 42.6994 115.405C41.3862 115.405 40.4171 115.833 39.791 116.69C39.1653 117.545 38.8525 118.736 38.8525 120.262C38.8525 121.776 39.1532 123.045 39.7568 124.068C40.3598 125.092 41.3104 125.604 42.608 125.604C43.9203 125.604 44.8819 125.157 45.4928 124.264ZM38.2341 124.747C37.3177 123.607 36.8599 122.186 36.8599 120.486C36.8599 119.32 37.1269 118.287 37.6611 117.387C38.1953 116.488 38.9166 115.79 39.8256 115.294C40.7336 114.797 41.7378 114.549 42.8366 114.549C44.8367 114.549 46.2678 115.076 47.1307 116.131C47.9932 117.186 48.4248 118.594 48.4248 120.356C48.4248 121.509 48.1688 122.552 47.6577 123.482C47.1461 124.413 46.4434 125.141 45.5507 125.669C44.6574 126.196 43.6533 126.46 42.5397 126.46C40.5849 126.46 39.1503 125.889 38.2341 124.747Z" fill="#FFD129"/>
<path d="M62.3008 124.264C62.911 123.37 63.2172 122.124 63.2172 120.523C63.2172 117.111 61.9804 115.405 59.5074 115.405C58.1939 115.405 57.225 115.833 56.5985 116.69C55.973 117.545 55.6595 118.736 55.6595 120.262C55.6595 121.776 55.9606 123.045 56.5641 124.068C57.1675 125.092 58.1184 125.604 59.4161 125.604C60.7279 125.604 61.69 125.157 62.3008 124.264ZM55.0414 124.747C54.1249 123.607 53.6676 122.186 53.6676 120.486C53.6676 119.32 53.9346 118.287 54.4689 117.387C55.003 116.488 55.7243 115.79 56.6334 115.294C57.5414 114.797 58.5459 114.549 59.6439 114.549C61.6449 114.549 63.0751 115.076 63.9385 116.131C64.8003 117.186 65.2328 118.594 65.2328 120.356C65.2328 121.509 64.9768 122.552 64.4653 123.482C63.9532 124.413 63.251 125.141 62.3577 125.669C61.465 126.196 60.4611 126.46 59.3467 126.46C57.392 126.46 55.9572 125.889 55.0414 124.747Z" fill="#FFD129"/>
<path d="M95.9167 124.264C96.5275 123.37 96.8332 122.124 96.8332 120.523C96.8332 117.111 95.5964 115.405 93.1234 115.405C91.8099 115.405 90.841 115.833 90.2144 116.69C89.5884 117.545 89.276 118.736 89.276 120.262C89.276 121.776 89.5772 123.045 90.18 124.068C90.7835 125.092 91.7338 125.604 93.032 125.604C94.3444 125.604 95.306 125.157 95.9167 124.264ZM88.6573 124.747C87.7414 123.607 87.2829 122.186 87.2829 120.486C87.2829 119.32 87.5508 118.287 88.0843 117.387C88.619 116.488 89.3409 115.79 90.2494 115.294C91.158 114.797 92.1618 114.549 93.2604 114.549C95.2603 114.549 96.6916 115.076 97.5545 116.131C98.4168 117.186 98.8482 118.594 98.8482 120.356C98.8482 121.509 98.5922 122.552 98.0812 123.482C97.5697 124.413 96.867 125.141 95.9737 125.669C95.0804 126.196 94.0765 126.46 92.9627 126.46C91.0085 126.46 89.5738 125.889 88.6573 124.747Z" fill="#FFD129"/>
<path d="M107.05 116.373C106.73 116.484 106.218 116.621 105.516 116.782C104.814 116.943 104.226 117.049 103.753 117.099L103.524 116.224C104.287 116.088 105.051 115.864 105.814 115.554C106.578 115.244 107.234 114.896 107.783 114.512H107.807L108.905 114.698V125.343L111.906 125.492V126.292H103.982V125.492L107.05 125.343V116.373Z" fill="#FFD129"/>
<path d="M119.14 116.373C118.82 116.484 118.308 116.621 117.606 116.782C116.903 116.943 116.316 117.049 115.843 117.099L115.614 116.224C116.377 116.088 117.14 115.864 117.904 115.554C118.667 115.244 119.323 114.896 119.873 114.512H119.896L120.995 114.698V125.343L123.995 125.492V126.292H116.072V125.492L119.14 125.343V116.373Z" fill="#FFD129"/>
<path d="M223.612 124.264C224.223 123.37 224.528 122.124 224.528 120.523C224.528 117.111 223.292 115.405 220.819 115.405C219.505 115.405 218.536 115.833 217.91 116.69C217.284 117.545 216.971 118.736 216.971 120.262C216.971 121.776 217.272 123.045 217.875 124.068C218.478 125.092 219.429 125.604 220.727 125.604C222.04 125.604 223.001 125.157 223.612 124.264ZM216.353 124.747C215.437 123.607 214.978 122.186 214.978 120.486C214.978 119.32 215.246 118.287 215.78 117.387C216.314 116.488 217.036 115.79 217.945 115.294C218.852 114.797 219.857 114.549 220.956 114.549C222.956 114.549 224.386 115.076 225.25 116.131C226.112 117.186 226.544 118.594 226.544 120.356C226.544 121.509 226.287 122.552 225.777 123.482C225.264 124.413 224.563 125.141 223.67 125.669C222.776 126.196 221.772 126.46 220.659 126.46C218.704 126.46 217.269 125.889 216.353 124.747Z" fill="#FFD129"/>
<path d="M234.742 116.373C234.421 116.484 233.91 116.621 233.207 116.782C232.505 116.943 231.917 117.049 231.444 117.099L231.215 116.224C231.978 116.088 232.741 115.864 233.506 115.554C234.269 115.244 234.925 114.896 235.475 114.512H235.498L236.597 114.698V125.343L239.597 125.492V126.292H231.674V125.492L234.742 125.343V116.373Z" fill="#FFD129"/>
<path d="M252.505 124.264C253.116 123.37 253.421 122.124 253.421 120.523C253.421 117.111 252.185 115.405 249.712 115.405C248.398 115.405 247.429 115.833 246.803 116.69C246.177 117.545 245.864 118.736 245.864 120.262C245.864 121.776 246.165 123.045 246.768 124.068C247.372 125.092 248.322 125.604 249.62 125.604C250.933 125.604 251.894 125.157 252.505 124.264ZM245.246 124.747C244.33 123.607 243.872 122.186 243.872 120.486C243.872 119.32 244.139 118.287 244.673 117.387C245.207 116.488 245.929 115.79 246.838 115.294C247.746 114.797 248.75 114.549 249.849 114.549C251.849 114.549 253.28 115.076 254.143 116.131C255.005 117.186 255.437 118.594 255.437 120.356C255.437 121.509 255.18 122.552 254.67 123.482C254.158 124.413 253.455 125.141 252.562 125.669C251.669 126.196 250.665 126.46 249.551 126.46C247.597 126.46 246.162 125.889 245.246 124.747Z" fill="#FFD129"/>
<path d="M263.639 116.373C263.319 116.484 262.807 116.621 262.105 116.782C261.402 116.943 260.815 117.049 260.342 117.099L260.113 116.224C260.876 116.088 261.639 115.864 262.403 115.554C263.167 115.244 263.822 114.896 264.372 114.512H264.395L265.494 114.698V125.343L268.495 125.492V126.292H260.571V125.492L263.639 125.343V116.373Z" fill="#FFD129"/>
<path d="M485.172 42.76C484.852 42.8718 484.34 43.0084 483.638 43.1697C482.935 43.331 482.347 43.4364 481.875 43.4859L481.646 42.611C482.409 42.4749 483.172 42.2512 483.936 41.9409C484.7 41.6311 485.355 41.2833 485.905 40.8992H485.928L487.027 41.0848V51.7301L490.028 51.879V52.6797H482.104V51.879L485.172 51.7301V42.76Z" fill="#FFD129"/>
<path d="M509.356 42.76C509.035 42.8718 508.524 43.0084 507.821 43.1697C507.118 43.331 506.531 43.4364 506.058 43.4859L505.829 42.611C506.592 42.4749 507.355 42.2512 508.119 41.9409C508.882 41.6311 509.538 41.2833 510.089 40.8992H510.111L511.211 41.0848V51.7301L514.21 51.879V52.6797H506.287V51.879L509.356 51.7301V42.76Z" fill="#FFD129"/>
<path d="M584.921 50.6495C585.536 49.7562 585.84 48.5096 585.84 46.9092C585.84 43.4975 584.605 41.7908 582.129 41.7908C580.815 41.7908 579.845 42.2188 579.219 43.0754C578.593 43.9315 578.283 45.1222 578.283 46.6484C578.283 48.1622 578.582 49.4304 579.186 50.4542C579.789 51.4781 580.742 51.99 582.039 51.99C583.353 51.99 584.312 51.5432 584.921 50.6495ZM577.663 51.1335C576.749 49.9923 576.292 48.5715 576.292 46.8716C576.292 45.7057 576.557 44.6731 577.093 43.773C577.623 42.8737 578.345 42.1757 579.259 41.6798C580.167 41.183 581.171 40.9351 582.265 40.9351C584.267 40.9351 585.699 41.4626 586.562 42.5167C587.425 43.5717 587.854 44.9801 587.854 46.7414C587.854 47.895 587.6 48.9377 587.087 49.868C586.574 50.7984 585.874 51.5276 584.983 52.0546C584.086 52.5826 583.083 52.8457 581.972 52.8457C580.015 52.8457 578.582 52.2751 577.663 51.1335Z" fill="#FFD129"/>
<path d="M596.05 42.76C595.729 42.8718 595.216 43.0084 594.516 43.1697C593.811 43.331 593.225 43.4364 592.751 43.4859L592.525 42.611C593.287 42.4749 594.048 42.2512 594.815 41.9409C595.576 41.6311 596.231 41.2833 596.783 40.8992H596.806L597.906 41.0848V51.7301L600.906 51.879V52.6797H592.982V51.879L596.05 51.7301V42.76Z" fill="#FFD129"/>
<path d="M630.632 50.6495C631.247 49.7562 631.551 48.5096 631.551 46.9092C631.551 43.4975 630.31 41.7908 627.84 41.7908C626.526 41.7908 625.556 42.2188 624.93 43.0754C624.304 43.9315 623.994 45.1222 623.994 46.6484C623.994 48.1622 624.293 49.4304 624.896 50.4542C625.5 51.4781 626.453 51.99 627.75 51.99C629.058 51.99 630.023 51.5432 630.632 50.6495ZM623.373 51.1335C622.46 49.9923 621.997 48.5715 621.997 46.8716C621.997 45.7057 622.268 44.6731 622.804 43.773C623.334 42.8737 624.056 42.1757 624.964 41.6798C625.872 41.183 626.876 40.9351 627.976 40.9351C629.978 40.9351 631.41 41.4626 632.273 42.5167C633.136 43.5717 633.564 44.9801 633.564 46.7414C633.564 47.895 633.311 48.9377 632.797 49.868C632.284 50.7984 631.585 51.5276 630.688 52.0546C629.797 52.5826 628.793 52.8457 627.682 52.8457C625.725 52.8457 624.293 52.2751 623.373 51.1335Z" fill="#FFD129"/>
<path d="M658.563 42.76C658.242 42.8718 657.734 43.0084 657.029 43.1697C656.33 43.331 655.737 43.4364 655.264 43.4859L655.038 42.611C655.8 42.4749 656.566 42.2512 657.328 41.9409C658.089 41.6311 658.749 41.2833 659.296 40.8992H659.319L660.418 41.0848V51.7301L663.419 51.879V52.6797H655.495V51.879L658.563 51.7301V42.76Z" fill="#FFD129"/>
<path d="M10.1676 2.63935C9.84724 2.75071 9.33527 2.88774 8.63341 3.0486C7.9311 3.21039 7.34311 3.31534 6.86988 3.36483L6.64125 2.49039C7.40391 2.35427 8.16814 2.13107 8.93147 1.82033C9.69435 1.51052 10.3511 1.16311 10.9005 0.77859H10.9239L12.0225 0.964667V11.6094L15.0232 11.7584V12.5586H7.09925V11.7584L10.1676 11.6094V2.63935Z" fill="#FFD129"/>
<path d="M85.7411 10.5294C86.3518 9.6361 86.6575 8.3895 86.6575 6.78907C86.6575 3.37739 85.4213 1.67107 82.9477 1.67107C81.6348 1.67107 80.6653 2.09868 80.0393 2.95527C79.4139 3.81094 79.1009 5.0021 79.1009 6.52782C79.1009 8.04209 79.4015 9.31023 80.0049 10.3341C80.6084 11.3575 81.5587 11.8694 82.8564 11.8694C84.1687 11.8694 85.1303 11.4231 85.7411 10.5294ZM78.4822 11.0133C77.5658 9.87168 77.1084 8.45136 77.1084 6.75147C77.1084 5.58553 77.3752 4.55295 77.9092 3.65283C78.4439 2.75362 79.1652 2.05606 80.0743 1.55925C80.9823 1.0629 81.9862 0.81496 83.0848 0.81496C85.0852 0.81496 86.516 1.34201 87.3794 2.39659C88.2411 3.45162 88.6731 4.85957 88.6731 6.62132C88.6731 7.77489 88.4171 8.81754 87.9061 9.74792C87.3946 10.6783 86.6919 11.4075 85.7992 11.9345C84.9058 12.462 83.902 12.7256 82.7876 12.7256C80.8334 12.7256 79.3981 12.1545 78.4822 11.0133Z" fill="#FFD129"/>
<path d="M96.8607 2.63935C96.5398 2.75071 96.0283 2.88774 95.3256 3.0486C94.6235 3.21039 94.0358 3.31534 93.5626 3.36483L93.3337 2.49039C94.0967 2.35427 94.8603 2.13107 95.6234 1.82033C96.3876 1.51052 97.0435 1.16311 97.5928 0.77859H97.6165L98.7151 0.964667V11.6094L101.715 11.7584V12.5586H93.7916V11.7584L96.8607 11.6094V2.63935Z" fill="#FFD129"/>
<path d="M159.381 2.63935C159.061 2.75071 158.549 2.88774 157.846 3.0486C157.144 3.21039 156.556 3.31534 156.084 3.36483L155.854 2.49039C156.617 2.35427 157.381 2.13107 158.145 1.82033C158.908 1.51052 159.564 1.16311 160.114 0.77859H160.137L161.236 0.964667V11.6094L164.236 11.7584V12.5586H156.313V11.7584L159.381 11.6094V2.63935Z" fill="#FFD129"/>
<path d="M131.442 10.5294C132.053 9.6361 132.359 8.3895 132.359 6.78907C132.359 3.37739 131.123 1.67107 128.649 1.67107C127.336 1.67107 126.367 2.09868 125.741 2.95527C125.115 3.81094 124.802 5.0021 124.802 6.52782C124.802 8.04209 125.103 9.31023 125.706 10.3341C126.31 11.3575 127.26 11.8694 128.558 11.8694C129.87 11.8694 130.832 11.4231 131.442 10.5294ZM124.184 11.0133C123.267 9.87168 122.81 8.45136 122.81 6.75147C122.81 5.58553 123.076 4.55295 123.611 3.65283C124.145 2.75362 124.866 2.05606 125.775 1.55925C126.684 1.0629 127.687 0.81496 128.786 0.81496C130.786 0.81496 132.217 1.34201 133.081 2.39659C133.942 3.45162 134.374 4.85957 134.374 6.62132C134.374 7.77489 134.118 8.81754 133.607 9.74792C133.095 10.6783 132.393 11.4075 131.499 11.9345C130.607 12.462 129.603 12.7256 128.489 12.7256C126.534 12.7256 125.099 12.1545 124.184 11.0133Z" fill="#FFD129"/>
<path d="M320.832 185.374C320.585 185.46 320.191 185.565 319.649 185.689C319.108 185.814 318.654 185.895 318.29 185.933L318.113 185.259C318.702 185.154 319.29 184.982 319.879 184.742C320.467 184.503 320.973 184.236 321.397 183.939H321.415L322.262 184.082V192.289L324.575 192.403V193.021H318.466V192.403L320.832 192.289V185.374Z" fill="#FFD129"/>
<path d="M339.48 185.374C339.234 185.46 338.84 185.565 338.298 185.689C337.756 185.814 337.303 185.895 336.939 185.933L336.762 185.259C337.35 185.154 337.939 184.982 338.528 184.742C339.116 184.503 339.622 184.236 340.046 183.939H340.064L340.911 184.082V192.289L343.223 192.403V193.021H337.116V192.403L339.48 192.289V185.374Z" fill="#FFD129"/>
<path d="M397.73 191.458C398.201 190.77 398.436 189.808 398.436 188.575C398.436 185.945 397.483 184.629 395.576 184.629C394.564 184.629 393.817 184.959 393.334 185.619C392.852 186.279 392.611 187.197 392.611 188.374C392.611 189.541 392.842 190.518 393.308 191.308C393.773 192.097 394.505 192.491 395.506 192.491C396.518 192.491 397.259 192.147 397.73 191.458ZM392.133 191.831C391.427 190.951 391.074 189.856 391.074 188.546C391.074 187.647 391.281 186.851 391.692 186.157C392.104 185.464 392.661 184.926 393.361 184.543C394.061 184.161 394.835 183.97 395.682 183.97C397.224 183.97 398.327 184.376 398.992 185.189C399.657 186.002 399.99 187.087 399.99 188.445C399.99 189.335 399.793 190.138 399.398 190.856C399.004 191.573 398.462 192.135 397.774 192.541C397.086 192.948 396.312 193.151 395.453 193.151C393.946 193.151 392.84 192.711 392.133 191.831Z" fill="#FFD129"/>
<path d="M406.312 185.374C406.066 185.46 405.671 185.565 405.129 185.689C404.588 185.814 404.135 185.895 403.77 185.933L403.594 185.259C404.182 185.154 404.77 184.982 405.359 184.742C405.948 184.503 406.454 184.236 406.877 183.939H406.895L407.742 184.082V192.289L410.055 192.403V193.021H403.947V192.403L406.312 192.289V185.374Z" fill="#FFD129"/>
<path d="M432.972 191.458C433.442 190.77 433.678 189.808 433.678 188.575C433.678 185.945 432.724 184.629 430.818 184.629C429.805 184.629 429.058 184.959 428.575 185.619C428.093 186.279 427.851 187.197 427.851 188.374C427.851 189.541 428.084 190.518 428.549 191.308C429.014 192.097 429.747 192.491 430.747 192.491C431.759 192.491 432.501 192.147 432.972 191.458ZM427.375 191.831C426.669 190.951 426.316 189.856 426.316 188.546C426.316 187.647 426.522 186.851 426.934 186.157C427.345 185.464 427.902 184.926 428.602 184.543C429.302 184.161 430.076 183.97 430.923 183.97C432.465 183.97 433.568 184.376 434.234 185.189C434.899 186.002 435.231 187.087 435.231 188.445C435.231 189.335 435.034 190.138 434.639 190.856C434.246 191.573 433.704 192.135 433.016 192.541C432.327 192.948 431.553 193.151 430.694 193.151C429.188 193.151 428.081 192.711 427.375 191.831Z" fill="#FFD129"/>
<path d="M454.503 185.374C454.256 185.46 453.862 185.565 453.32 185.689C452.779 185.814 452.326 185.895 451.961 185.933L451.785 185.259C452.373 185.154 452.962 184.982 453.55 184.742C454.139 184.503 454.644 184.236 455.069 183.939H455.086L455.933 184.082V192.289L458.247 192.403V193.021H452.138V192.403L454.503 192.289V185.374Z" fill="#FFD129"/>
<path d="M486.845 191.458C487.316 190.77 487.552 189.808 487.552 188.575C487.552 185.945 486.598 184.629 484.692 184.629C483.68 184.629 482.933 184.959 482.45 185.619C481.967 186.279 481.726 187.197 481.726 188.374C481.726 189.541 481.958 190.518 482.423 191.308C482.888 192.097 483.621 192.491 484.621 192.491C485.634 192.491 486.375 192.147 486.845 191.458ZM481.25 191.831C480.543 190.951 480.19 189.856 480.19 188.546C480.19 187.647 480.396 186.851 480.808 186.157C481.219 185.464 481.776 184.926 482.477 184.543C483.177 184.161 483.951 183.97 484.798 183.97C486.34 183.97 487.443 184.376 488.108 185.189C488.773 186.002 489.106 187.087 489.106 188.445C489.106 189.335 488.908 190.138 488.514 190.856C488.12 191.573 487.579 192.135 486.889 192.541C486.201 192.948 485.427 193.151 484.569 193.151C483.062 193.151 481.956 192.711 481.25 191.831Z" fill="#FFD129"/>
<path d="M499.81 191.458C500.282 190.77 500.517 189.808 500.517 188.575C500.517 185.945 499.564 184.629 497.657 184.629C496.645 184.629 495.898 184.959 495.415 185.619C494.933 186.279 494.691 187.197 494.691 188.374C494.691 189.541 494.924 190.518 495.388 191.308C495.854 192.097 496.587 192.491 497.587 192.491C498.598 192.491 499.339 192.147 499.81 191.458ZM494.215 191.831C493.509 190.951 493.156 189.856 493.156 188.546C493.156 187.647 493.361 186.851 493.773 186.157C494.185 185.464 494.741 184.926 495.442 184.543C496.142 184.161 496.916 183.97 497.763 183.97C499.305 183.97 500.408 184.376 501.073 185.189C501.738 186.002 502.071 187.087 502.071 188.445C502.071 189.335 501.873 190.138 501.479 190.856C501.085 191.573 500.543 192.135 499.855 192.541C499.166 192.948 498.392 193.151 497.534 193.151C496.027 193.151 494.921 192.711 494.215 191.831Z" fill="#FFD129"/>
<path d="M525.726 191.458C526.197 190.77 526.432 189.808 526.432 188.575C526.432 185.945 525.478 184.629 523.572 184.629C522.56 184.629 521.813 184.959 521.33 185.619C520.847 186.279 520.606 187.197 520.606 188.374C520.606 189.541 520.839 190.518 521.303 191.308C521.769 192.097 522.501 192.491 523.501 192.491C524.513 192.491 525.254 192.147 525.726 191.458ZM520.13 191.831C519.424 190.951 519.071 189.856 519.071 188.546C519.071 187.647 519.276 186.851 519.688 186.157C520.1 185.464 520.656 184.926 521.357 184.543C522.057 184.161 522.831 183.97 523.678 183.97C525.219 183.97 526.323 184.376 526.988 185.189C527.653 186.002 527.986 187.087 527.986 188.445C527.986 189.335 527.788 190.138 527.394 190.856C526.999 191.573 526.458 192.135 525.77 192.541C525.081 192.948 524.307 193.151 523.449 193.151C521.942 193.151 520.836 192.711 520.13 191.831Z" fill="#FFD129"/>
<path d="M534.305 185.374C534.058 185.46 533.663 185.565 533.122 185.689C532.581 185.814 532.127 185.895 531.763 185.933L531.586 185.259C532.175 185.154 532.763 184.982 533.352 184.742C533.94 184.503 534.446 184.236 534.87 183.939H534.887L535.735 184.082V192.289L538.048 192.403V193.021H531.939V192.403L534.305 192.289V185.374Z" fill="#FFD129"/>
<path d="M543.631 185.374C543.383 185.46 542.989 185.565 542.448 185.689C541.906 185.814 541.453 185.895 541.089 185.933L540.913 185.259C541.5 185.154 542.089 184.982 542.677 184.742C543.266 184.503 543.772 184.236 544.196 183.939H544.213L545.061 184.082V192.289L547.374 192.403V193.021H541.265V192.403L543.631 192.289V185.374Z" fill="#FFD129"/>
<path d="M624.16 191.458C624.633 190.77 624.865 189.808 624.865 188.575C624.865 185.945 623.911 184.629 622.005 184.629C620.996 184.629 620.246 184.959 619.766 185.619C619.281 186.279 619.039 187.197 619.039 188.374C619.039 189.541 619.276 190.518 619.738 191.308C620.201 192.097 620.934 192.491 621.938 192.491C622.947 192.491 623.692 192.147 624.16 191.458ZM618.565 191.831C617.86 190.951 617.505 189.856 617.505 188.546C617.505 187.647 617.713 186.851 618.125 186.157C618.537 185.464 619.09 184.926 619.789 184.543C620.494 184.161 621.266 183.97 622.112 183.97C623.652 183.97 624.757 184.376 625.423 185.189C626.088 186.002 626.421 187.087 626.421 188.445C626.421 189.335 626.224 190.138 625.829 190.856C625.434 191.573 624.893 192.135 624.205 192.541C623.517 192.948 622.744 193.151 621.881 193.151C620.375 193.151 619.27 192.711 618.565 191.831Z" fill="#FFD129"/>
<path d="M632.735 185.374C632.493 185.46 632.098 185.565 631.556 185.689C631.015 185.814 630.558 185.895 630.197 185.933L630.017 185.259C630.609 185.154 631.195 184.982 631.782 184.742C632.374 184.503 632.876 184.236 633.305 183.939H633.322L634.168 184.082V192.289L636.48 192.403V193.021H630.372V192.403L632.735 192.289V185.374Z" fill="#FFD129"/>
<path d="M646.44 191.458C646.913 190.77 647.15 189.808 647.15 188.575C647.15 185.945 646.197 184.629 644.291 184.629C643.276 184.629 642.531 184.959 642.046 185.619C641.567 186.279 641.324 187.197 641.324 188.374C641.324 189.541 641.556 190.518 642.018 191.308C642.486 192.097 643.219 192.491 644.218 192.491C645.227 192.491 645.972 192.147 646.44 191.458ZM640.845 191.831C640.14 190.951 639.785 189.856 639.785 188.546C639.785 187.647 639.993 186.851 640.405 186.157C640.817 185.464 641.375 184.926 642.075 184.543C642.774 184.161 643.546 183.97 644.392 183.97C645.938 183.97 647.037 184.376 647.703 185.189C648.368 186.002 648.701 187.087 648.701 188.445C648.701 189.335 648.504 190.138 648.109 190.856C647.714 191.573 647.173 192.135 646.485 192.541C645.797 192.948 645.024 193.151 644.167 193.151C642.661 193.151 641.55 192.711 640.845 191.831Z" fill="#FFD129"/>
<path d="M655.007 185.307C654.759 185.393 654.364 185.499 653.823 185.623C653.281 185.747 652.83 185.828 652.464 185.867L652.289 185.193C652.875 185.088 653.462 184.915 654.054 184.676C654.641 184.437 655.148 184.169 655.571 183.873H655.588L656.434 184.016V192.223L658.746 192.337V192.954H652.639V192.337L655.007 192.223V185.307Z" fill="#FFD129"/>
<path d="M48.7767 290.875C49.4935 289.826 49.8522 288.364 49.8522 286.485C49.8522 282.482 48.4011 280.479 45.4989 280.479C43.9576 280.479 42.8206 280.982 42.0852 281.987C41.3515 282.991 40.9838 284.389 40.9838 286.179C40.9838 287.956 41.3374 289.444 42.0452 290.646C42.7535 291.847 43.8685 292.448 45.3912 292.448C46.9314 292.448 48.0599 291.923 48.7767 290.875ZM40.2585 291.442C39.183 290.103 38.6456 288.436 38.6456 286.442C38.6456 285.073 38.9597 283.861 39.5868 282.805C40.2128 281.75 41.0599 280.931 42.1264 280.349C43.1917 279.766 44.3704 279.475 45.6596 279.475C48.0063 279.475 49.6858 280.094 50.6993 281.331C51.7105 282.569 52.2175 284.221 52.2175 286.289C52.2175 287.643 51.9169 288.866 51.3168 289.958C50.7168 291.05 49.8923 291.905 48.8444 292.524C47.796 293.143 46.6178 293.452 45.3111 293.452C43.0175 293.452 41.3334 292.782 40.2585 291.442Z" fill="#FFD129"/>
<path d="M68.5003 290.875C69.2165 289.826 69.5752 288.364 69.5752 286.485C69.5752 282.482 68.1241 280.479 65.2219 280.479C63.6811 280.479 62.5442 280.982 61.8088 281.987C61.0745 282.991 60.7074 284.389 60.7074 286.179C60.7074 287.956 61.0604 289.444 61.7682 290.646C62.4765 291.847 63.592 292.448 65.1142 292.448C66.6544 292.448 67.7829 291.923 68.5003 290.875ZM59.9815 291.442C58.9066 290.103 58.3691 288.436 58.3691 286.442C58.3691 285.073 58.6827 283.861 59.3093 282.805C59.9358 281.75 60.7829 280.931 61.8494 280.349C62.9147 279.766 64.0934 279.475 65.3832 279.475C67.7299 279.475 69.4088 280.094 70.4217 281.331C71.4335 282.569 71.9399 284.221 71.9399 286.289C71.9399 287.643 71.6399 288.866 71.0404 289.958C70.4392 291.05 69.6152 291.905 68.5674 292.524C67.5189 293.143 66.3408 293.452 65.0336 293.452C62.7405 293.452 61.057 292.782 59.9815 291.442Z" fill="#FFD129"/>
<path d="M107.951 290.875C108.669 289.826 109.026 288.364 109.026 286.485C109.026 282.482 107.576 280.479 104.674 280.479C103.132 280.479 101.995 280.982 101.26 281.987C100.526 282.991 100.159 284.389 100.159 286.179C100.159 287.956 100.512 289.444 101.22 290.646C101.928 291.847 103.043 292.448 104.566 292.448C106.107 292.448 107.235 291.923 107.951 290.875ZM99.4332 291.442C98.3577 290.103 97.8203 288.436 97.8203 286.442C97.8203 285.073 98.1344 283.861 98.761 282.805C99.3881 281.75 100.235 280.931 101.301 280.349C102.367 279.766 103.545 279.475 104.834 279.475C107.182 279.475 108.861 280.094 109.873 281.331C110.885 282.569 111.392 284.221 111.392 286.289C111.392 287.643 111.092 288.866 110.492 289.958C109.891 291.05 109.067 291.905 108.018 292.524C106.971 293.143 105.793 293.452 104.486 293.452C102.192 293.452 100.509 292.782 99.4332 291.442Z" fill="#FFD129"/>
<path d="M121.014 281.617C120.638 281.748 120.037 281.908 119.213 282.097C118.389 282.286 117.698 282.41 117.143 282.468L116.875 281.442C117.77 281.282 118.666 281.02 119.562 280.656C120.458 280.292 121.228 279.884 121.873 279.433H121.901L123.19 279.651V292.142L126.711 292.318V293.257H117.412V292.318L121.014 292.142V281.617Z" fill="#FFD129"/>
<path d="M135.202 281.617C134.827 281.748 134.225 281.908 133.401 282.097C132.577 282.286 131.887 282.41 131.332 282.468L131.064 281.442C131.959 281.282 132.855 281.02 133.75 280.656C134.647 280.292 135.417 279.884 136.062 279.433H136.089L137.378 279.651V292.142L140.899 292.318V293.257H131.602V292.318L135.202 292.142V281.617Z" fill="#FFD129"/>
<path d="M257.791 290.875C258.508 289.826 258.869 288.364 258.869 286.485C258.869 282.482 257.419 280.479 254.515 280.479C252.975 280.479 251.836 280.982 251.103 281.987C250.364 282.991 249.997 284.389 249.997 286.179C249.997 287.956 250.353 289.444 251.063 290.646C251.768 291.847 252.885 292.448 254.408 292.448C255.947 292.448 257.075 291.923 257.791 290.875ZM249.276 291.442C248.198 290.103 247.663 288.436 247.663 286.442C247.663 285.073 247.973 283.861 248.604 282.805C249.23 281.75 250.076 280.931 251.142 280.349C252.208 279.766 253.387 279.475 254.673 279.475C257.025 279.475 258.699 280.094 259.715 281.331C260.724 282.569 261.232 284.221 261.232 286.289C261.232 287.643 260.933 288.866 260.335 289.958C259.732 291.05 258.908 291.905 257.859 292.524C256.81 293.143 255.631 293.452 254.329 293.452C252.033 293.452 250.347 292.782 249.276 291.442Z" fill="#FFD129"/>
<path d="M270.85 281.617C270.472 281.748 269.874 281.908 269.05 282.097C268.227 282.286 267.533 282.41 266.981 282.468L266.71 281.442C267.607 281.282 268.503 281.02 269.4 280.656C270.297 280.292 271.064 279.884 271.707 279.433H271.735L273.026 279.651V292.142L276.546 292.318V293.257H267.251V292.318L270.85 292.142V281.617Z" fill="#FFD129"/>
<path d="M291.71 290.875C292.426 289.826 292.781 288.364 292.781 286.485C292.781 282.482 291.332 280.479 288.427 280.479C286.888 280.479 285.748 280.982 285.015 281.987C284.282 282.991 283.915 284.389 283.915 286.179C283.915 287.956 284.265 289.444 284.976 290.646C285.681 291.847 286.797 292.448 288.32 292.448C289.86 292.448 290.988 291.923 291.71 290.875ZM283.188 291.442C282.111 290.103 281.575 288.436 281.575 286.442C281.575 285.073 281.891 283.861 282.517 282.805C283.143 281.75 283.989 280.931 285.055 280.349C286.121 279.766 287.299 279.475 288.591 279.475C290.937 279.475 292.618 280.094 293.627 281.331C294.642 282.569 295.15 284.221 295.15 286.289C295.15 287.643 294.845 288.866 294.247 289.958C293.644 291.05 292.821 291.905 291.772 292.524C290.728 293.143 289.55 293.452 288.241 293.452C285.946 293.452 284.265 292.782 283.188 291.442Z" fill="#FFD129"/>
<path d="M304.758 281.617C304.386 281.748 303.782 281.908 302.959 282.097C302.136 282.286 301.447 282.41 300.889 282.468L300.618 281.442C301.515 281.282 302.412 281.02 303.309 280.656C304.205 280.292 304.972 279.884 305.621 279.433H305.649L306.935 279.651V292.142L310.46 292.318V293.257H301.16V292.318L304.758 292.142V281.617Z" fill="#FFD129"/>
<path d="M219.984 143.589C219.738 143.675 219.343 143.78 218.802 143.904C218.26 144.029 217.807 144.11 217.443 144.148L217.266 143.474C217.854 143.369 218.443 143.197 219.032 142.957C219.62 142.719 220.126 142.45 220.549 142.154H220.568L221.415 142.297V150.503L223.727 150.618V151.235H217.619V150.618L219.984 150.503V143.589" fill="#FFD129"/>
<path d="M238.629 143.589C238.382 143.675 237.988 143.78 237.447 143.904C236.905 144.029 236.452 144.11 236.087 144.148L235.911 143.474C236.499 143.369 237.088 143.197 237.676 142.957C238.265 142.719 238.77 142.45 239.195 142.154H239.213L240.059 142.297V150.503L242.373 150.618V151.235H236.264V150.618L238.629 150.503V143.589" fill="#FFD129"/>
<path d="M296.875 149.671C297.346 148.982 297.582 148.021 297.582 146.788C297.582 144.158 296.628 142.842 294.722 142.842C293.709 142.842 292.962 143.172 292.479 143.832C291.997 144.492 291.756 145.41 291.756 146.586C291.756 147.754 291.988 148.731 292.453 149.52C292.918 150.31 293.651 150.704 294.651 150.704C295.663 150.704 296.405 150.36 296.875 149.671V149.671ZM291.279 150.044C290.573 149.164 290.219 148.069 290.219 146.759C290.219 145.86 290.426 145.064 290.838 144.37C291.249 143.677 291.805 143.139 292.506 142.756C293.206 142.373 293.98 142.182 294.827 142.182C296.369 142.182 297.473 142.589 298.138 143.402C298.803 144.215 299.135 145.3 299.135 146.658C299.135 147.548 298.938 148.351 298.544 149.069C298.149 149.786 297.608 150.348 296.919 150.754C296.231 151.161 295.456 151.364 294.598 151.364C293.091 151.364 291.985 150.924 291.279 150.044Z" fill="#FFD129"/>
<path d="M305.462 143.589C305.214 143.675 304.82 143.78 304.279 143.904C303.737 144.029 303.284 144.11 302.92 144.148L302.743 143.474C303.331 143.369 303.92 143.197 304.508 142.957C305.097 142.719 305.603 142.45 306.027 142.154H306.045L306.892 142.297V150.503L309.205 150.618V151.235H303.096V150.618L305.462 150.503V143.589" fill="#FFD129"/>
<path d="M332.112 149.671C332.583 148.982 332.818 148.021 332.818 146.788C332.818 144.158 331.865 142.842 329.959 142.842C328.946 142.842 328.199 143.172 327.716 143.832C327.234 144.492 326.993 145.41 326.993 146.586C326.993 147.754 327.225 148.731 327.69 149.52C328.155 150.31 328.888 150.704 329.888 150.704C330.9 150.704 331.641 150.36 332.112 149.671ZM326.516 150.044C325.809 149.164 325.457 148.069 325.457 146.759C325.457 145.86 325.663 145.064 326.075 144.37C326.486 143.677 327.042 143.139 327.743 142.756C328.443 142.373 329.218 142.182 330.065 142.182C331.606 142.182 332.709 142.589 333.375 143.402C334.039 144.215 334.373 145.3 334.373 146.658C334.373 147.548 334.175 148.351 333.781 149.069C333.386 149.786 332.844 150.348 332.156 150.754C331.468 151.161 330.694 151.364 329.835 151.364C328.329 151.364 327.222 150.924 326.516 150.044" fill="#FFD129"/>
<path d="M353.653 143.589C353.405 143.675 353.011 143.78 352.469 143.904C351.928 144.029 351.475 144.11 351.11 144.148L350.934 143.474C351.522 143.369 352.111 143.197 352.699 142.957C353.288 142.719 353.794 142.45 354.218 142.154H354.235L355.082 142.297V150.503L357.396 150.618V151.235H351.287V150.618L353.653 150.503V143.589" fill="#FFD129"/>
<path d="M385.999 149.671C386.469 148.982 386.705 148.021 386.705 146.788C386.705 144.158 385.752 142.842 383.845 142.842C382.832 142.842 382.086 143.172 381.603 143.832C381.12 144.492 380.879 145.41 380.879 146.586C380.879 147.754 381.112 148.731 381.576 149.52C382.042 150.31 382.774 150.704 383.774 150.704C384.787 150.704 385.528 150.36 385.999 149.671ZM380.403 150.044C379.697 149.164 379.343 148.069 379.343 146.759C379.343 145.86 379.55 145.064 379.961 144.37C380.373 143.677 380.93 143.139 381.63 142.756C382.33 142.373 383.104 142.182 383.951 142.182C385.493 142.182 386.596 142.589 387.261 143.402C387.926 144.215 388.259 145.3 388.259 146.658C388.259 147.548 388.062 148.351 387.667 149.069C387.273 149.786 386.731 150.348 386.043 150.754C385.354 151.161 384.58 151.364 383.722 151.364C382.215 151.364 381.109 150.924 380.403 150.044" fill="#FFD129"/>
<path d="M398.956 149.671C399.427 148.982 399.662 148.021 399.662 146.788C399.662 144.158 398.709 142.842 396.803 142.842C395.79 142.842 395.043 143.172 394.56 143.832C394.078 144.492 393.837 145.41 393.837 146.586C393.837 147.754 394.069 148.731 394.534 149.52C394.999 150.31 395.731 150.704 396.732 150.704C397.744 150.704 398.485 150.36 398.956 149.671ZM393.36 150.044C392.654 149.164 392.301 148.069 392.301 146.759C392.301 145.86 392.507 145.064 392.918 144.37C393.33 143.677 393.887 143.139 394.587 142.756C395.287 142.373 396.061 142.182 396.908 142.182C398.45 142.182 399.553 142.589 400.219 143.402C400.883 144.215 401.216 145.3 401.216 146.658C401.216 147.548 401.018 148.351 400.625 149.069C400.23 149.786 399.689 150.348 399.001 150.754C398.312 151.161 397.538 151.364 396.679 151.364C395.172 151.364 394.066 150.924 393.36 150.044" fill="#FFD129"/>
<path d="M424.863 149.671C425.334 148.982 425.569 148.021 425.569 146.788C425.569 144.158 424.616 142.842 422.71 142.842C421.697 142.842 420.95 143.172 420.467 143.832C419.985 144.492 419.744 145.41 419.744 146.586C419.744 147.754 419.975 148.731 420.441 149.52C420.906 150.31 421.639 150.704 422.639 150.704C423.651 150.704 424.392 150.36 424.863 149.671ZM419.267 150.044C418.561 149.164 418.208 148.069 418.208 146.759C418.208 145.86 418.414 145.064 418.826 144.37C419.237 143.677 419.794 143.139 420.494 142.756C421.195 142.373 421.968 142.182 422.816 142.182C424.357 142.182 425.46 142.589 426.126 143.402C426.79 144.215 427.123 145.3 427.123 146.658C427.123 147.548 426.925 148.351 426.532 149.069C426.137 149.786 425.595 150.348 424.907 150.754C424.219 151.161 423.445 151.364 422.586 151.364C421.079 151.364 419.973 150.924 419.267 150.044" fill="#FFD129"/>
<path d="M433.446 143.589C433.199 143.675 432.805 143.78 432.263 143.904C431.722 144.029 431.269 144.11 430.904 144.148L430.728 143.474C431.316 143.369 431.905 143.197 432.493 142.957C433.082 142.719 433.587 142.45 434.011 142.154H434.029L434.876 142.297V150.503L437.189 150.618V151.235H431.081V150.618L433.446 150.503V143.589" fill="#FFD129"/>
<path d="M442.765 143.589C442.518 143.675 442.124 143.78 441.582 143.904C441.04 144.029 440.588 144.11 440.223 144.148L440.046 143.474C440.634 143.369 441.223 143.197 441.811 142.957C442.4 142.719 442.907 142.45 443.33 142.154H443.348L444.195 142.297V150.503L446.507 150.618V151.235H440.4V150.618L442.765 150.503V143.589" fill="#FFD129"/>
</svg>
