<svg width="47" height="55" viewBox="0 0 47 55" fill="none" xmlns="http://www.w3.org/2000/svg">
<mask id="path-1-outside-1" maskUnits="userSpaceOnUse" x="-0.558594" y="-0.229492" width="48" height="55" fill="black">
<rect fill="white" x="-0.558594" y="-0.229492" width="48" height="55"/>
<path fill-rule="evenodd" clip-rule="evenodd" d="M19.7076 36.6149H16.8759C16.239 36.6146 15.6281 36.3608 15.1772 35.9091C14.7264 35.4573 14.4723 34.8445 14.4708 34.205V31.0835C13.6096 30.8142 12.7784 30.4562 11.9907 30.015L10.0149 31.9861C9.09187 32.8954 7.52814 32.8868 6.61853 31.9755L4.6168 29.9533C4.16904 29.4993 3.9189 28.8856 3.92124 28.2467C3.92358 27.6078 4.17821 26.9959 4.62928 26.5453L6.71842 24.4623C6.41115 23.8398 6.15325 23.194 5.94712 22.5308H2.84271C2.20562 22.5277 1.59559 22.2718 1.14572 21.8189C0.695853 21.366 0.442667 20.7528 0.441406 20.1132V17.2693C0.441914 16.6299 0.69501 16.0168 1.14518 15.5645C1.59534 15.1122 2.20583 14.8576 2.84271 14.8566H5.95192C6.21963 13.9933 6.57631 13.1604 7.01618 12.3715L4.70132 10.0243C4.47812 9.79949 4.30162 9.53242 4.18208 9.23858C4.06253 8.94474 4.00232 8.62998 4.00494 8.31258C4.00597 7.99604 4.06959 7.68284 4.1921 7.39117C4.3146 7.09949 4.49357 6.83513 4.71861 6.61342L6.72706 4.60664C7.64724 3.70016 9.22154 3.70981 10.1244 4.61821L12.5488 7.07438C13.1635 6.76579 13.81 6.50542 14.4785 6.30001V3.18135C14.4785 1.85153 15.5562 0.770508 16.8798 0.770508H19.7152C20.3517 0.771529 20.9618 1.02589 21.4118 1.47781C21.8617 1.92974 22.1148 2.54236 22.1156 3.18135V6.30387C22.8093 6.51964 23.4834 6.79418 24.1308 7.12452L26.5782 4.69054C27.5012 3.7802 29.0688 3.7937 29.9746 4.70211L31.9725 6.72336C32.421 7.1737 32.6688 7.78027 32.6688 8.43023C32.6688 8.74716 32.6061 9.06092 32.4842 9.35328C32.3624 9.64564 32.1838 9.91076 31.959 10.1332L29.6298 12.4573C30.0476 13.223 30.3876 14.0292 30.6431 14.8624H33.7552C34.3917 14.8634 35.0018 15.1177 35.4517 15.5697C35.9017 16.0216 36.1548 16.6342 36.1555 17.2732V20.1122C36.1553 20.7516 35.9024 21.3648 35.4525 21.8173C35.0025 22.2698 34.3921 22.5247 33.7552 22.5259H30.6431C30.4292 23.2236 30.1551 23.9012 29.8238 24.551L31.8976 26.6475C32.3452 27.0921 32.593 27.6996 32.593 28.3544C32.593 28.9966 32.3404 29.6003 31.8831 30.0555L29.8747 32.0632C28.9516 32.9726 27.3745 32.9552 26.4792 32.0497L24.5188 30.0661C23.7533 30.4885 22.9532 30.8308 22.13 31.0864V34.2098C22.1192 34.849 21.8597 35.4585 21.407 35.908C20.9542 36.3575 20.3443 36.6112 19.7076 36.6149ZM11.8457 28.8674L12.1502 29.0477C13.0585 29.5899 14.0337 30.0101 15.051 30.2975L15.3843 30.3911V34.2031C15.3843 35.0266 16.0537 35.6968 16.8759 35.6968H19.7076C20.1033 35.6947 20.4825 35.5374 20.7644 35.2585C21.0463 34.9797 21.2085 34.6013 21.2165 34.204V30.3969L21.5498 30.3033C22.5362 30.0259 23.4826 29.621 24.3651 29.0989L24.6696 28.9185L27.1257 31.4027C27.6799 31.9639 28.6587 31.9735 29.2321 31.4094L31.2386 29.4026C31.522 29.121 31.6786 28.7478 31.6786 28.3525C31.6786 27.9445 31.5268 27.5694 31.2511 27.2955L28.699 24.714L28.8613 24.4151C29.2936 23.6166 29.6288 22.7844 29.8593 21.9435L29.9525 21.6069H33.7552C34.5755 21.6069 35.243 20.9357 35.243 20.1103V17.2713C35.243 16.4477 34.5755 15.7765 33.7552 15.7765H29.9535L29.8603 15.441C29.5855 14.4489 29.1842 13.4966 28.6664 12.6077L28.4877 12.3011L31.3145 9.48039C31.5988 9.19688 31.7554 8.82272 31.7554 8.42734C31.7554 8.02232 31.6027 7.64623 31.3251 7.3685L29.3272 5.34725C29.0446 5.07257 28.667 4.91852 28.2737 4.91744C27.8804 4.91636 27.502 5.06834 27.2179 5.34146L24.295 8.24894L23.9973 8.08789C23.2165 7.66259 22.3908 7.32651 21.5354 7.08595L21.2012 6.99241V3.18135C21.2012 2.35781 20.5336 1.68663 19.7133 1.68663H16.8779C16.0576 1.68663 15.39 2.35684 15.39 3.18135V6.99144L15.0558 7.08498C14.2201 7.31739 13.42 7.63948 12.6756 8.04064L12.3749 8.20265L9.47512 5.26528C8.91706 4.70597 7.93636 4.69729 7.36677 5.25949L5.36024 7.26435C5.22051 7.40158 5.10939 7.56537 5.03336 7.74617C4.95734 7.92697 4.91793 8.12116 4.91744 8.3174C4.91578 8.51431 4.95314 8.70958 5.02734 8.89186C5.10155 9.07413 5.21112 9.23977 5.34968 9.37914L8.15728 12.2268L7.97766 12.5306C7.4378 13.4412 7.01928 14.4191 6.73283 15.439L6.63966 15.7737H2.84271C2.02243 15.7737 1.35486 16.4448 1.35486 17.2693V20.1132C1.35486 20.9377 2.02243 21.6108 2.84463 21.6137H6.63774L6.73091 21.9493C6.95375 22.7555 7.2736 23.5578 7.68374 24.336L7.84223 24.6359L5.27379 27.1943C4.99433 27.4733 4.83648 27.8523 4.83486 28.248C4.83324 28.6437 4.98798 29.0239 5.26515 29.3052L7.26592 31.3265C7.8307 31.8906 8.80179 31.8964 9.37426 31.3323L11.8457 28.8674ZM18.2984 25.7346C14.4304 25.7346 11.2847 22.5754 11.2847 18.693C11.2847 14.8087 14.4314 11.6495 18.2984 11.6495C22.1665 11.6495 25.3141 14.8096 25.3141 18.693C25.3131 22.5764 22.1665 25.7346 18.2984 25.7346ZM18.2984 12.5666C16.6807 12.5686 15.1299 13.2148 13.9861 14.3633C12.8423 15.5118 12.199 17.0689 12.1972 18.693C12.1992 20.317 12.8427 21.8738 13.9865 23.0221C15.1302 24.1704 16.6809 24.8164 18.2984 24.8185C19.9161 24.8167 21.4671 24.1708 22.611 23.0225C23.755 21.8741 24.3986 20.3171 24.4006 18.693C24.3983 17.0689 23.7547 15.5119 22.6108 14.3635C21.4669 13.2151 19.9161 12.5689 18.2984 12.5666Z"/>
<path fill-rule="evenodd" clip-rule="evenodd" d="M32.1374 43.7806C32.1374 45.9984 33.9344 47.8031 36.144 47.8031C38.3536 47.8031 40.1511 45.999 40.1516 43.7806C40.1516 41.5623 38.3536 39.7571 36.144 39.7571C33.935 39.7571 32.1374 41.5617 32.1374 43.7806ZM33.6806 41.3073C34.334 40.6512 35.2199 40.2821 36.144 40.281C37.0681 40.2823 37.954 40.6514 38.6074 41.3074C39.2609 41.9635 39.6285 42.8529 39.6298 43.7806C39.6287 44.7084 39.261 45.5978 38.6075 46.2538C37.9541 46.9098 37.0681 47.2788 36.144 47.2798C35.22 47.2786 34.3342 46.9096 33.6808 46.2536C33.0274 45.5976 32.6599 44.7083 32.6587 43.7806C32.6597 42.8529 33.0272 41.9634 33.6806 41.3073Z"/>
<path fill-rule="evenodd" clip-rule="evenodd" d="M35.3314 54.0184H36.949C37.3127 54.0163 37.6611 53.8714 37.9197 53.6146C38.1783 53.3578 38.3266 53.0096 38.3328 52.6445V50.8603C38.803 50.7143 39.26 50.5187 39.6974 50.2774L40.8172 51.4106C41.3286 51.9278 42.2296 51.9378 42.7569 51.4183L43.9042 50.2714C44.1654 50.0114 44.3097 49.6665 44.3097 49.2996C44.3097 48.9256 44.1681 48.5786 43.9124 48.3246L42.7278 47.127C42.917 46.7558 43.0736 46.3687 43.1958 45.9702H44.9736C45.3374 45.9694 45.6861 45.8239 45.9431 45.5654C46.2002 45.3069 46.3446 44.9566 46.3448 44.5913V42.9696C46.3443 42.6046 46.1997 42.2546 45.9427 41.9964C45.6857 41.7383 45.3372 41.593 44.9736 41.5924H43.1958C43.0499 41.1164 42.8556 40.6559 42.617 40.2185L43.9475 38.8909C44.076 38.7638 44.1779 38.6124 44.2475 38.4454C44.3172 38.2784 44.353 38.0991 44.353 37.9181C44.353 37.5468 44.2115 37.2003 43.9552 36.943L42.8139 35.7884C42.2965 35.2695 41.401 35.2618 40.8738 35.7818L39.4757 37.1722C39.1059 36.9835 38.7208 36.8267 38.3245 36.7034V34.9197C38.3241 34.5547 38.1795 34.2047 37.9225 33.9466C37.6654 33.6884 37.3169 33.5431 36.9533 33.5425H35.3336C34.5775 33.5425 33.9619 34.16 33.9619 34.9197V36.7012C33.58 36.8186 33.2107 36.9673 32.8595 37.1436L31.4746 35.7405C30.9589 35.2216 30.0596 35.2161 29.5339 35.7339L28.3866 36.8802C28.258 37.0069 28.1558 37.1579 28.0858 37.3245C28.0159 37.4911 27.9795 37.6701 27.9789 37.8509C27.9774 38.0322 28.0118 38.212 28.0801 38.3798C28.1484 38.5477 28.2492 38.7003 28.3767 38.8287L29.6991 40.1695C29.4478 40.6202 29.244 41.096 29.0911 41.5891H27.315C26.9512 41.5897 26.6025 41.7351 26.3453 41.9935C26.0881 42.2519 25.9436 42.6021 25.9433 42.9674V44.5919C25.944 44.9573 26.0886 45.3076 26.3456 45.5663C26.6026 45.825 26.9511 45.9712 27.315 45.9729H29.0884C29.2061 46.3518 29.3535 46.7207 29.529 47.0763L28.3356 48.2662C28.0779 48.5236 27.9324 48.8732 27.9311 49.2381C27.9298 49.6031 28.0727 49.9537 28.3284 50.213L29.4719 51.3682C29.9915 51.8887 30.8848 51.8937 31.4121 51.3742L32.5408 50.2482C32.9907 50.5003 33.4655 50.7048 33.9575 50.8586V52.6418C33.9584 53.0071 34.1035 53.3572 34.361 53.6152C34.6186 53.8733 34.9675 54.0183 35.3314 54.0184ZM32.6318 49.6957L32.4579 49.5927L31.0461 51.0007C30.7191 51.323 30.1644 51.3197 29.8417 50.9974L28.6988 49.8428C28.5405 49.6821 28.4521 49.4649 28.453 49.2389C28.4539 49.0128 28.5441 48.7963 28.7037 48.6369L30.171 47.1755L30.0804 47.0042C29.8461 46.5596 29.6634 46.1013 29.5361 45.6408L29.4829 45.4491H27.3161C26.8464 45.4474 26.4651 45.0629 26.4651 44.5919V42.9674C26.4651 42.4964 26.8464 42.113 27.315 42.113H29.484L29.5372 41.9218C29.7008 41.3392 29.9399 40.7806 30.2483 40.2604L30.3509 40.0869L28.7471 38.4601C28.6679 38.3805 28.6054 38.2859 28.563 38.1818C28.5206 38.0777 28.4992 37.9661 28.5002 37.8536C28.5005 37.7415 28.523 37.6306 28.5664 37.5273C28.6098 37.424 28.6733 37.3305 28.7531 37.2521L29.8993 36.1068C30.2247 35.7857 30.7849 35.7906 31.1037 36.1101L32.7602 37.7881L32.932 37.6955C33.3572 37.4664 33.8143 37.2824 34.2916 37.1496L34.4826 37.0962V34.9197C34.4826 34.4487 34.8639 34.0658 35.3325 34.0658H36.9522C37.4208 34.0658 37.8022 34.4492 37.8022 34.9197V37.0967L37.9931 37.1502C38.4817 37.2876 38.9534 37.4796 39.3994 37.7225L39.5695 37.8145L41.2392 36.1536C41.4015 35.9976 41.6176 35.9108 41.8423 35.9114C42.067 35.912 42.2827 36 42.4441 36.157L43.5854 37.3116C43.744 37.4702 43.8312 37.6851 43.8312 37.9164C43.8312 38.1423 43.7418 38.356 43.5794 38.518L41.9646 40.1293L42.0666 40.3045C42.3624 40.8122 42.5917 41.3562 42.7486 41.9229L42.8019 42.1146H44.9736C45.4422 42.1146 45.8235 42.498 45.8235 42.9685V44.5902C45.8235 45.0618 45.4422 45.4452 44.9736 45.4452H42.8013L42.7481 45.6375C42.6164 46.1178 42.4249 46.5932 42.178 47.0493L42.0853 47.2201L43.5431 48.6948C43.7006 48.8512 43.7873 49.0655 43.7873 49.2985C43.7873 49.5244 43.6979 49.7376 43.536 49.8984L42.3898 51.0448C42.0622 51.3671 41.5031 51.3616 41.1865 51.041L39.7835 49.6219L39.6096 49.7249C39.1054 50.0232 38.5648 50.2545 38.0013 50.413L37.811 50.4664V52.6412C37.8064 52.8681 37.7137 53.0843 37.5527 53.2436C37.3916 53.4029 37.175 53.4927 36.949 53.494H35.3314C34.8617 53.494 34.4793 53.1111 34.4793 52.6407V50.4631L34.2889 50.4097C33.7078 50.2454 33.1507 50.0054 32.6318 49.6957Z"/>
</mask>
<path fill-rule="evenodd" clip-rule="evenodd" d="M19.7076 36.6149H16.8759C16.239 36.6146 15.6281 36.3608 15.1772 35.9091C14.7264 35.4573 14.4723 34.8445 14.4708 34.205V31.0835C13.6096 30.8142 12.7784 30.4562 11.9907 30.015L10.0149 31.9861C9.09187 32.8954 7.52814 32.8868 6.61853 31.9755L4.6168 29.9533C4.16904 29.4993 3.9189 28.8856 3.92124 28.2467C3.92358 27.6078 4.17821 26.9959 4.62928 26.5453L6.71842 24.4623C6.41115 23.8398 6.15325 23.194 5.94712 22.5308H2.84271C2.20562 22.5277 1.59559 22.2718 1.14572 21.8189C0.695853 21.366 0.442667 20.7528 0.441406 20.1132V17.2693C0.441914 16.6299 0.69501 16.0168 1.14518 15.5645C1.59534 15.1122 2.20583 14.8576 2.84271 14.8566H5.95192C6.21963 13.9933 6.57631 13.1604 7.01618 12.3715L4.70132 10.0243C4.47812 9.79949 4.30162 9.53242 4.18208 9.23858C4.06253 8.94474 4.00232 8.62998 4.00494 8.31258C4.00597 7.99604 4.06959 7.68284 4.1921 7.39117C4.3146 7.09949 4.49357 6.83513 4.71861 6.61342L6.72706 4.60664C7.64724 3.70016 9.22154 3.70981 10.1244 4.61821L12.5488 7.07438C13.1635 6.76579 13.81 6.50542 14.4785 6.30001V3.18135C14.4785 1.85153 15.5562 0.770508 16.8798 0.770508H19.7152C20.3517 0.771529 20.9618 1.02589 21.4118 1.47781C21.8617 1.92974 22.1148 2.54236 22.1156 3.18135V6.30387C22.8093 6.51964 23.4834 6.79418 24.1308 7.12452L26.5782 4.69054C27.5012 3.7802 29.0688 3.7937 29.9746 4.70211L31.9725 6.72336C32.421 7.1737 32.6688 7.78027 32.6688 8.43023C32.6688 8.74716 32.6061 9.06092 32.4842 9.35328C32.3624 9.64564 32.1838 9.91076 31.959 10.1332L29.6298 12.4573C30.0476 13.223 30.3876 14.0292 30.6431 14.8624H33.7552C34.3917 14.8634 35.0018 15.1177 35.4517 15.5697C35.9017 16.0216 36.1548 16.6342 36.1555 17.2732V20.1122C36.1553 20.7516 35.9024 21.3648 35.4525 21.8173C35.0025 22.2698 34.3921 22.5247 33.7552 22.5259H30.6431C30.4292 23.2236 30.1551 23.9012 29.8238 24.551L31.8976 26.6475C32.3452 27.0921 32.593 27.6996 32.593 28.3544C32.593 28.9966 32.3404 29.6003 31.8831 30.0555L29.8747 32.0632C28.9516 32.9726 27.3745 32.9552 26.4792 32.0497L24.5188 30.0661C23.7533 30.4885 22.9532 30.8308 22.13 31.0864V34.2098C22.1192 34.849 21.8597 35.4585 21.407 35.908C20.9542 36.3575 20.3443 36.6112 19.7076 36.6149ZM11.8457 28.8674L12.1502 29.0477C13.0585 29.5899 14.0337 30.0101 15.051 30.2975L15.3843 30.3911V34.2031C15.3843 35.0266 16.0537 35.6968 16.8759 35.6968H19.7076C20.1033 35.6947 20.4825 35.5374 20.7644 35.2585C21.0463 34.9797 21.2085 34.6013 21.2165 34.204V30.3969L21.5498 30.3033C22.5362 30.0259 23.4826 29.621 24.3651 29.0989L24.6696 28.9185L27.1257 31.4027C27.6799 31.9639 28.6587 31.9735 29.2321 31.4094L31.2386 29.4026C31.522 29.121 31.6786 28.7478 31.6786 28.3525C31.6786 27.9445 31.5268 27.5694 31.2511 27.2955L28.699 24.714L28.8613 24.4151C29.2936 23.6166 29.6288 22.7844 29.8593 21.9435L29.9525 21.6069H33.7552C34.5755 21.6069 35.243 20.9357 35.243 20.1103V17.2713C35.243 16.4477 34.5755 15.7765 33.7552 15.7765H29.9535L29.8603 15.441C29.5855 14.4489 29.1842 13.4966 28.6664 12.6077L28.4877 12.3011L31.3145 9.48039C31.5988 9.19688 31.7554 8.82272 31.7554 8.42734C31.7554 8.02232 31.6027 7.64623 31.3251 7.3685L29.3272 5.34725C29.0446 5.07257 28.667 4.91852 28.2737 4.91744C27.8804 4.91636 27.502 5.06834 27.2179 5.34146L24.295 8.24894L23.9973 8.08789C23.2165 7.66259 22.3908 7.32651 21.5354 7.08595L21.2012 6.99241V3.18135C21.2012 2.35781 20.5336 1.68663 19.7133 1.68663H16.8779C16.0576 1.68663 15.39 2.35684 15.39 3.18135V6.99144L15.0558 7.08498C14.2201 7.31739 13.42 7.63948 12.6756 8.04064L12.3749 8.20265L9.47512 5.26528C8.91706 4.70597 7.93636 4.69729 7.36677 5.25949L5.36024 7.26435C5.22051 7.40158 5.10939 7.56537 5.03336 7.74617C4.95734 7.92697 4.91793 8.12116 4.91744 8.3174C4.91578 8.51431 4.95314 8.70958 5.02734 8.89186C5.10155 9.07413 5.21112 9.23977 5.34968 9.37914L8.15728 12.2268L7.97766 12.5306C7.4378 13.4412 7.01928 14.4191 6.73283 15.439L6.63966 15.7737H2.84271C2.02243 15.7737 1.35486 16.4448 1.35486 17.2693V20.1132C1.35486 20.9377 2.02243 21.6108 2.84463 21.6137H6.63774L6.73091 21.9493C6.95375 22.7555 7.2736 23.5578 7.68374 24.336L7.84223 24.6359L5.27379 27.1943C4.99433 27.4733 4.83648 27.8523 4.83486 28.248C4.83324 28.6437 4.98798 29.0239 5.26515 29.3052L7.26592 31.3265C7.8307 31.8906 8.80179 31.8964 9.37426 31.3323L11.8457 28.8674ZM18.2984 25.7346C14.4304 25.7346 11.2847 22.5754 11.2847 18.693C11.2847 14.8087 14.4314 11.6495 18.2984 11.6495C22.1665 11.6495 25.3141 14.8096 25.3141 18.693C25.3131 22.5764 22.1665 25.7346 18.2984 25.7346ZM18.2984 12.5666C16.6807 12.5686 15.1299 13.2148 13.9861 14.3633C12.8423 15.5118 12.199 17.0689 12.1972 18.693C12.1992 20.317 12.8427 21.8738 13.9865 23.0221C15.1302 24.1704 16.6809 24.8164 18.2984 24.8185C19.9161 24.8167 21.4671 24.1708 22.611 23.0225C23.755 21.8741 24.3986 20.3171 24.4006 18.693C24.3983 17.0689 23.7547 15.5119 22.6108 14.3635C21.4669 13.2151 19.9161 12.5689 18.2984 12.5666Z" fill="#FD009C"/>
<path fill-rule="evenodd" clip-rule="evenodd" d="M32.1374 43.7806C32.1374 45.9984 33.9344 47.8031 36.144 47.8031C38.3536 47.8031 40.1511 45.999 40.1516 43.7806C40.1516 41.5623 38.3536 39.7571 36.144 39.7571C33.935 39.7571 32.1374 41.5617 32.1374 43.7806ZM33.6806 41.3073C34.334 40.6512 35.2199 40.2821 36.144 40.281C37.0681 40.2823 37.954 40.6514 38.6074 41.3074C39.2609 41.9635 39.6285 42.8529 39.6298 43.7806C39.6287 44.7084 39.261 45.5978 38.6075 46.2538C37.9541 46.9098 37.0681 47.2788 36.144 47.2798C35.22 47.2786 34.3342 46.9096 33.6808 46.2536C33.0274 45.5976 32.6599 44.7083 32.6587 43.7806C32.6597 42.8529 33.0272 41.9634 33.6806 41.3073Z" fill="#FD009C"/>
<path fill-rule="evenodd" clip-rule="evenodd" d="M35.3314 54.0184H36.949C37.3127 54.0163 37.6611 53.8714 37.9197 53.6146C38.1783 53.3578 38.3266 53.0096 38.3328 52.6445V50.8603C38.803 50.7143 39.26 50.5187 39.6974 50.2774L40.8172 51.4106C41.3286 51.9278 42.2296 51.9378 42.7569 51.4183L43.9042 50.2714C44.1654 50.0114 44.3097 49.6665 44.3097 49.2996C44.3097 48.9256 44.1681 48.5786 43.9124 48.3246L42.7278 47.127C42.917 46.7558 43.0736 46.3687 43.1958 45.9702H44.9736C45.3374 45.9694 45.6861 45.8239 45.9431 45.5654C46.2002 45.3069 46.3446 44.9566 46.3448 44.5913V42.9696C46.3443 42.6046 46.1997 42.2546 45.9427 41.9964C45.6857 41.7383 45.3372 41.593 44.9736 41.5924H43.1958C43.0499 41.1164 42.8556 40.6559 42.617 40.2185L43.9475 38.8909C44.076 38.7638 44.1779 38.6124 44.2475 38.4454C44.3172 38.2784 44.353 38.0991 44.353 37.9181C44.353 37.5468 44.2115 37.2003 43.9552 36.943L42.8139 35.7884C42.2965 35.2695 41.401 35.2618 40.8738 35.7818L39.4757 37.1722C39.1059 36.9835 38.7208 36.8267 38.3245 36.7034V34.9197C38.3241 34.5547 38.1795 34.2047 37.9225 33.9466C37.6654 33.6884 37.3169 33.5431 36.9533 33.5425H35.3336C34.5775 33.5425 33.9619 34.16 33.9619 34.9197V36.7012C33.58 36.8186 33.2107 36.9673 32.8595 37.1436L31.4746 35.7405C30.9589 35.2216 30.0596 35.2161 29.5339 35.7339L28.3866 36.8802C28.258 37.0069 28.1558 37.1579 28.0858 37.3245C28.0159 37.4911 27.9795 37.6701 27.9789 37.8509C27.9774 38.0322 28.0118 38.212 28.0801 38.3798C28.1484 38.5477 28.2492 38.7003 28.3767 38.8287L29.6991 40.1695C29.4478 40.6202 29.244 41.096 29.0911 41.5891H27.315C26.9512 41.5897 26.6025 41.7351 26.3453 41.9935C26.0881 42.2519 25.9436 42.6021 25.9433 42.9674V44.5919C25.944 44.9573 26.0886 45.3076 26.3456 45.5663C26.6026 45.825 26.9511 45.9712 27.315 45.9729H29.0884C29.2061 46.3518 29.3535 46.7207 29.529 47.0763L28.3356 48.2662C28.0779 48.5236 27.9324 48.8732 27.9311 49.2381C27.9298 49.6031 28.0727 49.9537 28.3284 50.213L29.4719 51.3682C29.9915 51.8887 30.8848 51.8937 31.4121 51.3742L32.5408 50.2482C32.9907 50.5003 33.4655 50.7048 33.9575 50.8586V52.6418C33.9584 53.0071 34.1035 53.3572 34.361 53.6152C34.6186 53.8733 34.9675 54.0183 35.3314 54.0184ZM32.6318 49.6957L32.4579 49.5927L31.0461 51.0007C30.7191 51.323 30.1644 51.3197 29.8417 50.9974L28.6988 49.8428C28.5405 49.6821 28.4521 49.4649 28.453 49.2389C28.4539 49.0128 28.5441 48.7963 28.7037 48.6369L30.171 47.1755L30.0804 47.0042C29.8461 46.5596 29.6634 46.1013 29.5361 45.6408L29.4829 45.4491H27.3161C26.8464 45.4474 26.4651 45.0629 26.4651 44.5919V42.9674C26.4651 42.4964 26.8464 42.113 27.315 42.113H29.484L29.5372 41.9218C29.7008 41.3392 29.9399 40.7806 30.2483 40.2604L30.3509 40.0869L28.7471 38.4601C28.6679 38.3805 28.6054 38.2859 28.563 38.1818C28.5206 38.0777 28.4992 37.9661 28.5002 37.8536C28.5005 37.7415 28.523 37.6306 28.5664 37.5273C28.6098 37.424 28.6733 37.3305 28.7531 37.2521L29.8993 36.1068C30.2247 35.7857 30.7849 35.7906 31.1037 36.1101L32.7602 37.7881L32.932 37.6955C33.3572 37.4664 33.8143 37.2824 34.2916 37.1496L34.4826 37.0962V34.9197C34.4826 34.4487 34.8639 34.0658 35.3325 34.0658H36.9522C37.4208 34.0658 37.8022 34.4492 37.8022 34.9197V37.0967L37.9931 37.1502C38.4817 37.2876 38.9534 37.4796 39.3994 37.7225L39.5695 37.8145L41.2392 36.1536C41.4015 35.9976 41.6176 35.9108 41.8423 35.9114C42.067 35.912 42.2827 36 42.4441 36.157L43.5854 37.3116C43.744 37.4702 43.8312 37.6851 43.8312 37.9164C43.8312 38.1423 43.7418 38.356 43.5794 38.518L41.9646 40.1293L42.0666 40.3045C42.3624 40.8122 42.5917 41.3562 42.7486 41.9229L42.8019 42.1146H44.9736C45.4422 42.1146 45.8235 42.498 45.8235 42.9685V44.5902C45.8235 45.0618 45.4422 45.4452 44.9736 45.4452H42.8013L42.7481 45.6375C42.6164 46.1178 42.4249 46.5932 42.178 47.0493L42.0853 47.2201L43.5431 48.6948C43.7006 48.8512 43.7873 49.0655 43.7873 49.2985C43.7873 49.5244 43.6979 49.7376 43.536 49.8984L42.3898 51.0448C42.0622 51.3671 41.5031 51.3616 41.1865 51.041L39.7835 49.6219L39.6096 49.7249C39.1054 50.0232 38.5648 50.2545 38.0013 50.413L37.811 50.4664V52.6412C37.8064 52.8681 37.7137 53.0843 37.5527 53.2436C37.3916 53.4029 37.175 53.4927 36.949 53.494H35.3314C34.8617 53.494 34.4793 53.1111 34.4793 52.6407V50.4631L34.2889 50.4097C33.7078 50.2454 33.1507 50.0054 32.6318 49.6957Z" fill="#FD009C"/>
<path d="M25.5189 18.6929L25.6189 18.6929V18.6929H25.5189ZM29.7629 21.917L29.7614 21.9226L29.9542 21.9755L29.9558 21.9699L29.7629 21.917ZM28.7762 24.3623L28.7734 24.3675L28.9493 24.4626L28.9521 24.4574L28.7762 24.3623ZM18.2992 26.0392C22.3355 26.0392 25.6179 22.7442 25.6189 18.6929L25.4189 18.6928C25.4179 22.6345 22.2243 25.8392 18.2992 25.8392V26.0392ZM10.9815 18.6928C10.9815 22.7432 14.2629 26.0392 18.2992 26.0392V25.8392C14.3741 25.8392 11.1815 22.6335 11.1815 18.6928H10.9815ZM18.2992 11.3445C14.2638 11.3445 10.9815 14.6405 10.9815 18.6928H11.1815C11.1815 14.7502 14.3751 11.5445 18.2992 11.5445V11.3445ZM25.6189 18.6929C25.6189 14.6415 22.3355 11.3445 18.2992 11.3445V11.5445C22.2243 11.5445 25.4189 14.7512 25.4189 18.6929H25.6189ZM16.8759 36.6149L16.8759 36.8149H16.8759V36.6149ZM19.7076 36.6149V36.8149L19.7087 36.8149L19.7076 36.6149ZM15.1772 35.9091L15.3188 35.7678L15.1772 35.9091ZM14.4708 34.205H14.2708L14.2708 34.2055L14.4708 34.205ZM14.4708 31.0835H14.6708V30.9364L14.5305 30.8926L14.4708 31.0835ZM11.9907 30.015L12.0885 29.8405L11.9565 29.7666L11.8495 29.8734L11.9907 30.015ZM10.0149 31.9861L10.1553 32.1286L10.1562 32.1277L10.0149 31.9861ZM6.61853 31.9755L6.47639 32.1162L6.47697 32.1168L6.61853 31.9755ZM4.6168 29.9533L4.4744 30.0937L4.47466 30.094L4.6168 29.9533ZM3.92124 28.2467L4.12124 28.2474L3.92124 28.2467ZM4.62928 26.5453L4.48807 26.4037L4.48793 26.4038L4.62928 26.5453ZM6.71842 24.4623L6.85963 24.604L6.96132 24.5026L6.89776 24.3738L6.71842 24.4623ZM5.94712 22.5308L6.13811 22.4714L6.0944 22.3308H5.94712V22.5308ZM2.84271 22.5308L2.84175 22.7308H2.84271V22.5308ZM1.14572 21.8189L1.00382 21.9598H1.00382L1.14572 21.8189ZM0.441406 20.1132H0.241406L0.241407 20.1136L0.441406 20.1132ZM0.441406 17.2693L0.241406 17.2692V17.2693H0.441406ZM1.14518 15.5645L1.00342 15.4234L1.14518 15.5645ZM2.84271 14.8566V14.6566L2.84239 14.6566L2.84271 14.8566ZM5.95192 14.8566V15.0566H6.0993L6.14295 14.9158L5.95192 14.8566ZM7.01618 12.3715L7.19087 12.4689L7.26392 12.3378L7.15858 12.231L7.01618 12.3715ZM4.70132 10.0243L4.84372 9.88384L4.84325 9.88336L4.70132 10.0243ZM4.18208 9.23858L4.36733 9.16321L4.18208 9.23858ZM4.00494 8.31258L4.20494 8.31423L4.20494 8.31323L4.00494 8.31258ZM4.1921 7.39117L4.37649 7.46862V7.46862L4.1921 7.39117ZM4.71861 6.61342L4.85898 6.7559L4.85997 6.7549L4.71861 6.61342ZM6.72706 4.60664L6.5867 4.46416L6.5857 4.46516L6.72706 4.60664ZM10.1244 4.61821L10.2668 4.47771L10.2663 4.47722L10.1244 4.61821ZM12.5488 7.07438L12.4064 7.21487L12.5086 7.31834L12.6385 7.25312L12.5488 7.07438ZM14.4785 6.30001L14.5372 6.49119L14.6785 6.44779V6.30001H14.4785ZM19.7152 0.770508L19.7156 0.570508H19.7152V0.770508ZM21.4118 1.47781L21.27 1.61892V1.61893L21.4118 1.47781ZM22.1156 3.18135H22.3156V3.18111L22.1156 3.18135ZM22.1156 6.30387H21.9156V6.45111L22.0562 6.49484L22.1156 6.30387ZM24.1308 7.12452L24.0399 7.30267L24.169 7.36856L24.2718 7.26633L24.1308 7.12452ZM26.5782 4.69054L26.4377 4.54813L26.4371 4.54873L26.5782 4.69054ZM29.9746 4.70211L30.1168 4.56151L30.1162 4.56089L29.9746 4.70211ZM31.9725 6.72336L31.8302 6.86395L31.8308 6.8645L31.9725 6.72336ZM32.6688 8.43023L32.8689 8.43024V8.43023H32.6688ZM32.4842 9.35328L32.2996 9.27633L32.4842 9.35328ZM31.959 10.1332L31.8183 9.99109L31.8178 9.99167L31.959 10.1332ZM29.6298 12.4573L29.4885 12.3157L29.3824 12.4216L29.4542 12.5531L29.6298 12.4573ZM30.6431 14.8624L30.4519 14.921L30.4952 15.0624H30.6431V14.8624ZM33.7552 14.8624L33.7555 14.6624H33.7552V14.8624ZM36.1555 17.2732H36.3555V17.273L36.1555 17.2732ZM36.1555 20.1122L36.3555 20.1123V20.1122H36.1555ZM33.7552 22.5259V22.7259H33.7556L33.7552 22.5259ZM30.6431 22.5259V22.3259H30.4952L30.4519 22.4673L30.6431 22.5259ZM29.8238 24.551L29.6456 24.4602L29.58 24.589L29.6816 24.6917L29.8238 24.551ZM31.8976 26.6475L31.7554 26.7882L31.7566 26.7894L31.8976 26.6475ZM31.8831 30.0555L31.742 29.9137L31.7417 29.914L31.8831 30.0555ZM29.8747 32.0632L30.0151 32.2057L30.0161 32.2047L29.8747 32.0632ZM26.4792 32.0497L26.337 32.1903L26.337 32.1903L26.4792 32.0497ZM24.5188 30.0661L24.6611 29.9255L24.5547 29.8179L24.4222 29.891L24.5188 30.0661ZM22.13 31.0864L22.0707 30.8953L21.93 30.939V31.0864H22.13ZM22.13 34.2098L22.33 34.2132V34.2098H22.13ZM12.1502 29.0477L12.2527 28.876L12.2521 28.8757L12.1502 29.0477ZM11.8457 28.8674L11.9476 28.6953L11.8142 28.6163L11.7045 28.7258L11.8457 28.8674ZM15.051 30.2975L14.9966 30.49L14.9969 30.4901L15.051 30.2975ZM15.3843 30.3911H15.5843V30.2395L15.4383 30.1985L15.3843 30.3911ZM19.7076 35.6968V35.8968L19.7087 35.8968L19.7076 35.6968ZM20.7644 35.2585L20.9051 35.4007H20.9051L20.7644 35.2585ZM21.2165 34.204L21.4165 34.2081V34.204H21.2165ZM21.2165 30.3969L21.1625 30.2043L21.0165 30.2453V30.3969H21.2165ZM21.5498 30.3033L21.6039 30.4959L21.604 30.4958L21.5498 30.3033ZM24.3651 29.0989L24.467 29.271L24.4671 29.2709L24.3651 29.0989ZM24.6696 28.9185L24.8118 28.7779L24.7021 28.6669L24.5677 28.7464L24.6696 28.9185ZM27.1257 31.4027L27.268 31.2621L27.2679 31.262L27.1257 31.4027ZM29.2321 31.4094L29.3724 31.552L29.3735 31.5508L29.2321 31.4094ZM31.2386 29.4026L31.0977 29.2608L31.0972 29.2612L31.2386 29.4026ZM31.2511 27.2955L31.1089 27.4362L31.1102 27.4374L31.2511 27.2955ZM28.699 24.714L28.5233 24.6186L28.4524 24.749L28.5568 24.8546L28.699 24.714ZM28.8613 24.4151L29.0371 24.5105L29.0372 24.5103L28.8613 24.4151ZM29.8593 21.9435L29.6666 21.8901L29.6664 21.8906L29.8593 21.9435ZM29.9525 21.6069V21.4069H29.8003L29.7597 21.5536L29.9525 21.6069ZM29.9535 15.7765L29.7607 15.83L29.8014 15.9765H29.9535V15.7765ZM29.8603 15.441L29.6675 15.4943L29.6676 15.4945L29.8603 15.441ZM28.6664 12.6077L28.4935 12.7084L28.4935 12.7084L28.6664 12.6077ZM28.4877 12.3011L28.3464 12.1595L28.2372 12.2685L28.3149 12.4018L28.4877 12.3011ZM31.3145 9.48039L31.1733 9.33877L31.1732 9.33882L31.3145 9.48039ZM31.3251 7.3685L31.1828 7.5091L31.1836 7.50988L31.3251 7.3685ZM29.3272 5.34725L29.4695 5.20662L29.4666 5.20384L29.3272 5.34725ZM28.2737 4.91744L28.2732 5.11744L28.2737 4.91744ZM27.2179 5.34146L27.0792 5.19727L27.0768 5.19967L27.2179 5.34146ZM24.295 8.24894L24.1999 8.42486L24.3307 8.49559L24.4361 8.39073L24.295 8.24894ZM23.9973 8.08789L23.9016 8.26352L23.9021 8.26381L23.9973 8.08789ZM21.5354 7.08595L21.5896 6.89342L21.5893 6.89335L21.5354 7.08595ZM21.2012 6.99241H21.0012V7.14412L21.1473 7.18501L21.2012 6.99241ZM15.39 6.99144L15.4439 7.18404L15.59 7.14316V6.99144H15.39ZM15.0558 7.08498L15.1093 7.27767L15.1097 7.27758L15.0558 7.08498ZM12.6756 8.04064L12.7705 8.2167L12.7705 8.2167L12.6756 8.04064ZM12.3749 8.20265L12.2326 8.34316L12.3379 8.4498L12.4698 8.37871L12.3749 8.20265ZM9.47512 5.26528L9.61745 5.12477L9.6167 5.12402L9.47512 5.26528ZM7.36677 5.25949L7.22627 5.11715L7.22541 5.11801L7.36677 5.25949ZM5.36024 7.26435L5.50039 7.40705L5.5016 7.40583L5.36024 7.26435ZM5.03336 7.74617L5.21773 7.8237L5.03336 7.74617ZM4.91744 8.3174L5.11744 8.31909L5.11744 8.31791L4.91744 8.3174ZM5.02734 8.89186L5.21258 8.81645V8.81645L5.02734 8.89186ZM5.34968 9.37914L5.4921 9.23872L5.49151 9.23813L5.34968 9.37914ZM8.15728 12.2268L8.32944 12.3286L8.40782 12.1961L8.2997 12.0864L8.15728 12.2268ZM7.97766 12.5306L8.1497 12.6326L8.14982 12.6324L7.97766 12.5306ZM6.73283 15.439L6.54028 15.385L6.54016 15.3854L6.73283 15.439ZM6.63966 15.7737V15.9737H6.79158L6.83233 15.8273L6.63966 15.7737ZM2.84463 21.6137L2.84393 21.8137H2.84463V21.6137ZM6.63774 21.6137L6.83045 21.5602L6.78977 21.4137H6.63774V21.6137ZM6.73091 21.9493L6.92368 21.896L6.92362 21.8958L6.73091 21.9493ZM7.68374 24.336L7.50681 24.4292L7.50692 24.4294L7.68374 24.336ZM7.84223 24.6359L7.98338 24.7776L8.08816 24.6732L8.01906 24.5425L7.84223 24.6359ZM5.27379 27.1943L5.13265 27.0526L5.13248 27.0528L5.27379 27.1943ZM4.83486 28.248L4.63486 28.2471L4.83486 28.248ZM5.26515 29.3052L5.12268 29.4456L5.12301 29.4459L5.26515 29.3052ZM7.26592 31.3265L7.12378 31.4672L7.12458 31.468L7.26592 31.3265ZM9.37426 31.3323L9.51465 31.4747L9.5155 31.4739L9.37426 31.3323ZM25.3141 18.693L25.5141 18.6931V18.693H25.3141ZM18.2984 12.5666L18.2987 12.3666L18.2982 12.3666L18.2984 12.5666ZM12.1972 18.693L11.9972 18.6928L11.9972 18.6933L12.1972 18.693ZM13.9865 23.0221L13.8448 23.1633L13.9865 23.0221ZM18.2984 24.8185L18.2982 25.0185L18.2987 25.0185L18.2984 24.8185ZM22.611 23.0225L22.7527 23.1636H22.7527L22.611 23.0225ZM24.4006 18.693L24.6006 18.6933L24.6006 18.6927L24.4006 18.693ZM22.6108 14.3635L22.7525 14.2224V14.2224L22.6108 14.3635ZM36.949 54.0184V54.2184L36.9501 54.2184L36.949 54.0184ZM35.3314 54.0184L35.3313 54.2184H35.3314V54.0184ZM37.9197 53.6146L37.7788 53.4727L37.9197 53.6146ZM38.3328 52.6445L38.5328 52.6479V52.6445H38.3328ZM38.3328 50.8603L38.2735 50.6693L38.1328 50.7129V50.8603H38.3328ZM39.6974 50.2774L39.8396 50.1369L39.7332 50.0292L39.6007 50.1023L39.6974 50.2774ZM40.8172 51.4106L40.675 51.5512L40.675 51.5512L40.8172 51.4106ZM42.7569 51.4183L42.8972 51.5608L42.8983 51.5597L42.7569 51.4183ZM43.9042 50.2714L43.7631 50.1296L43.7628 50.1299L43.9042 50.2714ZM43.9124 48.3246L43.7702 48.4653L43.7715 48.4665L43.9124 48.3246ZM42.7278 47.127L42.5496 47.0362L42.484 47.1649L42.5856 47.2677L42.7278 47.127ZM43.1958 45.9702V45.7702H43.048L43.0046 45.9116L43.1958 45.9702ZM44.9736 45.9702V46.1702H44.974L44.9736 45.9702ZM45.9431 45.5654L46.0849 45.7064V45.7064L45.9431 45.5654ZM46.3448 44.5913L46.5448 44.5914V44.5913H46.3448ZM46.3448 42.9696H46.5448V42.9693L46.3448 42.9696ZM45.9427 41.9964L45.801 42.1376L45.9427 41.9964ZM44.9736 41.5924L44.9739 41.3924H44.9736V41.5924ZM43.1958 41.5924L43.0046 41.651L43.048 41.7924H43.1958V41.5924ZM42.617 40.2185L42.4757 40.0769L42.3696 40.1828L42.4414 40.3143L42.617 40.2185ZM43.9475 38.8909L43.8068 38.7488L43.8063 38.7493L43.9475 38.8909ZM44.2475 38.4454L44.4321 38.5223L44.2475 38.4454ZM44.353 37.9181L44.553 37.9181V37.9181H44.353ZM43.9552 36.943L43.813 37.0836L43.8135 37.0842L43.9552 36.943ZM42.8139 35.7884L42.9562 35.6478L42.9556 35.6472L42.8139 35.7884ZM40.8738 35.7818L40.7333 35.6394L40.7327 35.64L40.8738 35.7818ZM39.4757 37.1722L39.3848 37.3504L39.5139 37.4163L39.6167 37.314L39.4757 37.1722ZM38.3245 36.7034H38.1245V36.8507L38.2651 36.8944L38.3245 36.7034ZM38.3245 34.9197H38.5245V34.9195L38.3245 34.9197ZM37.9225 33.9466L38.0642 33.8054L37.9225 33.9466ZM36.9533 33.5425L36.9537 33.3425H36.9533V33.5425ZM33.9619 36.7012L34.0206 36.8924L34.1619 36.849V36.7012H33.9619ZM32.8595 37.1436L32.7172 37.2841L32.8193 37.3875L32.9493 37.3223L32.8595 37.1436ZM31.4746 35.7405L31.617 35.6L31.6165 35.5995L31.4746 35.7405ZM29.5339 35.7339L29.3936 35.5914L29.3926 35.5924L29.5339 35.7339ZM28.3866 36.8802L28.527 37.0227L28.528 37.0217L28.3866 36.8802ZM28.0858 37.3245L28.2702 37.402L28.0858 37.3245ZM27.9789 37.8509L28.1789 37.8525L28.1789 37.8515L27.9789 37.8509ZM28.3767 38.8287L28.5191 38.6882L28.5187 38.6878L28.3767 38.8287ZM29.6991 40.1695L29.8738 40.2669L29.9468 40.1359L29.8415 40.0291L29.6991 40.1695ZM29.0911 41.5891V41.7891H29.2385L29.2822 41.6483L29.0911 41.5891ZM27.315 41.5891V41.3891H27.3147L27.315 41.5891ZM26.3453 41.9935L26.2035 41.8524L26.3453 41.9935ZM25.9433 42.9674L25.7433 42.9672V42.9674H25.9433ZM25.9433 44.5919H25.7433V44.5923L25.9433 44.5919ZM26.3456 45.5663L26.4875 45.4253L26.3456 45.5663ZM27.315 45.9729L27.314 46.1729H27.315V45.9729ZM29.0884 45.9729L29.2794 45.9136L29.2357 45.7729H29.0884V45.9729ZM29.529 47.0763L29.6702 47.218L29.7719 47.1166L29.7083 46.9878L29.529 47.0763ZM28.3356 48.2662L28.1944 48.1246L28.1942 48.1247L28.3356 48.2662ZM27.9311 49.2381L27.7311 49.2374L27.9311 49.2381ZM28.3284 50.213L28.1861 50.3534L28.1863 50.3537L28.3284 50.213ZM29.4719 51.3682L29.3298 51.5089L29.3304 51.5095L29.4719 51.3682ZM31.4121 51.3742L31.5525 51.5167L31.5533 51.5158L31.4121 51.3742ZM32.5408 50.2482L32.6385 50.0737L32.5066 49.9999L32.3995 50.1067L32.5408 50.2482ZM33.9575 50.8586H34.1575V50.7116L34.0172 50.6677L33.9575 50.8586ZM33.9575 52.6418H33.7575L33.7575 52.6423L33.9575 52.6418ZM34.361 53.6152L34.2195 53.7565L34.361 53.6152ZM32.4579 49.5927L32.5598 49.4206L32.4264 49.3416L32.3167 49.4511L32.4579 49.5927ZM32.6318 49.6957L32.7343 49.524L32.7338 49.5236L32.6318 49.6957ZM31.0461 51.0007L31.1865 51.1432L31.1873 51.1423L31.0461 51.0007ZM29.8417 50.9974L29.6996 51.1381L29.7004 51.1389L29.8417 50.9974ZM28.6988 49.8428L28.5563 49.9832L28.5567 49.9835L28.6988 49.8428ZM28.453 49.2389L28.253 49.238L28.453 49.2389ZM28.7037 48.6369L28.5626 48.4952L28.5624 48.4954L28.7037 48.6369ZM30.171 47.1755L30.3121 47.3172L30.4169 47.2128L30.3478 47.082L30.171 47.1755ZM30.0804 47.0042L29.9035 47.0974L29.9036 47.0976L30.0804 47.0042ZM29.5361 45.6408L29.7289 45.5875L29.7288 45.5873L29.5361 45.6408ZM29.4829 45.4491L29.6756 45.3955L29.6349 45.2491H29.4829V45.4491ZM27.3161 45.4491L27.3154 45.6491H27.3161V45.4491ZM29.484 42.113V42.313H29.6359L29.6767 42.1666L29.484 42.113ZM29.5372 41.9218L29.3447 41.8677L29.3445 41.8682L29.5372 41.9218ZM30.2483 40.2604L30.4204 40.3624L30.4205 40.3622L30.2483 40.2604ZM30.3509 40.0869L30.5231 40.1887L30.6015 40.0561L30.4933 39.9465L30.3509 40.0869ZM28.7471 38.4601L28.8895 38.3197L28.8889 38.3191L28.7471 38.4601ZM28.563 38.1818L28.3777 38.2572V38.2572L28.563 38.1818ZM28.5002 37.8536L28.7002 37.8553L28.7002 37.8541L28.5002 37.8536ZM28.5664 37.5273L28.382 37.4498L28.5664 37.5273ZM28.7531 37.2521L28.8933 37.3948L28.8945 37.3936L28.7531 37.2521ZM29.8993 36.1068L29.7589 35.9645L29.758 35.9653L29.8993 36.1068ZM31.1037 36.1101L31.2461 35.9696L31.2453 35.9689L31.1037 36.1101ZM32.7602 37.7881L32.6179 37.9286L32.7232 38.0352L32.8551 37.9641L32.7602 37.7881ZM32.932 37.6955L33.0269 37.8716H33.0269L32.932 37.6955ZM34.2916 37.1496L34.3452 37.3423L34.3455 37.3422L34.2916 37.1496ZM34.4826 37.0962L34.5365 37.2888L34.6826 37.2479V37.0962H34.4826ZM37.8022 37.0967H37.6022V37.2485L37.7483 37.2893L37.8022 37.0967ZM37.9931 37.1502L38.0473 36.9576L38.047 36.9576L37.9931 37.1502ZM39.3994 37.7225L39.3037 37.8982L39.3043 37.8984L39.3994 37.7225ZM39.5695 37.8145L39.4744 37.9904L39.6051 38.0612L39.7106 37.9563L39.5695 37.8145ZM41.2392 36.1536L41.1005 36.0095L41.0981 36.0119L41.2392 36.1536ZM41.8423 35.9114L41.8418 36.1114L41.8423 35.9114ZM42.4441 36.157L42.5864 36.0163L42.5835 36.0135L42.4441 36.157ZM43.5854 37.3116L43.4432 37.4522L43.4439 37.453L43.5854 37.3116ZM43.5794 38.518L43.4381 38.3764L43.4381 38.3764L43.5794 38.518ZM41.9646 40.1293L41.8233 39.9877L41.7141 40.0967L41.7917 40.23L41.9646 40.1293ZM42.0666 40.3045L41.8938 40.4051L41.8938 40.4052L42.0666 40.3045ZM42.7486 41.9229L42.5559 41.9763L42.5559 41.9764L42.7486 41.9229ZM42.8019 42.1146L42.6091 42.1681L42.6498 42.3146H42.8019V42.1146ZM42.8013 45.4452V45.2452H42.6492L42.6086 45.3918L42.8013 45.4452ZM42.7481 45.6375L42.5553 45.5841L42.5552 45.5846L42.7481 45.6375ZM42.178 47.0493L42.3538 47.1448L42.3539 47.1445L42.178 47.0493ZM42.0853 47.2201L41.9095 47.1247L41.8387 47.2551L41.943 47.3607L42.0853 47.2201ZM43.5431 48.6948L43.4009 48.8354L43.4022 48.8367L43.5431 48.6948ZM43.536 49.8984L43.395 49.7566L43.3946 49.757L43.536 49.8984ZM42.3898 51.0448L42.5301 51.1874L42.5312 51.1862L42.3898 51.0448ZM41.1865 51.041L41.3288 50.9004L41.3287 50.9003L41.1865 51.041ZM39.7835 49.6219L39.9257 49.4813L39.8159 49.3702L39.6816 49.4498L39.7835 49.6219ZM39.6096 49.7249L39.7114 49.897L39.7115 49.897L39.6096 49.7249ZM38.0013 50.413L38.0554 50.6055L38.0555 50.6055L38.0013 50.413ZM37.811 50.4664L37.7569 50.2738L37.611 50.3148V50.4664H37.811ZM37.811 52.6412L38.011 52.6453V52.6412H37.811ZM37.5527 53.2436L37.412 53.1014L37.5527 53.2436ZM36.949 53.494V53.694L36.9501 53.694L36.949 53.494ZM34.4793 50.4631H34.6793V50.3115L34.5333 50.2705L34.4793 50.4631ZM34.2889 50.4097L34.2345 50.6021L34.2349 50.6022L34.2889 50.4097ZM40.1516 43.7806L40.3516 43.7807V43.7806H40.1516ZM36.144 40.281L36.1443 40.081H36.1437L36.144 40.281ZM33.6806 41.3073L33.8223 41.4484L33.6806 41.3073ZM38.6074 41.3074L38.4657 41.4486L38.6074 41.3074ZM39.6298 43.7806L39.8298 43.7809V43.7804L39.6298 43.7806ZM38.6075 46.2538L38.4659 46.1127L38.6075 46.2538ZM36.144 47.2798L36.1437 47.4798L36.1442 47.4798L36.144 47.2798ZM33.6808 46.2536L33.8225 46.1125L33.6808 46.2536ZM32.6587 43.7806L32.4587 43.7804V43.7809L32.6587 43.7806ZM16.8759 36.8149H19.7076V36.4149H16.8759V36.8149ZM15.0357 36.0503C15.5239 36.5396 16.1857 36.8146 16.8759 36.8149L16.876 36.4149C16.2922 36.4147 15.7322 36.182 15.3188 35.7678L15.0357 36.0503ZM14.2708 34.2055C14.2724 34.8977 14.5474 35.5611 15.0357 36.0504L15.3188 35.7678C14.9053 35.3535 14.6722 34.7913 14.6708 34.2045L14.2708 34.2055ZM14.2708 31.0835V34.205H14.6708V31.0835H14.2708ZM11.893 30.1895C12.6928 30.6374 13.5367 31.001 14.4111 31.2743L14.5305 30.8926C13.6825 30.6275 12.8641 30.2749 12.0885 29.8405L11.893 30.1895ZM10.1562 32.1277L12.132 30.1566L11.8495 29.8734L9.87368 31.8445L10.1562 32.1277ZM6.47697 32.1168C7.46434 33.106 9.15399 33.115 10.1553 32.1286L9.87457 31.8436C9.02975 32.6759 7.59194 32.6676 6.76008 31.8342L6.47697 32.1168ZM4.47466 30.094L6.47639 32.1162L6.76066 31.8348L4.75894 29.8126L4.47466 30.094ZM3.72124 28.246C3.7187 28.9375 3.98947 29.602 4.4744 30.0937L4.75919 29.8128C4.3486 29.3965 4.11909 28.8336 4.12124 28.2474L3.72124 28.246ZM4.48793 26.4038C3.9994 26.8919 3.72377 27.5544 3.72124 28.246L4.12124 28.2474C4.12338 27.6612 4.35702 27.1 4.77064 26.6868L4.48793 26.4038ZM6.57721 24.3207L4.48807 26.4037L4.7705 26.6869L6.85963 24.604L6.57721 24.3207ZM5.75613 22.5901C5.96537 23.2633 6.22716 23.9189 6.53908 24.5509L6.89776 24.3738C6.59513 23.7607 6.34113 23.1246 6.13811 22.4714L5.75613 22.5901ZM2.84271 22.7308H5.94712V22.3308H2.84271V22.7308ZM1.00382 21.9598C1.49092 22.4502 2.1516 22.7274 2.84175 22.7308L2.84367 22.3308C2.25964 22.328 1.70026 22.0934 1.28762 21.6779L1.00382 21.9598ZM0.241407 20.1136C0.242771 20.8057 0.516753 21.4695 1.00382 21.9598L1.28762 21.6779C0.874953 21.2625 0.642563 20.6998 0.641406 20.1128L0.241407 20.1136ZM0.241406 17.2693V20.1132H0.641406V17.2693H0.241406ZM1.00342 15.4234C0.515907 15.9133 0.241956 16.5771 0.241406 17.2692L0.641406 17.2695C0.641872 16.6828 0.874113 16.1204 1.28693 15.7056L1.00342 15.4234ZM2.84239 14.6566C2.15229 14.6577 1.49096 14.9335 1.00342 15.4234L1.28693 15.7056C1.69973 15.2908 2.25936 15.0575 2.84303 15.0566L2.84239 14.6566ZM5.95192 14.6566H2.84271V15.0566H5.95192V14.6566ZM6.8415 12.2741C6.39487 13.0752 6.03271 13.9208 5.7609 14.7973L6.14295 14.9158C6.40655 14.0658 6.75776 13.2457 7.19087 12.4689L6.8415 12.2741ZM4.55892 10.1647L6.87378 12.5119L7.15858 12.231L4.84372 9.88384L4.55892 10.1647ZM3.99682 9.31394C4.12632 9.63225 4.31753 9.92161 4.5594 10.1652L4.84325 9.88336C4.63871 9.67737 4.47693 9.43258 4.36733 9.16321L3.99682 9.31394ZM3.80495 8.31093C3.80211 8.65471 3.86733 8.99564 3.99682 9.31394L4.36733 9.16321C4.25774 8.89383 4.20253 8.60525 4.20494 8.31423L3.80495 8.31093ZM4.0077 7.31372C3.87497 7.62973 3.80606 7.96902 3.80495 8.31193L4.20494 8.31323C4.20589 8.02305 4.2642 7.73596 4.37649 7.46862L4.0077 7.31372ZM4.57825 6.47095C4.33435 6.71124 4.14043 6.99771 4.0077 7.31372L4.37649 7.46862C4.48878 7.20127 4.65279 6.95903 4.85897 6.75589L4.57825 6.47095ZM6.5857 4.46516L4.57725 6.47194L4.85997 6.7549L6.86843 4.74812L6.5857 4.46516ZM10.2663 4.47722C9.2855 3.49045 7.58506 3.48068 6.58671 4.46416L6.86742 4.74912C7.70943 3.91965 9.15758 3.92916 9.98258 4.7592L10.2663 4.47722ZM12.6911 6.93388L10.2668 4.47771L9.98209 4.75871L12.4064 7.21487L12.6911 6.93388ZM14.4197 6.10883C13.7405 6.31753 13.0837 6.58208 12.4591 6.89563L12.6385 7.25312C13.2434 6.9495 13.8794 6.6933 14.5372 6.49119L14.4197 6.10883ZM14.2785 3.18135V6.30001H14.6785V3.18135H14.2785ZM16.8798 0.570508C15.445 0.570508 14.2785 1.74177 14.2785 3.18135H14.6785C14.6785 1.96129 15.6673 0.970508 16.8798 0.970508V0.570508ZM19.7152 0.570508H16.8798V0.970508H19.7152V0.570508ZM21.5535 1.3367C21.0662 0.84724 20.4052 0.571614 19.7156 0.570508L19.7149 0.970508C20.2982 0.971443 20.8574 1.20453 21.27 1.61892L21.5535 1.3367ZM22.3156 3.18111C22.3148 2.48943 22.0408 1.82613 21.5535 1.3367L21.27 1.61893C21.6826 2.03335 21.9149 2.59529 21.9156 3.18159L22.3156 3.18111ZM22.3156 6.30387V3.18135H21.9156V6.30387H22.3156ZM24.2217 6.94637C23.5642 6.61087 22.8795 6.33204 22.175 6.1129L22.0562 6.49484C22.739 6.70724 23.4026 6.97748 24.0399 7.30267L24.2217 6.94637ZM26.4371 4.54873L23.9897 6.98271L24.2718 7.26633L26.7192 4.83235L26.4371 4.54873ZM30.1162 4.56089C29.133 3.5748 27.4394 3.56032 26.4377 4.54814L26.7186 4.83294C27.5631 4.00009 29.0046 4.01261 29.833 4.84332L30.1162 4.56089ZM32.1147 6.58276L30.1168 4.56151L29.8323 4.8427L31.8302 6.86395L32.1147 6.58276ZM32.8689 8.43023C32.8689 7.72858 32.6009 7.0709 32.1142 6.58222L31.8308 6.8645C32.2411 7.2765 32.4688 7.83195 32.4688 8.43023H32.8689ZM32.6688 9.43022C32.8008 9.11347 32.8688 8.77356 32.8689 8.43024L32.4688 8.43022C32.4688 8.72075 32.4113 9.00836 32.2996 9.27633L32.6688 9.43022ZM32.0997 10.2754C32.3434 10.0343 32.5368 9.74697 32.6688 9.43022L32.2996 9.27633C32.1879 9.5443 32.0243 9.78725 31.8183 9.9911L32.0997 10.2754ZM29.771 12.5989L32.1003 10.2748L31.8178 9.99167L29.4885 12.3157L29.771 12.5989ZM30.8343 14.8037C30.5748 13.9576 30.2296 13.1389 29.8053 12.3615L29.4542 12.5531C29.8656 13.307 30.2004 14.1008 30.4519 14.921L30.8343 14.8037ZM33.7552 14.6624H30.6431V15.0624H33.7552V14.6624ZM35.5934 15.4285C35.1061 14.9391 34.4452 14.6635 33.7555 14.6624L33.7549 15.0624C34.3381 15.0633 34.8974 15.2964 35.31 15.7108L35.5934 15.4285ZM36.3555 17.273C36.3547 16.5813 36.0808 15.918 35.5934 15.4285L35.31 15.7108C35.7226 16.1252 35.9548 16.6871 35.9555 17.2734L36.3555 17.273ZM36.3555 20.1122V17.2732H35.9555V20.1122H36.3555ZM35.5943 21.9584C36.0816 21.4683 36.3553 20.8044 36.3555 20.1123L35.9555 20.1121C35.9553 20.6988 35.7233 21.2613 35.3106 21.6763L35.5943 21.9584ZM33.7556 22.7259C34.4457 22.7246 35.1069 22.4484 35.5943 21.9584L35.3106 21.6763C34.898 22.0912 34.3385 22.3248 33.7548 22.3259L33.7556 22.7259ZM30.6431 22.7259H33.7552V22.3259H30.6431V22.7259ZM30.002 24.6419C30.3385 23.9817 30.617 23.2933 30.8343 22.5846L30.4519 22.4673C30.2414 23.1539 29.9716 23.8207 29.6456 24.4602L30.002 24.6419ZM32.0397 26.5069L29.966 24.4104L29.6816 24.6917L31.7554 26.7882L32.0397 26.5069ZM32.793 28.3544C32.793 27.6485 32.5254 26.9892 32.0385 26.5056L31.7566 26.7894C32.1649 27.1949 32.393 27.7507 32.393 28.3544H32.793ZM32.0243 30.1972C32.5188 29.7049 32.793 29.0503 32.793 28.3544H32.393C32.393 28.9429 32.1619 29.4957 31.742 29.9137L32.0243 30.1972ZM30.0161 32.2047L32.0245 30.1969L31.7417 29.914L29.7333 31.9218L30.0161 32.2047ZM26.337 32.1903C27.3099 33.1744 29.0135 33.1924 30.015 32.2057L29.7343 31.9207C28.8898 32.7528 27.439 32.7361 26.6215 31.9091L26.337 32.1903ZM24.3766 30.2067L26.337 32.1903L26.6215 31.9091L24.6611 29.9255L24.3766 30.2067ZM22.1893 31.2774C23.0257 31.0177 23.8383 30.67 24.6154 30.2412L24.4222 29.891C23.6682 30.307 22.8806 30.6439 22.0707 30.8953L22.1893 31.2774ZM22.33 34.2098V31.0864H21.93V34.2098H22.33ZM21.5479 36.0499C22.0377 35.5636 22.3183 34.9044 22.33 34.2132L21.93 34.2065C21.9201 34.7936 21.6817 35.3534 21.2661 35.7661L21.5479 36.0499ZM19.7087 36.8149C20.3979 36.8109 21.0581 36.5362 21.5479 36.0499L21.2661 35.7661C20.8504 36.1787 20.2906 36.4115 19.7064 36.4149L19.7087 36.8149ZM12.2521 28.8757L11.9476 28.6953L11.7438 29.0395L12.0483 29.2198L12.2521 28.8757ZM15.1053 30.1051C14.105 29.8224 13.146 29.4092 12.2527 28.876L12.0477 29.2195C12.971 29.7706 13.9625 30.1978 14.9966 30.49L15.1053 30.1051ZM15.4383 30.1985L15.105 30.105L14.9969 30.4901L15.3302 30.5836L15.4383 30.1985ZM15.5843 34.2031V30.3911H15.1843V34.2031H15.5843ZM16.8759 35.4968C16.1644 35.4968 15.5843 34.9164 15.5843 34.2031H15.1843C15.1843 35.1368 15.943 35.8968 16.8759 35.8968V35.4968ZM19.7076 35.4968H16.8759V35.8968H19.7076V35.4968ZM20.6238 35.1163C20.379 35.3585 20.0498 35.495 19.7065 35.4968L19.7087 35.8968C20.1568 35.8944 20.5861 35.7162 20.9051 35.4007L20.6238 35.1163ZM21.0166 34.2C21.0096 34.5454 20.8686 34.8741 20.6238 35.1163L20.9051 35.4007C21.224 35.0852 21.4074 34.6572 21.4165 34.2081L21.0166 34.2ZM21.0165 30.3969V34.204H21.4165V30.3969H21.0165ZM21.4958 30.1108L21.1625 30.2043L21.2706 30.5894L21.6039 30.4959L21.4958 30.1108ZM24.2633 28.9267C23.3957 29.44 22.4654 29.838 21.4957 30.1108L21.604 30.4958C22.6071 30.2137 23.5695 29.8019 24.467 29.271L24.2633 28.9267ZM24.5677 28.7464L24.2632 28.9268L24.4671 29.2709L24.7715 29.0906L24.5677 28.7464ZM27.2679 31.262L24.8118 28.7779L24.5274 29.0591L26.9835 31.5433L27.2679 31.262ZM29.0918 31.2668C28.5965 31.7541 27.7442 31.7444 27.268 31.2621L26.9834 31.5432C27.6156 32.1834 28.7208 32.193 29.3724 31.552L29.0918 31.2668ZM31.0972 29.2612L29.0907 31.268L29.3735 31.5508L31.3801 29.544L31.0972 29.2612ZM31.4786 28.3525C31.4786 28.6938 31.3438 29.0162 31.0977 29.2608L31.3796 29.5445C31.7002 29.2259 31.8786 28.8018 31.8786 28.3525H31.4786ZM31.1102 27.4374C31.346 27.6717 31.4786 27.9949 31.4786 28.3525H31.8786C31.8786 27.8942 31.7076 27.4671 31.3921 27.1537L31.1102 27.4374ZM28.5568 24.8546L31.1089 27.4362L31.3934 27.1549L28.8412 24.5734L28.5568 24.8546ZM28.6856 24.3196L28.5233 24.6186L28.8748 24.8095L29.0371 24.5105L28.6856 24.3196ZM29.6664 21.8906C29.4401 22.7164 29.1106 23.5344 28.6855 24.3199L29.0372 24.5103C29.4765 23.6988 29.8175 22.8524 30.0522 21.9964L29.6664 21.8906ZM29.7597 21.5536L29.6666 21.8901L30.0521 21.9968L30.1452 21.6603L29.7597 21.5536ZM33.7552 21.4069H29.9525V21.8069H33.7552V21.4069ZM35.0431 20.1103C35.0431 20.8264 34.4639 21.4069 33.7552 21.4069V21.8069C34.687 21.8069 35.4431 21.0451 35.4431 20.1103H35.0431ZM35.0431 17.2713V20.1103H35.4431V17.2713H35.0431ZM33.7552 15.9765C34.4641 15.9765 35.0431 16.5573 35.0431 17.2713H35.4431C35.4431 16.3382 34.6869 15.5765 33.7552 15.5765V15.9765ZM29.9535 15.9765H33.7552V15.5765H29.9535V15.9765ZM29.6676 15.4945L29.7607 15.83L30.1462 15.723L30.053 15.3875L29.6676 15.4945ZM28.4935 12.7084C29.0028 13.5824 29.3974 14.5188 29.6675 15.4943L30.053 15.3876C29.7737 14.3789 29.3657 13.4107 28.8392 12.5071L28.4935 12.7084ZM28.3149 12.4018L28.4935 12.7084L28.8392 12.5071L28.6605 12.2004L28.3149 12.4018ZM31.1732 9.33882L28.3464 12.1595L28.629 12.4427L31.4558 9.62197L31.1732 9.33882ZM31.5554 8.42734C31.5554 8.7687 31.4206 9.09216 31.1733 9.33877L31.4557 9.62201C31.7771 9.3016 31.9554 8.87673 31.9554 8.42734H31.5554ZM31.1836 7.50988C31.4224 7.74876 31.5554 8.07341 31.5554 8.42734H31.9554C31.9554 7.97122 31.783 7.54369 31.4665 7.22711L31.1836 7.50988ZM29.185 5.48784L31.1828 7.50909L31.4673 7.2279L29.4694 5.20665L29.185 5.48784ZM28.2732 5.11744C28.6145 5.11838 28.9423 5.25206 29.1878 5.49066L29.4666 5.20384C29.1469 4.89309 28.7196 4.71866 28.2743 4.71744L28.2732 5.11744ZM27.3565 5.48563C27.6033 5.24839 27.9318 5.1165 28.2732 5.11744L28.2743 4.71744C27.829 4.71622 27.4007 4.8883 27.0793 5.19729L27.3565 5.48563ZM24.4361 8.39073L27.3589 5.48326L27.0768 5.19967L24.154 8.10714L24.4361 8.39073ZM23.9021 8.26381L24.1999 8.42486L24.3902 8.07302L24.0924 7.91197L23.9021 8.26381ZM21.4813 7.27848C22.3222 7.51498 23.134 7.84539 23.9016 8.26352L24.0929 7.91226C23.299 7.47979 22.4594 7.13804 21.5896 6.89342L21.4813 7.27848ZM21.1473 7.18501L21.4815 7.27855L21.5893 6.89335L21.2551 6.79981L21.1473 7.18501ZM21.0012 3.18135V6.99241H21.4012V3.18135H21.0012ZM19.7133 1.88663C20.4222 1.88663 21.0012 2.46735 21.0012 3.18135H21.4012C21.4012 2.24827 20.645 1.48663 19.7133 1.48663V1.88663ZM16.8779 1.88663H19.7133V1.48663H16.8779V1.88663ZM15.59 3.18135C15.59 2.46647 16.1689 1.88663 16.8779 1.88663V1.48663C15.9463 1.48663 15.19 2.24722 15.19 3.18135H15.59ZM15.59 6.99144V3.18135H15.19V6.99144H15.59ZM15.1097 7.27758L15.4439 7.18404L15.3361 6.79884L15.0019 6.89238L15.1097 7.27758ZM12.7705 8.2167C13.5016 7.82269 14.2878 7.50614 15.1093 7.27767L15.0022 6.8923C14.1524 7.12863 13.3384 7.45626 12.5807 7.86458L12.7705 8.2167ZM12.4698 8.37871L12.7705 8.2167L12.5807 7.86458L12.2801 8.02658L12.4698 8.37871ZM9.33279 5.40579L12.2326 8.34316L12.5173 8.06214L9.61745 5.12477L9.33279 5.40579ZM7.50727 5.40183C7.99832 4.91715 8.85297 4.92489 9.33354 5.40654L9.6167 5.12402C8.98114 4.48704 7.87441 4.47742 7.22628 5.11715L7.50727 5.40183ZM5.5016 7.40583L7.50814 5.40097L7.22541 5.11801L5.21888 7.12287L5.5016 7.40583ZM5.21773 7.8237C5.28349 7.6673 5.37959 7.52567 5.50038 7.40704L5.2201 7.12166C5.06143 7.27749 4.93529 7.46345 4.849 7.66865L5.21773 7.8237ZM5.11744 8.31791C5.11787 8.1481 5.15197 7.98009 5.21773 7.8237L4.849 7.66865C4.76272 7.87385 4.718 8.09422 4.71744 8.3169L5.11744 8.31791ZM5.21258 8.81645C5.14834 8.65866 5.11599 8.48959 5.11743 8.31909L4.71745 8.31572C4.71556 8.53903 4.75793 8.76051 4.8421 8.96727L5.21258 8.81645ZM5.49151 9.23813C5.37164 9.11757 5.27681 8.97423 5.21258 8.81645L4.8421 8.96727C4.92628 9.17403 5.05059 9.36198 5.20784 9.52015L5.49151 9.23813ZM8.2997 12.0864L5.4921 9.23872L5.20726 9.51956L8.01486 12.3672L8.2997 12.0864ZM8.14982 12.6324L8.32944 12.3286L7.98513 12.125L7.80551 12.4288L8.14982 12.6324ZM6.92538 15.4931C7.20712 14.4899 7.61875 13.5282 8.1497 12.6326L7.80562 12.4286C7.25686 13.3543 6.83145 14.3482 6.54028 15.385L6.92538 15.4931ZM6.83233 15.8273L6.9255 15.4927L6.54016 15.3854L6.44699 15.72L6.83233 15.8273ZM2.84271 15.9737H6.63966V15.5737H2.84271V15.9737ZM1.55486 17.2693C1.55486 16.5543 2.13388 15.9737 2.84271 15.9737V15.5737C1.91097 15.5737 1.15486 16.3354 1.15486 17.2693H1.55486ZM1.55486 20.1132V17.2693H1.15486V20.1132H1.55486ZM2.84534 21.4137C2.13406 21.4112 1.55486 20.8282 1.55486 20.1132H1.15486C1.15486 21.0471 1.91079 21.8104 2.84393 21.8137L2.84534 21.4137ZM6.63774 21.4137H2.84463V21.8137H6.63774V21.4137ZM6.92362 21.8958L6.83045 21.5602L6.44502 21.6672L6.5382 22.0028L6.92362 21.8958ZM7.86068 24.2427C7.45694 23.4767 7.14252 22.6877 6.92368 21.896L6.53814 22.0026C6.76497 22.8232 7.09027 23.6389 7.50681 24.4292L7.86068 24.2427ZM8.01906 24.5425L7.86057 24.2426L7.50692 24.4294L7.6654 24.7294L8.01906 24.5425ZM5.41494 27.336L7.98338 24.7776L7.70109 24.4942L5.13265 27.0526L5.41494 27.336ZM5.03486 28.2488C5.03626 27.9058 5.1731 27.5775 5.41511 27.3358L5.13248 27.0528C4.81556 27.3692 4.6367 27.7987 4.63486 28.2471L5.03486 28.2488ZM5.40762 29.1649C5.16759 28.9212 5.03345 28.5918 5.03486 28.2488L4.63486 28.2471C4.63302 28.6955 4.80836 29.1265 5.12268 29.4456L5.40762 29.1649ZM7.40806 31.1858L5.40729 29.1645L5.12301 29.4459L7.12378 31.4672L7.40806 31.1858ZM9.23388 31.1898C8.73975 31.6767 7.89443 31.6716 7.40726 31.185L7.12458 31.468C7.76698 32.1096 8.86384 32.116 9.51464 31.4747L9.23388 31.1898ZM11.7045 28.7258L9.23303 31.1906L9.5155 31.4739L11.9869 29.009L11.7045 28.7258ZM11.0847 18.693C11.0847 22.6851 14.3192 25.9346 18.2984 25.9346V25.5346C14.5416 25.5346 11.4847 22.4657 11.4847 18.693H11.0847ZM18.2984 11.4495C14.3201 11.4495 11.0847 14.699 11.0847 18.693H11.4847C11.4847 14.9183 14.5426 11.8495 18.2984 11.8495V11.4495ZM25.5141 18.693C25.5141 14.6999 22.2777 11.4495 18.2984 11.4495V11.8495C22.0553 11.8495 25.1141 14.9193 25.1141 18.693H25.5141ZM18.2984 25.9346C22.2776 25.9346 25.5131 22.6861 25.5141 18.6931L25.1141 18.693C25.1132 22.4666 22.0553 25.5346 18.2984 25.5346V25.9346ZM14.1278 14.5044C15.2342 13.3934 16.7342 12.7686 18.2987 12.7666L18.2982 12.3666C16.6273 12.3687 15.0256 13.0361 13.8444 14.2222L14.1278 14.5044ZM12.3972 18.6932C12.3989 17.1218 13.0214 15.6154 14.1278 14.5044L13.8444 14.2222C12.6633 15.4082 11.999 17.016 11.9972 18.6928L12.3972 18.6932ZM14.1282 22.881C13.0217 21.7702 12.3992 20.264 12.3972 18.6928L11.9972 18.6933C11.9993 20.3699 12.6636 21.9774 13.8448 23.1633L14.1282 22.881ZM18.2987 24.6185C16.7344 24.6165 15.2345 23.9917 14.1282 22.881L13.8448 23.1633C15.0259 24.3491 16.6274 25.0164 18.2982 25.0185L18.2987 24.6185ZM22.4693 22.8813C21.3628 23.9921 19.8627 24.6167 18.2982 24.6185L18.2987 25.0185C19.9696 25.0166 21.5714 24.3495 22.7527 23.1636L22.4693 22.8813ZM24.2006 18.6928C24.1987 20.2642 23.576 21.7705 22.4693 22.8813L22.7527 23.1636C23.9341 21.9778 24.5985 20.3701 24.6006 18.6933L24.2006 18.6928ZM22.4691 14.5046C23.5757 15.6156 24.1984 17.1219 24.2006 18.6933L24.6006 18.6927C24.5983 17.0159 23.9338 15.4083 22.7525 14.2224L22.4691 14.5046ZM18.2981 12.7666C19.8626 12.7688 21.3626 13.3937 22.4691 14.5046L22.7525 14.2224C21.5713 13.0364 19.9696 12.3689 18.2987 12.3666L18.2981 12.7666ZM36.949 53.8184H35.3314V54.2184H36.949V53.8184ZM37.7788 53.4727C37.5573 53.6926 37.259 53.8166 36.9478 53.8184L36.9501 54.2184C37.3663 54.216 37.7649 54.0501 38.0606 53.7565L37.7788 53.4727ZM38.1328 52.6412C38.1275 52.9543 38.0004 53.2527 37.7788 53.4727L38.0606 53.7565C38.3563 53.463 38.5257 53.065 38.5327 52.6479L38.1328 52.6412ZM38.1328 50.8603V52.6445H38.5328V50.8603H38.1328ZM39.6007 50.1023C39.175 50.3372 38.7304 50.5274 38.2735 50.6693L38.3921 51.0513C38.8755 50.9012 39.3451 50.7002 39.794 50.4526L39.6007 50.1023ZM40.9595 51.27L39.8396 50.1369L39.5551 50.418L40.675 51.5512L40.9595 51.27ZM42.6165 51.2758C42.1677 51.718 41.3932 51.7087 40.9595 51.27L40.675 51.5512C41.2641 52.147 42.2914 52.1576 42.8972 51.5608L42.6165 51.2758ZM43.7628 50.1299L42.6155 51.2769L42.8983 51.5597L44.0456 50.4128L43.7628 50.1299ZM44.1097 49.2996C44.1097 49.6128 43.9869 49.9068 43.7631 50.1296L44.0453 50.4131C44.3438 50.1159 44.5097 49.7202 44.5097 49.2996H44.1097ZM43.7715 48.4665C43.9879 48.6814 44.1097 48.9767 44.1097 49.2996H44.5097C44.5097 48.8745 44.3484 48.4757 44.0534 48.1827L43.7715 48.4665ZM42.5856 47.2677L43.7702 48.4653L44.0546 48.184L42.87 46.9864L42.5856 47.2677ZM43.0046 45.9116C42.8858 46.299 42.7336 46.6753 42.5496 47.0362L42.906 47.2178C43.1005 46.8363 43.2615 46.4384 43.387 46.0288L43.0046 45.9116ZM44.9736 45.7702H43.1958V46.1702H44.9736V45.7702ZM45.8013 45.4244C45.5816 45.6453 45.2838 45.7696 44.9732 45.7702L44.974 46.1702C45.391 46.1693 45.7905 46.0025 46.0849 45.7064L45.8013 45.4244ZM46.1448 44.5913C46.1446 44.9038 46.021 45.2034 45.8013 45.4244L46.0849 45.7064C46.3793 45.4104 46.5446 45.0094 46.5448 44.5914L46.1448 44.5913ZM46.1448 42.9696V44.5913H46.5448V42.9696H46.1448ZM45.801 42.1376C46.0207 42.3582 46.1444 42.6575 46.1448 42.9698L46.5448 42.9693C46.5443 42.5516 46.3788 42.151 46.0844 41.8553L45.801 42.1376ZM44.9733 41.7924C45.2836 41.7929 45.5813 41.9169 45.801 42.1376L46.0844 41.8553C45.79 41.5596 45.3907 41.3931 44.9739 41.3924L44.9733 41.7924ZM43.1958 41.7924H44.9736V41.3924H43.1958V41.7924ZM42.4414 40.3143C42.6737 40.74 42.8626 41.188 43.0046 41.651L43.387 41.5338C43.2371 41.0448 43.0376 40.5719 42.7925 40.1227L42.4414 40.3143ZM43.8063 38.7493L42.4757 40.0769L42.7582 40.3601L44.0888 39.0325L43.8063 38.7493ZM44.0629 38.3684C44.0035 38.511 43.9164 38.6403 43.8068 38.7488L44.0882 39.0331C44.2355 38.8873 44.3524 38.7137 44.4321 38.5223L44.0629 38.3684ZM44.153 37.9181C44.153 38.0727 44.1224 38.2258 44.0629 38.3684L44.4321 38.5223C44.5119 38.3309 44.553 38.1255 44.553 37.9181L44.153 37.9181ZM43.8135 37.0842C44.0316 37.3031 44.153 37.5985 44.153 37.9181H44.553C44.553 37.4951 44.3913 37.0975 44.0969 36.8019L43.8135 37.0842ZM42.6717 35.929L43.813 37.0836L44.0975 36.8024L42.9562 35.6478L42.6717 35.929ZM41.0142 35.9242C41.4629 35.4817 42.2323 35.4884 42.6723 35.9296L42.9556 35.6472C42.3607 35.0506 41.3392 35.0419 40.7333 35.6394L41.0142 35.9242ZM39.6167 37.314L41.0148 35.9236L40.7327 35.64L39.3347 37.0304L39.6167 37.314ZM38.2651 36.8944C38.6505 37.0143 39.0251 37.1668 39.3848 37.3504L39.5666 36.9941C39.1867 36.8002 38.791 36.6391 38.3839 36.5124L38.2651 36.8944ZM38.1245 34.9197V36.7034H38.5245V34.9197H38.1245ZM37.7807 34.0877C38.0004 34.3083 38.1242 34.6076 38.1245 34.9199L38.5245 34.9195C38.524 34.5017 38.3586 34.1011 38.0642 33.8054L37.7807 34.0877ZM36.953 33.7425C37.2634 33.743 37.5611 33.867 37.7807 34.0877L38.0642 33.8054C37.7698 33.5098 37.3704 33.3432 36.9537 33.3425L36.953 33.7425ZM35.3336 33.7425H36.9533V33.3425H35.3336V33.7425ZM34.1619 34.9197C34.1619 34.2698 34.6887 33.7425 35.3336 33.7425V33.3425C34.4664 33.3425 33.7619 34.0503 33.7619 34.9197H34.1619ZM34.1619 36.7012V34.9197H33.7619V36.7012H34.1619ZM32.9493 37.3223C33.2905 37.151 33.6494 37.0064 34.0206 36.8924L33.9031 36.51C33.5105 36.6307 33.1309 36.7836 32.7698 36.9648L32.9493 37.3223ZM31.3323 35.881L32.7172 37.2841L33.0019 37.0031L31.617 35.6L31.3323 35.881ZM29.6743 35.8764C30.1218 35.4355 30.8949 35.4409 31.3328 35.8815L31.6165 35.5995C31.0228 35.0022 29.9974 34.9966 29.3936 35.5914L29.6743 35.8764ZM28.528 37.0217L29.6753 35.8754L29.3926 35.5924L28.2452 36.7388L28.528 37.0217ZM28.2702 37.402C28.33 37.2597 28.4173 37.1308 28.527 37.0227L28.2462 36.7378C28.0988 36.883 27.9816 37.0561 27.9014 37.2471L28.2702 37.402ZM28.1789 37.8515C28.1794 37.6971 28.2105 37.5443 28.2702 37.402L27.9014 37.2471C27.8212 37.438 27.7796 37.643 27.7789 37.8502L28.1789 37.8515ZM28.2654 38.3045C28.207 38.1611 28.1776 38.0075 28.1789 37.8525L27.7789 37.8492C27.7772 38.0569 27.8166 38.2629 27.8949 38.4552L28.2654 38.3045ZM28.5187 38.6878C28.4098 38.5781 28.3237 38.4479 28.2654 38.3045L27.8949 38.4552C27.9731 38.6475 28.0886 38.8224 28.2348 38.9696L28.5187 38.6878ZM29.8415 40.0291L28.5191 38.6882L28.2343 38.9691L29.5567 40.3099L29.8415 40.0291ZM29.2822 41.6483C29.431 41.1684 29.6292 40.7055 29.8738 40.2669L29.5244 40.0721C29.2664 40.5349 29.0571 41.0235 28.9001 41.5299L29.2822 41.6483ZM27.315 41.7891H29.0911V41.3891H27.315V41.7891ZM26.4871 42.1346C26.7068 41.9137 27.0047 41.7896 27.3153 41.7891L27.3147 41.3891C26.8977 41.3898 26.4981 41.5565 26.2035 41.8524L26.4871 42.1346ZM26.1433 42.9675C26.1435 42.655 26.2672 42.3554 26.4871 42.1346L26.2035 41.8524C25.909 42.1483 25.7436 42.5493 25.7433 42.9672L26.1433 42.9675ZM26.1433 44.5919V42.9674H25.7433V44.5919H26.1433ZM26.4875 45.4253C26.2677 45.2041 26.1439 44.9043 26.1433 44.5915L25.7433 44.5923C25.7441 45.0102 25.9095 45.411 26.2037 45.7072L26.4875 45.4253ZM27.316 45.7729C27.0051 45.7714 26.7073 45.6466 26.4875 45.4253L26.2037 45.7072C26.4979 46.0034 26.897 46.1709 27.314 46.1729L27.316 45.7729ZM29.0884 45.7729H27.315V46.1729H29.0884V45.7729ZM29.7083 46.9878C29.5374 46.6416 29.394 46.2824 29.2794 45.9136L28.8974 46.0323C29.0183 46.4212 29.1695 46.7998 29.3496 47.1649L29.7083 46.9878ZM28.4768 48.4078L29.6702 47.218L29.3878 46.9347L28.1944 48.1246L28.4768 48.4078ZM28.1311 49.2389C28.1322 48.9266 28.2567 48.6277 28.4769 48.4077L28.1942 48.1247C27.8991 48.4196 27.7326 48.8197 27.7311 49.2374L28.1311 49.2389ZM28.4708 50.0725C28.2522 49.8509 28.13 49.5511 28.1311 49.2389L27.7311 49.2374C27.7296 49.655 27.8931 50.0564 28.1861 50.3534L28.4708 50.0725ZM29.6141 51.2275L28.4706 50.0723L28.1863 50.3537L29.3298 51.5089L29.6141 51.2275ZM31.2717 51.2318C30.8227 51.6741 30.0553 51.6696 29.6135 51.2269L29.3304 51.5095C29.9277 52.1079 30.9469 52.1133 31.5525 51.5167L31.2717 51.2318ZM32.3995 50.1067L31.2708 51.2326L31.5533 51.5158L32.682 50.3898L32.3995 50.1067ZM34.0172 50.6677C33.5384 50.5181 33.0764 50.319 32.6385 50.0737L32.443 50.4227C32.9051 50.6815 33.3926 50.8916 33.8978 51.0495L34.0172 50.6677ZM34.1575 52.6418V50.8586H33.7575V52.6418H34.1575ZM34.5026 53.4739C34.2824 53.2533 34.1582 52.9539 34.1575 52.6413L33.7575 52.6423C33.7585 53.0603 33.9245 53.461 34.2195 53.7565L34.5026 53.4739ZM35.3315 53.8184C35.0208 53.8183 34.7227 53.6945 34.5026 53.4739L34.2195 53.7565C34.5144 54.052 34.9143 54.2182 35.3313 54.2184L35.3315 53.8184ZM32.356 49.7648L32.5299 49.8678L32.7338 49.5236L32.5598 49.4206L32.356 49.7648ZM31.1873 51.1423L32.5991 49.7343L32.3167 49.4511L30.9049 50.8591L31.1873 51.1423ZM29.7004 51.1389C30.1006 51.5387 30.7811 51.5426 31.1865 51.1432L30.9057 50.8583C30.6571 51.1033 30.2281 51.1007 29.9831 50.8559L29.7004 51.1389ZM28.5567 49.9835L29.6996 51.1381L29.9839 50.8567L28.841 49.7021L28.5567 49.9835ZM28.253 49.238C28.2519 49.5168 28.3609 49.7847 28.5563 49.9832L28.8413 49.7024C28.7201 49.5794 28.6523 49.413 28.653 49.2397L28.253 49.238ZM28.5624 48.4954C28.3653 48.6922 28.2542 48.9593 28.253 49.238L28.653 49.2397C28.6537 49.0663 28.7229 48.9005 28.8451 48.7785L28.5624 48.4954ZM30.0298 47.0338L28.5626 48.4952L28.8449 48.7786L30.3121 47.3172L30.0298 47.0338ZM29.9036 47.0976L29.9941 47.2689L30.3478 47.082L30.2572 46.9107L29.9036 47.0976ZM29.3433 45.694C29.4746 46.169 29.6628 46.6407 29.9035 47.0974L30.2573 46.9109C30.0295 46.4785 29.8522 46.0335 29.7289 45.5875L29.3433 45.694ZM29.2902 45.5026L29.3434 45.6943L29.7288 45.5873L29.6756 45.3955L29.2902 45.5026ZM27.3161 45.6491H29.4829V45.2491H27.3161V45.6491ZM26.2651 44.5919C26.2651 45.1723 26.7348 45.647 27.3154 45.6491L27.3168 45.2491C26.9581 45.2478 26.6651 44.9535 26.6651 44.5919H26.2651ZM26.2651 42.9674V44.5919H26.6651V42.9674H26.2651ZM27.315 41.913C26.735 41.913 26.2651 42.3869 26.2651 42.9674H26.6651C26.6651 42.6058 26.9579 42.313 27.315 42.313V41.913ZM29.484 41.913H27.315V42.313H29.484V41.913ZM29.3445 41.8682L29.2913 42.0593L29.6767 42.1666L29.7299 41.9755L29.3445 41.8682ZM30.0763 40.1584C29.759 40.6936 29.513 41.2683 29.3447 41.8677L29.7298 41.9759C29.8887 41.41 30.1209 40.8676 30.4204 40.3624L30.0763 40.1584ZM30.1788 39.9851L30.0762 40.1586L30.4205 40.3622L30.5231 40.1887L30.1788 39.9851ZM28.6047 38.6006L30.2085 40.2273L30.4933 39.9465L28.8895 38.3197L28.6047 38.6006ZM28.3777 38.2572C28.4301 38.3858 28.5074 38.5027 28.6053 38.6012L28.8889 38.3191C28.8285 38.2583 28.7806 38.186 28.7482 38.1064L28.3777 38.2572ZM28.3002 37.8519C28.299 37.9908 28.3254 38.1286 28.3777 38.2572L28.7482 38.1064C28.7158 38.0267 28.6994 37.9414 28.7002 37.8553L28.3002 37.8519ZM28.382 37.4498C28.3284 37.5775 28.3005 37.7146 28.3002 37.8531L28.7002 37.8541C28.7004 37.7685 28.7176 37.6837 28.7508 37.6048L28.382 37.4498ZM28.613 37.1094C28.5142 37.2064 28.4357 37.3221 28.382 37.4498L28.7508 37.6048C28.7839 37.526 28.8324 37.4546 28.8933 37.3948L28.613 37.1094ZM29.758 35.9653L28.6118 37.1106L28.8945 37.3936L30.0407 36.2483L29.758 35.9653ZM31.2453 35.9689C30.849 35.5717 30.1628 35.5658 29.7589 35.9645L30.0398 36.2492C30.2867 36.0055 30.7208 36.0095 30.9622 36.2514L31.2453 35.9689ZM32.9026 37.6476L31.2461 35.9696L30.9614 36.2506L32.6179 37.9286L32.9026 37.6476ZM32.8371 37.5195L32.6654 37.612L32.8551 37.9641L33.0269 37.8716L32.8371 37.5195ZM34.238 36.9569C33.7465 37.0936 33.2756 37.2832 32.8371 37.5195L33.0269 37.8716C33.4388 37.6496 33.882 37.4711 34.3452 37.3423L34.238 36.9569ZM34.4287 36.9036L34.2377 36.957L34.3455 37.3422L34.5365 37.2888L34.4287 36.9036ZM34.2826 34.9197V37.0962H34.6826V34.9197H34.2826ZM35.3325 33.8658C34.7526 33.8658 34.2826 34.3391 34.2826 34.9197H34.6826C34.6826 34.5583 34.9752 34.2658 35.3325 34.2658V33.8658ZM36.9522 33.8658H35.3325V34.2658H36.9522V33.8658ZM38.0022 34.9197C38.0022 34.3397 37.5322 33.8658 36.9522 33.8658V34.2658C37.3095 34.2658 37.6022 34.5588 37.6022 34.9197H38.0022ZM38.0022 37.0967V34.9197H37.6022V37.0967H38.0022ZM38.047 36.9576L37.8561 36.9041L37.7483 37.2893L37.9392 37.3428L38.047 36.9576ZM39.4951 37.5469C39.0359 37.2968 38.5503 37.0991 38.0473 36.9576L37.939 37.3427C38.4131 37.4761 38.8709 37.6624 39.3037 37.8982L39.4951 37.5469ZM39.6647 37.6386L39.4946 37.5466L39.3043 37.8984L39.4744 37.9904L39.6647 37.6386ZM41.0981 36.0119L39.4285 37.6727L39.7106 37.9563L41.3802 36.2954L41.0981 36.0119ZM41.8429 35.7114C41.5662 35.7107 41.3001 35.8176 41.1006 36.0095L41.3778 36.2978C41.5028 36.1777 41.6691 36.111 41.8418 36.1114L41.8429 35.7114ZM42.5835 36.0135C42.385 35.8206 42.1195 35.7122 41.8429 35.7114L41.8418 36.1114C42.0145 36.1119 42.1804 36.1795 42.3047 36.3004L42.5835 36.0135ZM43.7276 37.171L42.5864 36.0164L42.3019 36.2976L43.4432 37.4522L43.7276 37.171ZM44.0312 37.9164C44.0312 37.634 43.9243 37.3677 43.7269 37.1702L43.4439 37.453C43.5637 37.5728 43.6312 37.7362 43.6312 37.9164H44.0312ZM43.7206 38.6596C43.92 38.4608 44.0312 38.1963 44.0312 37.9164H43.6312C43.6312 38.0883 43.5635 38.2513 43.4381 38.3764L43.7206 38.6596ZM42.1058 40.2709L43.7206 38.6596L43.4381 38.3764L41.8233 39.9877L42.1058 40.2709ZM42.2394 40.2038L42.1374 40.0286L41.7917 40.23L41.8938 40.4051L42.2394 40.2038ZM42.9414 41.8695C42.7799 41.2863 42.5439 40.7264 42.2394 40.2038L41.8938 40.4052C42.181 40.898 42.4035 41.4261 42.5559 41.9763L42.9414 41.8695ZM42.9946 42.0611L42.9413 41.8694L42.5559 41.9764L42.6091 42.1681L42.9946 42.0611ZM44.9736 41.9146H42.8019V42.3146H44.9736V41.9146ZM46.0235 42.9685C46.0235 42.3885 45.5535 41.9146 44.9736 41.9146V42.3146C45.3308 42.3146 45.6235 42.6076 45.6235 42.9685H46.0235ZM46.0235 44.5902V42.9685H45.6235V44.5902H46.0235ZM44.9736 45.6452C45.5537 45.6452 46.0235 45.1712 46.0235 44.5902H45.6235C45.6235 44.9524 45.3306 45.2452 44.9736 45.2452V45.6452ZM42.8013 45.6452H44.9736V45.2452H42.8013V45.6452ZM42.9408 45.6908L42.9941 45.4986L42.6086 45.3918L42.5553 45.5841L42.9408 45.6908ZM42.3539 47.1445C42.6078 46.6754 42.8051 46.1858 42.941 45.6903L42.5552 45.5846C42.4277 46.0498 42.242 46.511 42.0021 46.9541L42.3539 47.1445ZM42.261 47.3155L42.3538 47.1448L42.0022 46.9539L41.9095 47.1247L42.261 47.3155ZM43.6854 48.5542L42.2275 47.0795L41.943 47.3607L43.4009 48.8354L43.6854 48.5542ZM43.9873 49.2985C43.9873 49.0152 43.8814 48.7489 43.6841 48.5529L43.4022 48.8367C43.5198 48.9536 43.5873 49.1159 43.5873 49.2985H43.9873ZM43.677 50.0403C43.8761 49.8424 43.9873 49.5784 43.9873 49.2985H43.5873C43.5873 49.4704 43.5196 49.6327 43.395 49.7566L43.677 50.0403ZM42.5312 51.1862L43.6774 50.0399L43.3946 49.757L42.2484 50.9034L42.5312 51.1862ZM41.0442 51.1815C41.4388 51.5811 42.1244 51.5865 42.5301 51.1874L42.2495 50.9022C42.0001 51.1476 41.5674 51.142 41.3288 50.9004L41.0442 51.1815ZM39.6413 49.7625L41.0443 51.1816L41.3287 50.9003L39.9257 49.4813L39.6413 49.7625ZM39.7115 49.897L39.8854 49.794L39.6816 49.4498L39.5076 49.5528L39.7115 49.897ZM38.0555 50.6055C38.6357 50.4423 39.1923 50.2041 39.7114 49.897L39.5077 49.5528C39.0185 49.8422 38.4939 50.0666 37.9472 50.2204L38.0555 50.6055ZM37.865 50.659L38.0554 50.6055L37.9473 50.2204L37.7569 50.2738L37.865 50.659ZM38.011 52.6412V50.4664H37.611V52.6412H38.011ZM37.6933 53.3858C37.8914 53.1898 38.0053 52.9241 38.0109 52.6453L37.611 52.6372C37.6075 52.8122 37.536 52.9788 37.412 53.1014L37.6933 53.3858ZM36.9501 53.694C37.2285 53.6924 37.4952 53.5818 37.6933 53.3858L37.412 53.1014C37.2881 53.224 37.1215 53.293 36.9478 53.294L36.9501 53.694ZM35.3314 53.694H36.949V53.294H35.3314V53.694ZM34.2793 52.6407C34.2793 53.2213 34.751 53.694 35.3314 53.694V53.294C34.9724 53.294 34.6793 53.0009 34.6793 52.6407H34.2793ZM34.2793 50.4631V52.6407H34.6793V50.4631H34.2793ZM34.2349 50.6022L34.4252 50.6556L34.5333 50.2705L34.3429 50.2171L34.2349 50.6022ZM32.5293 49.8675C33.0633 50.1861 33.6365 50.4331 34.2345 50.6021L34.3433 50.2172C33.7791 50.0578 33.2382 49.8247 32.7343 49.524L32.5293 49.8675ZM36.144 47.6031C34.0456 47.6031 32.3374 45.8888 32.3374 43.7806H31.9374C31.9374 46.1081 33.8232 48.0031 36.144 48.0031V47.6031ZM39.9516 43.7806C39.9511 45.8893 38.2424 47.6031 36.144 47.6031V48.0031C38.4648 48.0031 40.3511 46.1087 40.3516 43.7807L39.9516 43.7806ZM36.144 39.9571C38.2424 39.9571 39.9516 41.672 39.9516 43.7806H40.3516C40.3516 41.4526 38.4648 39.5571 36.144 39.5571V39.9571ZM32.3374 43.7806C32.3374 41.6714 34.0462 39.9571 36.144 39.9571V39.5571C33.8237 39.5571 31.9374 41.4521 31.9374 43.7806H32.3374ZM36.1437 40.081C35.1664 40.0822 34.2297 40.4726 33.5389 41.1662L33.8223 41.4484C34.4383 40.8299 35.2734 40.4821 36.1442 40.481L36.1437 40.081ZM38.7491 41.1663C38.0583 40.4727 37.1216 40.0823 36.1443 40.081L36.1437 40.481C37.0146 40.4822 37.8497 40.8301 38.4657 41.4486L38.7491 41.1663ZM39.8298 43.7804C39.8285 42.7999 39.4399 41.8598 38.7491 41.1663L38.4657 41.4486C39.0818 42.0671 39.4286 42.9058 39.4298 43.7809L39.8298 43.7804ZM38.7492 46.395C39.4401 45.7015 39.8286 44.7614 39.8298 43.7809L39.4298 43.7804C39.4287 44.6554 39.082 45.4942 38.4659 46.1127L38.7492 46.395ZM36.1442 47.4798C37.1215 47.4787 38.0584 47.0885 38.7492 46.395L38.4659 46.1127C37.8498 46.7311 37.0147 47.0788 36.1438 47.0798L36.1442 47.4798ZM33.5391 46.3948C34.2299 47.0882 35.1665 47.4785 36.1437 47.4798L36.1442 47.0798C35.2735 47.0787 34.4385 46.7309 33.8225 46.1125L33.5391 46.3948ZM32.4587 43.7809C32.4599 44.7613 32.8484 45.7013 33.5391 46.3948L33.8225 46.1125C33.2065 45.494 32.8598 44.6554 32.8587 43.7804L32.4587 43.7809ZM33.5389 41.1662C32.8482 41.8598 32.4598 42.7999 32.4587 43.7804L32.8587 43.7809C32.8597 42.9058 33.2063 42.067 33.8223 41.4484L33.5389 41.1662Z" fill="#FD009C" mask="url(#path-1-outside-1)"/>
</svg>
