<svg width="50" height="49" viewBox="0 0 50 49" fill="none" xmlns="http://www.w3.org/2000/svg">
<path fill-rule="evenodd" clip-rule="evenodd" d="M14.2379 19.2141C14.2379 9.76145 21.8618 2.09853 31.2663 2.09853C40.6709 2.09853 48.2948 9.76145 48.2948 19.2141C48.2948 28.6668 40.6709 36.3297 31.2663 36.3297C21.8618 36.3297 14.2379 28.6668 14.2379 19.2141ZM31.2663 0.577148C21.0258 0.577148 12.7242 8.92121 12.7242 19.2141C12.7242 23.8129 13.5976 27.4857 16.3445 30.736L0.232188 46.4352C0.10647 48.1004 0.656681 48.4121 2.12876 48.5008L18.1551 32.3925C21.5105 35.7651 26.1461 37.8511 31.2663 37.8511C41.5068 37.8511 49.8084 29.5071 49.8084 19.2141C49.8084 8.92121 41.5068 0.577148 31.2663 0.577148ZM43.8221 19.8792C41.2246 15.3294 36.6693 12.5762 31.6284 12.5762C26.5876 12.5762 22.0246 15.3294 19.4502 19.8792L19.2344 20.2224L19.4348 20.573C22.0323 25.1227 26.5876 27.876 31.6284 27.876C36.6693 27.876 41.2323 25.1593 43.8221 20.573L44.0225 20.2224L43.8221 19.8792ZM31.6284 26.3789C27.289 26.3789 23.3041 24.0857 20.9917 20.2224C23.3041 16.3591 27.289 14.066 31.6284 14.066C35.9679 14.066 39.9066 16.3664 42.2574 20.2224C39.9066 24.0857 35.9602 26.3789 31.6284 26.3789ZM31.8526 15.2339C30.8075 15.2411 29.7881 15.5416 28.9232 16.0975C28.0582 16.6533 27.3866 17.4395 26.993 18.3569C26.5994 19.2742 26.5015 20.2814 26.7117 21.2514C26.922 22.2214 27.4309 23.1106 28.1741 23.8067C28.9174 24.5029 29.8618 24.9746 30.8879 25.1625C31.914 25.3504 32.9759 25.246 33.9394 24.8624C34.9029 24.4788 35.7248 23.8333 36.3013 23.0073C36.8779 22.1814 37.1831 21.2121 37.1786 20.2219C37.1756 19.5627 37.0353 18.9106 36.7658 18.3029C36.4963 17.6953 36.1029 17.1439 35.6081 16.6806C35.1134 16.2172 34.527 15.8509 33.8825 15.6026C33.238 15.3544 32.5482 15.2291 31.8526 15.2339ZM31.8526 23.7931C31.1144 23.7859 30.3949 23.5721 29.7844 23.1787C29.174 22.7853 28.6999 22.2298 28.4216 21.582C28.1433 20.9341 28.0732 20.2227 28.2202 19.5373C28.3672 18.8518 28.7247 18.2227 29.2478 17.7291C29.7709 17.2355 30.4362 16.8994 31.1603 16.7629C31.8843 16.6264 32.6348 16.6957 33.3174 16.962C34.0001 17.2284 34.5844 17.6799 34.9971 18.2598C35.4098 18.8398 35.6325 19.5224 35.6371 20.2219C35.6391 20.6926 35.5425 21.1591 35.3529 21.5942C35.1632 22.0293 34.8843 22.4244 34.5322 22.7566C34.1802 23.0888 33.7621 23.3515 33.3021 23.5294C32.8421 23.7073 32.3494 23.7969 31.8526 23.7931Z" fill="#FFD129"/>
</svg>
