<svg width="41" height="38" viewBox="0 0 41 38" fill="none" xmlns="http://www.w3.org/2000/svg">
<path d="M3.15722 36.8667H19.7915C20.0353 36.8667 20.273 36.7758 20.4515 36.6079C20.6306 36.4393 20.7356 36.2059 20.7356 35.9577C20.7356 35.7095 20.6306 35.4761 20.4515 35.3075C20.273 35.1396 20.0353 35.0487 19.7915 35.0487H3.15722C3.08584 35.0487 3.02136 35.0218 2.97699 34.9801C2.93334 34.939 2.91314 34.888 2.91314 34.8397V2.41726C2.91314 2.36894 2.93334 2.31795 2.97699 2.27688C3.02135 2.23513 3.08584 2.20825 3.15722 2.20825H28.1087C28.1801 2.20825 28.2446 2.23513 28.2889 2.27688C28.3326 2.31795 28.3528 2.36893 28.3528 2.41726V8.00734C28.3528 8.25553 28.4578 8.48891 28.6369 8.65751C28.8154 8.82543 29.0531 8.91634 29.2969 8.91634C29.5406 8.91634 29.7783 8.82543 29.9568 8.65751C30.136 8.48891 30.2409 8.25553 30.2409 8.00734V2.41726C30.2409 1.2796 29.2642 0.390234 28.1087 0.390234H3.15722C2.00168 0.390234 1.02497 1.2796 1.02497 2.41726V34.8397C1.02497 35.9774 2.00168 36.8667 3.15722 36.8667Z" fill="#56CDF2" stroke="#56CDF2" stroke-width="0.7"/>
<path d="M22.416 12.478V34.8384C22.416 35.976 23.3927 36.8654 24.5482 36.8654H37.618C38.7736 36.8654 39.7503 35.976 39.7503 34.8384V12.478C39.7503 11.3404 38.7736 10.451 37.618 10.451H24.5482C23.3927 10.451 22.416 11.3404 22.416 12.478ZM37.8621 12.478V34.8384C37.8621 34.8867 37.8419 34.9377 37.7983 34.9787C37.7539 35.0205 37.6894 35.0474 37.618 35.0474H24.5482C24.4768 35.0474 24.4123 35.0205 24.368 34.9787C24.3243 34.9377 24.3041 34.8867 24.3041 34.8384V12.478C24.3041 12.4297 24.3243 12.3787 24.368 12.3377C24.4123 12.2959 24.4768 12.269 24.5482 12.269H37.618C37.6894 12.269 37.7539 12.2959 37.7983 12.3377C37.8419 12.3787 37.8621 12.4297 37.8621 12.478Z" fill="#56CDF2" stroke="#56CDF2" stroke-width="0.7"/>
<path d="M15.6341 33.5147C16.4633 33.5147 17.1723 32.8772 17.1723 32.0467C17.1723 31.2162 16.4633 30.5787 15.6341 30.5787C14.805 30.5787 14.096 31.2162 14.096 32.0467C14.096 32.8772 14.805 33.5147 15.6341 33.5147Z" fill="#56CDF2" stroke="#56CDF2" stroke-width="0.7"/>
<path d="M31.0799 33.5147C31.9091 33.5147 32.6181 32.8772 32.6181 32.0467C32.6181 31.2162 31.9091 30.5787 31.0799 30.5787C30.2508 30.5787 29.5418 31.2162 29.5418 32.0467C29.5418 32.8772 30.2508 33.5147 31.0799 33.5147Z" fill="#56CDF2" stroke="#56CDF2" stroke-width="0.7"/>
</svg>
