<svg width="42" height="48" viewBox="0 0 42 48" fill="none" xmlns="http://www.w3.org/2000/svg">
<path d="M16.3288 12.178L14.4927 13.9177L17.2469 16.5273C16.0993 17.1797 15.1812 18.267 14.7222 19.5718H9.67285V21.7464H14.2632V23.9211H9.67285V26.0957H14.2632V28.2704H9.67285V30.445H14.7222C15.6403 33.0546 18.165 34.7943 21.1487 34.7943C24.1324 34.7943 26.6571 33.0546 27.5751 30.445H32.6245V28.2704H28.0342V26.0957H32.6245V23.9211H28.0342V21.7464H32.6245V19.5718H27.5751C27.1161 18.267 26.198 17.1797 25.0505 16.3098L27.8047 13.7003L26.198 12.178L22.9848 15.2225H21.1487C20.6896 15.2225 20.0011 15.2225 19.5421 15.44L16.3288 12.178ZM18.8535 21.7464H23.4438V23.9211H18.8535V21.7464ZM18.8535 26.0957H23.4438V28.2704H18.8535V26.0957ZM41.8052 21.7464C41.8052 33.707 33.0835 45.0151 21.1487 47.8422C9.21382 45.0151 0.492188 33.707 0.492188 21.7464V8.69858L21.1487 0L41.8052 8.69858V21.7464ZM21.1487 46.5374C29.8703 44.3627 39.051 36.0991 40.4281 23.0512V10.0034L21.1487 1.73971L2.32832 9.56843V22.1814C2.32832 34.7943 12.4271 44.3627 21.1487 46.5374Z" fill="#FFD129"/>
</svg>
