<svg width="41" height="49" viewBox="0 0 41 49" fill="none" xmlns="http://www.w3.org/2000/svg">
<g filter="url(#filter0_d)">
<path fill-rule="evenodd" clip-rule="evenodd" d="M32.6377 3.06722H12.8993V8.72129H6.64499V35.9043C6.64499 36.3465 6.75078 36.7706 6.93909 37.0832C7.12741 37.3959 7.38281 37.5715 7.64912 37.5715H33.7566C34.0229 37.5715 34.2784 37.3959 34.4667 37.0832C34.655 36.7706 34.7608 36.3465 34.7608 35.9043V5.89425C34.7608 3.06722 32.6377 3.06722 32.6377 3.06722ZM9.68608 0.892578C9.68608 0.892578 7.84995 2.63229 6.93188 3.50215C6.01382 4.37201 4.63672 5.89425 4.63672 5.89425V35.9043C4.63672 37.2308 4.80378 38.3539 5.55479 39.1663C6.35889 40.0361 7.96908 40.0361 8.76802 40.0361H33.0968C33.8957 40.0361 35.4101 39.4633 35.851 38.7313C36.4159 37.7934 36.769 37.2308 36.769 35.9043V5.89425C36.769 4.56773 36.4517 3.29553 35.8867 2.35754C35.3218 1.41954 34.5556 0.892578 33.7566 0.892578H9.68608Z" fill="#56CDF2"/>
<path fill-rule="evenodd" clip-rule="evenodd" d="M15.6536 21.7698C15.6536 21.5006 15.7443 21.2425 15.9057 21.0522C16.0671 20.8618 16.286 20.7549 16.5143 20.7549H28.564C28.7923 20.7549 29.0112 20.8618 29.1726 21.0522C29.334 21.2425 29.4247 21.5006 29.4247 21.7698C29.4247 22.0389 29.334 22.2971 29.1726 22.4874C29.0112 22.6777 28.7923 22.7846 28.564 22.7846H16.5143C16.286 22.7846 16.0671 22.6777 15.9057 22.4874C15.7443 22.2971 15.6536 22.0389 15.6536 21.7698ZM15.6536 16.6955C15.6536 16.4264 15.7443 16.1682 15.9057 15.9779C16.0671 15.7876 16.286 15.6807 16.5143 15.6807H28.564C28.7923 15.6807 29.0112 15.7876 29.1726 15.9779C29.334 16.1682 29.4247 16.4264 29.4247 16.6955C29.4247 16.9647 29.334 17.2228 29.1726 17.4131C29.0112 17.6034 28.7923 17.7104 28.564 17.7104H16.5143C16.286 17.7104 16.0671 17.6034 15.9057 17.4131C15.7443 17.2228 15.6536 16.9647 15.6536 16.6955ZM15.6536 26.844C15.6536 26.5749 15.7443 26.3167 15.9057 26.1264C16.0671 25.9361 16.286 25.8292 16.5143 25.8292H28.564C28.7923 25.8292 29.0112 25.9361 29.1726 26.1264C29.334 26.3167 29.4247 26.5749 29.4247 26.844C29.4247 27.1132 29.334 27.3713 29.1726 27.5616C29.0112 27.752 28.7923 27.8589 28.564 27.8589H16.5143C16.286 27.8589 16.0671 27.752 15.9057 27.5616C15.7443 27.3713 15.6536 27.1132 15.6536 26.844Z" fill="#56CDF2"/>
<path d="M12.8994 17.4214C13.4065 17.4214 13.8175 17.0317 13.8175 16.551C13.8175 16.0703 13.4065 15.6807 12.8994 15.6807C12.3924 15.6807 11.9814 16.0703 11.9814 16.551C11.9814 17.0317 12.3924 17.4214 12.8994 17.4214Z" fill="#56CDF2"/>
<path d="M12.8994 22.6404C13.4065 22.6404 13.8175 22.2507 13.8175 21.77C13.8175 21.2893 13.4065 20.8997 12.8994 20.8997C12.3924 20.8997 11.9814 21.2893 11.9814 21.77C11.9814 22.2507 12.3924 22.6404 12.8994 22.6404Z" fill="#56CDF2"/>
<path d="M12.8994 27.8588C13.4065 27.8588 13.8175 27.4693 13.8175 26.9888C13.8175 26.5084 13.4065 26.1189 12.8994 26.1189C12.3924 26.1189 11.9814 26.5084 11.9814 26.9888C11.9814 27.4693 12.3924 27.8588 12.8994 27.8588Z" fill="#56CDF2"/>
</g>
<defs>
<filter id="filter0_d" x="0.636719" y="0.892578" width="40.1323" height="47.1436" filterUnits="userSpaceOnUse" color-interpolation-filters="sRGB">
<feFlood flood-opacity="0" result="BackgroundImageFix"/>
<feColorMatrix in="SourceAlpha" type="matrix" values="0 0 0 0 0 0 0 0 0 0 0 0 0 0 0 0 0 0 127 0"/>
<feOffset dy="4"/>
<feGaussianBlur stdDeviation="2"/>
<feColorMatrix type="matrix" values="0 0 0 0 0 0 0 0 0 0 0 0 0 0 0 0 0 0 0.25 0"/>
<feBlend mode="normal" in2="BackgroundImageFix" result="effect1_dropShadow"/>
<feBlend mode="normal" in="SourceGraphic" in2="effect1_dropShadow" result="shape"/>
</filter>
</defs>
</svg>
