<svg width="862" height="435" viewBox="0 0 862 435" fill="none" xmlns="http://www.w3.org/2000/svg">
<path fill-rule="evenodd" clip-rule="evenodd" d="M752.029 81.5156H765.682V82.4023H752.029V81.5156Z" fill="#FD009C"/>
<path fill-rule="evenodd" clip-rule="evenodd" d="M738.751 81.5156H745.728V82.4023H738.751V81.5156Z" fill="#FD009C"/>
<path fill-rule="evenodd" clip-rule="evenodd" d="M693.952 81.5156H707.461V82.4023H693.952V81.5156Z" fill="#FD009C"/>
<path fill-rule="evenodd" clip-rule="evenodd" d="M659.141 81.5156H666.118V82.4023H659.141V81.5156Z" fill="#FD009C"/>
<path fill-rule="evenodd" clip-rule="evenodd" d="M715.35 289.946H867.904V290.95H715.35V289.946Z" fill="#FD009C"/>
<path fill-rule="evenodd" clip-rule="evenodd" d="M457.067 289.83H715.717V291.008H457.067V289.83Z" fill="#FD009C"/>
<path fill-rule="evenodd" clip-rule="evenodd" d="M634.235 322.965H867.904V324.027H634.235V322.965Z" fill="#FD009C"/>
<path fill-rule="evenodd" clip-rule="evenodd" d="M725.83 323.257H867.904V324.027H725.83V323.257Z" fill="#FD009C"/>
<path fill-rule="evenodd" clip-rule="evenodd" d="M617.868 357.675H867.904V358.153H617.868V357.675Z" fill="#FD009C"/>
<path fill-rule="evenodd" clip-rule="evenodd" d="M617.868 357.267H867.904V358.037H617.868V357.267Z" fill="#FD009C"/>
<path fill-rule="evenodd" clip-rule="evenodd" d="M752.242 357.267H762.45V358.037H752.242V357.267Z" fill="#FD009C"/>
<path fill-rule="evenodd" clip-rule="evenodd" d="M715.279 276.822H867.834V278.117H715.279V276.822Z" fill="#FD009C"/>
<path fill-rule="evenodd" clip-rule="evenodd" d="M689.286 276.822H715.717V278.117H689.286V276.822Z" fill="#FD009C"/>
<path fill-rule="evenodd" clip-rule="evenodd" d="M472.803 279.284H463.959V276.822H472.803V279.284Z" fill="#FD009C"/>
<path fill-rule="evenodd" clip-rule="evenodd" d="M689.286 277.814H715.717V279.285H689.286V277.814Z" fill="#FD009C"/>
<path fill-rule="evenodd" clip-rule="evenodd" d="M619.154 277.814H689.731V279.285H619.154V277.814Z" fill="#FD009C"/>
<path fill-rule="evenodd" clip-rule="evenodd" d="M801.132 278.222H867.834V279.283H801.132V278.222Z" fill="#FD009C"/>
<path fill-rule="evenodd" clip-rule="evenodd" d="M440.342 425.401H867.97V429.672H440.342V425.401Z" fill="#FD009C"/>
<path fill-rule="evenodd" clip-rule="evenodd" d="M352.051 425.46H441.005V429.322H352.051V425.46Z" fill="#FD009C"/>
<path fill-rule="evenodd" clip-rule="evenodd" d="M715.279 234.121H867.834V236.7H715.279V234.121Z" fill="#FD009C"/>
<path fill-rule="evenodd" clip-rule="evenodd" d="M860.294 236.699H857.408V235.521H860.294V236.699Z" fill="#FD009C"/>
<path fill-rule="evenodd" clip-rule="evenodd" d="M804.358 235.521H816.504V236.699H804.358V235.521Z" fill="#FD009C"/>
<path fill-rule="evenodd" clip-rule="evenodd" d="M795.834 236.7H782.181V234.121H795.834V236.7Z" fill="#FD009C"/>
<path fill-rule="evenodd" clip-rule="evenodd" d="M752.901 236.7H739.247V234.121H752.901V236.7Z" fill="#FD009C"/>
<path fill-rule="evenodd" clip-rule="evenodd" d="M728.498 236.7H725.612V234.121H728.498V236.7Z" fill="#FD009C"/>
<path fill-rule="evenodd" clip-rule="evenodd" d="M444.147 234.121H472.803V236.7H444.147V234.121Z" fill="#FD009C"/>
<path fill-rule="evenodd" clip-rule="evenodd" d="M472.36 234.121H498.647V236.7H472.36V234.121Z" fill="#FD009C"/>
<path fill-rule="evenodd" clip-rule="evenodd" d="M498.199 234.121H715.717V236.7H498.199V234.121Z" fill="#FD009C"/>
<path fill-rule="evenodd" clip-rule="evenodd" d="M713.129 236.7H710.315V234.121H713.129V236.7Z" fill="#FD009C"/>
<path fill-rule="evenodd" clip-rule="evenodd" d="M590.46 236.7H576.807V234.121H590.46V236.7Z" fill="#FD009C"/>
<path fill-rule="evenodd" clip-rule="evenodd" d="M565.98 236.7H563.166V234.121H565.98V236.7Z" fill="#FD009C"/>
<path fill-rule="evenodd" clip-rule="evenodd" d="M553.636 236.7H539.911V234.121H553.636V236.7Z" fill="#FD009C"/>
<path fill-rule="evenodd" clip-rule="evenodd" d="M529.155 236.7H526.341V234.121H529.155V236.7Z" fill="#FD009C"/>
<path fill-rule="evenodd" clip-rule="evenodd" d="M800.558 234.121H867.834V235.883H800.558V234.121Z" fill="#FD009C"/>
<path fill-rule="evenodd" clip-rule="evenodd" d="M860.294 235.883H857.408V234.121H860.294V235.883Z" fill="#FD009C"/>
<path fill-rule="evenodd" clip-rule="evenodd" d="M803.498 234.121H817.223V235.883H803.498V234.121Z" fill="#FD009C"/>
<path fill-rule="evenodd" clip-rule="evenodd" d="M689.286 261.713H715.717V264.116H689.286V261.713Z" fill="#FD009C"/>
<path fill-rule="evenodd" clip-rule="evenodd" d="M555.41 261.713H689.731V264.116H555.41V261.713Z" fill="#FD009C"/>
<path fill-rule="evenodd" clip-rule="evenodd" d="M575.814 264.116H568.693V261.713H575.814V264.116Z" fill="#FD009C"/>
<path fill-rule="evenodd" clip-rule="evenodd" d="M670.993 264.234H665.236V261.655H670.993V264.234Z" fill="#FD009C"/>
<path fill-rule="evenodd" clip-rule="evenodd" d="M647.239 264.234H641.626V261.655H647.239V264.234Z" fill="#FD009C"/>
<path fill-rule="evenodd" clip-rule="evenodd" d="M577.604 264.234H566.679V261.655H577.604V264.234Z" fill="#FD009C"/>
<path fill-rule="evenodd" clip-rule="evenodd" d="M562.251 264.234H556.494V261.655H562.251V264.234Z" fill="#FD009C"/>
<path fill-rule="evenodd" clip-rule="evenodd" d="M752.176 190.72H867.834V192.015H752.176V190.72Z" fill="#FD009C"/>
<path fill-rule="evenodd" clip-rule="evenodd" d="M685.13 218.137H867.834V219.607H685.13V218.137Z" fill="#FD009C"/>
<path fill-rule="evenodd" clip-rule="evenodd" d="M377.8 327.453H424.402V329.04H377.8V327.453Z" fill="#FD009C"/>
<path fill-rule="evenodd" clip-rule="evenodd" d="M618.923 390.632H862.211V392.685H618.923V390.632Z" fill="#FD009C"/>
<path fill-rule="evenodd" clip-rule="evenodd" d="M640.164 328.679H862.133V329.449H640.164V328.679Z" fill="#FD009C"/>
<path fill-rule="evenodd" clip-rule="evenodd" d="M640.164 329.088H862.133V329.566H640.164V329.088Z" fill="#FD009C"/>
<path fill-rule="evenodd" clip-rule="evenodd" d="M747.34 328.679H799.757V329.449H747.34V328.679Z" fill="#FD009C"/>
<path fill-rule="evenodd" clip-rule="evenodd" d="M747.34 329.088H799.757V329.566H747.34V329.088Z" fill="#FD009C"/>
<path fill-rule="evenodd" clip-rule="evenodd" d="M813.09 308.379H862.133V308.974H813.09V308.379Z" fill="#FD009C"/>
<path fill-rule="evenodd" clip-rule="evenodd" d="M583.39 0.601562H862.211V1.77995H583.39V0.601562Z" fill="#FD009C"/>
<path fill-rule="evenodd" clip-rule="evenodd" d="M489.418 0.834961H584.114V1.48833H489.418V0.834961Z" fill="#FD009C"/>
<path fill-rule="evenodd" clip-rule="evenodd" d="M583.39 0.893555H862.211V1.78026H583.39V0.893555Z" fill="#FD009C"/>
<path fill-rule="evenodd" clip-rule="evenodd" d="M489.418 1.12695H584.114V1.60531H489.418V1.12695Z" fill="#FD009C"/>
<path fill-rule="evenodd" clip-rule="evenodd" d="M723.361 350.905H862.133V351.559H723.361V350.905Z" fill="#FD009C"/>
<path fill-rule="evenodd" clip-rule="evenodd" d="M723.361 350.905H862.133V351.384H723.361V350.905Z" fill="#FD009C"/>
<path fill-rule="evenodd" clip-rule="evenodd" d="M580.662 433.216H862.211V434.394H580.662V433.216Z" fill="#FD009C"/>
<path fill-rule="evenodd" clip-rule="evenodd" d="M328.485 297.762H378.173V301.449H328.485V297.762Z" fill="#FD009C"/>
<path fill-rule="evenodd" clip-rule="evenodd" d="M850.13 297.879H862.133V298.357H850.13V297.879Z" fill="#FD009C"/>
<path fill-rule="evenodd" clip-rule="evenodd" d="M850.13 297.879H862.133V298.649H850.13V297.879Z" fill="#FD009C"/>
<path fill-rule="evenodd" clip-rule="evenodd" d="M795.361 273.144H862.062V274.439H795.361V273.144Z" fill="#FD009C"/>
<path fill-rule="evenodd" clip-rule="evenodd" d="M795.361 272.969H862.062V273.447H795.361V272.969Z" fill="#FD009C"/>
<path fill-rule="evenodd" clip-rule="evenodd" d="M795.361 274.136H862.062V275.431H795.361V274.136Z" fill="#FD009C"/>
<path fill-rule="evenodd" clip-rule="evenodd" d="M666.443 387.831H862.211V389.301H666.443V387.831Z" fill="#FD009C"/>
<path fill-rule="evenodd" clip-rule="evenodd" d="M666.652 386.606H862.133V388.077H666.652V386.606Z" fill="#FD009C"/>
<path fill-rule="evenodd" clip-rule="evenodd" d="M625.091 66.1719H862.062V67.1169H625.091V66.1719Z" fill="#FD009C"/>
<path fill-rule="evenodd" clip-rule="evenodd" d="M777.486 368.813H862.133V369.467H777.486V368.813Z" fill="#FD009C"/>
<path fill-rule="evenodd" clip-rule="evenodd" d="M777.486 365.897H862.133V366.959H777.486V365.897Z" fill="#FD009C"/>
<path fill-rule="evenodd" clip-rule="evenodd" d="M777.486 366.598H862.133V369.176H777.486V366.598Z" fill="#FD009C"/>
<path fill-rule="evenodd" clip-rule="evenodd" d="M777.492 366.714H811.459V369.059H777.492V366.714Z" fill="#FD009C"/>
<path fill-rule="evenodd" clip-rule="evenodd" d="M811.08 366.714H862.133V369.059H811.08V366.714Z" fill="#FD009C"/>
<path fill-rule="evenodd" clip-rule="evenodd" d="M777.486 376.281H862.133V378.685H777.486V376.281Z" fill="#FD009C"/>
<path fill-rule="evenodd" clip-rule="evenodd" d="M434.862 399.674H496.753V402.427H434.862V399.674Z" fill="#FD009C"/>
<path fill-rule="evenodd" clip-rule="evenodd" d="M408.811 402.064H435.241V404.935H408.811V402.064Z" fill="#FD009C"/>
<path fill-rule="evenodd" clip-rule="evenodd" d="M408.811 399.674H435.241V402.427H408.811V399.674Z" fill="#FD009C"/>
<path fill-rule="evenodd" clip-rule="evenodd" d="M364.018 402.064H409.256V404.935H364.018V402.064Z" fill="#FD009C"/>
<path fill-rule="evenodd" clip-rule="evenodd" d="M364.018 399.674H409.256V402.427H364.018V399.674Z" fill="#FD009C"/>
<path fill-rule="evenodd" clip-rule="evenodd" d="M368.684 399.674H376.164V400.736H368.684V399.674Z" fill="#FD009C"/>
<path fill-rule="evenodd" clip-rule="evenodd" d="M580.662 400.141H862.211V401.319H580.662V400.141Z" fill="#FD009C"/>
<path fill-rule="evenodd" clip-rule="evenodd" d="M780.507 387.831H862.211V389.009H780.507V387.831Z" fill="#FD009C"/>
<path fill-rule="evenodd" clip-rule="evenodd" d="M813.09 335.912H862.133V336.449H813.09V335.912Z" fill="#FD009C"/>
<path fill-rule="evenodd" clip-rule="evenodd" d="M815.531 335.388H862.133V336.274H815.531V335.388Z" fill="#FD009C"/>
<path fill-rule="evenodd" clip-rule="evenodd" d="M815.531 332.996H862.133V333.649H815.531V332.996Z" fill="#FD009C"/>
<path fill-rule="evenodd" clip-rule="evenodd" d="M0.0663452 15.2822H862.465V18.0677H0.0663452V15.2822Z" fill="#FD009C"/>
<path fill-rule="evenodd" clip-rule="evenodd" d="M86.0781 15.1279H312.354V18.2314H86.0781V15.1279Z" fill="#FD009C"/>
<path fill-rule="evenodd" clip-rule="evenodd" d="M496.31 339.88H862.133V340.65H496.31V339.88Z" fill="#FD009C"/>
<path fill-rule="evenodd" clip-rule="evenodd" d="M473.266 339.88H496.753V340.533H473.266V339.88Z" fill="#FD009C"/>
<path fill-rule="evenodd" clip-rule="evenodd" d="M202.579 351.78H378.248V352.725H202.579V351.78Z" fill="#FD009C"/>
<path fill-rule="evenodd" clip-rule="evenodd" d="M434.867 351.78H469.552V352.725H434.867V351.78Z" fill="#FD009C"/>
<path fill-rule="evenodd" clip-rule="evenodd" d="M377.8 351.78H435.241V352.725H377.8V351.78Z" fill="#FD009C"/>
<path fill-rule="evenodd" clip-rule="evenodd" d="M470.323 351.78H496.753V352.725H470.323V351.78Z" fill="#FD009C"/>
<path fill-rule="evenodd" clip-rule="evenodd" d="M470.768 352.725H469.103V351.78H470.768V352.725Z" fill="#FD009C"/>
<path fill-rule="evenodd" clip-rule="evenodd" d="M496.31 380.481H862.133V381.368H496.31V380.481Z" fill="#FD009C"/>
<path fill-rule="evenodd" clip-rule="evenodd" d="M469.102 380.481H496.753V381.426H469.102V380.481Z" fill="#FD009C"/>
<path fill-rule="evenodd" clip-rule="evenodd" d="M470.768 381.426H469.103V380.481H470.768V381.426Z" fill="#FD009C"/>
<path fill-rule="evenodd" clip-rule="evenodd" d="M803.974 380.481H862.133V381.251H803.974V380.481Z" fill="#FD009C"/>
<path fill-rule="evenodd" clip-rule="evenodd" d="M495.883 387.539H667.531V388.717H495.883V387.539Z" fill="#FD009C"/>
<path fill-rule="evenodd" clip-rule="evenodd" d="M434.862 387.772H496.753V388.542H434.862V387.772Z" fill="#FD009C"/>
<path fill-rule="evenodd" clip-rule="evenodd" d="M0.147736 387.655H435.241V388.542H0.147736V387.655Z" fill="#FD009C"/>
<path fill-rule="evenodd" clip-rule="evenodd" d="M6.03415 387.655H409.256V388.542H6.03415V387.655Z" fill="#FD009C"/>
<path fill-rule="evenodd" clip-rule="evenodd" d="M57.3601 387.655H377.528V388.542H57.3601V387.655Z" fill="#FD009C"/>
<path fill-rule="evenodd" clip-rule="evenodd" d="M363.513 387.655H380.468V388.542H363.513V387.655Z" fill="#FD009C"/>
<path fill-rule="evenodd" clip-rule="evenodd" d="M338.391 387.655H355.346V388.542H338.391V387.655Z" fill="#FD009C"/>
<path fill-rule="evenodd" clip-rule="evenodd" d="M288.213 387.655H305.025V388.542H288.213V387.655Z" fill="#FD009C"/>
<path fill-rule="evenodd" clip-rule="evenodd" d="M276.1 388.542H272.927V387.655H276.1V388.542Z" fill="#FD009C"/>
<path fill-rule="evenodd" clip-rule="evenodd" d="M257.999 388.542H254.826V387.655H257.999V388.542Z" fill="#FD009C"/>
<path fill-rule="evenodd" clip-rule="evenodd" d="M97.561 387.655H114.301V388.542H97.561V387.655Z" fill="#FD009C"/>
<path fill-rule="evenodd" clip-rule="evenodd" d="M85.3681 388.542H82.1953V387.655H85.3681V388.542Z" fill="#FD009C"/>
<path fill-rule="evenodd" clip-rule="evenodd" d="M54.271 387.655H71.2263V388.542H54.271V387.655Z" fill="#FD009C"/>
<path fill-rule="evenodd" clip-rule="evenodd" d="M42.149 388.542H38.9762V387.655H42.149V388.542Z" fill="#FD009C"/>
<path fill-rule="evenodd" clip-rule="evenodd" d="M496.306 387.714H667.093V388.251H496.306V387.714Z" fill="#FD009C"/>
<path fill-rule="evenodd" clip-rule="evenodd" d="M434.862 387.656H496.753V388.135H434.862V387.656Z" fill="#FD009C"/>
</svg>
