<svg width="234" height="12" viewBox="0 0 234 12" fill="none" xmlns="http://www.w3.org/2000/svg">
<path d="M7.18164 9.63548C7.65604 8.78045 7.89344 7.58812 7.89344 6.05689C7.89344 2.79265 6.93307 1.16027 5.01232 1.16027C3.99222 1.16027 3.23973 1.56983 2.75301 2.38925C2.26741 3.20822 2.02406 4.34742 2.02406 5.80729C2.02406 7.25594 2.25808 8.46927 2.72651 9.44865C3.19532 10.4279 3.93324 10.9177 4.94102 10.9177C5.96037 10.9177 6.70724 10.4904 7.18164 9.63548ZM1.54405 10.0983C0.832257 9.00655 0.476562 7.64723 0.476562 6.02113C0.476562 4.9057 0.684461 3.91742 1.09952 3.05656C1.51383 2.19626 2.07444 1.52865 2.78026 1.0537C3.48533 0.578749 4.26542 0.341592 5.11868 0.341592C6.67178 0.341592 7.78333 0.846025 8.45407 1.85489C9.12331 2.86405 9.45886 4.21107 9.45886 5.89663C9.45886 7.00051 9.25991 7.99768 8.86277 8.88776C8.46563 9.7781 7.91994 10.4755 7.22644 10.9798C6.53256 11.4847 5.75284 11.7366 4.88802 11.7366C3.37001 11.7366 2.25546 11.1905 1.54405 10.0983Z" fill="#FFD129"/>
<path d="M47.2324 9.63572C47.7064 8.78069 47.9438 7.58836 47.9438 6.05713C47.9438 2.79289 46.9835 1.16051 45.0627 1.16051C44.043 1.16051 43.2905 1.57007 42.8038 2.38949C42.3178 3.20847 42.0748 4.34766 42.0748 5.80753C42.0748 7.25618 42.3085 8.46951 42.7769 9.4489C43.2457 10.4281 43.984 10.918 44.9914 10.918C46.0108 10.918 46.7576 10.4906 47.2324 9.63572ZM41.5945 10.0986C40.883 9.00679 40.5273 7.64748 40.5273 6.02137C40.5273 4.90594 40.7349 3.91766 41.1495 3.0568C41.5642 2.1965 42.1249 1.5289 42.8307 1.05394C43.5357 0.578993 44.3158 0.341836 45.1694 0.341836C46.7225 0.341836 47.8337 0.846269 48.5041 1.85513C49.1737 2.8643 49.5089 4.21132 49.5089 5.89687C49.5089 7.00075 49.3103 7.99793 48.9135 8.88801C48.5156 9.77835 47.9703 10.4757 47.2768 10.98C46.5829 11.4849 45.8032 11.7368 44.938 11.7368C43.4204 11.7368 42.3063 11.1908 41.5945 10.0986Z" fill="#FFD129"/>
<path d="M73.3418 9.63572C73.8166 8.78069 74.0532 7.58836 74.0532 6.05713C74.0532 2.79289 73.0932 1.16051 71.1725 1.16051C70.1524 1.16051 69.3999 1.57007 68.9135 2.38949C68.4272 3.20847 68.1846 4.34766 68.1846 5.80753C68.1846 7.25618 68.4182 8.46951 68.887 9.4489C69.3555 10.4281 70.0934 10.918 71.1012 10.918C72.1209 10.918 72.8677 10.4906 73.3418 9.63572ZM67.7042 10.0986C66.9924 9.00679 66.6367 7.64748 66.6367 6.02137C66.6367 4.90594 66.8446 3.91766 67.2593 3.0568C67.6743 2.1965 68.235 1.5289 68.9404 1.05394C69.6459 0.578993 70.4256 0.341836 71.2788 0.341836C72.8323 0.341836 73.9435 0.846269 74.6138 1.85513C75.2834 2.8643 75.619 4.21132 75.619 5.89687C75.619 7.00075 75.42 7.99793 75.0229 8.88801C74.6258 9.77835 74.0801 10.4757 73.3862 10.98C72.6927 11.4849 71.913 11.7368 71.0482 11.7368C69.5302 11.7368 68.416 11.1908 67.7042 10.0986Z" fill="#FFD129"/>
<path d="M81.985 2.08652C81.736 2.19308 81.3385 2.32371 80.7928 2.47811C80.2475 2.63239 79.7907 2.73328 79.4234 2.78069L79.2461 1.94419C79.8384 1.81341 80.4312 1.60002 81.0242 1.303C81.6173 1.00628 82.1268 0.673768 82.5538 0.306129H82.5721L83.4253 0.483879V10.6679L85.7555 10.8106V11.5762H79.6014V10.8106L81.985 10.6679V2.08652Z" fill="#FFD129"/>
<path d="M91.3792 2.08652C91.1306 2.19308 90.7327 2.32371 90.1874 2.47811C89.6417 2.63239 89.1852 2.73328 88.8179 2.78069L88.6406 1.94419C89.233 1.81341 89.8257 1.60002 90.4184 1.303C91.0115 1.00628 91.5214 0.673768 91.9484 0.306129H91.9663L92.8195 0.483879V10.6679L95.1498 10.8106V11.5762H88.9963V10.8106L91.3792 10.6679V2.08652Z" fill="#FFD129"/>
<path d="M198.508 9.63572C198.982 8.78069 199.221 7.58836 199.221 6.05713C199.221 2.79289 198.262 1.16051 196.34 1.16051C195.321 1.16051 194.567 1.57007 194.082 2.38949C193.593 3.20847 193.35 4.34766 193.35 5.80753C193.35 7.25618 193.585 8.46951 194.055 9.4489C194.522 10.4281 195.261 10.918 196.269 10.918C197.288 10.918 198.034 10.4906 198.508 9.63572ZM192.872 10.0986C192.159 9.00679 191.805 7.64748 191.805 6.02137C191.805 4.90594 192.01 3.91766 192.428 3.0568C192.842 2.1965 193.402 1.5289 194.108 1.05394C194.813 0.578993 195.593 0.341836 196.444 0.341836C198.001 0.341836 199.109 0.846269 199.781 1.85513C200.449 2.8643 200.785 4.21132 200.785 5.89687C200.785 7.00075 200.587 7.99793 200.192 8.88801C199.792 9.77835 199.247 10.4757 198.553 10.98C197.859 11.4849 197.079 11.7368 196.216 11.7368C194.697 11.7368 193.581 11.1908 192.872 10.0986Z" fill="#FFD129"/>
<path d="M207.154 2.08652C206.904 2.19308 206.508 2.32371 205.963 2.47811C205.418 2.63239 204.959 2.73328 204.593 2.78069L204.414 1.94419C205.008 1.81341 205.601 1.60002 206.194 1.303C206.788 1.00628 207.296 0.673768 207.721 0.306129H207.74L208.594 0.483879V10.6679L210.924 10.8106V11.5762H204.772V10.8106L207.154 10.6679V2.08652Z" fill="#FFD129"/>
<path d="M220.961 9.63572C221.435 8.78069 221.67 7.58836 221.67 6.05713C221.67 2.79289 220.711 1.16051 218.789 1.16051C217.77 1.16051 217.016 1.57007 216.531 2.38949C216.046 3.20847 215.803 4.34766 215.803 5.80753C215.803 7.25618 216.034 8.46951 216.505 9.4489C216.971 10.4281 217.71 10.918 218.718 10.918C219.737 10.918 220.483 10.4906 220.961 9.63572ZM215.321 10.0986C214.608 9.00679 214.254 7.64748 214.254 6.02137C214.254 4.90594 214.463 3.91766 214.877 3.0568C215.292 2.1965 215.851 1.5289 216.557 1.05394C217.262 0.578993 218.042 0.341836 218.897 0.341836C220.45 0.341836 221.562 0.846269 222.23 1.85513C222.902 2.8643 223.238 4.21132 223.238 5.89687C223.238 7.00075 223.037 7.99793 222.641 8.88801C222.241 9.77835 221.697 10.4757 221.002 10.98C220.312 11.4849 219.532 11.7368 218.666 11.7368C217.147 11.7368 216.034 11.1908 215.321 10.0986Z" fill="#FFD129"/>
<path d="M229.599 2.08652C229.353 2.19308 228.953 2.32371 228.408 2.47811C227.863 2.63239 227.408 2.73328 227.039 2.78069L226.859 1.94419C227.453 1.81341 228.046 1.60002 228.64 1.303C229.233 1.00628 229.741 0.673768 230.17 0.306129H230.189L231.04 0.483879V10.6679L233.373 10.8106V11.5762H227.218V10.8106L229.599 10.6679V2.08652Z" fill="#FFD129"/>
</svg>
