<svg width="1538" height="122" viewBox="0 0 1538 122" fill="none" xmlns="http://www.w3.org/2000/svg">
<path fill-rule="evenodd" clip-rule="evenodd" d="M113.262 0H95.7695V0.627758H113.262V0Z" fill="#FD009C"/>
<path fill-rule="evenodd" clip-rule="evenodd" d="M204.444 0H139.966V0.627758H204.444V0Z" fill="#FD009C"/>
<path fill-rule="evenodd" clip-rule="evenodd" d="M96.0155 0.0478516H-4.94922V0.675629H96.0155V0.0478516Z" fill="#FD009C"/>
<path fill-rule="evenodd" clip-rule="evenodd" d="M105.851 0H95.7695V0.627758H105.851V0Z" fill="#FD009C"/>
<path fill-rule="evenodd" clip-rule="evenodd" d="M31.9267 14.4585H-4.94922V14.8485H31.9267V14.4585Z" fill="#FD009C"/>
<path fill-rule="evenodd" clip-rule="evenodd" d="M31.9267 14.5532H-4.94922V15.0859H31.9267V14.5532Z" fill="#FD009C"/>
<path fill-rule="evenodd" clip-rule="evenodd" d="M129.175 66.8218H50.8242V68.7337H129.175V66.8218Z" fill="#FD009C"/>
<path fill-rule="evenodd" clip-rule="evenodd" d="M275.736 100.922H-5V104.403H275.736V100.922Z" fill="#FD009C"/>
<path fill-rule="evenodd" clip-rule="evenodd" d="M181.337 103.014H-5V104.165H181.337V103.014Z" fill="#FD009C"/>
<path fill-rule="evenodd" clip-rule="evenodd" d="M141.956 36.1455H-4.94922V36.6306H141.956V36.1455Z" fill="#FD009C"/>
<path fill-rule="evenodd" clip-rule="evenodd" d="M141.956 34.7661H-4.94922V36.0597H141.956V34.7661Z" fill="#FD009C"/>
<path fill-rule="evenodd" clip-rule="evenodd" d="M618.54 34.8135H368.305V36.1071H618.54V34.8135Z" fill="#FD009C"/>
<path fill-rule="evenodd" clip-rule="evenodd" d="M368.596 34.8135H337.754V36.1071H368.596V34.8135Z" fill="#FD009C"/>
<path fill-rule="evenodd" clip-rule="evenodd" d="M156.015 86.3213H-5V87.9954H156.015V86.3213Z" fill="#FD009C"/>
<path fill-rule="evenodd" clip-rule="evenodd" d="M141.956 35.812H-4.94922V36.4398H141.956V35.812Z" fill="#FD009C"/>
<path fill-rule="evenodd" clip-rule="evenodd" d="M141.956 36.1455H-4.94922V36.5355H141.956V36.1455Z" fill="#FD009C"/>
<path fill-rule="evenodd" clip-rule="evenodd" d="M71.0226 35.812H36.332V36.4398H71.0226V35.812Z" fill="#FD009C"/>
<path fill-rule="evenodd" clip-rule="evenodd" d="M71.0226 36.1455H36.332V36.5355H71.0226V36.1455Z" fill="#FD009C"/>
<path fill-rule="evenodd" clip-rule="evenodd" d="M27.5085 19.2622H-4.94922V19.7473H27.5085V19.2622Z" fill="#FD009C"/>
<path fill-rule="evenodd" clip-rule="evenodd" d="M86.8939 53.9331H-4.94922V54.4658H86.8939V53.9331Z" fill="#FD009C"/>
<path fill-rule="evenodd" clip-rule="evenodd" d="M86.8939 53.9331H-4.94922V54.3231H86.8939V53.9331Z" fill="#FD009C"/>
<path fill-rule="evenodd" clip-rule="evenodd" d="M181.337 121.039H-5V122H181.337V121.039Z" fill="#FD009C"/>
<path fill-rule="evenodd" clip-rule="evenodd" d="M401.236 10.606H368.351V13.6118H401.236V10.606Z" fill="#FD009C"/>
<path fill-rule="evenodd" clip-rule="evenodd" d="M2.99417 10.7012H-4.94922V11.0912H2.99417V10.7012Z" fill="#FD009C"/>
<path fill-rule="evenodd" clip-rule="evenodd" d="M2.99417 10.7012H-4.94922V11.3289H2.99417V10.7012Z" fill="#FD009C"/>
<path fill-rule="evenodd" clip-rule="evenodd" d="M124.565 84.0386H-5V85.2371H124.565V84.0386Z" fill="#FD009C"/>
<path fill-rule="evenodd" clip-rule="evenodd" d="M124.425 83.0396H-4.94922V84.2381H124.425V83.0396Z" fill="#FD009C"/>
<path fill-rule="evenodd" clip-rule="evenodd" d="M51.0726 68.5337H-4.94922V69.0664H51.0726V68.5337Z" fill="#FD009C"/>
<path fill-rule="evenodd" clip-rule="evenodd" d="M51.0726 66.1558H-4.94922V67.0214H51.0726V66.1558Z" fill="#FD009C"/>
<path fill-rule="evenodd" clip-rule="evenodd" d="M51.0726 66.7261H-4.94922V68.8282H51.0726V66.7261Z" fill="#FD009C"/>
<path fill-rule="evenodd" clip-rule="evenodd" d="M51.0705 66.8218H28.5896V68.7337H51.0705V66.8218Z" fill="#FD009C"/>
<path fill-rule="evenodd" clip-rule="evenodd" d="M28.8387 66.8218H-4.94922V68.7337H28.8387V66.8218Z" fill="#FD009C"/>
<path fill-rule="evenodd" clip-rule="evenodd" d="M51.0726 74.6213H-4.94922V76.5808H51.0726V74.6213Z" fill="#FD009C"/>
<path fill-rule="evenodd" clip-rule="evenodd" d="M304.829 93.6929H263.867V95.9377H304.829V93.6929Z" fill="#FD009C"/>
<path fill-rule="evenodd" clip-rule="evenodd" d="M348.074 95.6421H330.582V97.982H348.074V95.6421Z" fill="#FD009C"/>
<path fill-rule="evenodd" clip-rule="evenodd" d="M348.074 93.6929H330.582V95.9377H348.074V93.6929Z" fill="#FD009C"/>
<path fill-rule="evenodd" clip-rule="evenodd" d="M377.717 95.6421H347.777V97.982H377.717V95.6421Z" fill="#FD009C"/>
<path fill-rule="evenodd" clip-rule="evenodd" d="M377.717 93.6929H347.777V95.9377H377.717V93.6929Z" fill="#FD009C"/>
<path fill-rule="evenodd" clip-rule="evenodd" d="M374.63 93.6929H369.68V94.5585H374.63V93.6929Z" fill="#FD009C"/>
<path fill-rule="evenodd" clip-rule="evenodd" d="M181.337 94.0737H-5V95.0345H181.337V94.0737Z" fill="#FD009C"/>
<path fill-rule="evenodd" clip-rule="evenodd" d="M49.074 84.0386H-5V84.9993H49.074V84.0386Z" fill="#FD009C"/>
<path fill-rule="evenodd" clip-rule="evenodd" d="M27.5085 41.7097H-4.94922V42.1473H27.5085V41.7097Z" fill="#56CDF2"/>
<path fill-rule="evenodd" clip-rule="evenodd" d="M25.8932 41.2817H-4.94922V42.0046H25.8932V41.2817Z" fill="#FD009C"/>
<path fill-rule="evenodd" clip-rule="evenodd" d="M25.8932 39.3318H-4.94922V39.8644H25.8932V39.3318Z" fill="#FD009C"/>
<path fill-rule="evenodd" clip-rule="evenodd" d="M237.163 44.9438H-4.94922V45.5716H237.163V44.9438Z" fill="#FD009C"/>
<path fill-rule="evenodd" clip-rule="evenodd" d="M279.412 44.9438H263.867V45.4765H279.412V44.9438Z" fill="#FD009C"/>
<path fill-rule="evenodd" clip-rule="evenodd" d="M484.567 54.6465H368.305V55.4169H484.567V54.6465Z" fill="#FD009C"/>
<path fill-rule="evenodd" clip-rule="evenodd" d="M330.827 54.6465H307.871V55.4169H330.827V54.6465Z" fill="#FD009C"/>
<path fill-rule="evenodd" clip-rule="evenodd" d="M368.598 54.6465H330.582V55.4169H368.598V54.6465Z" fill="#FD009C"/>
<path fill-rule="evenodd" clip-rule="evenodd" d="M281.36 54.6465H263.867V55.4169H281.36V54.6465Z" fill="#FD009C"/>
<path fill-rule="evenodd" clip-rule="evenodd" d="M307.066 55.4169H308.169V54.6465H307.066V55.4169Z" fill="#FD009C"/>
<path fill-rule="evenodd" clip-rule="evenodd" d="M237.163 78.0454H-4.94922V78.7683H237.163V78.0454Z" fill="#FD009C"/>
<path fill-rule="evenodd" clip-rule="evenodd" d="M282.168 78.0454H263.867V78.8158H282.168V78.0454Z" fill="#FD009C"/>
<path fill-rule="evenodd" clip-rule="evenodd" d="M307.066 78.8158H308.169V78.0454H307.066V78.8158Z" fill="#FD009C"/>
<path fill-rule="evenodd" clip-rule="evenodd" d="M33.542 78.0454H-4.94922V78.6732H33.542V78.0454Z" fill="#FD009C"/>
<path fill-rule="evenodd" clip-rule="evenodd" d="M264.446 83.8003H150.844V84.761H264.446V83.8003Z" fill="#FD009C"/>
<path fill-rule="evenodd" clip-rule="evenodd" d="M304.829 83.9902H263.867V84.618H304.829V83.9902Z" fill="#FD009C"/>
<path fill-rule="evenodd" clip-rule="evenodd" d="M618.539 83.895H330.582V84.618H618.539V83.895Z" fill="#FD009C"/>
<path fill-rule="evenodd" clip-rule="evenodd" d="M580.678 83.895H368.781V84.618H580.678V83.895Z" fill="#FD009C"/>
<path fill-rule="evenodd" clip-rule="evenodd" d="M378.053 83.895H366.832V84.618H378.053V83.895Z" fill="#FD009C"/>
<path fill-rule="evenodd" clip-rule="evenodd" d="M394.679 83.895H383.458V84.618H394.679V83.895Z" fill="#FD009C"/>
<path fill-rule="evenodd" clip-rule="evenodd" d="M427.888 83.895H416.762V84.618H427.888V83.895Z" fill="#FD009C"/>
<path fill-rule="evenodd" clip-rule="evenodd" d="M462.906 84.618H465.006V83.895H462.906V84.618Z" fill="#FD009C"/>
<path fill-rule="evenodd" clip-rule="evenodd" d="M474.879 84.618H476.979V83.895H474.879V84.618Z" fill="#FD009C"/>
<path fill-rule="evenodd" clip-rule="evenodd" d="M581.071 83.895H569.992V84.618H581.071V83.895Z" fill="#56CDF2"/>
<path fill-rule="evenodd" clip-rule="evenodd" d="M589.136 84.618H591.236V83.895H589.136V84.618Z" fill="#56CDF2"/>
<path fill-rule="evenodd" clip-rule="evenodd" d="M636.717 83.895H625.495V84.618H636.717V83.895Z" fill="#56CDF2"/>
<path fill-rule="evenodd" clip-rule="evenodd" d="M644.739 84.618H646.839V83.895H644.739V84.618Z" fill="#56CDF2"/>
<path fill-rule="evenodd" clip-rule="evenodd" d="M264.165 83.9429H151.133V84.3804H264.165V83.9429Z" fill="#56CDF2"/>
<path fill-rule="evenodd" clip-rule="evenodd" d="M304.829 83.8955H263.867V84.2855H304.829V83.8955Z" fill="#FD009C"/>
<path fill-rule="evenodd" clip-rule="evenodd" d="M348.074 83.8955H330.582V84.2855H348.074V83.8955Z" fill="#FD009C"/>
<path fill-rule="evenodd" clip-rule="evenodd" d="M367.313 83.8955H347.777V84.2855H367.313V83.8955Z" fill="#FD009C"/>
<path fill-rule="evenodd" clip-rule="evenodd" d="M366.973 84.3804H368.597V83.9429H366.973V84.3804Z" fill="#FD009C"/>
<path fill-rule="evenodd" clip-rule="evenodd" d="M124.565 83.8003H-5V84.761H124.565V83.8003Z" fill="#FD009C"/>
<path fill-rule="evenodd" clip-rule="evenodd" d="M49.074 83.8003H-5V84.761H49.074V83.8003Z" fill="#FD009C"/>
<path fill-rule="evenodd" clip-rule="evenodd" d="M71.5955 59.3071H64.8398V59.9349H71.5955V59.3071Z" fill="#FD009C"/>
<path fill-rule="evenodd" clip-rule="evenodd" d="M49.074 84.0386H-5V84.7615H49.074V84.0386Z" fill="#FD009C"/>
<path fill-rule="evenodd" clip-rule="evenodd" d="M96.0155 4.42285H-4.94922V5.2409H96.0155V4.42285Z" fill="#FD009C"/>
<path fill-rule="evenodd" clip-rule="evenodd" d="M266.951 4.32812H95.7695V5.28885H266.951V4.32812Z" fill="#FD009C"/>
<path fill-rule="evenodd" clip-rule="evenodd" d="M149.7 31.3423H-4.94922V32.2079H149.7V31.3423Z" fill="#FD009C"/>
<path fill-rule="evenodd" clip-rule="evenodd" d="M160.532 59.6401H-4.94922V60.0301H160.532V59.6401Z" fill="#56CDF2"/>
<path fill-rule="evenodd" clip-rule="evenodd" d="M389.454 114.904H330.582V118.053H389.454V114.904Z" fill="#56CDF2"/>
</svg>
