<svg width="284" height="16" viewBox="0 0 284 16" fill="none" xmlns="http://www.w3.org/2000/svg">
<path fill-rule="evenodd" clip-rule="evenodd" d="M0.594116 14.9881H12.2907V0.758301H0.594116V14.9881Z" fill="#56CDF2"/>
<path fill-rule="evenodd" clip-rule="evenodd" d="M17.125 15.5589H28.9165V0.758301H17.125V15.5589Z" fill="#56CDF2"/>
<path fill-rule="evenodd" clip-rule="evenodd" d="M50.4304 15.5589H62.127V0.758301H50.4304V15.5589Z" fill="#56CDF2"/>
<path fill-rule="evenodd" clip-rule="evenodd" d="M93.3906 15.32H101.999V0.662109H93.3906V15.32Z" fill="#56CDF2"/>
<path fill-rule="evenodd" clip-rule="evenodd" d="M105.363 15.32H113.972V0.662109H105.363V15.32Z" fill="#56CDF2"/>
<path fill-rule="evenodd" clip-rule="evenodd" d="M203.659 15.5589H215.308V0.758301H203.659V15.5589Z" fill="#56CDF2"/>
<path fill-rule="evenodd" clip-rule="evenodd" d="M219.718 15.32H228.184V0.662109H219.718V15.32Z" fill="#56CDF2"/>
<path fill-rule="evenodd" clip-rule="evenodd" d="M259.164 15.5589H270.956V0.758301H259.164V15.5589Z" fill="#56CDF2"/>
<path fill-rule="evenodd" clip-rule="evenodd" d="M275.223 15.32H283.832V0.662109H275.223V15.32Z" fill="#56CDF2"/>
<path fill-rule="evenodd" clip-rule="evenodd" d="M0.972656 5.23736H2.59744V2.65967H0.972656V5.23736Z" fill="#56CDF2"/>
</svg>
