<svg width="253" height="8" viewBox="0 0 253 8" fill="none" xmlns="http://www.w3.org/2000/svg">
<path d="M2.22969 1.62214C2.0662 1.69238 1.80493 1.77833 1.44661 1.87959C1.08829 1.98085 0.788197 2.04698 0.547078 2.07837L0.430237 1.52872C0.819909 1.44316 1.20922 1.30266 1.59852 1.10761C1.98819 0.912567 2.323 0.694351 2.60368 0.452597H2.61524L3.17586 0.569551V7.26022L4.70656 7.35326V7.85657H0.6639V7.35326L2.22969 7.26022V1.62214Z" fill="#FFD129"/>
<path d="M14.5686 1.62214C14.4055 1.69238 14.1446 1.77833 13.7863 1.87959C13.4276 1.98085 13.1279 2.04698 12.8867 2.07837L12.7695 1.52872C13.1588 1.44316 13.5485 1.30266 13.9382 1.10761C14.3275 0.912567 14.6623 0.694351 14.943 0.452597H14.9545L15.5152 0.569551V7.26022L17.0459 7.35326V7.85657H13.0036V7.35326L14.5686 7.26022V1.62214Z" fill="#FFD129"/>
<path d="M53.1235 6.58212C53.4351 6.02052 53.5908 5.23697 53.5908 4.23109C53.5908 2.08707 52.9604 1.01469 51.6984 1.01469C51.0284 1.01469 50.5339 1.28334 50.2144 1.82178C49.8952 2.35984 49.7355 3.10827 49.7355 4.06743C49.7355 5.01876 49.8889 5.81576 50.1968 6.45919C50.5048 7.10262 50.9896 7.42434 51.6517 7.42434C52.3214 7.42434 52.8118 7.14373 53.1235 6.58212ZM49.4197 6.8859C48.9524 6.16886 48.7188 5.27583 48.7188 4.20755C48.7188 3.47482 48.8554 2.82578 49.1278 2.26007C49.4003 1.69511 49.7687 1.25644 50.2323 0.944439C50.6955 0.632439 51.2076 0.476624 51.7682 0.476624C52.7887 0.476624 53.5187 0.807682 53.9592 1.47092C54.3989 2.13378 54.6194 3.01859 54.6194 4.12573C54.6194 4.85099 54.4888 5.506 54.2279 6.09077C53.967 6.67554 53.6083 7.13364 53.1529 7.46507C52.6972 7.79687 52.1851 7.9624 51.6167 7.9624C50.6193 7.9624 49.8874 7.60369 49.4197 6.8859Z" fill="#FFD129"/>
<path d="M58.803 1.62202C58.6399 1.69226 58.3782 1.7782 58.0199 1.87946C57.662 1.98072 57.3622 2.04686 57.1204 2.07825L57.0039 1.5286C57.3932 1.44304 57.7825 1.30254 58.1722 1.10749C58.5619 0.912445 58.8967 0.694229 59.177 0.452475H59.1886L59.7492 0.569428V7.26009L61.2803 7.35313V7.85645H57.2376V7.35313L58.803 7.26009V1.62202Z" fill="#FFD129"/>
<path d="M76.4481 6.58212C76.7594 6.02052 76.9154 5.23697 76.9154 4.23109C76.9154 2.08707 76.2842 1.01469 75.0226 1.01469C74.3523 1.01469 73.8581 1.28334 73.5386 1.82178C73.2191 2.35984 73.0593 3.10827 73.0593 4.06743C73.0593 5.01876 73.2135 5.81576 73.521 6.45919C73.829 7.10262 74.3138 7.42434 74.976 7.42434C75.6456 7.42434 76.1364 7.14373 76.4481 6.58212ZM72.7443 6.8859C72.277 6.16886 72.043 5.27583 72.043 4.20755C72.043 3.47482 72.1796 2.82578 72.4521 2.26007C72.7245 1.69511 73.0929 1.25644 73.5561 0.944439C74.0197 0.632439 74.5318 0.476624 75.0924 0.476624C76.1129 0.476624 76.843 0.807682 77.2834 1.47092C77.7235 2.13378 77.9433 3.01859 77.9433 4.12573C77.9433 4.85099 77.8131 5.506 77.5518 6.09077C77.2913 6.67554 76.9329 7.13364 76.4772 7.46507C76.0215 7.79687 75.509 7.9624 74.9409 7.9624C73.9439 7.9624 73.2116 7.60369 72.7443 6.8859Z" fill="#FFD129"/>
<path d="M117.698 1.62189C117.534 1.69214 117.273 1.77808 116.915 1.87934C116.557 1.9806 116.257 2.04674 116.015 2.07812L115.899 1.52848C116.288 1.44291 116.677 1.30242 117.067 1.10737C117.457 0.912323 117.791 0.694107 118.072 0.452353H118.084L118.644 0.569306V7.25997L120.175 7.35301V7.85632H116.133V7.35301L117.698 7.25997V1.62189Z" fill="#FFD129"/>
<path d="M139.101 6.582C139.413 6.0204 139.569 5.23685 139.569 4.23097C139.569 2.08695 138.937 1.01456 137.675 1.01456C137.006 1.01456 136.511 1.28322 136.192 1.82166C135.872 2.35972 135.713 3.10814 135.713 4.06731C135.713 5.01863 135.866 5.81564 136.174 6.45907C136.482 7.1025 136.967 7.42422 137.629 7.42422C138.299 7.42422 138.789 7.1436 139.101 6.582ZM135.397 6.88578C134.93 6.16874 134.696 5.27571 134.696 4.20743C134.696 3.4747 134.832 2.82566 135.105 2.25995C135.377 1.69499 135.746 1.25632 136.21 0.944317C136.673 0.632317 137.185 0.476502 137.746 0.476502C138.766 0.476502 139.496 0.807559 139.937 1.47079C140.376 2.13366 140.597 3.01847 140.597 4.1256C140.597 4.85087 140.466 5.50588 140.205 6.09065C139.944 6.67541 139.586 7.13351 139.13 7.46495C138.674 7.79675 138.162 7.96228 137.594 7.96228C136.597 7.96228 135.865 7.60357 135.397 6.88578Z" fill="#FFD129"/>
<path d="M147.679 6.582C147.991 6.0204 148.146 5.23685 148.146 4.23097C148.146 2.08695 147.515 1.01456 146.254 1.01456C145.584 1.01456 145.089 1.28322 144.77 1.82166C144.45 2.35972 144.291 3.10814 144.291 4.06731C144.291 5.01863 144.444 5.81564 144.752 6.45907C145.06 7.1025 145.545 7.42422 146.207 7.42422C146.876 7.42422 147.367 7.1436 147.679 6.582ZM143.976 6.88578C143.508 6.16874 143.274 5.27571 143.274 4.20743C143.274 3.4747 143.41 2.82566 143.683 2.25995C143.956 1.69499 144.324 1.25632 144.787 0.944317C145.251 0.632317 145.763 0.476502 146.323 0.476502C147.344 0.476502 148.074 0.807559 148.514 1.47079C148.954 2.13366 149.175 3.01847 149.175 4.1256C149.175 4.85087 149.044 5.50588 148.783 6.09065C148.522 6.67541 148.164 7.13351 147.708 7.46495C147.252 7.79675 146.74 7.96228 146.172 7.96228C145.174 7.96228 144.443 7.60357 143.976 6.88578Z" fill="#FFD129"/>
<path d="M164.83 6.58212C165.142 6.02052 165.298 5.23697 165.298 4.23109C165.298 2.08707 164.667 1.01469 163.405 1.01469C162.735 1.01469 162.24 1.28334 161.921 1.82178C161.601 2.35984 161.442 3.10827 161.442 4.06743C161.442 5.01876 161.596 5.81576 161.903 6.45919C162.211 7.10262 162.696 7.42434 163.358 7.42434C164.028 7.42434 164.518 7.14373 164.83 6.58212ZM161.127 6.8859C160.659 6.16886 160.426 5.27583 160.426 4.20755C160.426 3.47482 160.562 2.82578 160.834 2.26007C161.107 1.69511 161.475 1.25644 161.939 0.944439C162.402 0.632439 162.915 0.476624 163.475 0.476624C164.495 0.476624 165.225 0.807682 165.666 1.47092C166.106 2.13378 166.326 3.01859 166.326 4.12573C166.326 4.85099 166.195 5.506 165.935 6.09077C165.673 6.67554 165.315 7.13364 164.86 7.46507C164.404 7.79687 163.891 7.9624 163.323 7.9624C162.326 7.9624 161.594 7.60369 161.127 6.8859Z" fill="#FFD129"/>
<path d="M170.51 1.62202C170.347 1.69226 170.086 1.7782 169.727 1.87946C169.369 1.98072 169.069 2.04686 168.828 2.07825L168.711 1.5286C169.1 1.44304 169.49 1.30254 169.879 1.10749C170.269 0.912445 170.603 0.694229 170.884 0.452475H170.896L171.457 0.569428V7.26009L172.987 7.35313V7.85645H168.945V7.35313L170.51 7.26009V1.62202Z" fill="#FFD129"/>
<path d="M176.677 1.62189C176.513 1.69214 176.252 1.77808 175.894 1.87934C175.536 1.9806 175.236 2.04674 174.994 2.07812L174.878 1.52848C175.267 1.44291 175.657 1.30242 176.046 1.10737C176.436 0.912323 176.77 0.694107 177.051 0.452353H177.063L177.623 0.569306V7.25997L179.154 7.35301V7.85632H175.111V7.35301L176.677 7.25997V1.62189Z" fill="#FFD129"/>
<path d="M229.975 6.58212C230.288 6.02052 230.441 5.23697 230.441 4.23109C230.441 2.08707 229.81 1.01469 228.549 1.01469C227.881 1.01469 227.384 1.28334 227.067 1.82178C226.746 2.35984 226.586 3.10827 226.586 4.06743C226.586 5.01876 226.742 5.81576 227.048 6.45919C227.354 7.10262 227.84 7.42434 228.504 7.42434C229.172 7.42434 229.665 7.14373 229.975 6.58212ZM226.272 6.8859C225.805 6.16886 225.57 5.27583 225.57 4.20755C225.57 3.47482 225.708 2.82578 225.981 2.26007C226.253 1.69511 226.619 1.25644 227.082 0.944439C227.549 0.632439 228.06 0.476624 228.62 0.476624C229.639 0.476624 230.37 0.807682 230.811 1.47092C231.251 2.13378 231.471 3.01859 231.471 4.12573C231.471 4.85099 231.341 5.506 231.079 6.09077C230.818 6.67554 230.46 7.13364 230.004 7.46507C229.549 7.79687 229.038 7.9624 228.467 7.9624C227.47 7.9624 226.739 7.60369 226.272 6.8859Z" fill="#FFD129"/>
<path d="M235.655 1.62202C235.494 1.69226 235.233 1.7782 234.874 1.87946C234.516 1.98072 234.214 2.04686 233.975 2.07825L233.855 1.5286C234.247 1.44304 234.636 1.30254 235.024 1.10749C235.416 0.912445 235.748 0.694229 236.031 0.452475H236.043L236.603 0.569428V7.26009L238.133 7.35313V7.85645H234.091V7.35313L235.655 7.26009V1.62202Z" fill="#FFD129"/>
<path d="M244.721 6.58212C245.034 6.02052 245.191 5.23697 245.191 4.23109C245.191 2.08707 244.56 1.01469 243.299 1.01469C242.627 1.01469 242.134 1.28334 241.813 1.82178C241.496 2.35984 241.335 3.10827 241.335 4.06743C241.335 5.01876 241.488 5.81576 241.795 6.45919C242.104 7.10262 242.59 7.42434 243.25 7.42434C243.918 7.42434 244.411 7.14373 244.721 6.58212ZM241.018 6.8859C240.552 6.16886 240.316 5.27583 240.316 4.20755C240.316 3.47482 240.455 2.82578 240.727 2.26007C240.999 1.69511 241.369 1.25644 241.832 0.944439C242.295 0.632439 242.806 0.476624 243.366 0.476624C244.389 0.476624 245.116 0.807682 245.557 1.47092C245.997 2.13378 246.218 3.01859 246.218 4.12573C246.218 4.85099 246.087 5.506 245.826 6.09077C245.564 6.67554 245.206 7.13364 244.751 7.46507C244.295 7.79687 243.784 7.9624 243.217 7.9624C242.22 7.9624 241.485 7.60369 241.018 6.8859Z" fill="#FFD129"/>
<path d="M250.396 1.56769C250.232 1.63794 249.971 1.72388 249.613 1.82514C249.254 1.9264 248.956 1.99254 248.713 2.02393L248.597 1.47428C248.986 1.38871 249.374 1.24822 249.766 1.05317C250.154 0.858123 250.49 0.639908 250.77 0.398153H250.781L251.341 0.515107V7.20577L252.871 7.29881V7.80212H248.829V7.29881L250.396 7.20577V1.56769Z" fill="#FFD129"/>
</svg>
