<svg width="26" height="23" viewBox="0 0 26 23" fill="none" xmlns="http://www.w3.org/2000/svg">
<path fill-rule="evenodd" clip-rule="evenodd" d="M3 0C1.34315 0 0 1.34314 0 3V15.3529C0 17.0098 1.34315 18.3529 3 18.3529H11.8444V20.3921C11.8444 20.3921 7.40942 20.834 6.64385 21.0889C5.87828 21.3438 5.77716 22.5333 5.77716 22.5333H20.2232C20.2232 22.5333 20.2967 21.9216 19.8822 21.4117C19.4677 20.9019 14.1555 20.3921 14.1555 20.3921V18.3529H23C24.6569 18.3529 26 17.0098 26 15.3529V3C26 1.34315 24.6569 0 23 0H3ZM24.8443 1.15543H1.15543V16.1777H24.8443V1.15543ZM11.8872 12.592H10.9373L14.5697 3.14671H15.5136L11.8872 12.592ZM6.18179 7.99781L9.92168 9.5093V10.6803L5.03473 8.41601V7.54377L9.92168 5.28549V6.45645L6.18179 7.99781ZM16.6726 6.41463L20.6216 7.96197L16.6726 9.52722V10.6743L21.7746 8.41004V7.53779L16.6726 5.27952V6.41463Z" fill="#FFD129"/>
</svg>
