<svg width="40" height="40" viewBox="0 0 40 40" fill="none" xmlns="http://www.w3.org/2000/svg">
<path d="M29.0432 11.8183L25.4959 29.2055C25.4959 29.2055 25.3434 30.0001 24.3169 30.0001C23.7714 30.0001 23.4902 29.751 23.4902 29.751L15.8065 23.6301L12.047 21.811L7.22218 20.5792C7.22218 20.5792 6.36328 20.341 6.36328 19.6592C6.36328 19.091 7.2468 18.8201 7.2468 18.8201L27.4324 11.1219C27.4324 11.1219 28.0489 10.9083 28.4987 10.9092C28.7752 10.9092 29.0906 11.0228 29.0906 11.3637C29.0906 11.591 29.0432 11.8183 29.0432 11.8183Z" fill="white"/>
<path d="M18.1832 25.9188L15.0632 28.9819C15.0632 28.9819 14.9275 29.0863 14.7463 29.0908C14.6835 29.0926 14.6161 29.0826 14.5469 29.0518L15.4248 23.6365L18.1832 25.9188Z" fill="#92999D"/>
<path d="M25.3529 14.724C25.1883 14.5234 24.8844 14.487 24.6701 14.6392L11.8164 21.8377C11.8164 21.8377 13.8678 27.2085 14.1804 28.1383C14.4941 29.069 14.7454 29.0909 14.7454 29.0909L15.6844 23.6535L25.2613 15.3621C25.4756 15.2098 25.5156 14.9245 25.3529 14.724Z" fill="#B7BDBF"/>
<circle cx="20" cy="20" r="19.5" stroke="white"/>
</svg>
