<svg width="40" height="40" viewBox="0 0 40 40" fill="none" xmlns="http://www.w3.org/2000/svg">
<circle cx="20" cy="20" r="19.5" stroke="white"/>
<path d="M30.9091 13.0362C30.7692 13.3443 30.5089 13.7335 30.1282 14.2038C29.7475 14.674 29.2774 15.0875 28.7179 15.4443C28.7335 15.574 28.7452 15.6956 28.7529 15.8092C28.8133 17.5568 28.4121 19.3701 27.8555 20.8807C26.7766 23.6894 25.1234 25.9498 22.7622 27.4847C20.2999 28.9585 17.4323 29.272 14.7902 29.0049C13.0362 28.7947 11.3074 28.197 10 27.0712C12.3912 27.3694 14.6227 26.5206 16.3869 25.1496C14.4272 25.2013 13.0033 23.722 12.331 22.0118C12.6341 22.0947 12.9511 22.0847 13.2401 22.0604C13.5958 22.0256 13.9335 21.9907 14.2658 21.9145C13.0161 21.4938 11.9227 20.7204 11.352 19.5551C11.0172 18.8167 10.8661 18.1135 10.8625 17.3172C11.448 17.6389 12.1524 17.9525 12.7972 17.9253C11.8234 17.0645 11.0426 15.9643 10.8975 14.7024C10.8058 13.6503 11.0581 12.6898 11.422 11.7957C12.8787 13.4663 14.5133 14.8412 16.3986 15.6875C17.688 16.2385 18.9737 16.5331 20.3031 16.5388C20.1496 15.2998 20.2689 14.1015 20.8276 13.0848C21.485 11.9917 22.4441 11.3576 23.5199 11.0416C25.0591 10.6297 26.5603 11.2115 27.5059 12.3308C28.5256 12.2158 29.5024 11.7438 30.2798 11.2605C29.9495 12.3044 29.3062 13.3422 28.3684 13.8389C29.2613 13.6663 30.1134 13.3905 30.9091 13.0362Z" fill="white"/>
</svg>
