<svg width="29" height="27" viewBox="0 0 29 27" fill="none" xmlns="http://www.w3.org/2000/svg">
<g filter="url(#filter0_d_4_144)">
<path d="M23.6232 11.4651C23.5845 11.3496 23.4819 11.2653 23.3584 11.2478L17.4297 10.4089L14.7783 5.17806C14.7233 5.06893 14.6092 5 14.4847 5C14.3601 5 14.2458 5.06893 14.191 5.17806L11.5393 10.4092L5.61063 11.2481C5.48707 11.2657 5.38482 11.3496 5.34582 11.4654C5.30748 11.5806 5.33927 11.7076 5.42874 11.7922L9.7191 15.864L8.70607 21.6136C8.6851 21.7333 8.73557 21.8542 8.83618 21.9257C8.93745 21.9978 9.0715 22.0071 9.18129 21.95L14.4847 19.2357L19.7874 21.95C19.8352 21.9745 19.888 21.9867 19.9401 21.9867C20.008 21.9867 20.0755 21.9662 20.1328 21.9257C20.2338 21.8542 20.2842 21.7333 20.2629 21.6136L19.2502 15.8643L23.5406 11.7922C23.6297 11.707 23.6619 11.5803 23.6232 11.4651Z" fill="url(#paint0_linear_4_144)"/>
</g>
<defs>
<filter id="filter0_d_4_144" x="0.329834" y="0" width="28.3096" height="26.9871" filterUnits="userSpaceOnUse" color-interpolation-filters="sRGB">
<feFlood flood-opacity="0" result="BackgroundImageFix"/>
<feColorMatrix in="SourceAlpha" type="matrix" values="0 0 0 0 0 0 0 0 0 0 0 0 0 0 0 0 0 0 127 0" result="hardAlpha"/>
<feOffset/>
<feGaussianBlur stdDeviation="2.5"/>
<feComposite in2="hardAlpha" operator="out"/>
<feColorMatrix type="matrix" values="0 0 0 0 0.94902 0 0 0 0 0.815686 0 0 0 0 0.388235 0 0 0 0.36 0"/>
<feBlend mode="normal" in2="BackgroundImageFix" result="effect1_dropShadow_4_144"/>
<feBlend mode="normal" in="SourceGraphic" in2="effect1_dropShadow_4_144" result="shape"/>
</filter>
<linearGradient id="paint0_linear_4_144" x1="9.39848" y1="7.05555" x2="18.7123" y2="21.1523" gradientUnits="userSpaceOnUse">
<stop stop-color="#F2D063"/>
<stop offset="1" stop-color="#F8AE2E"/>
</linearGradient>
</defs>
</svg>
