<svg width="10" height="16" viewBox="0 0 10 16" fill="none" xmlns="http://www.w3.org/2000/svg">
<path d="M7.79289 15.7071C8.18342 16.0976 8.81658 16.0976 9.20711 15.7071C9.59763 15.3166 9.59763 14.6834 9.20711 14.2929L7.79289 15.7071ZM1.5 8L0.792893 7.29289C0.402369 7.68342 0.402369 8.31658 0.792893 8.70711L1.5 8ZM9.20711 1.70711C9.59763 1.31658 9.59763 0.683417 9.20711 0.292893C8.81658 -0.0976311 8.18342 -0.0976311 7.79289 0.292893L9.20711 1.70711ZM9.20711 14.2929L2.20711 7.29289L0.792893 8.70711L7.79289 15.7071L9.20711 14.2929ZM2.20711 8.70711L9.20711 1.70711L7.79289 0.292893L0.792893 7.29289L2.20711 8.70711Z" fill="#010D14"/>
</svg>
